<svg width="24" height="25" viewBox="0 0 24 25" fill="none" xmlns="http://www.w3.org/2000/svg">
<path d="M15.6497 2.08472C16.0742 2.08372 16.4099 2.41356 16.4109 2.85334L16.4119 3.60296C19.1665 3.81885 20.9862 5.69591 20.9891 8.57447L21 17.0003C21.0039 20.1387 19.0322 22.0697 15.8718 22.0747L8.15189 22.0847C5.0112 22.0887 3.01482 20.1117 3.01087 16.9643L3.00001 8.63744C2.99606 5.73989 4.75153 3.86783 7.50618 3.61495L7.50519 2.86533C7.5042 2.42555 7.83002 2.09472 8.26445 2.09472C8.69887 2.09372 9.02469 2.42355 9.02568 2.86333L9.02666 3.56298L14.8914 3.55498L14.8904 2.85534C14.8894 2.41556 15.2152 2.08572 15.6497 2.08472ZM16.0525 16.2766H16.0426C15.5884 16.2876 15.2241 16.6684 15.234 17.1282C15.235 17.588 15.6013 17.9668 16.0555 17.9768C16.5185 17.9758 16.8937 17.595 16.8927 17.1252C16.8927 16.6554 16.5165 16.2766 16.0525 16.2766ZM7.91691 16.2776C7.46274 16.2976 7.1073 16.6784 7.10828 17.1382C7.12902 17.598 7.5042 17.9578 7.95837 17.9368C8.40366 17.9168 8.75811 17.536 8.73738 17.0762C8.7275 16.6264 8.3612 16.2766 7.91691 16.2776ZM11.9847 16.2726C11.5305 16.2936 11.1761 16.6734 11.1761 17.1332C11.1968 17.593 11.572 17.9518 12.0262 17.9318C12.4705 17.9108 12.8259 17.531 12.8052 17.0702C12.7953 16.6214 12.429 16.2716 11.9847 16.2726ZM7.91197 12.6794C7.4578 12.6994 7.10335 13.0802 7.10433 13.54C7.12408 13.9998 7.50025 14.3596 7.95442 14.3386C8.39872 14.3186 8.75317 13.9378 8.73244 13.478C8.72257 13.0282 8.35725 12.6784 7.91197 12.6794ZM11.9807 12.6444C11.5266 12.6644 11.1711 13.0452 11.1721 13.505C11.1919 13.9648 11.568 14.3236 12.0222 14.3036C12.4665 14.2826 12.821 13.9028 12.8012 13.443C12.7904 12.9933 12.425 12.6434 11.9807 12.6444ZM16.0485 12.6494C15.5944 12.6594 15.2389 13.0292 15.2399 13.489V13.5C15.2498 13.9598 15.625 14.3086 16.0801 14.2986C16.5244 14.2876 16.8789 13.9068 16.869 13.447C16.8483 13.0073 16.4918 12.6484 16.0485 12.6494ZM14.8934 5.09421L9.02864 5.10221L9.02962 5.9108C9.02962 6.34159 8.70479 6.68142 8.27037 6.68142C7.83595 6.68242 7.50914 6.34359 7.50914 5.9128L7.50815 5.14319C5.58286 5.33609 4.51754 6.46753 4.52049 8.63544L4.52149 8.94628L19.4696 8.92629V8.57647C19.4272 6.42755 18.349 5.30011 16.4138 5.13219L16.4148 5.90181C16.4148 6.33159 16.0801 6.67242 15.6556 6.67242C15.2212 6.67342 14.8944 6.33359 14.8944 5.90381L14.8934 5.09421Z" fill="#AAB0FE"/>
</svg>
