<svg width="32" height="32" viewBox="0 0 32 32" fill="none" xmlns="http://www.w3.org/2000/svg">
<path fill-rule="evenodd" clip-rule="evenodd" d="M16 2.66675C23.352 2.66675 29.3334 8.64808 29.3334 16.0001C29.3334 23.3521 23.352 29.3334 16 29.3334C8.64802 29.3334 2.66669 23.3521 2.66669 16.0001C2.66669 8.64808 8.64802 2.66675 16 2.66675ZM16 4.66675C9.75069 4.66675 4.66669 9.75075 4.66669 16.0001C4.66669 22.2494 9.75069 27.3334 16 27.3334C22.2494 27.3334 27.3334 22.2494 27.3334 16.0001C27.3334 9.75075 22.2494 4.66675 16 4.66675ZM15.5483 9.46061C16.1016 9.46061 16.5483 9.90861 16.5483 10.4606V16.3566L21.0883 19.0633C21.5616 19.3473 21.7176 19.9606 21.435 20.4353C21.247 20.7486 20.915 20.9233 20.575 20.9233C20.4003 20.9233 20.2243 20.8779 20.063 20.7833L15.0363 17.7846C14.735 17.6033 14.5483 17.2766 14.5483 16.9246V10.4606C14.5483 9.90861 14.9963 9.46061 15.5483 9.46061Z" fill="white"/>
</svg>
