<svg width="32" height="32" viewBox="0 0 32 32" fill="none" xmlns="http://www.w3.org/2000/svg">
<path fill-rule="evenodd" clip-rule="evenodd" d="M21.7787 2.66675C26.2973 2.66675 29.3333 5.83741 29.3333 10.5547V21.4454C29.3333 26.1627 26.2973 29.3334 21.7773 29.3334H10.22C5.70132 29.3334 2.66666 26.1627 2.66666 21.4454V10.5547C2.66666 5.83741 5.70132 2.66675 10.22 2.66675H21.7787ZM21.7787 4.66675H10.22C6.84666 4.66675 4.66666 6.97741 4.66666 10.5547V21.4454C4.66666 25.0227 6.84666 27.3334 10.22 27.3334H21.7773C25.152 27.3334 27.3333 25.0227 27.3333 21.4454V10.5547C27.3333 6.97741 25.152 4.66675 21.7787 4.66675ZM13.5073 12.0835L15.9973 14.5734L18.486 12.0863C18.8767 11.6957 19.5087 11.6957 19.8993 12.0863C20.29 12.477 20.29 13.109 19.8993 13.4997L17.4107 15.9867L19.902 18.4795C20.2927 18.8702 20.2927 19.5022 19.902 19.8929C19.7073 20.0889 19.45 20.1862 19.1953 20.1862C18.9393 20.1862 18.6833 20.0889 18.4887 19.8929L15.9973 17.4001L13.51 19.889C13.3153 20.085 13.0593 20.1823 12.8033 20.1823C12.5473 20.1823 12.2913 20.085 12.0967 19.889C11.706 19.4983 11.706 18.8663 12.0967 18.4757L14.584 15.9867L12.094 13.4969C11.7033 13.1062 11.7033 12.4742 12.094 12.0835C12.486 11.6929 13.118 11.6929 13.5073 12.0835Z" fill="white"/>
</svg>
