<svg width="100%" height="100%" viewBox="0 0 583 267" fill="none" xmlns="http://www.w3.org/2000/svg">
<g filter="url(#filter0_b_440_20)">
<path d="M0 21C0 9.40204 9.40202 0 21 0H562C573.598 0 583 9.40202 583 21V216.862C583 228.46 573.598 237.862 562 237.862H320.615C312.852 237.862 305.721 242.145 302.075 249L292.5 267L281.119 248.05C277.322 241.729 270.489 237.862 263.116 237.862H21C9.40202 237.862 0 228.46 0 216.862V21Z" fill="white" fill-opacity="0.2"/>
<path d="M0 21C0 9.40204 9.40202 0 21 0H562C573.598 0 583 9.40202 583 21V216.862C583 228.46 573.598 237.862 562 237.862H320.615C312.852 237.862 305.721 242.145 302.075 249L292.5 267L281.119 248.05C277.322 241.729 270.489 237.862 263.116 237.862H21C9.40202 237.862 0 228.46 0 216.862V21Z" fill="#0B133B"/>
<path d="M21 0.5H562C573.322 0.5 582.5 9.67816 582.5 21V216.862C582.5 228.184 573.322 237.362 562 237.362H320.615C312.667 237.362 305.367 241.747 301.634 248.765L292.474 265.985L281.547 247.792C277.661 241.321 270.665 237.362 263.116 237.362H21C9.67816 237.362 0.5 228.184 0.5 216.862V21C0.5 9.67818 9.67816 0.5 21 0.5Z" stroke="#F5F2F8" stroke-opacity="0.25"/>
</g>
<path d="M214.1 40.424C213.988 40.312 213.78 40.16 213.476 39.968C213.188 39.776 212.828 39.592 212.396 39.416C211.98 39.24 211.524 39.088 211.028 38.96C210.532 38.816 210.028 38.744 209.516 38.744C208.62 38.744 207.94 38.912 207.476 39.248C207.028 39.584 206.804 40.056 206.804 40.664C206.804 41.128 206.948 41.496 207.236 41.768C207.524 42.04 207.956 42.272 208.532 42.464C209.108 42.656 209.828 42.864 210.692 43.088C211.812 43.36 212.78 43.696 213.596 44.096C214.428 44.48 215.06 44.992 215.492 45.632C215.94 46.256 216.164 47.088 216.164 48.128C216.164 49.04 215.996 49.824 215.66 50.48C215.324 51.12 214.86 51.64 214.268 52.04C213.676 52.44 213.004 52.736 212.252 52.928C211.5 53.104 210.7 53.192 209.852 53.192C209.004 53.192 208.156 53.104 207.308 52.928C206.46 52.752 205.644 52.504 204.86 52.184C204.076 51.848 203.356 51.448 202.7 50.984L204.164 48.128C204.308 48.272 204.564 48.464 204.932 48.704C205.3 48.928 205.748 49.16 206.276 49.4C206.804 49.624 207.38 49.816 208.004 49.976C208.628 50.136 209.26 50.216 209.9 50.216C210.796 50.216 211.476 50.064 211.94 49.76C212.404 49.456 212.636 49.024 212.636 48.464C212.636 47.952 212.452 47.552 212.084 47.264C211.716 46.976 211.204 46.728 210.548 46.52C209.892 46.296 209.116 46.056 208.22 45.8C207.148 45.496 206.252 45.16 205.532 44.792C204.812 44.408 204.276 43.928 203.924 43.352C203.572 42.776 203.396 42.056 203.396 41.192C203.396 40.024 203.668 39.048 204.212 38.264C204.772 37.464 205.524 36.864 206.468 36.464C207.412 36.048 208.46 35.84 209.612 35.84C210.412 35.84 211.164 35.928 211.868 36.104C212.588 36.28 213.26 36.512 213.884 36.8C214.508 37.088 215.068 37.4 215.564 37.736L214.1 40.424ZM218.355 53V40.424H221.571V53H218.355ZM218.355 38.672V35.48H221.571V38.672H218.355ZM224.448 35.48H227.664V48.968C227.664 49.544 227.76 49.936 227.952 50.144C228.144 50.336 228.408 50.432 228.744 50.432C229 50.432 229.264 50.4 229.536 50.336C229.808 50.272 230.048 50.192 230.256 50.096L230.688 52.544C230.256 52.752 229.752 52.912 229.176 53.024C228.6 53.136 228.08 53.192 227.616 53.192C226.608 53.192 225.824 52.928 225.264 52.4C224.72 51.856 224.448 51.088 224.448 50.096V35.48ZM234.864 53L230.232 40.424H233.568L236.736 50.072L239.928 40.424H242.976L238.368 53H234.864ZM244.675 53V40.424H247.891V53H244.675ZM244.675 38.672V35.48H247.891V38.672H244.675ZM249.928 49.28C249.928 48.464 250.152 47.752 250.6 47.144C251.064 46.52 251.704 46.04 252.52 45.704C253.336 45.368 254.272 45.2 255.328 45.2C255.856 45.2 256.392 45.24 256.936 45.32C257.48 45.4 257.952 45.528 258.352 45.704V45.032C258.352 44.232 258.112 43.616 257.632 43.184C257.168 42.752 256.472 42.536 255.544 42.536C254.856 42.536 254.2 42.656 253.576 42.896C252.952 43.136 252.296 43.488 251.608 43.952L250.576 41.84C251.408 41.296 252.256 40.888 253.12 40.616C254 40.344 254.92 40.208 255.88 40.208C257.672 40.208 259.064 40.656 260.056 41.552C261.064 42.448 261.568 43.728 261.568 45.392V49.4C261.568 49.736 261.624 49.976 261.736 50.12C261.864 50.264 262.064 50.352 262.336 50.384V53C262.048 53.048 261.784 53.088 261.544 53.12C261.32 53.152 261.128 53.168 260.968 53.168C260.328 53.168 259.84 53.024 259.504 52.736C259.184 52.448 258.984 52.096 258.904 51.68L258.832 51.032C258.288 51.736 257.608 52.28 256.792 52.664C255.976 53.048 255.144 53.24 254.296 53.24C253.464 53.24 252.712 53.072 252.04 52.736C251.384 52.384 250.864 51.912 250.48 51.32C250.112 50.712 249.928 50.032 249.928 49.28ZM257.752 49.928C257.928 49.736 258.072 49.544 258.184 49.352C258.296 49.16 258.352 48.984 258.352 48.824V47.552C257.968 47.392 257.552 47.272 257.104 47.192C256.656 47.096 256.232 47.048 255.832 47.048C255 47.048 254.312 47.232 253.768 47.6C253.24 47.952 252.976 48.424 252.976 49.016C252.976 49.336 253.064 49.64 253.24 49.928C253.416 50.216 253.672 50.448 254.008 50.624C254.344 50.8 254.744 50.888 255.208 50.888C255.688 50.888 256.16 50.8 256.624 50.624C257.088 50.432 257.464 50.2 257.752 49.928ZM284.547 53V41.816L280.179 50.144H278.331L273.963 41.816V53H270.651V35.96H274.203L279.243 45.656L284.331 35.96H287.859V53H284.547ZM290.1 49.28C290.1 48.464 290.324 47.752 290.772 47.144C291.236 46.52 291.876 46.04 292.692 45.704C293.508 45.368 294.444 45.2 295.5 45.2C296.028 45.2 296.564 45.24 297.108 45.32C297.652 45.4 298.124 45.528 298.524 45.704V45.032C298.524 44.232 298.284 43.616 297.804 43.184C297.34 42.752 296.644 42.536 295.716 42.536C295.028 42.536 294.372 42.656 293.748 42.896C293.124 43.136 292.468 43.488 291.78 43.952L290.748 41.84C291.58 41.296 292.428 40.888 293.292 40.616C294.172 40.344 295.092 40.208 296.052 40.208C297.844 40.208 299.236 40.656 300.228 41.552C301.236 42.448 301.74 43.728 301.74 45.392V49.4C301.74 49.736 301.796 49.976 301.908 50.12C302.036 50.264 302.236 50.352 302.508 50.384V53C302.22 53.048 301.956 53.088 301.716 53.12C301.492 53.152 301.3 53.168 301.14 53.168C300.5 53.168 300.012 53.024 299.676 52.736C299.356 52.448 299.156 52.096 299.076 51.68L299.004 51.032C298.46 51.736 297.78 52.28 296.964 52.664C296.148 53.048 295.316 53.24 294.468 53.24C293.636 53.24 292.884 53.072 292.212 52.736C291.556 52.384 291.036 51.912 290.652 51.32C290.284 50.712 290.1 50.032 290.1 49.28ZM297.924 49.928C298.1 49.736 298.244 49.544 298.356 49.352C298.468 49.16 298.524 48.984 298.524 48.824V47.552C298.14 47.392 297.724 47.272 297.276 47.192C296.828 47.096 296.404 47.048 296.004 47.048C295.172 47.048 294.484 47.232 293.94 47.6C293.412 47.952 293.148 48.424 293.148 49.016C293.148 49.336 293.236 49.64 293.412 49.928C293.588 50.216 293.844 50.448 294.18 50.624C294.516 50.8 294.916 50.888 295.38 50.888C295.86 50.888 296.332 50.8 296.796 50.624C297.26 50.432 297.636 50.2 297.924 49.928ZM312.233 43.208C311.257 43.208 310.385 43.4 309.617 43.784C308.849 44.152 308.297 44.688 307.961 45.392V53H304.745V40.424H307.697V43.112C308.145 42.248 308.713 41.568 309.401 41.072C310.089 40.576 310.817 40.304 311.585 40.256C311.761 40.256 311.897 40.256 311.993 40.256C312.089 40.256 312.169 40.264 312.233 40.28V43.208ZM318.829 53.072C317.997 53.072 317.229 52.912 316.525 52.592C315.837 52.256 315.237 51.792 314.725 51.2C314.229 50.608 313.845 49.928 313.573 49.16C313.301 48.392 313.165 47.576 313.165 46.712C313.165 45.8 313.309 44.952 313.597 44.168C313.885 43.384 314.285 42.696 314.797 42.104C315.325 41.496 315.941 41.032 316.645 40.712C317.365 40.376 318.157 40.208 319.021 40.208C319.997 40.208 320.853 40.432 321.589 40.88C322.325 41.312 322.933 41.896 323.413 42.632V40.424H326.221V52.4C326.221 53.648 325.917 54.712 325.309 55.592C324.717 56.488 323.893 57.168 322.837 57.632C321.781 58.112 320.581 58.352 319.237 58.352C317.877 58.352 316.725 58.12 315.781 57.656C314.837 57.208 314.029 56.568 313.357 55.736L315.109 54.032C315.589 54.624 316.189 55.088 316.909 55.424C317.645 55.76 318.421 55.928 319.237 55.928C319.925 55.928 320.549 55.8 321.109 55.544C321.685 55.304 322.141 54.92 322.477 54.392C322.829 53.88 323.005 53.216 323.005 52.4V50.816C322.589 51.536 321.997 52.096 321.229 52.496C320.477 52.88 319.677 53.072 318.829 53.072ZM319.909 50.504C320.261 50.504 320.597 50.448 320.917 50.336C321.237 50.224 321.533 50.072 321.805 49.88C322.077 49.688 322.317 49.464 322.525 49.208C322.733 48.936 322.893 48.664 323.005 48.392V45.392C322.813 44.896 322.541 44.464 322.189 44.096C321.853 43.728 321.469 43.448 321.037 43.256C320.621 43.048 320.181 42.944 319.717 42.944C319.221 42.944 318.773 43.048 318.373 43.256C317.973 43.464 317.629 43.76 317.341 44.144C317.053 44.512 316.829 44.928 316.669 45.392C316.525 45.84 316.453 46.312 316.453 46.808C316.453 47.32 316.541 47.8 316.717 48.248C316.893 48.696 317.133 49.088 317.437 49.424C317.757 49.76 318.125 50.024 318.541 50.216C318.973 50.408 319.429 50.504 319.909 50.504ZM328.256 49.28C328.256 48.464 328.48 47.752 328.928 47.144C329.392 46.52 330.032 46.04 330.848 45.704C331.664 45.368 332.6 45.2 333.656 45.2C334.184 45.2 334.72 45.24 335.264 45.32C335.808 45.4 336.28 45.528 336.68 45.704V45.032C336.68 44.232 336.44 43.616 335.96 43.184C335.496 42.752 334.8 42.536 333.872 42.536C333.184 42.536 332.528 42.656 331.904 42.896C331.28 43.136 330.624 43.488 329.936 43.952L328.904 41.84C329.736 41.296 330.584 40.888 331.448 40.616C332.328 40.344 333.248 40.208 334.208 40.208C336 40.208 337.392 40.656 338.384 41.552C339.392 42.448 339.896 43.728 339.896 45.392V49.4C339.896 49.736 339.952 49.976 340.064 50.12C340.192 50.264 340.392 50.352 340.664 50.384V53C340.376 53.048 340.112 53.088 339.872 53.12C339.648 53.152 339.456 53.168 339.296 53.168C338.656 53.168 338.168 53.024 337.832 52.736C337.512 52.448 337.312 52.096 337.232 51.68L337.16 51.032C336.616 51.736 335.936 52.28 335.12 52.664C334.304 53.048 333.472 53.24 332.624 53.24C331.792 53.24 331.04 53.072 330.368 52.736C329.712 52.384 329.192 51.912 328.808 51.32C328.44 50.712 328.256 50.032 328.256 49.28ZM336.08 49.928C336.256 49.736 336.4 49.544 336.512 49.352C336.624 49.16 336.68 48.984 336.68 48.824V47.552C336.296 47.392 335.88 47.272 335.432 47.192C334.984 47.096 334.56 47.048 334.16 47.048C333.328 47.048 332.64 47.232 332.096 47.6C331.568 47.952 331.304 48.424 331.304 49.016C331.304 49.336 331.392 49.64 331.568 49.928C331.744 50.216 332 50.448 332.336 50.624C332.672 50.8 333.072 50.888 333.536 50.888C334.016 50.888 334.488 50.8 334.952 50.624C335.416 50.432 335.792 50.2 336.08 49.928ZM350.39 43.208C349.414 43.208 348.542 43.4 347.773 43.784C347.006 44.152 346.454 44.688 346.118 45.392V53H342.902V40.424H345.854V43.112C346.302 42.248 346.87 41.568 347.558 41.072C348.246 40.576 348.974 40.304 349.742 40.256C349.918 40.256 350.054 40.256 350.15 40.256C350.246 40.256 350.326 40.264 350.39 40.28V43.208ZM352.183 53V40.424H355.399V53H352.183ZM352.183 38.672V35.48H355.399V38.672H352.183ZM365.836 52.352C365.564 52.464 365.236 52.592 364.852 52.736C364.468 52.88 364.052 52.992 363.604 53.072C363.172 53.168 362.732 53.216 362.284 53.216C361.692 53.216 361.148 53.112 360.652 52.904C360.156 52.696 359.756 52.368 359.452 51.92C359.164 51.456 359.02 50.856 359.02 50.12V42.896H357.364V40.424H359.02V36.344H362.236V40.424H364.876V42.896H362.236V49.04C362.252 49.472 362.372 49.784 362.596 49.976C362.82 50.168 363.1 50.264 363.436 50.264C363.772 50.264 364.1 50.208 364.42 50.096C364.74 49.984 364.996 49.888 365.188 49.808L365.836 52.352ZM366.647 49.28C366.647 48.464 366.871 47.752 367.319 47.144C367.783 46.52 368.423 46.04 369.239 45.704C370.055 45.368 370.991 45.2 372.047 45.2C372.575 45.2 373.111 45.24 373.655 45.32C374.199 45.4 374.671 45.528 375.071 45.704V45.032C375.071 44.232 374.831 43.616 374.351 43.184C373.887 42.752 373.191 42.536 372.263 42.536C371.575 42.536 370.919 42.656 370.295 42.896C369.671 43.136 369.015 43.488 368.327 43.952L367.295 41.84C368.127 41.296 368.975 40.888 369.839 40.616C370.719 40.344 371.639 40.208 372.599 40.208C374.391 40.208 375.783 40.656 376.775 41.552C377.783 42.448 378.287 43.728 378.287 45.392V49.4C378.287 49.736 378.343 49.976 378.455 50.12C378.583 50.264 378.783 50.352 379.055 50.384V53C378.767 53.048 378.503 53.088 378.263 53.12C378.039 53.152 377.847 53.168 377.687 53.168C377.047 53.168 376.559 53.024 376.223 52.736C375.903 52.448 375.703 52.096 375.623 51.68L375.551 51.032C375.007 51.736 374.327 52.28 373.511 52.664C372.695 53.048 371.863 53.24 371.015 53.24C370.183 53.24 369.431 53.072 368.759 52.736C368.103 52.384 367.583 51.912 367.199 51.32C366.831 50.712 366.647 50.032 366.647 49.28ZM374.471 49.928C374.647 49.736 374.791 49.544 374.903 49.352C375.015 49.16 375.071 48.984 375.071 48.824V47.552C374.687 47.392 374.271 47.272 373.823 47.192C373.375 47.096 372.951 47.048 372.551 47.048C371.719 47.048 371.031 47.232 370.487 47.6C369.959 47.952 369.695 48.424 369.695 49.016C369.695 49.336 369.783 49.64 369.959 49.928C370.135 50.216 370.391 50.448 370.727 50.624C371.063 50.8 371.463 50.888 371.927 50.888C372.407 50.888 372.879 50.8 373.343 50.624C373.807 50.432 374.183 50.2 374.471 49.928Z" fill="white"/>
<path d="M243.291 82.072C243.291 82.6587 243.142 83.1707 242.843 83.608C242.544 84.0453 242.139 84.3867 241.627 84.632C241.126 84.8773 240.571 85 239.963 85H234.571V73.64H240.219C240.752 73.64 241.211 73.784 241.595 74.072C241.99 74.3493 242.288 74.712 242.491 75.16C242.704 75.5973 242.811 76.056 242.811 76.536C242.811 77.0907 242.667 77.6133 242.379 78.104C242.102 78.584 241.702 78.9413 241.179 79.176C241.83 79.368 242.342 79.7253 242.715 80.248C243.099 80.76 243.291 81.368 243.291 82.072ZM241.835 81.816C241.835 81.464 241.755 81.1387 241.595 80.84C241.446 80.5413 241.238 80.3013 240.971 80.12C240.715 79.9387 240.416 79.848 240.075 79.848H236.011V83.752H239.963C240.315 83.752 240.63 83.6613 240.907 83.48C241.195 83.2987 241.419 83.064 241.579 82.776C241.75 82.4773 241.835 82.1573 241.835 81.816ZM236.011 74.888V78.68H239.627C239.968 78.68 240.267 78.5947 240.523 78.424C240.79 78.2533 240.998 78.024 241.147 77.736C241.307 77.448 241.387 77.1333 241.387 76.792C241.387 76.4293 241.312 76.1093 241.163 75.832C241.024 75.544 240.827 75.3147 240.571 75.144C240.326 74.9733 240.043 74.888 239.723 74.888H236.011ZM245.113 73.32H246.521V82.84C246.521 83.2987 246.585 83.5813 246.713 83.688C246.841 83.7947 246.996 83.848 247.177 83.848C247.401 83.848 247.615 83.8267 247.817 83.784C248.02 83.7307 248.191 83.6773 248.329 83.624L248.553 84.776C248.319 84.872 248.041 84.952 247.721 85.016C247.401 85.08 247.119 85.112 246.873 85.112C246.329 85.112 245.897 84.9573 245.577 84.648C245.268 84.3387 245.113 83.9067 245.113 83.352V73.32ZM253.307 85.16C252.678 85.16 252.107 85.048 251.595 84.824C251.083 84.5893 250.641 84.2747 250.267 83.88C249.894 83.4747 249.606 83.0107 249.403 82.488C249.201 81.9653 249.099 81.416 249.099 80.84C249.099 80.2533 249.201 79.6987 249.403 79.176C249.606 78.6533 249.894 78.1947 250.267 77.8C250.641 77.3947 251.083 77.08 251.595 76.856C252.118 76.6213 252.689 76.504 253.307 76.504C253.937 76.504 254.507 76.6213 255.019 76.856C255.531 77.08 255.974 77.3947 256.347 77.8C256.731 78.1947 257.025 78.6533 257.227 79.176C257.43 79.6987 257.531 80.2533 257.531 80.84C257.531 81.416 257.43 81.9653 257.227 82.488C257.025 83.0107 256.737 83.4747 256.363 83.88C255.99 84.2747 255.542 84.5893 255.019 84.824C254.507 85.048 253.937 85.16 253.307 85.16ZM250.539 80.856C250.539 81.432 250.662 81.9547 250.907 82.424C251.163 82.8933 251.499 83.2667 251.915 83.544C252.331 83.8107 252.795 83.944 253.307 83.944C253.819 83.944 254.283 83.8053 254.699 83.528C255.126 83.2507 255.462 82.8773 255.707 82.408C255.963 81.928 256.091 81.4 256.091 80.824C256.091 80.248 255.963 79.7253 255.707 79.256C255.462 78.7867 255.126 78.4133 254.699 78.136C254.283 77.8587 253.819 77.72 253.307 77.72C252.795 77.72 252.331 77.864 251.915 78.152C251.499 78.4293 251.163 78.8027 250.907 79.272C250.662 79.7413 250.539 80.2693 250.539 80.856ZM262.934 85.16C262.304 85.16 261.728 85.048 261.206 84.824C260.694 84.5893 260.246 84.2693 259.862 83.864C259.488 83.4587 259.195 82.9947 258.982 82.472C258.779 81.9493 258.678 81.3947 258.678 80.808C258.678 80.0187 258.854 79.2987 259.206 78.648C259.558 77.9973 260.054 77.48 260.694 77.096C261.334 76.7013 262.075 76.504 262.918 76.504C263.739 76.504 264.454 76.6907 265.062 77.064C265.68 77.4267 266.139 77.9173 266.438 78.536L265.062 78.968C264.848 78.5733 264.55 78.2693 264.166 78.056C263.782 77.832 263.355 77.72 262.886 77.72C262.374 77.72 261.904 77.8533 261.478 78.12C261.062 78.3867 260.731 78.7547 260.486 79.224C260.24 79.6827 260.118 80.2107 260.118 80.808C260.118 81.3947 260.24 81.928 260.486 82.408C260.742 82.8773 261.078 83.2507 261.494 83.528C261.92 83.8053 262.39 83.944 262.902 83.944C263.232 83.944 263.547 83.8853 263.846 83.768C264.155 83.6507 264.422 83.496 264.646 83.304C264.88 83.1013 265.04 82.8827 265.126 82.648L266.502 83.064C266.331 83.4693 266.07 83.832 265.718 84.152C265.376 84.4613 264.966 84.7067 264.486 84.888C264.016 85.0693 263.499 85.16 262.934 85.16ZM273.985 85L271.089 80.936L269.505 82.424V85H268.097V73.32H269.505V80.952L273.825 76.664H275.345L272.017 80.12L275.505 85H273.985ZM279.98 85.16C279.351 85.16 278.775 85.048 278.252 84.824C277.74 84.5893 277.292 84.2693 276.908 83.864C276.535 83.4587 276.242 82.9947 276.028 82.472C275.826 81.9493 275.724 81.3947 275.724 80.808C275.724 80.0187 275.9 79.2987 276.252 78.648C276.604 77.9973 277.1 77.48 277.74 77.096C278.38 76.7013 279.122 76.504 279.964 76.504C280.786 76.504 281.5 76.6907 282.108 77.064C282.727 77.4267 283.186 77.9173 283.484 78.536L282.108 78.968C281.895 78.5733 281.596 78.2693 281.212 78.056C280.828 77.832 280.402 77.72 279.932 77.72C279.42 77.72 278.951 77.8533 278.524 78.12C278.108 78.3867 277.778 78.7547 277.532 79.224C277.287 79.6827 277.164 80.2107 277.164 80.808C277.164 81.3947 277.287 81.928 277.532 82.408C277.788 82.8773 278.124 83.2507 278.54 83.528C278.967 83.8053 279.436 83.944 279.948 83.944C280.279 83.944 280.594 83.8853 280.892 83.768C281.202 83.6507 281.468 83.496 281.692 83.304C281.927 83.1013 282.087 82.8827 282.172 82.648L283.548 83.064C283.378 83.4693 283.116 83.832 282.764 84.152C282.423 84.4613 282.012 84.7067 281.532 84.888C281.063 85.0693 280.546 85.16 279.98 85.16ZM292.392 85H290.984V80.328C290.984 79.4747 290.829 78.8347 290.52 78.408C290.221 77.9813 289.789 77.768 289.224 77.768C288.861 77.768 288.493 77.864 288.12 78.056C287.757 78.248 287.437 78.5093 287.16 78.84C286.882 79.16 286.68 79.5333 286.552 79.96V85H285.144V73.32H286.552V78.44C286.882 77.8427 287.33 77.3733 287.896 77.032C288.472 76.68 289.09 76.504 289.752 76.504C290.253 76.504 290.669 76.5947 291 76.776C291.341 76.9467 291.613 77.192 291.816 77.512C292.018 77.832 292.162 78.2053 292.248 78.632C292.344 79.048 292.392 79.5067 292.392 80.008V85ZM293.925 82.584C293.925 82.0507 294.075 81.592 294.373 81.208C294.683 80.8133 295.104 80.5093 295.637 80.296C296.171 80.0827 296.789 79.976 297.493 79.976C297.867 79.976 298.261 80.008 298.677 80.072C299.093 80.1253 299.461 80.2107 299.781 80.328V79.72C299.781 79.08 299.589 78.5787 299.205 78.216C298.821 77.8427 298.277 77.656 297.573 77.656C297.115 77.656 296.672 77.7413 296.245 77.912C295.829 78.072 295.387 78.3067 294.917 78.616L294.405 77.624C294.949 77.2507 295.493 76.9733 296.037 76.792C296.581 76.6 297.147 76.504 297.733 76.504C298.8 76.504 299.643 76.8027 300.261 77.4C300.88 77.9867 301.189 78.808 301.189 79.864V83.4C301.189 83.5707 301.221 83.6987 301.285 83.784C301.36 83.8587 301.477 83.9013 301.637 83.912V85C301.499 85.0213 301.376 85.0373 301.269 85.048C301.173 85.0587 301.093 85.064 301.029 85.064C300.699 85.064 300.448 84.9733 300.277 84.792C300.117 84.6107 300.027 84.4187 300.005 84.216L299.973 83.688C299.611 84.1573 299.136 84.52 298.549 84.776C297.963 85.032 297.381 85.16 296.805 85.16C296.251 85.16 295.755 85.048 295.317 84.824C294.88 84.5893 294.539 84.28 294.293 83.896C294.048 83.5013 293.925 83.064 293.925 82.584ZM299.365 83.176C299.493 83.0267 299.595 82.8773 299.669 82.728C299.744 82.568 299.781 82.4347 299.781 82.328V81.288C299.451 81.16 299.104 81.064 298.741 81C298.379 80.9253 298.021 80.888 297.669 80.888C296.955 80.888 296.373 81.032 295.925 81.32C295.488 81.5973 295.269 81.9813 295.269 82.472C295.269 82.7387 295.339 83 295.477 83.256C295.627 83.5013 295.84 83.704 296.117 83.864C296.405 84.024 296.757 84.104 297.173 84.104C297.611 84.104 298.027 84.0187 298.421 83.848C298.816 83.6667 299.131 83.4427 299.365 83.176ZM303.441 85V76.648H304.849V85H303.441ZM303.441 75.08V73.32H304.849V75.08H303.441ZM314.376 85H312.968V80.328C312.968 79.4427 312.83 78.7973 312.552 78.392C312.286 77.976 311.875 77.768 311.32 77.768C310.936 77.768 310.552 77.864 310.168 78.056C309.795 78.248 309.459 78.5093 309.16 78.84C308.872 79.16 308.664 79.5333 308.536 79.96V85H307.128V76.648H308.408V78.44C308.632 78.0453 308.92 77.704 309.272 77.416C309.624 77.128 310.024 76.904 310.472 76.744C310.92 76.584 311.39 76.504 311.88 76.504C312.36 76.504 312.76 76.5947 313.08 76.776C313.411 76.9467 313.667 77.192 313.848 77.512C314.04 77.8213 314.174 78.1893 314.248 78.616C314.334 79.0427 314.376 79.5067 314.376 80.008V85ZM320.837 85V73.64H324.773C325.989 73.64 327.002 73.896 327.813 74.408C328.634 74.9093 329.247 75.592 329.653 76.456C330.058 77.3093 330.261 78.2587 330.261 79.304C330.261 80.456 330.037 81.4587 329.589 82.312C329.141 83.1653 328.506 83.8267 327.685 84.296C326.863 84.7653 325.893 85 324.773 85H320.837ZM328.805 79.304C328.805 78.4507 328.645 77.6933 328.325 77.032C328.015 76.3707 327.562 75.8533 326.965 75.48C326.367 75.1067 325.637 74.92 324.773 74.92H322.277V83.72H324.773C325.647 83.72 326.383 83.528 326.981 83.144C327.578 82.7493 328.031 82.2213 328.341 81.56C328.65 80.888 328.805 80.136 328.805 79.304ZM335.762 85.16C335.132 85.16 334.556 85.048 334.034 84.824C333.522 84.5893 333.074 84.2747 332.69 83.88C332.316 83.4747 332.023 83.0107 331.81 82.488C331.607 81.9653 331.506 81.4107 331.506 80.824C331.506 80.0347 331.687 79.3147 332.05 78.664C332.412 78.0133 332.914 77.4907 333.554 77.096C334.204 76.7013 334.946 76.504 335.778 76.504C336.62 76.504 337.351 76.7067 337.97 77.112C338.599 77.5067 339.084 78.0293 339.426 78.68C339.778 79.32 339.954 80.0133 339.954 80.76C339.954 80.8667 339.948 80.9733 339.938 81.08C339.938 81.176 339.932 81.2507 339.922 81.304H332.994C333.036 81.848 333.186 82.3333 333.442 82.76C333.708 83.176 334.05 83.5067 334.466 83.752C334.882 83.9867 335.33 84.104 335.81 84.104C336.322 84.104 336.802 83.976 337.25 83.72C337.708 83.464 338.023 83.128 338.194 82.712L339.41 83.048C339.228 83.4533 338.956 83.816 338.594 84.136C338.242 84.456 337.82 84.7067 337.33 84.888C336.85 85.0693 336.327 85.16 335.762 85.16ZM332.946 80.328H338.642C338.599 79.784 338.444 79.304 338.178 78.888C337.911 78.472 337.57 78.1467 337.154 77.912C336.738 77.6773 336.279 77.56 335.778 77.56C335.287 77.56 334.834 77.6773 334.418 77.912C334.002 78.1467 333.66 78.472 333.394 78.888C333.138 79.304 332.988 79.784 332.946 80.328ZM343.7 85L340.42 76.648H341.892L344.516 83.656L347.14 76.648H348.516L345.236 85H343.7Z" fill="white"/>
<path d="M65.6012 125.706C65.6012 126.39 65.4212 126.978 65.0612 127.47C64.7132 127.962 64.2392 128.34 63.6392 128.604C63.0392 128.868 62.3792 129 61.6592 129H55.5572V116.22H62.1452C62.7452 116.22 63.2612 116.382 63.6932 116.706C64.1372 117.018 64.4732 117.426 64.7012 117.93C64.9412 118.422 65.0612 118.938 65.0612 119.478C65.0612 120.102 64.8992 120.69 64.5752 121.242C64.2632 121.782 63.8132 122.184 63.2252 122.448C63.9572 122.664 64.5332 123.06 64.9532 123.636C65.3852 124.2 65.6012 124.89 65.6012 125.706ZM63.5312 125.328C63.5312 124.968 63.4532 124.644 63.2972 124.356C63.1532 124.056 62.9492 123.816 62.6852 123.636C62.4332 123.444 62.1332 123.348 61.7852 123.348H57.5732V127.254H61.6592C62.0192 127.254 62.3372 127.17 62.6132 127.002C62.9012 126.822 63.1232 126.588 63.2792 126.3C63.4472 126 63.5312 125.676 63.5312 125.328ZM57.5732 117.966V121.728H61.2812C61.6172 121.728 61.9172 121.65 62.1812 121.494C62.4452 121.326 62.6552 121.104 62.8112 120.828C62.9672 120.54 63.0452 120.216 63.0452 119.856C63.0452 119.484 62.9732 119.16 62.8292 118.884C62.6852 118.596 62.4872 118.374 62.2352 118.218C61.9952 118.05 61.7132 117.966 61.3892 117.966H57.5732ZM71.7177 129.18C70.9857 129.18 70.3197 129.054 69.7197 128.802C69.1317 128.538 68.6217 128.184 68.1897 127.74C67.7577 127.284 67.4217 126.768 67.1817 126.192C66.9537 125.604 66.8397 124.98 66.8397 124.32C66.8397 123.432 67.0437 122.622 67.4517 121.89C67.8597 121.146 68.4297 120.552 69.1617 120.108C69.8937 119.652 70.7517 119.424 71.7357 119.424C72.7197 119.424 73.5657 119.652 74.2737 120.108C74.9937 120.552 75.5517 121.14 75.9477 121.872C76.3437 122.604 76.5417 123.39 76.5417 124.23C76.5417 124.374 76.5357 124.512 76.5237 124.644C76.5117 124.764 76.4997 124.866 76.4877 124.95H68.9457C68.9817 125.502 69.1317 125.988 69.3957 126.408C69.6717 126.816 70.0197 127.14 70.4397 127.38C70.8597 127.608 71.3097 127.722 71.7897 127.722C72.3177 127.722 72.8157 127.59 73.2837 127.326C73.7637 127.062 74.0877 126.714 74.2557 126.282L75.9477 126.768C75.7437 127.224 75.4317 127.638 75.0117 128.01C74.6037 128.37 74.1177 128.658 73.5537 128.874C72.9897 129.078 72.3777 129.18 71.7177 129.18ZM68.8917 123.636H74.5797C74.5437 123.096 74.3877 122.622 74.1117 122.214C73.8477 121.794 73.5057 121.47 73.0857 121.242C72.6777 121.002 72.2217 120.882 71.7177 120.882C71.2257 120.882 70.7697 121.002 70.3497 121.242C69.9417 121.47 69.6057 121.794 69.3417 122.214C69.0777 122.622 68.9277 123.096 68.8917 123.636ZM78.1567 129V119.586H80.1368V129H78.1567ZM78.1567 118.038V115.86H80.1368V118.038H78.1567ZM90.9581 129H88.9781V123.726C88.9781 122.85 88.8341 122.208 88.5461 121.8C88.2701 121.392 87.8561 121.188 87.3041 121.188C86.9201 121.188 86.5361 121.284 86.1521 121.476C85.7801 121.668 85.4441 121.932 85.1441 122.268C84.8441 122.592 84.6281 122.97 84.4961 123.402V129H82.5161V119.586H84.3161V121.476C84.5561 121.056 84.8681 120.696 85.2521 120.396C85.6481 120.084 86.0921 119.844 86.5841 119.676C87.0761 119.508 87.5981 119.424 88.1501 119.424C88.7141 119.424 89.1761 119.526 89.5361 119.73C89.9081 119.934 90.1961 120.216 90.4001 120.576C90.6161 120.924 90.7601 121.332 90.8321 121.8C90.9161 122.256 90.9581 122.742 90.9581 123.258V129ZM96.9824 129.09C96.3464 129.09 95.7644 128.964 95.2364 128.712C94.7084 128.448 94.2524 128.094 93.8684 127.65C93.4964 127.206 93.2024 126.696 92.9864 126.12C92.7824 125.544 92.6804 124.938 92.6804 124.302C92.6804 123.63 92.7884 123 93.0044 122.412C93.2204 121.824 93.5204 121.308 93.9044 120.864C94.3004 120.408 94.7624 120.054 95.2904 119.802C95.8184 119.55 96.4064 119.424 97.0544 119.424C97.8104 119.424 98.4704 119.604 99.0344 119.964C99.6104 120.324 100.084 120.792 100.456 121.368V119.586H102.202V128.73C102.202 129.642 101.98 130.416 101.536 131.052C101.104 131.688 100.51 132.174 99.7544 132.51C98.9984 132.846 98.1464 133.014 97.1984 133.014C96.1544 133.014 95.2904 132.834 94.6064 132.474C93.9224 132.114 93.3404 131.622 92.8604 130.998L93.9764 129.954C94.3364 130.458 94.7984 130.842 95.3624 131.106C95.9384 131.37 96.5504 131.502 97.1984 131.502C97.7384 131.502 98.2364 131.4 98.6924 131.196C99.1604 131.004 99.5324 130.698 99.8084 130.278C100.084 129.87 100.222 129.354 100.222 128.73V127.29C99.8864 127.854 99.4244 128.298 98.8364 128.622C98.2484 128.934 97.6304 129.09 96.9824 129.09ZM97.6304 127.488C97.9304 127.488 98.2184 127.44 98.4944 127.344C98.7704 127.236 99.0224 127.098 99.2504 126.93C99.4904 126.75 99.6944 126.552 99.8624 126.336C100.03 126.108 100.15 125.868 100.222 125.616V123.15C100.066 122.742 99.8444 122.388 99.5564 122.088C99.2684 121.776 98.9444 121.536 98.5844 121.368C98.2244 121.2 97.8584 121.116 97.4864 121.116C97.0544 121.116 96.6644 121.212 96.3164 121.404C95.9804 121.584 95.6924 121.83 95.4524 122.142C95.2124 122.442 95.0264 122.784 94.8944 123.168C94.7624 123.552 94.6964 123.948 94.6964 124.356C94.6964 124.788 94.7684 125.19 94.9124 125.562C95.0684 125.934 95.2784 126.27 95.5424 126.57C95.8064 126.858 96.1184 127.086 96.4784 127.254C96.8384 127.41 97.2224 127.488 97.6304 127.488ZM108.34 126.246C108.34 125.646 108.508 125.124 108.844 124.68C109.192 124.224 109.666 123.876 110.266 123.636C110.866 123.384 111.562 123.258 112.354 123.258C112.774 123.258 113.2 123.288 113.632 123.348C114.076 123.408 114.466 123.504 114.802 123.636V123.042C114.802 122.382 114.604 121.866 114.208 121.494C113.812 121.122 113.242 120.936 112.498 120.936C111.97 120.936 111.472 121.032 111.004 121.224C110.536 121.404 110.038 121.662 109.51 121.998L108.844 120.666C109.468 120.246 110.092 119.934 110.716 119.73C111.352 119.526 112.018 119.424 112.714 119.424C113.974 119.424 114.964 119.76 115.684 120.432C116.416 121.092 116.782 122.034 116.782 123.258V126.768C116.782 126.996 116.818 127.158 116.89 127.254C116.974 127.35 117.112 127.404 117.304 127.416V129C117.124 129.036 116.962 129.06 116.818 129.072C116.674 129.084 116.554 129.09 116.458 129.09C116.038 129.09 115.72 128.988 115.504 128.784C115.288 128.58 115.162 128.34 115.126 128.064L115.072 127.524C114.664 128.052 114.142 128.46 113.506 128.748C112.87 129.036 112.228 129.18 111.58 129.18C110.956 129.18 110.398 129.054 109.906 128.802C109.414 128.538 109.03 128.184 108.754 127.74C108.478 127.296 108.34 126.798 108.34 126.246ZM114.334 126.822C114.478 126.666 114.592 126.51 114.676 126.354C114.76 126.198 114.802 126.06 114.802 125.94V124.86C114.466 124.728 114.112 124.632 113.74 124.572C113.368 124.5 113.002 124.464 112.642 124.464C111.922 124.464 111.334 124.608 110.878 124.896C110.434 125.184 110.212 125.58 110.212 126.084C110.212 126.36 110.284 126.624 110.428 126.876C110.584 127.128 110.8 127.332 111.076 127.488C111.364 127.644 111.718 127.722 112.138 127.722C112.57 127.722 112.984 127.638 113.38 127.47C113.776 127.302 114.094 127.086 114.334 126.822ZM128.977 129.18C128.221 129.18 127.555 129 126.979 128.64C126.403 128.28 125.947 127.812 125.611 127.236V132.834H123.631V119.586H125.377V121.278C125.737 120.714 126.205 120.264 126.781 119.928C127.357 119.592 127.999 119.424 128.707 119.424C129.355 119.424 129.949 119.556 130.489 119.82C131.029 120.072 131.497 120.426 131.893 120.882C132.289 121.338 132.595 121.86 132.811 122.448C133.039 123.024 133.153 123.636 133.153 124.284C133.153 125.184 132.973 126.006 132.613 126.75C132.265 127.494 131.773 128.088 131.137 128.532C130.513 128.964 129.793 129.18 128.977 129.18ZM128.329 127.488C128.749 127.488 129.127 127.398 129.463 127.218C129.811 127.038 130.105 126.798 130.345 126.498C130.597 126.198 130.789 125.856 130.921 125.472C131.053 125.088 131.119 124.692 131.119 124.284C131.119 123.852 131.047 123.444 130.903 123.06C130.759 122.676 130.549 122.34 130.273 122.052C130.009 121.764 129.697 121.536 129.337 121.368C128.989 121.2 128.605 121.116 128.185 121.116C127.933 121.116 127.669 121.164 127.393 121.26C127.117 121.356 126.859 121.488 126.619 121.656C126.379 121.824 126.169 122.022 125.989 122.25C125.809 122.478 125.683 122.718 125.611 122.97V125.436C125.779 125.82 126.001 126.168 126.277 126.48C126.553 126.78 126.871 127.026 127.231 127.218C127.591 127.398 127.957 127.488 128.329 127.488ZM134.25 126.246C134.25 125.646 134.418 125.124 134.754 124.68C135.102 124.224 135.576 123.876 136.176 123.636C136.776 123.384 137.472 123.258 138.264 123.258C138.684 123.258 139.11 123.288 139.542 123.348C139.986 123.408 140.376 123.504 140.712 123.636V123.042C140.712 122.382 140.514 121.866 140.118 121.494C139.722 121.122 139.152 120.936 138.408 120.936C137.88 120.936 137.382 121.032 136.914 121.224C136.446 121.404 135.948 121.662 135.42 121.998L134.754 120.666C135.378 120.246 136.002 119.934 136.626 119.73C137.262 119.526 137.928 119.424 138.624 119.424C139.884 119.424 140.874 119.76 141.594 120.432C142.326 121.092 142.692 122.034 142.692 123.258V126.768C142.692 126.996 142.728 127.158 142.8 127.254C142.884 127.35 143.022 127.404 143.214 127.416V129C143.034 129.036 142.872 129.06 142.728 129.072C142.584 129.084 142.464 129.09 142.368 129.09C141.948 129.09 141.63 128.988 141.414 128.784C141.198 128.58 141.072 128.34 141.036 128.064L140.982 127.524C140.574 128.052 140.052 128.46 139.416 128.748C138.78 129.036 138.138 129.18 137.49 129.18C136.866 129.18 136.308 129.054 135.816 128.802C135.324 128.538 134.94 128.184 134.664 127.74C134.388 127.296 134.25 126.798 134.25 126.246ZM140.244 126.822C140.388 126.666 140.502 126.51 140.586 126.354C140.67 126.198 140.712 126.06 140.712 125.94V124.86C140.376 124.728 140.022 124.632 139.65 124.572C139.278 124.5 138.912 124.464 138.552 124.464C137.832 124.464 137.244 124.608 136.788 124.896C136.344 125.184 136.122 125.58 136.122 126.084C136.122 126.36 136.194 126.624 136.338 126.876C136.494 127.128 136.71 127.332 136.986 127.488C137.274 127.644 137.628 127.722 138.048 127.722C138.48 127.722 138.894 127.638 139.29 127.47C139.686 127.302 140.004 127.086 140.244 126.822ZM150.386 121.296C149.618 121.308 148.934 121.482 148.334 121.818C147.746 122.154 147.326 122.628 147.074 123.24V129H145.094V119.586H146.93V121.692C147.254 121.044 147.68 120.528 148.208 120.144C148.736 119.748 149.294 119.532 149.882 119.496C150.002 119.496 150.098 119.496 150.17 119.496C150.254 119.496 150.326 119.502 150.386 119.514V121.296ZM157.065 128.514C156.897 128.598 156.687 128.688 156.435 128.784C156.183 128.88 155.895 128.964 155.571 129.036C155.259 129.108 154.935 129.144 154.599 129.144C154.191 129.144 153.813 129.072 153.465 128.928C153.117 128.784 152.835 128.556 152.619 128.244C152.415 127.92 152.313 127.506 152.313 127.002V121.116H151.071V119.586H152.313V116.49H154.293V119.586H156.345V121.116H154.293V126.372C154.317 126.696 154.419 126.936 154.599 127.092C154.791 127.248 155.025 127.326 155.301 127.326C155.577 127.326 155.841 127.278 156.093 127.182C156.345 127.086 156.531 127.008 156.651 126.948L157.065 128.514ZM167.113 129.18C166.369 129.18 165.703 129.054 165.115 128.802C164.527 128.538 164.017 128.178 163.585 127.722C163.165 127.266 162.841 126.75 162.613 126.174C162.385 125.586 162.271 124.962 162.271 124.302C162.271 123.642 162.385 123.018 162.613 122.43C162.841 121.842 163.165 121.326 163.585 120.882C164.017 120.426 164.527 120.072 165.115 119.82C165.715 119.556 166.381 119.424 167.113 119.424C167.845 119.424 168.505 119.556 169.093 119.82C169.693 120.072 170.203 120.426 170.623 120.882C171.055 121.326 171.385 121.842 171.613 122.43C171.841 123.018 171.955 123.642 171.955 124.302C171.955 124.962 171.841 125.586 171.613 126.174C171.385 126.75 171.055 127.266 170.623 127.722C170.203 128.178 169.693 128.538 169.093 128.802C168.505 129.054 167.845 129.18 167.113 129.18ZM164.305 124.32C164.305 124.92 164.431 125.46 164.683 125.94C164.935 126.42 165.271 126.798 165.691 127.074C166.111 127.35 166.585 127.488 167.113 127.488C167.629 127.488 168.097 127.35 168.517 127.074C168.949 126.786 169.291 126.402 169.543 125.922C169.795 125.43 169.921 124.89 169.921 124.302C169.921 123.702 169.795 123.162 169.543 122.682C169.291 122.202 168.949 121.824 168.517 121.548C168.097 121.26 167.629 121.116 167.113 121.116C166.585 121.116 166.111 121.26 165.691 121.548C165.271 121.836 164.935 122.22 164.683 122.7C164.431 123.168 164.305 123.708 164.305 124.32ZM174.128 129V121.35H172.868V119.82H174.128V119.442C174.128 118.674 174.248 118.008 174.488 117.444C174.74 116.88 175.088 116.448 175.532 116.148C175.988 115.836 176.522 115.68 177.134 115.68C177.518 115.68 177.896 115.734 178.268 115.842C178.64 115.938 178.994 116.076 179.33 116.256L178.898 117.732C178.718 117.612 178.502 117.522 178.25 117.462C178.01 117.39 177.776 117.354 177.548 117.354C177.092 117.354 176.738 117.528 176.486 117.876C176.234 118.224 176.108 118.728 176.108 119.388V119.82H178.52V121.35H176.108V129H174.128ZM189.303 128.514C189.135 128.598 188.925 128.688 188.673 128.784C188.421 128.88 188.133 128.964 187.809 129.036C187.497 129.108 187.173 129.144 186.837 129.144C186.429 129.144 186.051 129.072 185.703 128.928C185.355 128.784 185.073 128.556 184.857 128.244C184.653 127.92 184.551 127.506 184.551 127.002V121.116H183.309V119.586H184.551V116.49H186.531V119.586H188.583V121.116H186.531V126.372C186.555 126.696 186.657 126.936 186.837 127.092C187.029 127.248 187.263 127.326 187.539 127.326C187.815 127.326 188.079 127.278 188.331 127.182C188.583 127.086 188.769 127.008 188.889 126.948L189.303 128.514ZM199.116 129H197.136V123.726C197.136 122.874 196.98 122.238 196.668 121.818C196.356 121.398 195.918 121.188 195.354 121.188C195.006 121.188 194.646 121.284 194.274 121.476C193.902 121.668 193.572 121.932 193.284 122.268C192.996 122.592 192.786 122.97 192.654 123.402V129H190.674V115.86H192.654V121.476C193.014 120.84 193.506 120.342 194.13 119.982C194.754 119.61 195.426 119.424 196.146 119.424C196.734 119.424 197.22 119.526 197.604 119.73C197.988 119.934 198.288 120.216 198.504 120.576C198.732 120.924 198.888 121.332 198.972 121.8C199.068 122.256 199.116 122.742 199.116 123.258V129ZM201.415 129V119.586H203.395V129H201.415ZM201.415 118.038V115.86H203.395V118.038H201.415ZM209.122 129.18C208.33 129.18 207.58 129.054 206.872 128.802C206.164 128.538 205.558 128.148 205.054 127.632L205.792 126.3C206.332 126.78 206.872 127.128 207.412 127.344C207.964 127.56 208.51 127.668 209.05 127.668C209.602 127.668 210.052 127.566 210.4 127.362C210.748 127.146 210.922 126.834 210.922 126.426C210.922 126.126 210.832 125.904 210.652 125.76C210.472 125.616 210.208 125.49 209.86 125.382C209.524 125.274 209.116 125.154 208.636 125.022C207.964 124.818 207.4 124.608 206.944 124.392C206.488 124.164 206.146 123.888 205.918 123.564C205.69 123.24 205.576 122.826 205.576 122.322C205.576 121.71 205.732 121.188 206.044 120.756C206.356 120.324 206.788 119.994 207.34 119.766C207.904 119.538 208.552 119.424 209.284 119.424C209.968 119.424 210.598 119.532 211.174 119.748C211.762 119.952 212.278 120.276 212.722 120.72L211.876 122.034C211.456 121.65 211.024 121.368 210.58 121.188C210.148 121.008 209.68 120.918 209.176 120.918C208.888 120.918 208.612 120.954 208.348 121.026C208.084 121.086 207.862 121.206 207.682 121.386C207.514 121.554 207.43 121.794 207.43 122.106C207.43 122.358 207.502 122.562 207.646 122.718C207.79 122.874 208.006 123.006 208.294 123.114C208.582 123.222 208.936 123.342 209.356 123.474C210.088 123.69 210.712 123.906 211.228 124.122C211.744 124.326 212.14 124.596 212.416 124.932C212.704 125.256 212.848 125.706 212.848 126.282C212.848 127.194 212.506 127.908 211.822 128.424C211.15 128.928 210.25 129.18 209.122 129.18ZM223.329 129.18C222.597 129.18 221.931 129.054 221.331 128.802C220.743 128.538 220.233 128.178 219.801 127.722C219.369 127.266 219.033 126.744 218.793 126.156C218.565 125.568 218.451 124.944 218.451 124.284C218.451 123.396 218.649 122.586 219.045 121.854C219.453 121.122 220.017 120.534 220.737 120.09C221.469 119.646 222.333 119.424 223.329 119.424C224.289 119.424 225.123 119.64 225.831 120.072C226.551 120.492 227.079 121.056 227.415 121.764L225.489 122.376C225.273 121.98 224.967 121.674 224.571 121.458C224.187 121.23 223.761 121.116 223.293 121.116C222.765 121.116 222.285 121.254 221.853 121.53C221.433 121.794 221.097 122.166 220.845 122.646C220.605 123.114 220.485 123.66 220.485 124.284C220.485 124.884 220.611 125.43 220.863 125.922C221.115 126.402 221.451 126.786 221.871 127.074C222.303 127.35 222.783 127.488 223.311 127.488C223.635 127.488 223.947 127.434 224.247 127.326C224.559 127.206 224.829 127.05 225.057 126.858C225.285 126.654 225.447 126.432 225.543 126.192L227.487 126.768C227.283 127.236 226.977 127.65 226.569 128.01C226.173 128.37 225.699 128.658 225.147 128.874C224.607 129.078 224.001 129.18 223.329 129.18ZM233.26 129.18C232.516 129.18 231.85 129.054 231.262 128.802C230.674 128.538 230.164 128.178 229.732 127.722C229.312 127.266 228.988 126.75 228.76 126.174C228.532 125.586 228.418 124.962 228.418 124.302C228.418 123.642 228.532 123.018 228.76 122.43C228.988 121.842 229.312 121.326 229.732 120.882C230.164 120.426 230.674 120.072 231.262 119.82C231.862 119.556 232.528 119.424 233.26 119.424C233.992 119.424 234.652 119.556 235.24 119.82C235.84 120.072 236.35 120.426 236.77 120.882C237.202 121.326 237.532 121.842 237.76 122.43C237.988 123.018 238.102 123.642 238.102 124.302C238.102 124.962 237.988 125.586 237.76 126.174C237.532 126.75 237.202 127.266 236.77 127.722C236.35 128.178 235.84 128.538 235.24 128.802C234.652 129.054 233.992 129.18 233.26 129.18ZM230.452 124.32C230.452 124.92 230.578 125.46 230.83 125.94C231.082 126.42 231.418 126.798 231.838 127.074C232.258 127.35 232.732 127.488 233.26 127.488C233.776 127.488 234.244 127.35 234.664 127.074C235.096 126.786 235.438 126.402 235.69 125.922C235.942 125.43 236.068 124.89 236.068 124.302C236.068 123.702 235.942 123.162 235.69 122.682C235.438 122.202 235.096 121.824 234.664 121.548C234.244 121.26 233.776 121.116 233.26 121.116C232.732 121.116 232.258 121.26 231.838 121.548C231.418 121.836 231.082 122.22 230.83 122.7C230.578 123.168 230.452 123.708 230.452 124.32ZM254.258 129H252.278V123.726C252.278 122.85 252.134 122.208 251.846 121.8C251.558 121.392 251.138 121.188 250.586 121.188C250.034 121.188 249.518 121.398 249.038 121.818C248.57 122.226 248.24 122.76 248.048 123.42V129H246.068V123.726C246.068 122.85 245.924 122.208 245.636 121.8C245.348 121.392 244.934 121.188 244.394 121.188C243.842 121.188 243.326 121.392 242.846 121.8C242.378 122.208 242.042 122.742 241.838 123.402V129H239.858V119.586H241.658V121.476C242.03 120.816 242.516 120.312 243.116 119.964C243.728 119.604 244.424 119.424 245.204 119.424C245.984 119.424 246.596 119.628 247.04 120.036C247.496 120.444 247.778 120.954 247.886 121.566C248.294 120.87 248.792 120.342 249.38 119.982C249.98 119.61 250.664 119.424 251.432 119.424C251.984 119.424 252.446 119.526 252.818 119.73C253.19 119.934 253.478 120.216 253.682 120.576C253.886 120.924 254.03 121.332 254.114 121.8C254.21 122.256 254.258 122.742 254.258 123.258V129ZM270.94 129H268.96V123.726C268.96 122.85 268.816 122.208 268.528 121.8C268.24 121.392 267.82 121.188 267.268 121.188C266.716 121.188 266.2 121.398 265.72 121.818C265.252 122.226 264.922 122.76 264.73 123.42V129H262.75V123.726C262.75 122.85 262.606 122.208 262.318 121.8C262.03 121.392 261.616 121.188 261.076 121.188C260.524 121.188 260.008 121.392 259.528 121.8C259.06 122.208 258.724 122.742 258.52 123.402V129H256.54V119.586H258.34V121.476C258.712 120.816 259.198 120.312 259.798 119.964C260.41 119.604 261.106 119.424 261.886 119.424C262.666 119.424 263.278 119.628 263.722 120.036C264.178 120.444 264.46 120.954 264.568 121.566C264.976 120.87 265.474 120.342 266.062 119.982C266.662 119.61 267.346 119.424 268.114 119.424C268.666 119.424 269.128 119.526 269.5 119.73C269.872 119.934 270.16 120.216 270.364 120.576C270.568 120.924 270.712 121.332 270.796 121.8C270.892 122.256 270.94 122.742 270.94 123.258V129ZM273.131 125.346V119.586H275.111V124.95C275.111 125.79 275.261 126.426 275.561 126.858C275.873 127.278 276.323 127.488 276.911 127.488C277.283 127.488 277.643 127.41 277.991 127.254C278.351 127.098 278.675 126.87 278.963 126.57C279.263 126.258 279.503 125.886 279.683 125.454V119.586H281.663V126.768C281.663 126.996 281.705 127.158 281.789 127.254C281.873 127.35 282.011 127.404 282.203 127.416V129C281.999 129.036 281.831 129.06 281.699 129.072C281.567 129.084 281.441 129.09 281.321 129.09C280.961 129.09 280.661 128.994 280.421 128.802C280.181 128.598 280.043 128.34 280.007 128.028L279.971 127.092C279.551 127.776 279.005 128.298 278.333 128.658C277.661 129.006 276.923 129.18 276.119 129.18C275.135 129.18 274.391 128.856 273.887 128.208C273.383 127.56 273.131 126.606 273.131 125.346ZM292.632 129H290.652V123.726C290.652 122.85 290.508 122.208 290.22 121.8C289.944 121.392 289.53 121.188 288.978 121.188C288.594 121.188 288.21 121.284 287.826 121.476C287.454 121.668 287.118 121.932 286.818 122.268C286.518 122.592 286.302 122.97 286.17 123.402V129H284.19V119.586H285.99V121.476C286.23 121.056 286.542 120.696 286.926 120.396C287.322 120.084 287.766 119.844 288.258 119.676C288.75 119.508 289.272 119.424 289.824 119.424C290.388 119.424 290.85 119.526 291.21 119.73C291.582 119.934 291.87 120.216 292.074 120.576C292.29 120.924 292.434 121.332 292.506 121.8C292.59 122.256 292.632 122.742 292.632 123.258V129ZM294.93 129V119.586H296.91V129H294.93ZM294.93 118.038V115.86H296.91V118.038H294.93ZM304.528 128.514C304.36 128.598 304.15 128.688 303.898 128.784C303.646 128.88 303.358 128.964 303.034 129.036C302.722 129.108 302.398 129.144 302.062 129.144C301.654 129.144 301.276 129.072 300.928 128.928C300.58 128.784 300.298 128.556 300.082 128.244C299.878 127.92 299.776 127.506 299.776 127.002V121.116H298.534V119.586H299.776V116.49H301.756V119.586H303.808V121.116H301.756V126.372C301.78 126.696 301.882 126.936 302.062 127.092C302.254 127.248 302.488 127.326 302.764 127.326C303.04 127.326 303.304 127.278 303.556 127.182C303.808 127.086 303.994 127.008 304.114 126.948L304.528 128.514ZM306.205 131.214C306.385 131.238 306.559 131.262 306.727 131.286C306.907 131.322 307.051 131.34 307.159 131.34C307.363 131.34 307.537 131.274 307.681 131.142C307.837 131.022 307.993 130.794 308.149 130.458C308.305 130.122 308.497 129.636 308.725 129L304.855 119.586H306.925L309.805 126.984L312.361 119.586H314.269L310.003 131.178C309.871 131.526 309.679 131.844 309.427 132.132C309.175 132.432 308.863 132.666 308.491 132.834C308.119 133.002 307.681 133.086 307.177 133.086C307.033 133.086 306.883 133.074 306.727 133.05C306.571 133.026 306.397 132.99 306.205 132.942V131.214ZM334.098 129H332.118V123.726C332.118 122.85 331.974 122.208 331.686 121.8C331.398 121.392 330.978 121.188 330.426 121.188C329.874 121.188 329.358 121.398 328.878 121.818C328.41 122.226 328.08 122.76 327.888 123.42V129H325.908V123.726C325.908 122.85 325.764 122.208 325.476 121.8C325.188 121.392 324.774 121.188 324.234 121.188C323.682 121.188 323.166 121.392 322.686 121.8C322.218 122.208 321.882 122.742 321.678 123.402V129H319.698V119.586H321.498V121.476C321.87 120.816 322.356 120.312 322.956 119.964C323.568 119.604 324.264 119.424 325.044 119.424C325.824 119.424 326.436 119.628 326.88 120.036C327.336 120.444 327.618 120.954 327.726 121.566C328.134 120.87 328.632 120.342 329.22 119.982C329.82 119.61 330.504 119.424 331.272 119.424C331.824 119.424 332.286 119.526 332.658 119.73C333.03 119.934 333.318 120.216 333.522 120.576C333.726 120.924 333.87 121.332 333.954 121.8C334.05 122.256 334.098 122.742 334.098 123.258V129ZM335.695 126.246C335.695 125.646 335.863 125.124 336.199 124.68C336.547 124.224 337.021 123.876 337.621 123.636C338.221 123.384 338.917 123.258 339.709 123.258C340.129 123.258 340.555 123.288 340.987 123.348C341.431 123.408 341.821 123.504 342.157 123.636V123.042C342.157 122.382 341.959 121.866 341.563 121.494C341.167 121.122 340.597 120.936 339.853 120.936C339.325 120.936 338.827 121.032 338.359 121.224C337.891 121.404 337.393 121.662 336.865 121.998L336.199 120.666C336.823 120.246 337.447 119.934 338.071 119.73C338.707 119.526 339.373 119.424 340.069 119.424C341.329 119.424 342.319 119.76 343.039 120.432C343.771 121.092 344.137 122.034 344.137 123.258V126.768C344.137 126.996 344.173 127.158 344.245 127.254C344.329 127.35 344.467 127.404 344.659 127.416V129C344.479 129.036 344.317 129.06 344.173 129.072C344.029 129.084 343.909 129.09 343.813 129.09C343.393 129.09 343.075 128.988 342.859 128.784C342.643 128.58 342.517 128.34 342.481 128.064L342.427 127.524C342.019 128.052 341.497 128.46 340.861 128.748C340.225 129.036 339.583 129.18 338.935 129.18C338.311 129.18 337.753 129.054 337.261 128.802C336.769 128.538 336.385 128.184 336.109 127.74C335.833 127.296 335.695 126.798 335.695 126.246ZM341.689 126.822C341.833 126.666 341.947 126.51 342.031 126.354C342.115 126.198 342.157 126.06 342.157 125.94V124.86C341.821 124.728 341.467 124.632 341.095 124.572C340.723 124.5 340.357 124.464 339.997 124.464C339.277 124.464 338.689 124.608 338.233 124.896C337.789 125.184 337.567 125.58 337.567 126.084C337.567 126.36 337.639 126.624 337.783 126.876C337.939 127.128 338.155 127.332 338.431 127.488C338.719 127.644 339.073 127.722 339.493 127.722C339.925 127.722 340.339 127.638 340.735 127.47C341.131 127.302 341.449 127.086 341.689 126.822ZM353.092 129L350.068 124.662L348.52 126.138V129H346.54V115.86H348.52V124.14L352.876 119.604H355L351.346 123.546L355.198 129H353.092ZM360.175 129.18C359.443 129.18 358.777 129.054 358.177 128.802C357.589 128.538 357.079 128.184 356.647 127.74C356.215 127.284 355.879 126.768 355.639 126.192C355.411 125.604 355.297 124.98 355.297 124.32C355.297 123.432 355.501 122.622 355.909 121.89C356.317 121.146 356.887 120.552 357.619 120.108C358.351 119.652 359.209 119.424 360.193 119.424C361.177 119.424 362.023 119.652 362.731 120.108C363.451 120.552 364.009 121.14 364.405 121.872C364.801 122.604 364.999 123.39 364.999 124.23C364.999 124.374 364.993 124.512 364.981 124.644C364.969 124.764 364.957 124.866 364.945 124.95H357.403C357.439 125.502 357.589 125.988 357.853 126.408C358.129 126.816 358.477 127.14 358.897 127.38C359.317 127.608 359.767 127.722 360.247 127.722C360.775 127.722 361.273 127.59 361.741 127.326C362.221 127.062 362.545 126.714 362.713 126.282L364.405 126.768C364.201 127.224 363.889 127.638 363.469 128.01C363.061 128.37 362.575 128.658 362.011 128.874C361.447 129.078 360.835 129.18 360.175 129.18ZM357.349 123.636H363.037C363.001 123.096 362.845 122.622 362.569 122.214C362.305 121.794 361.963 121.47 361.543 121.242C361.135 121.002 360.679 120.882 360.175 120.882C359.683 120.882 359.227 121.002 358.807 121.242C358.399 121.47 358.063 121.794 357.799 122.214C357.535 122.622 357.385 123.096 357.349 123.636ZM369.962 129.18C369.17 129.18 368.42 129.054 367.712 128.802C367.004 128.538 366.398 128.148 365.894 127.632L366.632 126.3C367.172 126.78 367.712 127.128 368.252 127.344C368.804 127.56 369.35 127.668 369.89 127.668C370.442 127.668 370.892 127.566 371.24 127.362C371.588 127.146 371.762 126.834 371.762 126.426C371.762 126.126 371.672 125.904 371.492 125.76C371.312 125.616 371.048 125.49 370.7 125.382C370.364 125.274 369.956 125.154 369.476 125.022C368.804 124.818 368.24 124.608 367.784 124.392C367.328 124.164 366.986 123.888 366.758 123.564C366.53 123.24 366.416 122.826 366.416 122.322C366.416 121.71 366.572 121.188 366.884 120.756C367.196 120.324 367.628 119.994 368.18 119.766C368.744 119.538 369.392 119.424 370.124 119.424C370.808 119.424 371.438 119.532 372.014 119.748C372.602 119.952 373.118 120.276 373.562 120.72L372.716 122.034C372.296 121.65 371.864 121.368 371.42 121.188C370.988 121.008 370.52 120.918 370.016 120.918C369.728 120.918 369.452 120.954 369.188 121.026C368.924 121.086 368.702 121.206 368.522 121.386C368.354 121.554 368.27 121.794 368.27 122.106C368.27 122.358 368.342 122.562 368.486 122.718C368.63 122.874 368.846 123.006 369.134 123.114C369.422 123.222 369.776 123.342 370.196 123.474C370.928 123.69 371.552 123.906 372.068 124.122C372.584 124.326 372.98 124.596 373.256 124.932C373.544 125.256 373.688 125.706 373.688 126.282C373.688 127.194 373.346 127.908 372.662 128.424C371.99 128.928 371.09 129.18 369.962 129.18ZM394.303 129H392.323V123.726C392.323 122.85 392.179 122.208 391.891 121.8C391.603 121.392 391.183 121.188 390.631 121.188C390.079 121.188 389.563 121.398 389.083 121.818C388.615 122.226 388.285 122.76 388.093 123.42V129H386.113V123.726C386.113 122.85 385.969 122.208 385.681 121.8C385.393 121.392 384.979 121.188 384.439 121.188C383.887 121.188 383.371 121.392 382.891 121.8C382.423 122.208 382.087 122.742 381.883 123.402V129H379.903V119.586H381.703V121.476C382.075 120.816 382.561 120.312 383.161 119.964C383.773 119.604 384.469 119.424 385.249 119.424C386.029 119.424 386.641 119.628 387.085 120.036C387.541 120.444 387.823 120.954 387.931 121.566C388.339 120.87 388.837 120.342 389.425 119.982C390.025 119.61 390.709 119.424 391.477 119.424C392.029 119.424 392.491 119.526 392.863 119.73C393.235 119.934 393.523 120.216 393.727 120.576C393.931 120.924 394.075 121.332 394.159 121.8C394.255 122.256 394.303 122.742 394.303 123.258V129ZM400.85 129.18C400.118 129.18 399.452 129.054 398.852 128.802C398.264 128.538 397.754 128.184 397.322 127.74C396.89 127.284 396.554 126.768 396.314 126.192C396.086 125.604 395.972 124.98 395.972 124.32C395.972 123.432 396.176 122.622 396.584 121.89C396.992 121.146 397.562 120.552 398.294 120.108C399.026 119.652 399.884 119.424 400.868 119.424C401.852 119.424 402.698 119.652 403.406 120.108C404.126 120.552 404.684 121.14 405.08 121.872C405.476 122.604 405.674 123.39 405.674 124.23C405.674 124.374 405.668 124.512 405.656 124.644C405.644 124.764 405.632 124.866 405.62 124.95H398.078C398.114 125.502 398.264 125.988 398.528 126.408C398.804 126.816 399.152 127.14 399.572 127.38C399.992 127.608 400.442 127.722 400.922 127.722C401.45 127.722 401.948 127.59 402.416 127.326C402.896 127.062 403.22 126.714 403.388 126.282L405.08 126.768C404.876 127.224 404.564 127.638 404.144 128.01C403.736 128.37 403.25 128.658 402.686 128.874C402.122 129.078 401.51 129.18 400.85 129.18ZM398.024 123.636H403.712C403.676 123.096 403.52 122.622 403.244 122.214C402.98 121.794 402.638 121.47 402.218 121.242C401.81 121.002 401.354 120.882 400.85 120.882C400.358 120.882 399.902 121.002 399.482 121.242C399.074 121.47 398.738 121.794 398.474 122.214C398.21 122.622 398.06 123.096 398.024 123.636ZM412.277 129V121.35H411.017V119.82H412.277V119.442C412.277 118.674 412.397 118.008 412.637 117.444C412.889 116.88 413.237 116.448 413.681 116.148C414.137 115.836 414.671 115.68 415.283 115.68C415.667 115.68 416.045 115.734 416.417 115.842C416.789 115.938 417.143 116.076 417.479 116.256L417.047 117.732C416.867 117.612 416.651 117.522 416.399 117.462C416.159 117.39 415.925 117.354 415.697 117.354C415.241 117.354 414.887 117.528 414.635 117.876C414.383 118.224 414.257 118.728 414.257 119.388V119.82H416.669V121.35H414.257V129H412.277ZM422.243 129.18C421.511 129.18 420.845 129.054 420.245 128.802C419.657 128.538 419.147 128.184 418.715 127.74C418.283 127.284 417.947 126.768 417.707 126.192C417.479 125.604 417.365 124.98 417.365 124.32C417.365 123.432 417.569 122.622 417.977 121.89C418.385 121.146 418.955 120.552 419.687 120.108C420.419 119.652 421.277 119.424 422.261 119.424C423.245 119.424 424.091 119.652 424.799 120.108C425.519 120.552 426.077 121.14 426.473 121.872C426.869 122.604 427.067 123.39 427.067 124.23C427.067 124.374 427.061 124.512 427.049 124.644C427.037 124.764 427.025 124.866 427.013 124.95H419.471C419.507 125.502 419.657 125.988 419.921 126.408C420.197 126.816 420.545 127.14 420.965 127.38C421.385 127.608 421.835 127.722 422.315 127.722C422.843 127.722 423.341 127.59 423.809 127.326C424.289 127.062 424.613 126.714 424.781 126.282L426.473 126.768C426.269 127.224 425.957 127.638 425.537 128.01C425.129 128.37 424.643 128.658 424.079 128.874C423.515 129.078 422.903 129.18 422.243 129.18ZM419.417 123.636H425.105C425.069 123.096 424.913 122.622 424.637 122.214C424.373 121.794 424.031 121.47 423.611 121.242C423.203 121.002 422.747 120.882 422.243 120.882C421.751 120.882 421.295 121.002 420.875 121.242C420.467 121.47 420.131 121.794 419.867 122.214C419.603 122.622 419.453 123.096 419.417 123.636ZM432.948 129.18C432.216 129.18 431.55 129.054 430.95 128.802C430.362 128.538 429.852 128.184 429.42 127.74C428.988 127.284 428.652 126.768 428.412 126.192C428.184 125.604 428.07 124.98 428.07 124.32C428.07 123.432 428.274 122.622 428.682 121.89C429.09 121.146 429.66 120.552 430.392 120.108C431.124 119.652 431.982 119.424 432.966 119.424C433.95 119.424 434.796 119.652 435.504 120.108C436.224 120.552 436.782 121.14 437.178 121.872C437.574 122.604 437.772 123.39 437.772 124.23C437.772 124.374 437.766 124.512 437.754 124.644C437.742 124.764 437.73 124.866 437.718 124.95H430.176C430.212 125.502 430.362 125.988 430.626 126.408C430.902 126.816 431.25 127.14 431.67 127.38C432.09 127.608 432.54 127.722 433.02 127.722C433.548 127.722 434.046 127.59 434.514 127.326C434.994 127.062 435.318 126.714 435.486 126.282L437.178 126.768C436.974 127.224 436.662 127.638 436.242 128.01C435.834 128.37 435.348 128.658 434.784 128.874C434.22 129.078 433.608 129.18 432.948 129.18ZM430.122 123.636H435.81C435.774 123.096 435.618 122.622 435.342 122.214C435.078 121.794 434.736 121.47 434.316 121.242C433.908 121.002 433.452 120.882 432.948 120.882C432.456 120.882 432 121.002 431.58 121.242C431.172 121.47 430.836 121.794 430.572 122.214C430.308 122.622 430.158 123.096 430.122 123.636ZM439.405 115.86H441.385V126.282C441.385 126.762 441.457 127.068 441.601 127.2C441.745 127.332 441.925 127.398 442.141 127.398C442.381 127.398 442.603 127.374 442.807 127.326C443.023 127.278 443.209 127.218 443.365 127.146L443.653 128.712C443.365 128.832 443.023 128.934 442.627 129.018C442.231 129.102 441.877 129.144 441.565 129.144C440.893 129.144 440.365 128.958 439.981 128.586C439.597 128.202 439.405 127.674 439.405 127.002V115.86ZM457.181 129H455.201V123.726C455.201 122.85 455.057 122.208 454.769 121.8C454.493 121.392 454.079 121.188 453.527 121.188C453.143 121.188 452.759 121.284 452.375 121.476C452.003 121.668 451.667 121.932 451.367 122.268C451.067 122.592 450.851 122.97 450.719 123.402V129H448.739V119.586H450.539V121.476C450.779 121.056 451.091 120.696 451.475 120.396C451.871 120.084 452.315 119.844 452.807 119.676C453.299 119.508 453.821 119.424 454.373 119.424C454.937 119.424 455.399 119.526 455.759 119.73C456.131 119.934 456.419 120.216 456.623 120.576C456.839 120.924 456.983 121.332 457.055 121.8C457.139 122.256 457.181 122.742 457.181 123.258V129ZM463.709 129.18C462.965 129.18 462.299 129.054 461.711 128.802C461.123 128.538 460.613 128.178 460.181 127.722C459.761 127.266 459.437 126.75 459.209 126.174C458.981 125.586 458.867 124.962 458.867 124.302C458.867 123.642 458.981 123.018 459.209 122.43C459.437 121.842 459.761 121.326 460.181 120.882C460.613 120.426 461.123 120.072 461.711 119.82C462.311 119.556 462.977 119.424 463.709 119.424C464.441 119.424 465.101 119.556 465.689 119.82C466.289 120.072 466.799 120.426 467.219 120.882C467.651 121.326 467.981 121.842 468.209 122.43C468.437 123.018 468.551 123.642 468.551 124.302C468.551 124.962 468.437 125.586 468.209 126.174C467.981 126.75 467.651 127.266 467.219 127.722C466.799 128.178 466.289 128.538 465.689 128.802C465.101 129.054 464.441 129.18 463.709 129.18ZM460.901 124.32C460.901 124.92 461.027 125.46 461.279 125.94C461.531 126.42 461.867 126.798 462.287 127.074C462.707 127.35 463.181 127.488 463.709 127.488C464.225 127.488 464.693 127.35 465.113 127.074C465.545 126.786 465.887 126.402 466.139 125.922C466.391 125.43 466.517 124.89 466.517 124.302C466.517 123.702 466.391 123.162 466.139 122.682C465.887 122.202 465.545 121.824 465.113 121.548C464.693 121.26 464.225 121.116 463.709 121.116C463.181 121.116 462.707 121.26 462.287 121.548C461.867 121.836 461.531 122.22 461.279 122.7C461.027 123.168 460.901 123.708 460.901 124.32ZM475.405 128.514C475.237 128.598 475.027 128.688 474.775 128.784C474.523 128.88 474.235 128.964 473.911 129.036C473.599 129.108 473.275 129.144 472.939 129.144C472.531 129.144 472.153 129.072 471.805 128.928C471.457 128.784 471.175 128.556 470.959 128.244C470.755 127.92 470.653 127.506 470.653 127.002V121.116H469.411V119.586H470.653V116.49H472.633V119.586H474.685V121.116H472.633V126.372C472.657 126.696 472.759 126.936 472.939 127.092C473.131 127.248 473.365 127.326 473.641 127.326C473.917 127.326 474.181 127.278 474.433 127.182C474.685 127.086 474.871 127.008 474.991 126.948L475.405 128.514ZM480.539 126.246C480.539 125.646 480.707 125.124 481.043 124.68C481.391 124.224 481.865 123.876 482.465 123.636C483.065 123.384 483.761 123.258 484.553 123.258C484.973 123.258 485.399 123.288 485.831 123.348C486.275 123.408 486.665 123.504 487.001 123.636V123.042C487.001 122.382 486.803 121.866 486.407 121.494C486.011 121.122 485.441 120.936 484.697 120.936C484.169 120.936 483.671 121.032 483.203 121.224C482.735 121.404 482.237 121.662 481.709 121.998L481.043 120.666C481.667 120.246 482.291 119.934 482.915 119.73C483.551 119.526 484.217 119.424 484.913 119.424C486.173 119.424 487.163 119.76 487.883 120.432C488.615 121.092 488.981 122.034 488.981 123.258V126.768C488.981 126.996 489.017 127.158 489.089 127.254C489.173 127.35 489.311 127.404 489.503 127.416V129C489.323 129.036 489.161 129.06 489.017 129.072C488.873 129.084 488.753 129.09 488.657 129.09C488.237 129.09 487.919 128.988 487.703 128.784C487.487 128.58 487.361 128.34 487.325 128.064L487.271 127.524C486.863 128.052 486.341 128.46 485.705 128.748C485.069 129.036 484.427 129.18 483.779 129.18C483.155 129.18 482.597 129.054 482.105 128.802C481.613 128.538 481.229 128.184 480.953 127.74C480.677 127.296 480.539 126.798 480.539 126.246ZM486.533 126.822C486.677 126.666 486.791 126.51 486.875 126.354C486.959 126.198 487.001 126.06 487.001 125.94V124.86C486.665 124.728 486.311 124.632 485.939 124.572C485.567 124.5 485.201 124.464 484.841 124.464C484.121 124.464 483.533 124.608 483.077 124.896C482.633 125.184 482.411 125.58 482.411 126.084C482.411 126.36 482.483 126.624 482.627 126.876C482.783 127.128 482.999 127.332 483.275 127.488C483.563 127.644 483.917 127.722 484.337 127.722C484.769 127.722 485.183 127.638 485.579 127.47C485.975 127.302 486.293 127.086 486.533 126.822ZM491.401 115.86H493.381V126.282C493.381 126.762 493.453 127.068 493.597 127.2C493.741 127.332 493.921 127.398 494.137 127.398C494.377 127.398 494.599 127.374 494.803 127.326C495.019 127.278 495.205 127.218 495.361 127.146L495.649 128.712C495.361 128.832 495.019 128.934 494.623 129.018C494.227 129.102 493.873 129.144 493.561 129.144C492.889 129.144 492.361 128.958 491.977 128.586C491.593 128.202 491.401 127.674 491.401 127.002V115.86ZM501.027 129.18C500.283 129.18 499.617 129.054 499.029 128.802C498.441 128.538 497.931 128.178 497.499 127.722C497.079 127.266 496.755 126.75 496.527 126.174C496.299 125.586 496.185 124.962 496.185 124.302C496.185 123.642 496.299 123.018 496.527 122.43C496.755 121.842 497.079 121.326 497.499 120.882C497.931 120.426 498.441 120.072 499.029 119.82C499.629 119.556 500.295 119.424 501.027 119.424C501.759 119.424 502.419 119.556 503.007 119.82C503.607 120.072 504.117 120.426 504.537 120.882C504.969 121.326 505.299 121.842 505.527 122.43C505.755 123.018 505.869 123.642 505.869 124.302C505.869 124.962 505.755 125.586 505.527 126.174C505.299 126.75 504.969 127.266 504.537 127.722C504.117 128.178 503.607 128.538 503.007 128.802C502.419 129.054 501.759 129.18 501.027 129.18ZM498.219 124.32C498.219 124.92 498.345 125.46 498.597 125.94C498.849 126.42 499.185 126.798 499.605 127.074C500.025 127.35 500.499 127.488 501.027 127.488C501.543 127.488 502.011 127.35 502.431 127.074C502.863 126.786 503.205 126.402 503.457 125.922C503.709 125.43 503.835 124.89 503.835 124.302C503.835 123.702 503.709 123.162 503.457 122.682C503.205 122.202 502.863 121.824 502.431 121.548C502.011 121.26 501.543 121.116 501.027 121.116C500.499 121.116 500.025 121.26 499.605 121.548C499.185 121.836 498.849 122.22 498.597 122.7C498.345 123.168 498.219 123.708 498.219 124.32ZM516.068 129H514.088V123.726C514.088 122.85 513.944 122.208 513.656 121.8C513.38 121.392 512.966 121.188 512.414 121.188C512.03 121.188 511.646 121.284 511.262 121.476C510.89 121.668 510.554 121.932 510.254 122.268C509.954 122.592 509.738 122.97 509.606 123.402V129H507.625V119.586H509.426V121.476C509.666 121.056 509.978 120.696 510.362 120.396C510.758 120.084 511.202 119.844 511.694 119.676C512.186 119.508 512.708 119.424 513.26 119.424C513.824 119.424 514.286 119.526 514.646 119.73C515.018 119.934 515.306 120.216 515.51 120.576C515.726 120.924 515.87 121.332 515.941 121.8C516.026 122.256 516.068 122.742 516.068 123.258V129ZM522.632 129.18C521.9 129.18 521.234 129.054 520.634 128.802C520.046 128.538 519.536 128.184 519.104 127.74C518.672 127.284 518.336 126.768 518.096 126.192C517.868 125.604 517.754 124.98 517.754 124.32C517.754 123.432 517.958 122.622 518.366 121.89C518.774 121.146 519.344 120.552 520.076 120.108C520.808 119.652 521.666 119.424 522.65 119.424C523.634 119.424 524.48 119.652 525.188 120.108C525.908 120.552 526.466 121.14 526.862 121.872C527.258 122.604 527.456 123.39 527.456 124.23C527.456 124.374 527.45 124.512 527.438 124.644C527.426 124.764 527.414 124.866 527.402 124.95H519.86C519.896 125.502 520.046 125.988 520.31 126.408C520.586 126.816 520.934 127.14 521.354 127.38C521.774 127.608 522.224 127.722 522.704 127.722C523.232 127.722 523.73 127.59 524.198 127.326C524.678 127.062 525.002 126.714 525.17 126.282L526.862 126.768C526.658 127.224 526.346 127.638 525.926 128.01C525.518 128.37 525.032 128.658 524.468 128.874C523.904 129.078 523.292 129.18 522.632 129.18ZM519.806 123.636H525.494C525.458 123.096 525.302 122.622 525.026 122.214C524.762 121.794 524.42 121.47 524 121.242C523.592 121.002 523.136 120.882 522.632 120.882C522.14 120.882 521.684 121.002 521.264 121.242C520.856 121.47 520.52 121.794 520.256 122.214C519.992 122.622 519.842 123.096 519.806 123.636ZM91.8176 144.586H93.7076L89.7476 154H88.0556L86.3636 149.752L84.6716 154H82.9796L79.0016 144.586H80.8916L83.9156 152.074L85.2476 148.6L83.6276 144.604H85.3016L86.3636 147.538L87.4076 144.604H89.0816L87.4796 148.6L88.8116 152.074L91.8176 144.586ZM103.465 154H101.485V148.726C101.485 147.874 101.329 147.238 101.017 146.818C100.705 146.398 100.267 146.188 99.703 146.188C99.355 146.188 98.995 146.284 98.623 146.476C98.251 146.668 97.921 146.932 97.633 147.268C97.345 147.592 97.135 147.97 97.003 148.402V154H95.023V140.86H97.003V146.476C97.363 145.84 97.855 145.342 98.479 144.982C99.103 144.61 99.775 144.424 100.495 144.424C101.083 144.424 101.569 144.526 101.953 144.73C102.337 144.934 102.637 145.216 102.853 145.576C103.081 145.924 103.237 146.332 103.321 146.8C103.417 147.256 103.465 147.742 103.465 148.258V154ZM110.029 154.18C109.297 154.18 108.631 154.054 108.031 153.802C107.443 153.538 106.933 153.184 106.501 152.74C106.069 152.284 105.733 151.768 105.493 151.192C105.265 150.604 105.151 149.98 105.151 149.32C105.151 148.432 105.355 147.622 105.763 146.89C106.171 146.146 106.741 145.552 107.473 145.108C108.205 144.652 109.063 144.424 110.047 144.424C111.031 144.424 111.877 144.652 112.585 145.108C113.305 145.552 113.863 146.14 114.259 146.872C114.655 147.604 114.853 148.39 114.853 149.23C114.853 149.374 114.847 149.512 114.835 149.644C114.823 149.764 114.811 149.866 114.799 149.95H107.257C107.293 150.502 107.443 150.988 107.707 151.408C107.983 151.816 108.331 152.14 108.751 152.38C109.171 152.608 109.621 152.722 110.101 152.722C110.629 152.722 111.127 152.59 111.595 152.326C112.075 152.062 112.399 151.714 112.567 151.282L114.259 151.768C114.055 152.224 113.743 152.638 113.323 153.01C112.915 153.37 112.429 153.658 111.865 153.874C111.301 154.078 110.689 154.18 110.029 154.18ZM107.203 148.636H112.891C112.855 148.096 112.699 147.622 112.423 147.214C112.159 146.794 111.817 146.47 111.397 146.242C110.989 146.002 110.533 145.882 110.029 145.882C109.537 145.882 109.081 146.002 108.661 146.242C108.253 146.47 107.917 146.794 107.653 147.214C107.389 147.622 107.239 148.096 107.203 148.636ZM124.91 154H122.93V148.726C122.93 147.85 122.786 147.208 122.498 146.8C122.222 146.392 121.808 146.188 121.256 146.188C120.872 146.188 120.488 146.284 120.104 146.476C119.732 146.668 119.396 146.932 119.096 147.268C118.796 147.592 118.58 147.97 118.448 148.402V154H116.468V144.586H118.268V146.476C118.508 146.056 118.82 145.696 119.204 145.396C119.6 145.084 120.044 144.844 120.536 144.676C121.028 144.508 121.55 144.424 122.102 144.424C122.666 144.424 123.128 144.526 123.488 144.73C123.86 144.934 124.148 145.216 124.352 145.576C124.568 145.924 124.712 146.332 124.784 146.8C124.868 147.256 124.91 147.742 124.91 148.258V154ZM131.908 154V141.22H133.924V154H131.908ZM155.407 154H153.427V148.726C153.427 147.85 153.283 147.208 152.995 146.8C152.707 146.392 152.287 146.188 151.735 146.188C151.183 146.188 150.667 146.398 150.187 146.818C149.719 147.226 149.389 147.76 149.197 148.42V154H147.217V148.726C147.217 147.85 147.073 147.208 146.785 146.8C146.497 146.392 146.083 146.188 145.543 146.188C144.991 146.188 144.475 146.392 143.995 146.8C143.527 147.208 143.191 147.742 142.987 148.402V154H141.007V144.586H142.807V146.476C143.179 145.816 143.665 145.312 144.265 144.964C144.877 144.604 145.573 144.424 146.353 144.424C147.133 144.424 147.745 144.628 148.189 145.036C148.645 145.444 148.927 145.954 149.035 146.566C149.443 145.87 149.941 145.342 150.529 144.982C151.129 144.61 151.813 144.424 152.581 144.424C153.133 144.424 153.595 144.526 153.967 144.73C154.339 144.934 154.627 145.216 154.831 145.576C155.035 145.924 155.179 146.332 155.263 146.8C155.359 147.256 155.407 147.742 155.407 148.258V154ZM157.005 151.246C157.005 150.646 157.173 150.124 157.509 149.68C157.857 149.224 158.331 148.876 158.931 148.636C159.531 148.384 160.227 148.258 161.019 148.258C161.439 148.258 161.865 148.288 162.297 148.348C162.741 148.408 163.131 148.504 163.467 148.636V148.042C163.467 147.382 163.269 146.866 162.873 146.494C162.477 146.122 161.907 145.936 161.163 145.936C160.635 145.936 160.137 146.032 159.669 146.224C159.201 146.404 158.703 146.662 158.175 146.998L157.509 145.666C158.133 145.246 158.757 144.934 159.381 144.73C160.017 144.526 160.683 144.424 161.379 144.424C162.639 144.424 163.629 144.76 164.349 145.432C165.081 146.092 165.447 147.034 165.447 148.258V151.768C165.447 151.996 165.483 152.158 165.555 152.254C165.639 152.35 165.777 152.404 165.969 152.416V154C165.789 154.036 165.627 154.06 165.483 154.072C165.339 154.084 165.219 154.09 165.123 154.09C164.703 154.09 164.385 153.988 164.169 153.784C163.953 153.58 163.827 153.34 163.791 153.064L163.737 152.524C163.329 153.052 162.807 153.46 162.171 153.748C161.535 154.036 160.893 154.18 160.245 154.18C159.621 154.18 159.063 154.054 158.571 153.802C158.079 153.538 157.695 153.184 157.419 152.74C157.143 152.296 157.005 151.798 157.005 151.246ZM162.999 151.822C163.143 151.666 163.257 151.51 163.341 151.354C163.425 151.198 163.467 151.06 163.467 150.94V149.86C163.131 149.728 162.777 149.632 162.405 149.572C162.033 149.5 161.667 149.464 161.307 149.464C160.587 149.464 159.999 149.608 159.543 149.896C159.099 150.184 158.877 150.58 158.877 151.084C158.877 151.36 158.949 151.624 159.093 151.876C159.249 152.128 159.465 152.332 159.741 152.488C160.029 152.644 160.383 152.722 160.803 152.722C161.235 152.722 161.649 152.638 162.045 152.47C162.441 152.302 162.759 152.086 162.999 151.822ZM167.255 149.302C167.255 148.402 167.435 147.586 167.795 146.854C168.167 146.11 168.671 145.522 169.307 145.09C169.943 144.646 170.675 144.424 171.503 144.424C172.223 144.424 172.871 144.61 173.447 144.982C174.035 145.354 174.491 145.816 174.815 146.368V140.86H176.795V151.768C176.795 151.996 176.837 152.158 176.921 152.254C177.005 152.35 177.143 152.404 177.335 152.416V154C176.963 154.06 176.675 154.09 176.471 154.09C176.099 154.09 175.781 153.982 175.517 153.766C175.265 153.55 175.133 153.292 175.121 152.992L175.103 152.29C174.743 152.89 174.257 153.358 173.645 153.694C173.033 154.018 172.397 154.18 171.737 154.18C171.089 154.18 170.489 154.054 169.937 153.802C169.397 153.55 168.923 153.196 168.515 152.74C168.119 152.284 167.807 151.762 167.579 151.174C167.363 150.586 167.255 149.962 167.255 149.302ZM174.815 150.616V148.15C174.683 147.766 174.467 147.424 174.167 147.124C173.879 146.812 173.549 146.566 173.177 146.386C172.817 146.206 172.457 146.116 172.097 146.116C171.677 146.116 171.293 146.206 170.945 146.386C170.609 146.566 170.315 146.806 170.063 147.106C169.823 147.406 169.637 147.748 169.505 148.132C169.373 148.516 169.307 148.918 169.307 149.338C169.307 149.77 169.379 150.178 169.523 150.562C169.667 150.934 169.871 151.27 170.135 151.57C170.411 151.858 170.723 152.086 171.071 152.254C171.431 152.41 171.821 152.488 172.241 152.488C172.505 152.488 172.769 152.44 173.033 152.344C173.309 152.248 173.567 152.116 173.807 151.948C174.059 151.78 174.269 151.582 174.437 151.354C174.617 151.126 174.743 150.88 174.815 150.616ZM183.576 154.18C182.844 154.18 182.178 154.054 181.578 153.802C180.99 153.538 180.48 153.184 180.048 152.74C179.616 152.284 179.28 151.768 179.04 151.192C178.812 150.604 178.698 149.98 178.698 149.32C178.698 148.432 178.902 147.622 179.31 146.89C179.718 146.146 180.288 145.552 181.02 145.108C181.752 144.652 182.61 144.424 183.594 144.424C184.578 144.424 185.424 144.652 186.132 145.108C186.852 145.552 187.41 146.14 187.806 146.872C188.202 147.604 188.4 148.39 188.4 149.23C188.4 149.374 188.394 149.512 188.382 149.644C188.37 149.764 188.358 149.866 188.346 149.95H180.804C180.84 150.502 180.99 150.988 181.254 151.408C181.53 151.816 181.878 152.14 182.298 152.38C182.718 152.608 183.168 152.722 183.648 152.722C184.176 152.722 184.674 152.59 185.142 152.326C185.622 152.062 185.946 151.714 186.114 151.282L187.806 151.768C187.602 152.224 187.29 152.638 186.87 153.01C186.462 153.37 185.976 153.658 185.412 153.874C184.848 154.078 184.236 154.18 183.576 154.18ZM180.75 148.636H186.438C186.402 148.096 186.246 147.622 185.97 147.214C185.706 146.794 185.364 146.47 184.944 146.242C184.536 146.002 184.08 145.882 183.576 145.882C183.084 145.882 182.628 146.002 182.208 146.242C181.8 146.47 181.464 146.794 181.2 147.214C180.936 147.622 180.786 148.096 180.75 148.636ZM199.7 153.514C199.532 153.598 199.322 153.688 199.07 153.784C198.818 153.88 198.53 153.964 198.206 154.036C197.894 154.108 197.57 154.144 197.234 154.144C196.826 154.144 196.448 154.072 196.1 153.928C195.752 153.784 195.47 153.556 195.254 153.244C195.05 152.92 194.948 152.506 194.948 152.002V146.116H193.706V144.586H194.948V141.49H196.928V144.586H198.98V146.116H196.928V151.372C196.952 151.696 197.054 151.936 197.234 152.092C197.426 152.248 197.66 152.326 197.936 152.326C198.212 152.326 198.476 152.278 198.728 152.182C198.98 152.086 199.166 152.008 199.286 151.948L199.7 153.514ZM209.514 154H207.534V148.726C207.534 147.874 207.378 147.238 207.066 146.818C206.754 146.398 206.316 146.188 205.752 146.188C205.404 146.188 205.044 146.284 204.672 146.476C204.3 146.668 203.97 146.932 203.682 147.268C203.394 147.592 203.184 147.97 203.052 148.402V154H201.072V140.86H203.052V146.476C203.412 145.84 203.904 145.342 204.528 144.982C205.152 144.61 205.824 144.424 206.544 144.424C207.132 144.424 207.618 144.526 208.002 144.73C208.386 144.934 208.686 145.216 208.902 145.576C209.13 145.924 209.286 146.332 209.37 146.8C209.466 147.256 209.514 147.742 209.514 148.258V154ZM216.078 154.18C215.346 154.18 214.68 154.054 214.08 153.802C213.492 153.538 212.982 153.184 212.55 152.74C212.118 152.284 211.782 151.768 211.542 151.192C211.314 150.604 211.2 149.98 211.2 149.32C211.2 148.432 211.404 147.622 211.812 146.89C212.22 146.146 212.79 145.552 213.522 145.108C214.254 144.652 215.112 144.424 216.096 144.424C217.08 144.424 217.926 144.652 218.634 145.108C219.354 145.552 219.912 146.14 220.308 146.872C220.704 147.604 220.902 148.39 220.902 149.23C220.902 149.374 220.896 149.512 220.884 149.644C220.872 149.764 220.86 149.866 220.848 149.95H213.306C213.342 150.502 213.492 150.988 213.756 151.408C214.032 151.816 214.38 152.14 214.8 152.38C215.22 152.608 215.67 152.722 216.15 152.722C216.678 152.722 217.176 152.59 217.644 152.326C218.124 152.062 218.448 151.714 218.616 151.282L220.308 151.768C220.104 152.224 219.792 152.638 219.372 153.01C218.964 153.37 218.478 153.658 217.914 153.874C217.35 154.078 216.738 154.18 216.078 154.18ZM213.252 148.636H218.94C218.904 148.096 218.748 147.622 218.472 147.214C218.208 146.794 217.866 146.47 217.446 146.242C217.038 146.002 216.582 145.882 216.078 145.882C215.586 145.882 215.13 146.002 214.71 146.242C214.302 146.47 213.966 146.794 213.702 147.214C213.438 147.622 213.288 148.096 213.252 148.636ZM232.202 153.514C232.034 153.598 231.824 153.688 231.572 153.784C231.32 153.88 231.032 153.964 230.708 154.036C230.396 154.108 230.072 154.144 229.736 154.144C229.328 154.144 228.95 154.072 228.602 153.928C228.254 153.784 227.972 153.556 227.756 153.244C227.552 152.92 227.45 152.506 227.45 152.002V146.116H226.208V144.586H227.45V141.49H229.43V144.586H231.482V146.116H229.43V151.372C229.454 151.696 229.556 151.936 229.736 152.092C229.928 152.248 230.162 152.326 230.438 152.326C230.714 152.326 230.978 152.278 231.23 152.182C231.482 152.086 231.668 152.008 231.788 151.948L232.202 153.514ZM238.866 146.296C238.098 146.308 237.414 146.482 236.814 146.818C236.226 147.154 235.806 147.628 235.554 148.24V154H233.574V144.586H235.41V146.692C235.734 146.044 236.16 145.528 236.688 145.144C237.216 144.748 237.774 144.532 238.362 144.496C238.482 144.496 238.578 144.496 238.65 144.496C238.734 144.496 238.806 144.502 238.866 144.514V146.296ZM239.605 151.246C239.605 150.646 239.773 150.124 240.109 149.68C240.457 149.224 240.931 148.876 241.531 148.636C242.131 148.384 242.827 148.258 243.619 148.258C244.039 148.258 244.465 148.288 244.897 148.348C245.341 148.408 245.731 148.504 246.067 148.636V148.042C246.067 147.382 245.869 146.866 245.473 146.494C245.077 146.122 244.507 145.936 243.763 145.936C243.235 145.936 242.737 146.032 242.269 146.224C241.801 146.404 241.303 146.662 240.775 146.998L240.109 145.666C240.733 145.246 241.357 144.934 241.981 144.73C242.617 144.526 243.283 144.424 243.979 144.424C245.239 144.424 246.229 144.76 246.949 145.432C247.681 146.092 248.047 147.034 248.047 148.258V151.768C248.047 151.996 248.083 152.158 248.155 152.254C248.239 152.35 248.377 152.404 248.569 152.416V154C248.389 154.036 248.227 154.06 248.083 154.072C247.939 154.084 247.819 154.09 247.723 154.09C247.303 154.09 246.985 153.988 246.769 153.784C246.553 153.58 246.427 153.34 246.391 153.064L246.337 152.524C245.929 153.052 245.407 153.46 244.771 153.748C244.135 154.036 243.493 154.18 242.845 154.18C242.221 154.18 241.663 154.054 241.171 153.802C240.679 153.538 240.295 153.184 240.019 152.74C239.743 152.296 239.605 151.798 239.605 151.246ZM245.599 151.822C245.743 151.666 245.857 151.51 245.941 151.354C246.025 151.198 246.067 151.06 246.067 150.94V149.86C245.731 149.728 245.377 149.632 245.005 149.572C244.633 149.5 244.267 149.464 243.907 149.464C243.187 149.464 242.599 149.608 242.143 149.896C241.699 150.184 241.477 150.58 241.477 151.084C241.477 151.36 241.549 151.624 241.693 151.876C241.849 152.128 242.065 152.332 242.341 152.488C242.629 152.644 242.983 152.722 243.403 152.722C243.835 152.722 244.249 152.638 244.645 152.47C245.041 152.302 245.359 152.086 245.599 151.822ZM258.891 154H256.911V148.726C256.911 147.85 256.767 147.208 256.479 146.8C256.203 146.392 255.789 146.188 255.237 146.188C254.853 146.188 254.469 146.284 254.085 146.476C253.713 146.668 253.377 146.932 253.077 147.268C252.777 147.592 252.561 147.97 252.429 148.402V154H250.449V144.586H252.249V146.476C252.489 146.056 252.801 145.696 253.185 145.396C253.581 145.084 254.025 144.844 254.517 144.676C255.009 144.508 255.531 144.424 256.083 144.424C256.647 144.424 257.109 144.526 257.469 144.73C257.841 144.934 258.129 145.216 258.333 145.576C258.549 145.924 258.693 146.332 258.765 146.8C258.849 147.256 258.891 147.742 258.891 148.258V154ZM264.537 154.18C263.745 154.18 262.995 154.054 262.287 153.802C261.579 153.538 260.973 153.148 260.469 152.632L261.207 151.3C261.747 151.78 262.287 152.128 262.827 152.344C263.379 152.56 263.925 152.668 264.465 152.668C265.017 152.668 265.467 152.566 265.815 152.362C266.163 152.146 266.337 151.834 266.337 151.426C266.337 151.126 266.247 150.904 266.067 150.76C265.887 150.616 265.623 150.49 265.275 150.382C264.939 150.274 264.531 150.154 264.051 150.022C263.379 149.818 262.815 149.608 262.359 149.392C261.903 149.164 261.561 148.888 261.333 148.564C261.105 148.24 260.991 147.826 260.991 147.322C260.991 146.71 261.147 146.188 261.459 145.756C261.771 145.324 262.203 144.994 262.755 144.766C263.319 144.538 263.967 144.424 264.699 144.424C265.383 144.424 266.013 144.532 266.589 144.748C267.177 144.952 267.693 145.276 268.137 145.72L267.291 147.034C266.871 146.65 266.439 146.368 265.995 146.188C265.563 146.008 265.095 145.918 264.591 145.918C264.303 145.918 264.027 145.954 263.763 146.026C263.499 146.086 263.277 146.206 263.097 146.386C262.929 146.554 262.845 146.794 262.845 147.106C262.845 147.358 262.917 147.562 263.061 147.718C263.205 147.874 263.421 148.006 263.709 148.114C263.997 148.222 264.351 148.342 264.771 148.474C265.503 148.69 266.127 148.906 266.643 149.122C267.159 149.326 267.555 149.596 267.831 149.932C268.119 150.256 268.263 150.706 268.263 151.282C268.263 152.194 267.921 152.908 267.237 153.424C266.565 153.928 265.665 154.18 264.537 154.18ZM270.031 154V144.586H272.011V154H270.031ZM270.031 143.038V140.86H272.011V143.038H270.031ZM279.628 153.514C279.46 153.598 279.25 153.688 278.998 153.784C278.746 153.88 278.458 153.964 278.134 154.036C277.822 154.108 277.498 154.144 277.162 154.144C276.754 154.144 276.376 154.072 276.028 153.928C275.68 153.784 275.398 153.556 275.182 153.244C274.978 152.92 274.876 152.506 274.876 152.002V146.116H273.634V144.586H274.876V141.49H276.856V144.586H278.908V146.116H276.856V151.372C276.88 151.696 276.982 151.936 277.162 152.092C277.354 152.248 277.588 152.326 277.864 152.326C278.14 152.326 278.404 152.278 278.656 152.182C278.908 152.086 279.094 152.008 279.214 151.948L279.628 153.514ZM281 154V144.586H282.98V154H281ZM281 143.038V140.86H282.98V143.038H281ZM289.589 154.18C288.845 154.18 288.179 154.054 287.591 153.802C287.003 153.538 286.493 153.178 286.061 152.722C285.641 152.266 285.317 151.75 285.089 151.174C284.861 150.586 284.747 149.962 284.747 149.302C284.747 148.642 284.861 148.018 285.089 147.43C285.317 146.842 285.641 146.326 286.061 145.882C286.493 145.426 287.003 145.072 287.591 144.82C288.191 144.556 288.857 144.424 289.589 144.424C290.321 144.424 290.981 144.556 291.569 144.82C292.169 145.072 292.679 145.426 293.099 145.882C293.531 146.326 293.861 146.842 294.089 147.43C294.317 148.018 294.431 148.642 294.431 149.302C294.431 149.962 294.317 150.586 294.089 151.174C293.861 151.75 293.531 152.266 293.099 152.722C292.679 153.178 292.169 153.538 291.569 153.802C290.981 154.054 290.321 154.18 289.589 154.18ZM286.781 149.32C286.781 149.92 286.907 150.46 287.159 150.94C287.411 151.42 287.747 151.798 288.167 152.074C288.587 152.35 289.061 152.488 289.589 152.488C290.105 152.488 290.573 152.35 290.993 152.074C291.425 151.786 291.767 151.402 292.019 150.922C292.271 150.43 292.397 149.89 292.397 149.302C292.397 148.702 292.271 148.162 292.019 147.682C291.767 147.202 291.425 146.824 290.993 146.548C290.573 146.26 290.105 146.116 289.589 146.116C289.061 146.116 288.587 146.26 288.167 146.548C287.747 146.836 287.411 147.22 287.159 147.7C286.907 148.168 286.781 148.708 286.781 149.32ZM304.629 154H302.649V148.726C302.649 147.85 302.505 147.208 302.217 146.8C301.941 146.392 301.527 146.188 300.975 146.188C300.591 146.188 300.207 146.284 299.823 146.476C299.451 146.668 299.115 146.932 298.815 147.268C298.515 147.592 298.299 147.97 298.167 148.402V154H296.187V144.586H297.987V146.476C298.227 146.056 298.539 145.696 298.923 145.396C299.319 145.084 299.763 144.844 300.255 144.676C300.747 144.508 301.269 144.424 301.821 144.424C302.385 144.424 302.847 144.526 303.207 144.73C303.579 144.934 303.867 145.216 304.071 145.576C304.287 145.924 304.431 146.332 304.503 146.8C304.587 147.256 304.629 147.742 304.629 148.258V154ZM311.915 154V146.35H310.655V144.82H311.915V144.442C311.915 143.674 312.035 143.008 312.275 142.444C312.527 141.88 312.875 141.448 313.319 141.148C313.775 140.836 314.309 140.68 314.921 140.68C315.305 140.68 315.683 140.734 316.055 140.842C316.427 140.938 316.781 141.076 317.117 141.256L316.685 142.732C316.505 142.612 316.289 142.522 316.037 142.462C315.797 142.39 315.563 142.354 315.335 142.354C314.879 142.354 314.525 142.528 314.273 142.876C314.021 143.224 313.895 143.728 313.895 144.388V144.82H316.307V146.35H313.895V154H311.915ZM323.083 146.296C322.315 146.308 321.631 146.482 321.031 146.818C320.443 147.154 320.023 147.628 319.771 148.24V154H317.791V144.586H319.627V146.692C319.951 146.044 320.377 145.528 320.905 145.144C321.433 144.748 321.991 144.532 322.579 144.496C322.699 144.496 322.795 144.496 322.867 144.496C322.951 144.496 323.023 144.502 323.083 144.514V146.296ZM328.577 154.18C327.833 154.18 327.167 154.054 326.579 153.802C325.991 153.538 325.481 153.178 325.049 152.722C324.629 152.266 324.305 151.75 324.077 151.174C323.849 150.586 323.735 149.962 323.735 149.302C323.735 148.642 323.849 148.018 324.077 147.43C324.305 146.842 324.629 146.326 325.049 145.882C325.481 145.426 325.991 145.072 326.579 144.82C327.179 144.556 327.845 144.424 328.577 144.424C329.309 144.424 329.969 144.556 330.557 144.82C331.157 145.072 331.667 145.426 332.087 145.882C332.519 146.326 332.849 146.842 333.077 147.43C333.305 148.018 333.419 148.642 333.419 149.302C333.419 149.962 333.305 150.586 333.077 151.174C332.849 151.75 332.519 152.266 332.087 152.722C331.667 153.178 331.157 153.538 330.557 153.802C329.969 154.054 329.309 154.18 328.577 154.18ZM325.769 149.32C325.769 149.92 325.895 150.46 326.147 150.94C326.399 151.42 326.735 151.798 327.155 152.074C327.575 152.35 328.049 152.488 328.577 152.488C329.093 152.488 329.561 152.35 329.981 152.074C330.413 151.786 330.755 151.402 331.007 150.922C331.259 150.43 331.385 149.89 331.385 149.302C331.385 148.702 331.259 148.162 331.007 147.682C330.755 147.202 330.413 146.824 329.981 146.548C329.561 146.26 329.093 146.116 328.577 146.116C328.049 146.116 327.575 146.26 327.155 146.548C326.735 146.836 326.399 147.22 326.147 147.7C325.895 148.168 325.769 148.708 325.769 149.32ZM349.575 154H347.595V148.726C347.595 147.85 347.451 147.208 347.163 146.8C346.875 146.392 346.455 146.188 345.903 146.188C345.351 146.188 344.835 146.398 344.355 146.818C343.887 147.226 343.557 147.76 343.365 148.42V154H341.385V148.726C341.385 147.85 341.241 147.208 340.953 146.8C340.665 146.392 340.251 146.188 339.711 146.188C339.159 146.188 338.643 146.392 338.163 146.8C337.695 147.208 337.359 147.742 337.155 148.402V154H335.175V144.586H336.975V146.476C337.347 145.816 337.833 145.312 338.433 144.964C339.045 144.604 339.741 144.424 340.521 144.424C341.301 144.424 341.913 144.628 342.357 145.036C342.813 145.444 343.095 145.954 343.203 146.566C343.611 145.87 344.109 145.342 344.697 144.982C345.297 144.61 345.981 144.424 346.749 144.424C347.301 144.424 347.763 144.526 348.135 144.73C348.507 144.934 348.795 145.216 348.999 145.576C349.203 145.924 349.347 146.332 349.431 146.8C349.527 147.256 349.575 147.742 349.575 148.258V154ZM367.53 144.586H369.42L365.46 154H363.768L362.076 149.752L360.384 154H358.692L354.714 144.586H356.604L359.628 152.074L360.96 148.6L359.34 144.604H361.014L362.076 147.538L363.12 144.604H364.794L363.192 148.6L364.524 152.074L367.53 144.586ZM374.685 154.18C373.953 154.18 373.287 154.054 372.687 153.802C372.099 153.538 371.589 153.184 371.157 152.74C370.725 152.284 370.389 151.768 370.149 151.192C369.921 150.604 369.807 149.98 369.807 149.32C369.807 148.432 370.011 147.622 370.419 146.89C370.827 146.146 371.397 145.552 372.129 145.108C372.861 144.652 373.719 144.424 374.703 144.424C375.687 144.424 376.533 144.652 377.241 145.108C377.961 145.552 378.519 146.14 378.915 146.872C379.311 147.604 379.509 148.39 379.509 149.23C379.509 149.374 379.503 149.512 379.491 149.644C379.479 149.764 379.467 149.866 379.455 149.95H371.913C371.949 150.502 372.099 150.988 372.363 151.408C372.639 151.816 372.987 152.14 373.407 152.38C373.827 152.608 374.277 152.722 374.757 152.722C375.285 152.722 375.783 152.59 376.251 152.326C376.731 152.062 377.055 151.714 377.223 151.282L378.915 151.768C378.711 152.224 378.399 152.638 377.979 153.01C377.571 153.37 377.085 153.658 376.521 153.874C375.957 154.078 375.345 154.18 374.685 154.18ZM371.859 148.636H377.547C377.511 148.096 377.355 147.622 377.079 147.214C376.815 146.794 376.473 146.47 376.053 146.242C375.645 146.002 375.189 145.882 374.685 145.882C374.193 145.882 373.737 146.002 373.317 146.242C372.909 146.47 372.573 146.794 372.309 147.214C372.045 147.622 371.895 148.096 371.859 148.636ZM386.201 154.18C385.481 154.18 384.827 154.012 384.239 153.676C383.663 153.328 383.207 152.866 382.871 152.29V154H381.125V140.86H383.105V146.368C383.477 145.768 383.939 145.294 384.491 144.946C385.055 144.598 385.715 144.424 386.471 144.424C387.095 144.424 387.665 144.556 388.181 144.82C388.697 145.084 389.135 145.444 389.495 145.9C389.867 146.356 390.149 146.878 390.341 147.466C390.545 148.054 390.647 148.678 390.647 149.338C390.647 149.998 390.533 150.622 390.305 151.21C390.089 151.798 389.777 152.314 389.369 152.758C388.961 153.202 388.487 153.55 387.947 153.802C387.419 154.054 386.837 154.18 386.201 154.18ZM385.679 152.488C386.111 152.488 386.507 152.404 386.867 152.236C387.227 152.056 387.539 151.822 387.803 151.534C388.067 151.246 388.265 150.91 388.397 150.526C388.541 150.142 388.613 149.746 388.613 149.338C388.613 148.774 388.493 148.246 388.253 147.754C388.025 147.262 387.701 146.866 387.281 146.566C386.861 146.266 386.375 146.116 385.823 146.116C385.427 146.116 385.055 146.212 384.707 146.404C384.359 146.584 384.047 146.83 383.771 147.142C383.507 147.442 383.285 147.778 383.105 148.15V150.634C383.177 150.91 383.303 151.162 383.483 151.39C383.663 151.606 383.873 151.798 384.113 151.966C384.353 152.122 384.611 152.248 384.887 152.344C385.163 152.44 385.427 152.488 385.679 152.488ZM391.959 154C391.959 153.496 392.001 153.034 392.085 152.614C392.169 152.182 392.313 151.774 392.517 151.39C392.733 151.006 393.027 150.646 393.399 150.31C393.783 149.962 394.269 149.632 394.857 149.32C395.277 149.08 395.673 148.87 396.045 148.69C396.417 148.498 396.747 148.312 397.035 148.132C397.323 147.94 397.545 147.736 397.701 147.52C397.869 147.304 397.953 147.058 397.953 146.782C397.953 146.518 397.881 146.272 397.737 146.044C397.593 145.816 397.377 145.636 397.089 145.504C396.801 145.36 396.453 145.288 396.045 145.288C395.721 145.288 395.421 145.33 395.145 145.414C394.881 145.498 394.635 145.612 394.407 145.756C394.191 145.888 393.993 146.038 393.813 146.206C393.633 146.362 393.477 146.518 393.345 146.674L392.103 145.252C392.223 145.108 392.409 144.946 392.661 144.766C392.925 144.574 393.237 144.388 393.597 144.208C393.969 144.016 394.389 143.86 394.857 143.74C395.325 143.608 395.835 143.542 396.387 143.542C397.167 143.542 397.833 143.674 398.385 143.938C398.937 144.19 399.357 144.544 399.645 145C399.945 145.444 400.095 145.948 400.095 146.512C400.095 146.956 400.005 147.346 399.825 147.682C399.657 148.018 399.435 148.318 399.159 148.582C398.883 148.834 398.589 149.056 398.277 149.248C397.977 149.428 397.695 149.59 397.431 149.734C396.963 149.962 396.555 150.172 396.207 150.364C395.871 150.556 395.583 150.748 395.343 150.94C395.103 151.12 394.905 151.312 394.749 151.516C394.593 151.708 394.461 151.942 394.353 152.218H400.293V154H391.959ZM402.216 154V151.696H403.854V154H402.216ZM415.084 148.726C415.084 149.782 414.88 150.724 414.472 151.552C414.076 152.368 413.53 153.01 412.834 153.478C412.15 153.946 411.364 154.18 410.476 154.18C409.6 154.18 408.814 153.946 408.118 153.478C407.422 153.01 406.87 152.368 406.462 151.552C406.066 150.724 405.868 149.782 405.868 148.726C405.868 147.67 406.066 146.734 406.462 145.918C406.87 145.09 407.422 144.442 408.118 143.974C408.814 143.494 409.6 143.254 410.476 143.254C411.364 143.254 412.15 143.494 412.834 143.974C413.53 144.442 414.076 145.09 414.472 145.918C414.88 146.734 415.084 147.67 415.084 148.726ZM413.068 148.726C413.068 148.006 412.96 147.376 412.744 146.836C412.528 146.284 412.222 145.858 411.826 145.558C411.43 145.246 410.98 145.09 410.476 145.09C409.96 145.09 409.504 145.246 409.108 145.558C408.712 145.858 408.4 146.284 408.172 146.836C407.956 147.376 407.848 148.006 407.848 148.726C407.848 149.446 407.956 150.076 408.172 150.616C408.4 151.156 408.712 151.582 409.108 151.894C409.504 152.194 409.96 152.344 410.476 152.344C410.98 152.344 411.424 152.194 411.808 151.894C412.204 151.582 412.51 151.156 412.726 150.616C412.954 150.076 413.068 149.446 413.068 148.726ZM426.88 153.514C426.712 153.598 426.502 153.688 426.25 153.784C425.998 153.88 425.71 153.964 425.386 154.036C425.074 154.108 424.75 154.144 424.414 154.144C424.006 154.144 423.628 154.072 423.28 153.928C422.932 153.784 422.65 153.556 422.434 153.244C422.23 152.92 422.128 152.506 422.128 152.002V146.116H420.886V144.586H422.128V141.49H424.108V144.586H426.16V146.116H424.108V151.372C424.132 151.696 424.234 151.936 424.414 152.092C424.606 152.248 424.84 152.326 425.116 152.326C425.392 152.326 425.656 152.278 425.908 152.182C426.16 152.086 426.346 152.008 426.466 151.948L426.88 153.514ZM432.358 154.18C431.614 154.18 430.948 154.054 430.36 153.802C429.772 153.538 429.262 153.178 428.83 152.722C428.41 152.266 428.086 151.75 427.858 151.174C427.63 150.586 427.516 149.962 427.516 149.302C427.516 148.642 427.63 148.018 427.858 147.43C428.086 146.842 428.41 146.326 428.83 145.882C429.262 145.426 429.772 145.072 430.36 144.82C430.96 144.556 431.626 144.424 432.358 144.424C433.09 144.424 433.75 144.556 434.338 144.82C434.938 145.072 435.448 145.426 435.868 145.882C436.3 146.326 436.63 146.842 436.858 147.43C437.086 148.018 437.2 148.642 437.2 149.302C437.2 149.962 437.086 150.586 436.858 151.174C436.63 151.75 436.3 152.266 435.868 152.722C435.448 153.178 434.938 153.538 434.338 153.802C433.75 154.054 433.09 154.18 432.358 154.18ZM429.55 149.32C429.55 149.92 429.676 150.46 429.928 150.94C430.18 151.42 430.516 151.798 430.936 152.074C431.356 152.35 431.83 152.488 432.358 152.488C432.874 152.488 433.342 152.35 433.762 152.074C434.194 151.786 434.536 151.402 434.788 150.922C435.04 150.43 435.166 149.89 435.166 149.302C435.166 148.702 435.04 148.162 434.788 147.682C434.536 147.202 434.194 146.824 433.762 146.548C433.342 146.26 432.874 146.116 432.358 146.116C431.83 146.116 431.356 146.26 430.936 146.548C430.516 146.836 430.18 147.22 429.928 147.7C429.676 148.168 429.55 148.708 429.55 149.32ZM454.63 144.586H456.52L452.56 154H450.868L449.176 149.752L447.484 154H445.792L441.814 144.586H443.704L446.728 152.074L448.06 148.6L446.44 144.604H448.114L449.176 147.538L450.22 144.604H451.894L450.292 148.6L451.624 152.074L454.63 144.586ZM461.785 154.18C461.053 154.18 460.387 154.054 459.787 153.802C459.199 153.538 458.689 153.184 458.257 152.74C457.825 152.284 457.489 151.768 457.249 151.192C457.021 150.604 456.907 149.98 456.907 149.32C456.907 148.432 457.111 147.622 457.519 146.89C457.927 146.146 458.497 145.552 459.229 145.108C459.961 144.652 460.819 144.424 461.803 144.424C462.787 144.424 463.633 144.652 464.341 145.108C465.061 145.552 465.619 146.14 466.015 146.872C466.411 147.604 466.609 148.39 466.609 149.23C466.609 149.374 466.603 149.512 466.591 149.644C466.579 149.764 466.567 149.866 466.555 149.95H459.013C459.049 150.502 459.199 150.988 459.463 151.408C459.739 151.816 460.087 152.14 460.507 152.38C460.927 152.608 461.377 152.722 461.857 152.722C462.385 152.722 462.883 152.59 463.351 152.326C463.831 152.062 464.155 151.714 464.323 151.282L466.015 151.768C465.811 152.224 465.499 152.638 465.079 153.01C464.671 153.37 464.185 153.658 463.621 153.874C463.057 154.078 462.445 154.18 461.785 154.18ZM458.959 148.636H464.647C464.611 148.096 464.455 147.622 464.179 147.214C463.915 146.794 463.573 146.47 463.153 146.242C462.745 146.002 462.289 145.882 461.785 145.882C461.293 145.882 460.837 146.002 460.417 146.242C460.009 146.47 459.673 146.794 459.409 147.214C459.145 147.622 458.995 148.096 458.959 148.636ZM473.3 154.18C472.58 154.18 471.926 154.012 471.338 153.676C470.762 153.328 470.306 152.866 469.97 152.29V154H468.224V140.86H470.204V146.368C470.576 145.768 471.038 145.294 471.59 144.946C472.154 144.598 472.814 144.424 473.57 144.424C474.194 144.424 474.764 144.556 475.28 144.82C475.796 145.084 476.234 145.444 476.594 145.9C476.966 146.356 477.248 146.878 477.44 147.466C477.644 148.054 477.746 148.678 477.746 149.338C477.746 149.998 477.632 150.622 477.404 151.21C477.188 151.798 476.876 152.314 476.468 152.758C476.06 153.202 475.586 153.55 475.046 153.802C474.518 154.054 473.936 154.18 473.3 154.18ZM472.778 152.488C473.21 152.488 473.606 152.404 473.966 152.236C474.326 152.056 474.638 151.822 474.902 151.534C475.166 151.246 475.364 150.91 475.496 150.526C475.64 150.142 475.712 149.746 475.712 149.338C475.712 148.774 475.592 148.246 475.352 147.754C475.124 147.262 474.8 146.866 474.38 146.566C473.96 146.266 473.474 146.116 472.922 146.116C472.526 146.116 472.154 146.212 471.806 146.404C471.458 146.584 471.146 146.83 470.87 147.142C470.606 147.442 470.384 147.778 470.204 148.15V150.634C470.276 150.91 470.402 151.162 470.582 151.39C470.762 151.606 470.972 151.798 471.212 151.966C471.452 152.122 471.71 152.248 471.986 152.344C472.262 152.44 472.526 152.488 472.778 152.488ZM484.981 149.752C485.485 149.836 485.923 150.028 486.295 150.328C486.679 150.616 486.973 150.988 487.177 151.444C487.381 151.888 487.483 152.392 487.483 152.956C487.483 153.7 487.297 154.348 486.925 154.9C486.565 155.452 486.049 155.878 485.377 156.178C484.705 156.49 483.913 156.646 483.001 156.646C482.089 156.646 481.285 156.484 480.589 156.16C479.893 155.848 479.335 155.392 478.915 154.792L480.121 153.424C480.409 153.856 480.781 154.198 481.237 154.45C481.693 154.714 482.269 154.846 482.965 154.846C483.745 154.846 484.351 154.678 484.783 154.342C485.215 154.006 485.431 153.502 485.431 152.83C485.431 152.134 485.191 151.588 484.711 151.192C484.243 150.796 483.535 150.598 482.587 150.598H482.101V149.05H482.641C483.445 149.05 484.063 148.864 484.495 148.492C484.927 148.108 485.143 147.628 485.143 147.052C485.143 146.668 485.053 146.356 484.873 146.116C484.705 145.864 484.465 145.678 484.153 145.558C483.841 145.438 483.481 145.378 483.073 145.378C482.461 145.378 481.921 145.51 481.453 145.774C480.985 146.038 480.613 146.416 480.337 146.908L479.095 145.558C479.335 145.174 479.665 144.838 480.085 144.55C480.505 144.262 480.985 144.04 481.525 143.884C482.077 143.716 482.659 143.632 483.271 143.632C484.063 143.632 484.759 143.764 485.359 144.028C485.959 144.292 486.421 144.664 486.745 145.144C487.081 145.624 487.249 146.188 487.249 146.836C487.249 147.304 487.159 147.748 486.979 148.168C486.799 148.576 486.535 148.924 486.187 149.212C485.839 149.488 485.437 149.668 484.981 149.752ZM489.316 154V151.696H490.954V154H489.316ZM502.184 148.726C502.184 149.782 501.98 150.724 501.572 151.552C501.176 152.368 500.63 153.01 499.934 153.478C499.25 153.946 498.464 154.18 497.576 154.18C496.7 154.18 495.914 153.946 495.218 153.478C494.522 153.01 493.97 152.368 493.562 151.552C493.166 150.724 492.968 149.782 492.968 148.726C492.968 147.67 493.166 146.734 493.562 145.918C493.97 145.09 494.522 144.442 495.218 143.974C495.914 143.494 496.7 143.254 497.576 143.254C498.464 143.254 499.25 143.494 499.934 143.974C500.63 144.442 501.176 145.09 501.572 145.918C501.98 146.734 502.184 147.67 502.184 148.726ZM500.168 148.726C500.168 148.006 500.06 147.376 499.844 146.836C499.628 146.284 499.322 145.858 498.926 145.558C498.53 145.246 498.08 145.09 497.576 145.09C497.06 145.09 496.604 145.246 496.208 145.558C495.812 145.858 495.5 146.284 495.272 146.836C495.056 147.376 494.948 148.006 494.948 148.726C494.948 149.446 495.056 150.076 495.272 150.616C495.5 151.156 495.812 151.582 496.208 151.894C496.604 152.194 497.06 152.344 497.576 152.344C498.08 152.344 498.524 152.194 498.908 151.894C499.304 151.582 499.61 151.156 499.826 150.616C500.054 150.076 500.168 149.446 500.168 148.726Z" fill="#AAB0FE"/>
<defs>
<filter id="filter0_b_440_20" x="-4" y="-4" width="591" height="275" filterUnits="userSpaceOnUse" color-interpolation-filters="sRGB">
<feFlood flood-opacity="0" result="BackgroundImageFix"/>
<feGaussianBlur in="BackgroundImageFix" stdDeviation="2"/>
<feComposite in2="SourceAlpha" operator="in" result="effect1_backgroundBlur_440_20"/>
<feBlend mode="normal" in="SourceGraphic" in2="effect1_backgroundBlur_440_20" result="shape"/>
</filter>
</defs>
</svg>
