<svg width="143" height="36" viewBox="0 0 143 36" fill="none" xmlns="http://www.w3.org/2000/svg">
<path d="M108.884 12.2892H105.967C105.627 12.2892 105.304 12.1424 105.078 11.8873L103.896 10.5462C103.72 10.3466 103.466 10.2312 103.2 10.2312C102.935 10.2312 102.681 10.3452 102.505 10.5462L101.49 11.6977C101.158 12.074 100.681 12.2906 100.18 12.2906H84.2165C83.7623 13.5918 83.4656 14.9657 83.3478 16.3923H98.418C98.6835 16.3923 98.9361 16.284 99.1192 16.0916L100.523 14.6222C100.698 14.4384 100.94 14.3343 101.193 14.3343H101.251C101.517 14.3343 101.771 14.4484 101.947 14.6493L103.129 15.9904C103.355 16.2455 103.677 16.3923 104.018 16.3923H116.319C116.201 14.9657 115.904 13.5918 115.45 12.2906H108.884V12.2892Z" fill="white"/>
<path d="M92.4691 25.0133C92.7346 25.0133 92.9872 24.905 93.1703 24.7126L94.5742 23.2432C94.7487 23.0594 94.9915 22.9553 95.2441 22.9553H95.3023C95.5678 22.9553 95.8218 23.0694 95.9979 23.2703L97.1803 24.6114C97.4059 24.8665 97.7282 25.0133 98.0688 25.0133H114.739C115.363 23.7178 115.82 22.3268 116.093 20.8717H100.093C99.7537 20.8717 99.4301 20.7249 99.2044 20.4698L98.022 19.1287C97.846 18.9292 97.5919 18.8137 97.3265 18.8137C97.061 18.8137 96.8069 18.9277 96.6309 19.1287L95.616 20.2802C95.2839 20.6565 94.8069 20.8731 94.3059 20.8731H83.5763C83.8488 22.3297 84.3059 23.7192 84.9304 25.0148H92.4691V25.0133Z" fill="white"/>
<path d="M104.294 7.80833C104.56 7.80833 104.813 7.70001 104.996 7.50761L106.4 6.03823C106.574 5.85438 106.817 5.75034 107.069 5.75034H107.128C107.393 5.75034 107.647 5.86436 107.823 6.06531L109.006 7.40642C109.231 7.66153 109.554 7.80833 109.894 7.80833H113.064C110.045 3.77929 105.243 1.17261 99.8346 1.17261C94.4265 1.17261 89.6245 3.77929 86.6053 7.80833H104.296H104.294Z" fill="white"/>
<path d="M97.9269 29.1195H93.5919C93.2527 29.1195 92.929 28.9727 92.7033 28.7176L91.5209 27.3765C91.3449 27.177 91.0908 27.0615 90.8254 27.0615C90.56 27.0615 90.3059 27.1755 90.1299 27.3765L89.115 28.5281C88.7828 28.9043 88.3059 29.1209 87.8048 29.1209H87.7367C90.7573 32.3704 95.0568 34.4041 99.8332 34.4041C104.61 34.4041 108.909 32.3704 111.93 29.1209H97.9269V29.1195Z" fill="white"/>
<path d="M26.6821 33.3294L23.3152 25.1188H8.27332L4.9064 33.3294H1.01428L15.7722 2.24585L30.5742 33.3294H26.6821ZM9.54088 22.0019H22.0036L15.7524 8.759L9.5423 22.0019H9.54088Z" fill="white"/>
<path d="M35.9497 33.3294V2.24585H44.5643C51.2982 2.24585 54.8397 5.36276 54.8397 11.2018C54.8397 17.0408 51.0796 20.0708 44.5203 20.0708H39.5792V33.3294H35.9497ZM39.5792 16.8213H43.6899C48.8936 16.8213 51.1676 15.1097 51.1676 11.2018C51.1676 7.2939 48.8496 5.49388 43.6899 5.49388H39.5792V16.8213Z" fill="white"/>
<path d="M68.0221 5.58224H57.3535V2.24585H82.3215V5.58224H71.6516V33.3294H68.0221V5.58224Z" fill="white"/>
<path d="M121.429 27.6656L124.554 25.5364L124.796 26.0409C126.719 29.5526 128.818 30.9578 132.011 30.9578C135.552 30.9578 138.045 28.4994 138.045 25.5136C138.045 22.7031 136.645 20.8161 131.048 18.4888C124.621 15.8108 122.434 13.0445 122.434 9.09388C122.434 4.79121 125.801 1.41064 131.616 1.41064C135.901 1.41064 138.831 3.25485 140.493 6.24064L137.957 7.99648L137.213 7.82118C135.901 5.7575 134.283 4.57173 131.528 4.57173C128.161 4.57173 126.194 6.46012 126.194 9.00552C126.194 11.3756 127.461 12.7367 132.928 15.2393C140.055 18.4888 141.805 21.1667 141.805 25.4694C141.805 30.1669 137.782 34.1617 132.053 34.1617C127.243 34.1617 123.92 32.3175 121.427 27.6642L121.429 27.6656Z" fill="white"/>
</svg>
