<svg width="225" height="42" viewBox="0 0 225 42" fill="none" xmlns="http://www.w3.org/2000/svg">
<path d="M19.8188 1.81727C18.4198 1.02573 16.8183 0.547119 15.088 0.547119H5.66309C8.27702 0.547119 10.3755 2.66404 10.3755 5.25957V14.7029V19.4337H15.088C16.8183 19.4337 18.4198 18.9735 19.8004 18.1636C20.8497 17.5561 21.7517 16.7646 22.488 15.8442C23.7582 14.2243 24.5313 12.1994 24.5313 9.99043C24.5313 6.51132 22.6537 3.45559 19.8188 1.81727Z" fill="#686868"/>
<path d="M22.5063 15.8442C21.77 16.783 20.868 17.5745 19.8188 18.1636C18.4197 18.9551 16.8182 19.4337 15.1063 19.4337H10.3754V14.7213V5.25957C10.3754 2.66404 8.25852 0.547119 5.66299 0.547119C3.04905 0.547119 0.932129 2.66404 0.932129 5.25957V14.7029V19.4337V33.5895V38.3204H5.64458H17.4441C18.2541 38.3204 19.0456 38.2467 19.8003 38.0811C25.1939 36.995 29.2437 32.2273 29.2437 26.5024C29.2621 21.8084 26.5009 17.7402 22.5063 15.8442Z" fill="white"/>
<path d="M52.1224 34.1175H44.3252V4.80566H50.3319C54.6926 4.80566 56.512 5.12333 58.2736 6.24959C60.3817 7.60689 61.5946 9.8883 61.5946 12.6318C61.5946 15.3752 60.6994 16.9058 58.3602 18.1476C62.0855 19.6782 63.3851 21.9307 63.3851 25.3961C63.3562 30.7387 59.6886 34.1175 52.1224 34.1175ZM51.978 10.1193H49.7544V16.1261H51.4871C54.7793 16.1261 56.1654 15.2308 56.1654 13.0938C56.1654 11.0723 54.7793 10.1193 51.978 10.1193ZM52.3246 21.4109H49.7544V28.9193H52.4401C56.2521 28.9193 57.8693 27.8219 57.8693 25.2806C57.8981 22.6526 56.1077 21.4109 52.3246 21.4109Z" fill="white"/>
<path d="M65.4355 34.1175V12.1409H70.7203V34.1175H65.4355ZM65.4933 8.96423V3.67944H70.7781V8.96423H65.4933Z" fill="white"/>
<path d="M84.7552 34.6373C78.2575 34.6373 73.0305 29.5258 73.0305 23.1436C73.0305 16.6748 78.1132 11.6499 84.6108 11.6499C89.6357 11.6499 93.9675 14.48 95.7002 19.5049H89.7512C88.6827 17.4834 87.0078 16.4726 84.6397 16.4726C81.001 16.4726 78.3731 19.245 78.3731 23.0858C78.3731 26.9267 81.1165 29.7857 84.7552 29.7857C86.95 29.7857 88.4517 28.8904 89.7801 26.8978H95.7002C93.852 31.8072 89.8956 34.6373 84.7552 34.6373Z" fill="white"/>
<path d="M108.84 34.6373C102.429 34.6373 97.1731 29.468 97.1731 23.1436C97.1731 16.8192 102.4 11.6499 108.811 11.6499C115.424 11.6499 120.536 16.7614 120.536 23.3169C120.536 29.468 115.222 34.6373 108.84 34.6373ZM108.84 16.4726C105.403 16.4726 102.487 19.4471 102.487 23.057C102.487 26.8401 105.317 29.8145 108.869 29.8145C112.363 29.8145 115.222 26.84 115.222 23.1436C115.222 19.476 112.363 16.4726 108.84 16.4726Z" fill="white"/>
<path d="M136.881 34.1175V23.3747C136.881 17.5123 135.293 16.4727 132.665 16.4727C130.99 16.4727 129.604 17.1658 128.795 18.4942C128.102 19.5627 127.9 20.8334 127.9 23.779V34.1175H122.615V12.1409H127.496V14.249C129.431 12.3719 131.192 11.6211 133.676 11.6211C136.737 11.6211 139.105 12.7185 140.549 14.7977C141.733 16.5016 142.137 18.4076 142.137 22.3351V34.1175H136.881Z" fill="white"/>
<path d="M155.912 34.6373C149.501 34.6373 144.245 29.468 144.245 23.1436C144.245 16.8192 149.472 11.6499 155.883 11.6499C162.496 11.6499 167.608 16.7614 167.608 23.3169C167.608 29.468 162.294 34.6373 155.912 34.6373ZM155.912 16.4726C152.476 16.4726 149.559 19.4471 149.559 23.057C149.559 26.8401 152.389 29.8145 155.941 29.8145C159.435 29.8145 162.294 26.84 162.294 23.1436C162.294 19.476 159.435 16.4726 155.912 16.4726Z" fill="white"/>
<path d="M197.382 34.1174V22.0462C197.382 17.6277 195.707 16.4437 193.252 16.4437C190.307 16.4437 188.834 18.032 188.834 23.2591V34.0886H183.549V22.0173C183.549 17.6855 182.047 16.4148 179.275 16.4148C176.214 16.4148 175.001 18.0609 175.001 23.2302V34.0597H169.716V12.0831H174.539V14.1334C176.069 12.2563 177.658 11.5632 180.257 11.5632C183.289 11.5632 185.224 12.6029 186.726 14.9998C188.516 12.6029 190.711 11.5632 193.772 11.5632C199.577 11.5632 202.667 14.7976 202.667 21.3531V34.0308H197.382V34.1174Z" fill="white"/>
<path d="M212.254 41.4527H206.594L210.724 32.0671L202.667 12.1409H208.673L213.554 26.4069L218.868 12.1409H224.932L212.254 41.4527Z" fill="white"/>
</svg>
