<svg width="125" height="38" viewBox="0 0 125 38" fill="none" xmlns="http://www.w3.org/2000/svg">
<g clip-path="url(#clip0_130_662)">
<path fill-rule="evenodd" clip-rule="evenodd" d="M77.1128 29.8833C69.9208 35.1761 59.4964 38 50.5212 38C37.9365 38 26.6071 33.3527 18.0359 25.6232C17.3625 25.0154 17.9659 24.187 18.774 24.6604C28.0239 30.0339 39.4611 33.2666 51.2754 33.2666C59.2432 33.2666 68.0083 31.6207 76.0676 28.2051C77.2852 27.6887 78.3034 29.0011 77.1128 29.8833Z" fill="#FF9900"/>
<path fill-rule="evenodd" clip-rule="evenodd" d="M80.1028 26.4678C79.187 25.2952 74.0259 25.9137 71.7094 26.188C71.0037 26.2741 70.8959 25.6609 71.5316 25.2198C75.6421 22.3314 82.387 23.1651 83.1735 24.1333C83.9601 25.1069 82.9688 31.8574 79.1061 35.0794C78.5135 35.5742 77.9479 35.3106 78.2119 34.6544C79.0792 32.4921 81.024 27.6457 80.1028 26.4678Z" fill="#FF9900"/>
<path fill-rule="evenodd" clip-rule="evenodd" d="M71.871 4.82834V2.02056C71.871 1.59563 72.1943 1.31055 72.5822 1.31055H85.1722C85.5763 1.31055 85.8995 1.60101 85.8995 2.02056V4.42493C85.8941 4.82834 85.5547 5.35547 84.9514 6.1892L78.4274 15.4893C80.8516 15.4301 83.4106 15.7905 85.6086 17.0277C86.1042 17.3074 86.2389 17.7162 86.2766 18.1196V21.1156C86.2766 21.5244 85.8241 22.0031 85.35 21.7557C81.4766 19.7279 76.3317 19.5073 72.0488 21.7772C71.6125 22.0139 71.1545 21.5406 71.1545 21.1318V18.2863C71.1545 17.8291 71.1599 17.0492 71.6178 16.3553L79.1762 5.53298H72.5983C72.1943 5.53298 71.871 5.2479 71.871 4.82834Z" fill="white"/>
<path fill-rule="evenodd" clip-rule="evenodd" d="M25.9445 22.3474H22.1141C21.7478 22.3205 21.4569 22.0462 21.4299 21.6966V2.06901C21.4299 1.67635 21.7586 1.36437 22.168 1.36437H25.7398C26.1115 1.3805 26.4078 1.66559 26.4347 2.02059V4.58633H26.5047C27.4367 2.10666 29.1876 0.950195 31.5472 0.950195C33.9446 0.950195 35.4422 2.10666 36.5197 4.58633C37.4463 2.10666 39.5527 0.950195 41.81 0.950195C43.4154 0.950195 45.1717 1.6118 46.2437 3.09637C47.4559 4.74769 47.2081 7.14668 47.2081 9.24983L47.2027 21.6374C47.2027 22.0301 46.874 22.3474 46.4646 22.3474H42.6396C42.2571 22.3205 41.9501 22.0139 41.9501 21.6374V11.2346C41.9501 10.4063 42.0255 8.34079 41.8423 7.55547C41.5568 6.23765 40.7002 5.8665 39.5904 5.8665C38.6638 5.8665 37.6941 6.48507 37.3008 7.47479C36.9076 8.46451 36.9453 10.1212 36.9453 11.2346V21.6374C36.9453 22.0301 36.6167 22.3474 36.2072 22.3474H32.3823C31.9944 22.3205 31.6927 22.0139 31.6927 21.6374L31.6873 11.2346C31.6873 9.04543 32.0483 5.82347 29.3277 5.82347C26.5748 5.82347 26.6825 8.96474 26.6825 11.2346V21.6374C26.6825 22.0301 26.3539 22.3474 25.9445 22.3474Z" fill="white"/>
<path fill-rule="evenodd" clip-rule="evenodd" d="M96.7385 0.950195C102.422 0.950195 105.498 5.82347 105.498 12.02C105.498 18.0067 102.099 22.7562 96.7385 22.7562C91.1573 22.7562 88.1189 17.8829 88.1189 11.8102C88.1189 5.69976 91.195 0.950195 96.7385 0.950195ZM96.7709 4.95747C93.9479 4.95747 93.7701 8.798 93.7701 11.1916C93.7701 13.5906 93.7324 18.7113 96.7385 18.7113C99.7069 18.7113 99.847 14.5803 99.847 12.063C99.847 10.4063 99.777 8.42686 99.2759 6.85622C98.845 5.48998 97.9884 4.95747 96.7709 4.95747Z" fill="white"/>
<path fill-rule="evenodd" clip-rule="evenodd" d="M112.868 22.3474H109.054C108.671 22.3205 108.364 22.0139 108.364 21.6374L108.359 2.00446C108.391 1.64407 108.709 1.36437 109.097 1.36437H112.647C112.981 1.3805 113.256 1.60642 113.331 1.91302V4.91444H113.401C114.473 2.23037 115.976 0.950195 118.622 0.950195C120.34 0.950195 122.016 1.56877 123.093 3.26312C124.095 4.83375 124.095 7.47479 124.095 9.37354V21.7289C124.052 22.0731 123.734 22.3474 123.357 22.3474H119.516C119.166 22.3205 118.875 22.0623 118.837 21.7289V11.0679C118.837 8.92171 119.085 5.78044 116.44 5.78044C115.508 5.78044 114.651 6.40439 114.226 7.35108C113.687 8.55057 113.617 9.74468 113.617 11.0679V21.6374C113.611 22.0301 113.277 22.3474 112.868 22.3474Z" fill="white"/>
<path fill-rule="evenodd" clip-rule="evenodd" d="M61.8344 12.972C61.8344 14.462 61.8722 15.7045 61.1179 17.0277C60.5092 18.1035 59.5395 18.7651 58.4674 18.7651C56.9967 18.7651 56.1347 17.6463 56.1347 15.995C56.1347 12.7354 59.06 12.1437 61.8344 12.1437V12.972ZM65.6971 22.2937C65.4439 22.5196 65.0776 22.5357 64.7921 22.3851C63.5207 21.3308 63.289 20.8414 62.594 19.8355C60.493 21.9763 59.0007 22.6164 56.2802 22.6164C53.0532 22.6164 50.5481 20.6316 50.5481 16.6566C50.5481 13.553 52.2289 11.4391 54.6317 10.4063C56.7111 9.4919 59.6149 9.33054 61.8344 9.07773V8.58287C61.8344 7.67384 61.9045 6.59806 61.3657 5.81274C60.9024 5.10811 60.0081 4.81765 59.2162 4.81765C57.7563 4.81765 56.4579 5.56531 56.1401 7.11443C56.0754 7.45868 55.8222 7.79755 55.4721 7.81369L51.7602 7.41565C51.4478 7.34573 51.0976 7.09292 51.1892 6.6142C52.0404 2.11745 56.1132 0.761963 59.7549 0.761963C61.6189 0.761963 64.054 1.25682 65.5247 2.66609C67.3887 4.40347 67.2109 6.72177 67.2109 9.24448V15.2043C67.2109 16.9955 67.9544 17.7808 68.6547 18.749C68.8972 19.0932 68.951 19.5074 68.6386 19.7656C67.8574 20.4164 66.4675 21.6267 65.7025 22.3044L65.6971 22.2937Z" fill="white"/>
<path fill-rule="evenodd" clip-rule="evenodd" d="M11.6196 12.972C11.6196 14.462 11.6573 15.7045 10.9031 17.0277C10.2943 18.1035 9.33 18.7651 8.25255 18.7651C6.78182 18.7651 5.92524 17.6463 5.92524 15.995C5.92524 12.7354 8.85053 12.1437 11.6196 12.1437V12.972ZM15.4823 22.2937C15.2291 22.5196 14.8627 22.5357 14.5772 22.3851C13.3058 21.3308 13.0795 20.8414 12.3792 19.8355C10.2782 21.9763 8.79128 22.6164 6.06531 22.6164C2.84372 22.6164 0.333252 20.6316 0.333252 16.6566C0.333252 13.553 2.01947 11.4391 4.41681 10.4063C6.49629 9.4919 9.40004 9.33054 11.6196 9.07773V8.58287C11.6196 7.67384 11.6896 6.59806 11.1563 5.81274C10.6876 5.10811 9.79331 4.81765 9.00676 4.81765C7.54682 4.81765 6.24309 5.56531 5.92524 7.11443C5.8606 7.45868 5.60739 7.79755 5.26261 7.81369L1.54539 7.41565C1.23293 7.34573 0.88814 7.09292 0.974337 6.6142C1.83091 2.11745 5.89831 0.761963 9.54011 0.761963C11.4041 0.761963 13.8392 1.25682 15.3099 2.66609C17.1739 4.40347 16.9961 6.72177 16.9961 9.24448V15.2043C16.9961 16.9955 17.7395 17.7808 18.4399 18.749C18.6877 19.0932 18.7416 19.5074 18.4291 19.7656C17.648 20.4164 16.258 21.6267 15.493 22.3044L15.4823 22.2937Z" fill="white"/>
</g>
<defs>
<clipPath id="clip0_130_662">
<rect width="123.762" height="37.2381" fill="white" transform="translate(0.333252 0.761963)"/>
</clipPath>
</defs>
</svg>
