<svg width="32" height="32" viewBox="0 0 32 32" fill="none" xmlns="http://www.w3.org/2000/svg">
<path fill-rule="evenodd" clip-rule="evenodd" d="M21.058 1.33325C21.61 1.33325 22.058 1.78125 22.058 2.33325L22.0586 3.46367C24.0054 3.59714 25.6223 4.26398 26.7667 5.41072C28.016 6.66538 28.6734 8.46938 28.6667 10.6334V22.7974C28.6667 27.2401 25.8454 30 21.3054 30H10.028C5.48802 30 2.66669 27.2014 2.66669 22.6961V10.6307C2.66669 6.44031 5.18276 3.7505 9.28627 3.46412L9.28709 2.33325C9.28709 1.78125 9.73509 1.33325 10.2871 1.33325C10.8391 1.33325 11.2871 1.78125 11.2871 2.33325L11.2867 3.43859H20.0574L20.058 2.33325C20.058 1.78125 20.506 1.33325 21.058 1.33325ZM26.6667 13.2053H4.66669V22.6961C4.66669 26.1174 6.57069 28 10.028 28H21.3054C24.7627 28 26.6667 26.1521 26.6667 22.7974L26.6667 13.2053ZM21.6016 21.595C22.1536 21.595 22.6016 22.043 22.6016 22.595C22.6016 23.147 22.1536 23.595 21.6016 23.595C21.0496 23.595 20.5963 23.147 20.5963 22.595C20.5963 22.043 21.0376 21.595 21.5896 21.595H21.6016ZM15.685 21.595C16.237 21.595 16.685 22.043 16.685 22.595C16.685 23.147 16.237 23.595 15.685 23.595C15.133 23.595 14.6796 23.147 14.6796 22.595C14.6796 22.043 15.121 21.595 15.673 21.595H15.685ZM9.75589 21.595C10.3079 21.595 10.7559 22.043 10.7559 22.595C10.7559 23.147 10.3079 23.595 9.75589 23.595C9.20389 23.595 8.74922 23.147 8.74922 22.595C8.74922 22.043 9.19189 21.595 9.74389 21.595H9.75589ZM21.6016 16.4127C22.1536 16.4127 22.6016 16.8607 22.6016 17.4127C22.6016 17.9647 22.1536 18.4127 21.6016 18.4127C21.0496 18.4127 20.5963 17.9647 20.5963 17.4127C20.5963 16.8607 21.0376 16.4127 21.5896 16.4127H21.6016ZM15.685 16.4127C16.237 16.4127 16.685 16.8607 16.685 17.4127C16.685 17.9647 16.237 18.4127 15.685 18.4127C15.133 18.4127 14.6796 17.9647 14.6796 17.4127C14.6796 16.8607 15.121 16.4127 15.673 16.4127H15.685ZM9.75589 16.4127C10.3079 16.4127 10.7559 16.8607 10.7559 17.4127C10.7559 17.9647 10.3079 18.4127 9.75589 18.4127C9.20389 18.4127 8.74922 17.9647 8.74922 17.4127C8.74922 16.8607 9.19189 16.4127 9.74389 16.4127H9.75589ZM20.0574 5.43858H11.2867L11.2871 6.72125C11.2871 7.27325 10.8391 7.72125 10.2871 7.72125C9.73509 7.72125 9.28709 7.27325 9.28709 6.72125L9.28638 5.46885C6.2994 5.71978 4.66669 7.53039 4.66669 10.6307V11.2053H26.6667L26.6667 10.6307C26.672 8.98405 26.2294 7.70405 25.3507 6.82405C24.5794 6.05046 23.4518 5.58845 22.0592 5.46949L22.058 6.72125C22.058 7.27325 21.61 7.72125 21.058 7.72125C20.506 7.72125 20.058 7.27325 20.058 6.72125L20.0574 5.43858Z" fill="#AAB0FE"/>
</svg>
