<svg width="141" height="44" viewBox="0 0 141 44" fill="none" xmlns="http://www.w3.org/2000/svg">
<path d="M48.4418 21.7431C48.2784 17.5412 51.5699 14.0162 55.7719 13.8528H56.0753C59.9505 13.8528 62.2382 16.1172 62.9152 18.7784L60.4874 19.5955C60.0439 17.5412 58.153 16.1172 56.0753 16.2806C53.5775 16.2806 51.0563 18.1014 51.0563 21.7898C51.0563 25.4782 53.5075 27.229 56.0987 27.229C58.1997 27.2757 60.0672 25.8984 60.6275 23.8908L62.9852 24.6611C62.1448 27.7426 59.2735 29.8435 56.0753 29.6801C51.9201 29.7502 48.4885 26.4586 48.4185 22.3034C48.4185 22.1166 48.4185 21.9299 48.4418 21.7431Z" fill="#4285F4"/>
<path d="M67.7005 29.33H65.156V13.8062H67.7005V19.899C68.4242 19.0353 69.5214 18.545 70.6652 18.5917C73.2331 18.5917 74.4937 20.4359 74.4937 22.7236V29.33H72.0192V23.1438C72.1826 22.0467 71.4123 21.0195 70.3151 20.8561C70.175 20.8328 70.0116 20.8328 69.8715 20.8561C68.681 20.8561 67.7005 21.8366 67.7005 23.0271C67.7005 23.0971 67.7005 23.1438 67.7005 23.2139V29.33Z" fill="#4285F4"/>
<path d="M80.0028 23.3541L82.6874 22.9339C83.2944 22.8638 83.4578 22.537 83.4578 22.1869C83.4578 21.2998 82.8742 20.5995 81.4735 20.5995C80.3997 20.5061 79.4426 21.2998 79.3259 22.3736V22.467L77.0615 21.9534C77.2482 20.1559 78.8823 18.5452 81.4502 18.5452C84.6717 18.5452 85.8856 20.366 85.8856 22.4903V27.6727C85.8856 28.233 85.9089 28.7933 86.0256 29.3535H83.7146C83.6212 28.91 83.5978 28.4664 83.6212 28.0229C82.9209 29.0967 81.6836 29.727 80.3997 29.6803C78.6022 29.8204 77.0381 28.5131 76.8514 26.7156V26.5522C76.828 24.6147 78.2053 23.6108 80.0028 23.3541ZM83.4344 25.0348V24.568L80.7032 24.9648C79.9328 24.9882 79.3259 25.6184 79.3025 26.3888C79.3025 27.1592 79.9328 27.7661 80.7032 27.7428H80.8199C82.1272 27.9062 83.3177 26.9491 83.4578 25.6418C83.4578 25.6185 83.4578 25.6185 83.4578 25.5951C83.5045 25.4084 83.4811 25.2216 83.4344 25.0348Z" fill="#4285F4"/>
<path d="M90.1112 13.5959C90.9982 13.5959 91.7452 14.2963 91.7686 15.2067C91.7686 16.0938 91.0449 16.8174 90.1578 16.8408C89.2708 16.8408 88.5471 16.1171 88.5237 15.23C88.5004 14.3196 89.2241 13.5959 90.1112 13.5959ZM88.8973 29.3766V18.8951H91.3951V29.3299L88.8973 29.3766Z" fill="#4285F4"/>
<path d="M97.0445 29.3302H94.5466V18.8954H96.9744V20.296C97.6281 19.2222 98.7953 18.5686 100.056 18.5919C102.6 18.5919 103.814 20.4361 103.814 22.7238V29.3302H101.34V23.144C101.34 21.8601 100.756 20.833 99.1921 20.833C97.9782 20.833 96.9978 21.8368 96.9978 23.0507C96.9978 23.144 96.9978 23.2141 96.9978 23.3074L97.0445 29.3302Z" fill="#4285F4"/>
<path d="M109.347 13.8062H106.872V29.33H109.347V13.8062Z" fill="#4285F4"/>
<path d="M113.806 13.5959C114.693 13.5959 115.416 14.3196 115.44 15.2067C115.44 16.0938 114.716 16.8174 113.829 16.8408C112.942 16.8408 112.218 16.1171 112.195 15.23V15.2067C112.195 14.3196 112.895 13.5959 113.806 13.5959ZM112.568 29.3766V18.8951H115.043V29.3299L112.568 29.3766Z" fill="#4285F4"/>
<path d="M120.739 29.3302H118.264V18.8954H120.692V20.296C121.346 19.2222 122.513 18.5686 123.773 18.5919C126.318 18.5919 127.555 20.4361 127.555 22.7238V29.3302H125.081V23.144C125.244 22.0469 124.474 21.0197 123.377 20.8563C123.236 20.833 123.073 20.833 122.933 20.8563C121.719 20.8563 120.739 21.8368 120.762 23.0507C120.762 23.144 120.762 23.2374 120.762 23.3074L120.739 29.3302Z" fill="#4285F4"/>
<path d="M136.029 23.2839L140.418 29.33H137.359L134.301 25.0114L133.017 26.3653V29.33H130.543V13.8062H133.017V23.0971L137.033 18.8952H140.324L136.029 23.2839Z" fill="#4285F4"/>
<path d="M18.9812 9.60423L29.7429 15.7904V28.1862L19.0279 34.3958L8.26622 28.2796V15.8371L18.9812 9.60423ZM18.9812 0.5L15.036 2.78773L4.29771 9.02063L0.352539 11.3084V32.8084L4.29771 35.0727L15.0594 41.2356L19.0045 43.5L22.9497 41.2123L33.6647 34.9794L37.6099 32.6916V11.1683L33.6647 8.90391L22.903 2.7177L18.9812 0.5Z" fill="#4285F4"/>
</svg>
