<svg width="193" height="57" viewBox="0 0 193 57" fill="none" xmlns="http://www.w3.org/2000/svg">
<path d="M3.46656 27.1281C4.25028 27.9118 5.11108 28.6441 6.02327 29.2865C6.37016 29.5435 6.84553 29.4664 7.10248 29.1066C7.20526 28.9653 7.25665 28.7983 7.24381 28.6184C7.02539 23.7748 7.43652 8.79433 20.2714 5.02994C20.6697 4.91431 21.0552 5.14557 21.1708 5.51815C21.2093 5.63378 21.2093 5.77511 21.1708 5.89074C17.8561 19.9462 26.1557 24.2245 29.9458 17.6079C30.1385 17.261 30.5753 17.1325 30.9222 17.3381C31.025 17.4023 31.115 17.4794 31.1792 17.5694C34.4811 22.6699 33.6074 27.2309 32.7338 29.6206C32.5411 30.173 32.8109 30.764 33.3633 30.9567C33.6331 31.0595 33.9543 31.0338 34.2113 30.8925C34.7637 30.5841 35.2905 30.2116 35.7401 29.749C35.8943 29.5949 36.1513 29.5949 36.2926 29.749C36.3697 29.8261 36.4082 29.9289 36.4082 30.0188C36.4082 39.6547 28.5968 47.4533 18.9738 47.4533C9.81336 47.4533 2.20748 40.3484 1.59079 31.2265C1.5137 30.0702 1.55225 28.8882 1.70642 27.7319C1.78351 27.1666 2.31026 26.7555 2.88841 26.8326C3.08113 26.8583 3.28669 26.9611 3.46656 27.1281Z" fill="#F2663D"/>
<path d="M32.978 26.5244C32.9009 27.7578 32.6311 28.9783 32.1943 30.1346C32.0016 30.6871 32.2714 31.2781 32.8238 31.4708C33.0936 31.5736 33.4148 31.5479 33.6718 31.4066C34.2242 31.0982 34.751 30.7256 35.2007 30.2631C35.3548 30.1089 35.6118 30.1089 35.7531 30.2631C35.8302 30.3402 35.8687 30.443 35.8687 30.5329" stroke="white" stroke-width="2" stroke-miterlimit="10" stroke-linecap="round"/>
<path d="M20.8242 17.7749C22.7257 22.156 26.9911 22.3872 29.4065 18.1475C29.5992 17.8006 30.0361 17.6721 30.383 17.8777C30.4857 17.9419 30.5757 18.019 30.6399 18.1089C31.6163 19.5993 32.323 21.2695 32.7212 23.0168" stroke="white" stroke-width="2" stroke-miterlimit="10" stroke-linecap="round"/>
<path d="M9.4668 14.2545C11.3683 10.4644 14.5288 7.08543 19.7322 5.55655C20.1304 5.44092 20.5159 5.67218 20.6315 6.04476C20.67 6.16039 20.67 6.30172 20.6315 6.41735C20.4002 7.43232 20.1947 8.46014 20.0662 9.47512" stroke="white" stroke-width="2" stroke-miterlimit="10" stroke-linecap="round"/>
<path d="M1.43682 34.4769C1.24411 33.5904 1.10278 32.6911 1.03854 31.766C0.961457 30.6097 1 29.4277 1.15417 28.2714C1.23126 27.7061 1.74517 27.295 2.31047 27.3721C2.54173 27.3978 2.76014 27.5134 2.91432 27.6676C3.69803 28.4513 4.55883 29.1836 5.47102 29.826C5.81791 30.083 6.29328 29.9802 6.55023 29.6462C6.65302 29.5048 6.70441 29.3378 6.69156 29.1708C6.58878 26.794 6.7301 24.4043 7.08984 22.0403" stroke="white" stroke-width="2" stroke-miterlimit="10" stroke-linecap="round"/>
<path d="M32.8238 40.3997C27.402 48.3524 16.5714 50.3952 8.6186 44.9478C7.95052 44.4981 7.32098 44.0099 6.72998 43.4574" stroke="white" stroke-width="2" stroke-miterlimit="10" stroke-linecap="round"/>
<path d="M71.8543 19.1582C71.7496 19.5769 71.3657 19.891 70.947 19.9957C69.4464 20.3097 68.0157 20.903 66.7245 21.7056C63.2348 23.939 61.4202 28.8943 62.0483 33.1517C62.9556 38.9795 68.8183 38.2815 71.959 37.4091C72.5871 37.2346 73.2502 37.6185 73.3897 38.2466C73.4595 38.456 73.4595 38.6654 73.3897 38.8748C73.0757 40.0613 72.6918 41.2129 72.4824 41.8759C72.3777 42.2598 72.0637 42.5738 71.6449 42.6785C56.3602 46.9359 51.5095 33.4309 57.4769 22.7176C61.7343 15.0403 68.6089 13.6096 71.7496 13.4002C72.3777 13.3304 72.971 13.8887 73.0408 14.5169C73.0408 14.6914 73.0408 14.7961 72.971 14.9008L71.8543 19.1582Z" fill="white" stroke="#F15A29" stroke-width="2" stroke-miterlimit="10"/>
<path d="M92.3388 42.7136C92.3388 42.888 92.269 42.9229 92.0596 42.888L86.7204 41.9807C86.6157 41.9807 86.6157 41.876 86.6157 41.7713L86.6855 41.3526C87.9767 34.3035 87.209 32.768 86.86 32.3841C86.3714 32.0701 85.9178 31.8607 85.3245 31.756C84.7313 31.5815 84.138 31.9305 83.9985 32.4888C83.9985 32.5586 83.9287 32.5935 83.9287 32.6982L82.7422 41.9109C82.6724 42.4344 82.2187 42.8531 81.6255 42.8531L78.066 42.7136C77.4728 42.7136 76.9842 42.1901 77.054 41.5969V41.5271L79.8807 11.4112C79.9504 10.818 80.4041 10.3992 81.0671 10.469C81.1369 10.469 81.2416 10.469 81.2765 10.5388L85.7433 11.7253C86.2667 11.8998 86.5808 12.3534 86.5459 12.9118L85.1152 23.9042C85.0454 24.4277 85.3943 24.986 85.9178 25.0907C87.6626 25.5095 89.6866 26.2074 91.0825 27.4986C92.7575 28.8945 94.9909 32.8378 92.3388 42.7136Z" fill="white" stroke="#F15A29" stroke-width="2" stroke-miterlimit="10"/>
<path d="M103.436 24.8466C103.506 24.8466 103.541 24.9164 103.541 24.9513L101.9 43.8653H101.691C100.958 43.8653 97.2243 43.7606 96.7707 43.6559L96.5962 43.5861L97.7129 26.1378C97.7129 26.068 97.7827 26.0331 97.8176 26.0331L103.436 24.8466ZM98.0967 20.1705C97.8874 19.6819 97.8874 19.1585 98.027 18.6699C98.1665 18.1814 98.5155 17.7626 98.9343 17.4834C100.016 16.7506 101.447 16.96 102.18 18.0069C102.459 18.3209 102.564 18.7397 102.598 19.1934C102.598 19.4725 102.598 19.6819 102.494 19.9262C102.284 20.4496 101.866 20.8684 101.307 21.1127C100.993 21.2872 100.714 21.3221 100.4 21.3918C99.4926 21.4965 98.5853 21.008 98.0967 20.1705Z" fill="white" stroke="#F15A29" stroke-width="2" stroke-miterlimit="10"/>
<path d="M127.689 2.89643L121.407 39.852C121.303 40.4802 120.675 40.9687 120.012 40.864C119.732 40.7942 119.523 40.6895 119.383 40.55L114.254 35.6993C113.765 35.2108 112.962 35.2806 112.544 35.7691C112.334 35.9785 112.23 36.2926 112.23 36.6066L112.299 41.7364C112.299 42.4344 111.776 42.9578 111.078 42.9578C110.904 42.9578 110.764 42.888 110.59 42.8531L106.542 41.1083V40.9338L107.554 26.0678C107.623 25.3699 108.182 24.8813 108.845 24.9511C109.054 24.9511 109.263 25.0558 109.473 25.1605L115.301 29.2085C115.824 29.5924 116.592 29.4877 117.011 28.9294C117.115 28.7549 117.185 28.6153 117.22 28.4059L120.535 3.2803C120.605 2.75685 121.024 2.33808 121.547 2.1985L126.328 1.46566C126.956 1.36097 127.619 1.77973 127.724 2.47767C127.689 2.58236 127.689 2.72195 127.689 2.89643Z" fill="white"/>
<path d="M127.689 2.89643L123.746 26.1027L117.255 28.4059L120.57 3.2803C120.64 2.75685 121.059 2.33808 121.582 2.1985L126.363 1.46566C126.991 1.36097 127.654 1.77973 127.759 2.47767C127.689 2.61725 127.689 2.72195 127.689 2.89643Z" fill="#F7941D"/>
<path d="M128.108 0L125.107 17.553L118.127 20.9031L120.431 3.24539C120.5 2.72194 120.919 2.30317 121.443 2.16359L126.223 1.43076C127.096 1.32607 127.794 2.0938 128.108 0Z" fill="#F47C4B"/>
<path d="M127.689 2.89638L126.502 9.87572L119.349 12.0044L120.465 3.31514C120.535 2.79169 120.954 2.37293 121.477 2.23335L126.258 1.50051C126.886 1.39582 127.549 1.88437 127.654 2.51251C127.689 2.6172 127.689 2.7219 127.689 2.89638Z" fill="#F15A29"/>
<path d="M127.689 2.89643L121.407 39.852C121.303 40.4802 120.675 40.9687 120.012 40.864C119.732 40.7942 119.523 40.6895 119.383 40.55L114.254 35.6993C113.765 35.2108 112.962 35.2806 112.544 35.7691C112.334 35.9785 112.23 36.2926 112.23 36.6066L112.299 41.7364C112.299 42.4344 111.776 42.9578 111.078 42.9578C110.904 42.9578 110.764 42.888 110.59 42.8531L106.542 41.1083V40.9338L107.554 26.0678C107.623 25.3699 108.182 24.8813 108.845 24.9511C109.054 24.9511 109.263 25.0558 109.473 25.1605L115.301 29.2085C115.824 29.5924 116.592 29.4877 117.011 28.9294C117.115 28.7549 117.185 28.6153 117.22 28.4059L120.535 3.2803C120.605 2.75685 121.024 2.33808 121.547 2.1985L126.328 1.46566C126.956 1.36097 127.619 1.77973 127.724 2.47767C127.689 2.58236 127.689 2.72195 127.689 2.89643Z" stroke="#F15A29" stroke-width="2" stroke-miterlimit="10"/>
<path d="M142.625 25.3697C143.323 25.4395 143.811 25.9979 143.811 26.6958L142.625 47.1801C141.892 55.2413 136.064 55.7996 134.145 55.9741H133.831C130.271 56.2533 126.467 54.2642 126.049 49.8323C125.77 46.7963 126.956 45.0514 128.038 44.0743C129.259 43.1321 130.69 42.5738 132.19 42.4342C134.703 42.4342 135.645 42.0503 132.365 41.8061C130.236 41.6316 126.118 36.6762 126.223 33.1866C126.293 30.8834 127.165 28.7198 128.84 27.1145C130.446 25.5791 132.609 24.7765 134.878 24.8812C136.064 24.951 137.216 25.2999 138.228 25.8234L138.297 25.0207L142.625 25.3697ZM138.297 35.1408C138.716 32.8376 137.495 30.5693 135.296 29.662C134.808 29.4875 134.284 29.3828 133.761 29.4526C133.342 29.5224 132.923 29.662 132.539 29.8714C131.632 30.3948 131.004 31.3022 130.83 32.384C130.411 34.6871 131.632 36.9554 133.761 37.8627C134.668 38.2466 135.75 38.1419 136.587 37.6534C137.495 37.095 138.123 36.2226 138.297 35.1408ZM131.527 50.3208C132.121 50.8094 133.237 50.6 133.447 50.6C134.354 50.4953 135.261 50.1813 136.064 49.6927C136.169 49.6229 136.239 49.5182 136.343 49.4833C136.727 49.0646 136.936 48.4713 136.971 47.9479C135.575 47.7734 134.145 47.8432 132.749 48.1224C132.365 48.1922 131.946 48.3317 131.562 48.5062C131.283 48.7854 131.144 49.1344 131.144 49.5182C131.144 49.7625 131.248 50.0766 131.527 50.3208ZM137.32 42.6087V42.1201C135.994 42.1899 136.064 42.504 137.32 42.6087Z" fill="white" stroke="#F15A29" stroke-width="2" stroke-miterlimit="10"/>
<path d="M164.994 42.3298L164.191 42.609C163.982 42.6788 163.772 42.7835 163.493 42.8184C163.004 42.9231 162.481 43.0278 161.992 43.0976C160.98 43.2023 159.131 43.2023 158.154 42.2601C157.212 42.8533 156.13 43.1674 155.013 43.2721C154.49 43.3419 153.931 43.3419 153.408 43.2721C152.57 43.2023 151.768 43.0627 150.965 42.7486C149.43 42.1554 148.313 40.8991 147.755 39.3287C147.336 37.7235 147.58 36.0833 148.453 34.6526C149.953 32.0353 153.617 30.5348 156.653 31.4072L156.932 31.5119C156.828 31.2327 156.653 30.9884 156.409 30.8139C154.56 29.6275 151.558 31.3025 151.489 31.3374L150.651 31.8259L150.267 30.9884L148.732 27.4639C148.627 27.08 149.011 26.9404 149.22 26.7659C150.511 26.1727 151.838 25.6841 153.233 25.4399C156.095 24.8466 158.608 25.1258 160.492 26.1727C163.423 27.9175 162.9 31.4072 162.516 34.2338C162.446 34.7224 162.341 35.2458 162.307 35.6646C162.307 35.874 162.237 36.0484 162.237 36.2578C162.237 36.4672 162.167 36.7464 162.132 37.0953C162.132 37.1651 162.202 37.1651 162.237 37.1651L162.935 36.7813L164.994 42.3298ZM156.688 38.7704C157.7 38.1771 158.224 37.1302 157.91 36.2578C157.735 35.7693 157.386 35.4203 156.898 35.2458C156.514 35.0713 156.095 35.0364 155.711 35.0713C155.397 35.1411 155.083 35.176 154.804 35.2807L154.629 35.3505C154.001 35.6297 153.513 36.1531 153.233 36.7813C152.954 37.3047 153.059 38.0027 153.513 38.4214C153.896 38.8402 154.42 39.1193 155.013 39.1193C155.606 39.1891 156.165 39.0147 156.688 38.7704Z" fill="white" stroke="#F15A29" stroke-width="2" stroke-miterlimit="10"/>
<path d="M182.372 27.359L179.755 32.3144C179.685 32.4191 179.545 32.3842 179.441 32.2446C178.219 31.1279 177.033 30.7091 175.881 30.9534C175.358 31.0581 174.869 31.2675 174.451 31.5466L173.613 41.9807C173.543 42.3995 173.229 42.6787 172.81 42.6089C172.741 42.6089 172.636 42.6089 172.601 42.5391L168.064 40.7245C167.995 40.6547 167.96 40.6198 167.995 40.4453L169.53 24.4626C169.6 24.0787 169.914 23.7647 170.333 23.8345L175.009 24.2183L174.939 25.0559C177.452 24.5673 179.301 24.323 182.302 26.9752C182.372 27.1846 182.372 27.2892 182.372 27.359Z" fill="white" stroke="#F15A29" stroke-width="2" stroke-miterlimit="10"/>
<path d="M191.375 24.7416C191.445 24.7416 191.48 24.7416 191.48 24.8114C191.48 24.8114 191.48 24.8114 191.48 24.8812L189.84 43.7952H189.561C188.828 43.7952 185.094 43.6905 184.64 43.5859L184.466 43.5161L185.548 26.0677C185.548 25.9979 185.617 25.963 185.652 25.963L191.375 24.7416ZM186.106 20.1004C185.897 19.6118 185.897 19.0884 186.036 18.5998C186.176 18.1113 186.525 17.6925 186.943 17.4133C188.025 16.6805 189.456 16.8899 190.189 17.9368C190.468 18.2509 190.573 18.6696 190.608 19.0535C190.608 19.3327 190.608 19.542 190.503 19.7863C190.294 20.3098 189.875 20.7285 189.316 20.9728C189.002 21.1473 188.723 21.1822 188.409 21.252C187.502 21.3916 186.525 20.9728 186.106 20.1004Z" fill="white" stroke="#F15A29" stroke-width="2" stroke-miterlimit="10"/>
</svg>
