<svg width="180" height="44" viewBox="0 0 180 44" fill="none" xmlns="http://www.w3.org/2000/svg">
<path d="M49.1696 22.623C49.1696 15.6517 52.8778 12.1809 60.1754 12.1809C63.1419 12.1809 64.9219 12.7149 66.4051 13.3972L65.1295 16.8977C63.2309 16.3933 62.43 16.1857 60.2051 16.156C56.5859 16.0967 54.0347 18.1436 54.0347 22.3561C54.0347 26.5685 56.7046 28.7934 60.7687 28.7934C62.7266 28.7934 63.8836 28.6154 65.4262 28.2298L66.4348 31.8489C64.5066 32.5609 62.8453 32.8279 60.2348 32.8279C52.9371 32.7982 49.1696 29.2087 49.1696 22.623ZM79.9918 24.7886C79.9918 22.2967 79.3688 20.3982 76.7583 20.3982C74.2071 20.3982 73.4951 22.2967 73.4951 24.8183C73.4951 27.4881 74.2961 29.0901 76.8176 29.0901C79.3688 29.0901 79.9918 27.4288 79.9918 24.7886ZM68.719 24.9073C68.719 19.7752 71.9229 16.6307 76.8473 16.6307C82.365 16.6307 84.8272 19.7159 84.8272 24.7886C84.8272 30.069 81.3564 32.8872 76.61 32.8872C71.4779 32.8575 68.719 29.7724 68.719 24.9073ZM86.3402 17.0163H91.4129L94.0235 25.4116L94.8244 28.4968L95.7144 25.4116L98.6216 17.0163H103.576L97.5536 32.5016H91.9469L86.3402 17.0163ZM114.433 28.5858V26.1532L112.119 26.2125C110.725 26.2422 109.716 26.6872 109.716 27.8441C109.716 28.7637 110.606 29.1494 111.437 29.1494C112.327 29.1197 113.425 28.8527 114.433 28.5858ZM105.118 28.1111C105.118 24.1953 108.708 23.3943 111.763 23.3943H114.463V22.4154C114.463 21.0508 113.573 20.6651 111.645 20.6651C110.102 20.6651 108.47 20.9915 107.017 21.3474L106.068 17.9063C107.818 17.224 109.865 16.6603 112.327 16.6603C117.133 16.6603 119.061 18.0249 119.061 21.5254V28.4078C119.061 28.9121 119.565 29.0307 120.455 29.0604L120.277 32.6499C119.921 32.6796 119.536 32.6796 119.18 32.6796C117.311 32.6796 115.323 32.3532 114.908 31.048C113.78 31.9379 112.149 32.7982 110.458 32.7982C107.046 32.7686 105.118 31.1963 105.118 28.1111ZM123.985 11.1129H128.732V32.5016H123.985V11.1129ZM141.844 23.1867C141.903 21.3178 141.073 20.0125 139.56 20.0125C137.928 20.0125 136.89 21.1398 136.801 23.1867H141.844ZM131.965 24.9963C131.965 18.6776 135.288 16.6603 139.975 16.6603C144.87 16.6603 146.739 19.8345 146.739 24.5216V26.2125H136.682C136.652 28.6451 138.581 29.1197 141.043 29.1197C142.081 29.1197 143.861 28.7934 145.463 28.4968L146.175 32.0863C144.454 32.5906 142.229 32.8576 140.361 32.8576C135.258 32.8576 131.965 31.1963 131.965 24.9963ZM149.942 17.0163H154.689V18.5886C155.638 17.8766 157.655 16.6307 159.732 16.6307C164.597 16.6307 164.923 19.3005 164.923 22.8307V32.5312H160.207V23.2164C160.207 21.0805 159.732 20.7245 158.13 20.7245C156.706 20.7245 155.43 21.1695 154.659 21.5551V32.5312H149.913V17.0163H149.942ZM169.581 27.6958V20.5168H167.326V17.0163H169.581V13.8421H174.298V17.0163H179.103V20.5168H174.298V27.6661C174.298 28.7934 174.713 28.8824 175.988 28.8824C177.027 28.8824 179.341 28.5561 179.341 28.5561L179.786 32.2642C178.688 32.5906 177.175 32.7982 176.048 32.7982C173.081 32.8279 169.581 32.9762 169.581 27.6958ZM22.1446 10.6086V0.641113C10.3379 0.641113 0.785645 10.1933 0.785645 22.0001C0.785645 33.8068 10.3379 43.359 22.1446 43.359V33.3915C15.8556 33.3915 10.7532 28.2891 10.7532 22.0001C10.7532 15.6814 15.8556 10.6086 22.1446 10.6086Z" fill="white"/>
<path d="M33.5954 10.6086C32.9428 10.6086 32.2902 10.49 31.6969 10.223C31.1036 9.95599 30.5399 9.6 30.095 9.15503C29.6203 8.68038 29.2643 8.14641 29.027 7.5531C28.7897 6.9598 28.6414 6.30717 28.6414 5.65453C28.6414 5.0019 28.76 4.34926 29.027 3.75596C29.2643 3.16265 29.65 2.59901 30.095 2.15403C30.5696 1.67939 31.1036 1.32341 31.6969 1.08609C32.2902 0.848767 32.9428 0.700439 33.5954 0.700439C34.9304 0.700439 36.1763 1.23441 37.1256 2.15403C38.0452 3.07366 38.5792 4.34926 38.5792 5.6842C38.5792 7.01913 38.0452 8.26507 37.1256 9.21436C36.1763 10.0747 34.9007 10.6086 33.5954 10.6086Z" fill="#00D8D5"/>
<path d="M33.5065 43.3591C32.1715 43.3591 30.9256 42.8251 29.9763 41.9055C29.0567 40.9859 28.5227 39.7103 28.5227 38.3754C28.5227 37.0404 29.0567 35.7945 29.9763 34.8452C30.8959 33.9256 32.1715 33.3916 33.5065 33.3916C34.8414 33.3916 36.0873 33.9256 37.0366 34.8452C37.9562 35.7648 38.4902 37.0404 38.4902 38.3754C38.4902 39.7103 37.9562 40.9562 37.0366 41.9055C36.0873 42.8251 34.8117 43.3591 33.5065 43.3591Z" fill="#FF4C8B"/>
<path d="M33.5361 22.0001C33.5361 28.2891 28.4337 33.3915 22.1447 33.3915V10.6086C28.4337 10.6086 33.5361 15.6814 33.5361 22.0001Z" fill="white"/>
</svg>
