<svg width="183" height="44" viewBox="0 0 183 44" fill="none" xmlns="http://www.w3.org/2000/svg">
<g clip-path="url(#clip0_412_507)">
<path d="M39.6788 24.1765C39.6594 34.2865 32.0639 42.5642 22.4152 43.3829C22.4152 43.3829 10.0246 43.7012 5.91819 43.3374C5.16783 43.2456 4.45516 42.9568 3.85259 42.5003C3.25003 42.0438 2.77906 41.4359 2.48755 40.7384C3.0583 41.0161 3.67473 41.1878 4.30683 41.2452C5.6518 41.3622 7.94539 41.4206 11.1421 41.4206C15.8398 41.4206 20.9338 41.2907 20.9857 41.2907H21.0767C26.1858 40.8527 30.9355 38.4825 34.3574 34.6633C37.2865 31.4222 39.1369 27.3514 39.6529 23.0134C39.6723 23.3838 39.6788 23.7801 39.6788 24.1765Z" fill="#3770FF"/>
<path d="M38.165 19.9597C38.165 30.0697 30.55 38.3409 20.9013 39.1466C20.9013 39.1466 8.51069 39.4715 4.40432 39.1076C2.20169 38.9127 0.551341 36.801 0.505859 34.4684L0.544844 5.2625C0.609818 2.92992 2.26666 0.824754 4.47579 0.642826C8.58866 0.298462 20.9728 0.681811 20.9728 0.681811C30.615 1.53947 38.165 9.84969 38.165 19.9597Z" fill="#3770FF"/>
<path d="M50.614 12.4616C50.6157 12.3208 50.6724 12.1863 50.7719 12.0867C50.8715 11.9871 51.006 11.9305 51.1468 11.9288H59.7884C60.0808 11.9288 60.5616 11.9288 60.854 11.9808C60.854 11.9808 64.7979 12.3836 66.6367 13.2802C68.4097 14.1401 69.8966 15.4939 70.9185 17.1787C71.9589 18.9487 72.4854 20.9737 72.4389 23.0264C72.4854 25.079 71.9589 27.104 70.9185 28.8741C69.8966 30.5589 68.4097 31.9127 66.6367 32.7725C64.7979 33.6952 60.854 34.072 60.854 34.072C60.5616 34.072 60.0808 34.124 59.7884 34.124H51.1598C51.019 34.1223 50.8845 34.0656 50.7849 33.9661C50.6854 33.8665 50.6287 33.732 50.627 33.5912L50.614 12.4616ZM59.6065 30.6479C59.8988 30.6479 60.3797 30.6479 60.672 30.5959C61.959 30.4814 63.2246 30.1928 64.434 29.7382C65.631 29.1548 66.6265 28.2272 67.2929 27.0743C67.9782 25.8488 68.3236 24.4626 68.2935 23.0589C68.3236 21.6552 67.9782 20.2689 67.2929 19.0435C66.6262 17.8909 65.6308 16.9633 64.434 16.3795C63.226 15.8986 61.9582 15.5839 60.6655 15.4439H55.2727C55.1319 15.4456 54.9974 15.5023 54.8978 15.6018C54.7982 15.7014 54.7416 15.8359 54.7399 15.9767V30.1411C54.7416 30.2819 54.7982 30.4164 54.8978 30.516C54.9974 30.6155 55.1319 30.6722 55.2727 30.6739L59.6065 30.6479ZM92.347 26.3986C92.3342 26.5423 92.2687 26.6762 92.1632 26.7745C92.0577 26.8729 91.9195 26.9287 91.7752 26.9314H79.5536C79.4916 26.9244 79.4289 26.9344 79.3722 26.9603C79.3155 26.9862 79.2668 27.027 79.2315 27.0783C79.1961 27.1297 79.1754 27.1897 79.1715 27.2519C79.1675 27.3141 79.1806 27.3763 79.2092 27.4317C79.5585 28.3674 80.1188 29.2101 80.8466 29.8942C81.915 30.6513 83.2024 31.037 84.5111 30.9922C86.3759 30.9922 88.6695 29.4524 88.6695 29.4524C88.7943 29.3788 88.9401 29.3492 89.0837 29.368C89.2273 29.3868 89.3605 29.4531 89.4622 29.5563L90.8851 31.1937C90.9778 31.3023 91.0254 31.4422 91.0181 31.5848C91.0109 31.7273 90.9493 31.8617 90.8461 31.9604C90.0995 32.6394 89.2565 33.2043 88.3446 33.6367C86.915 34.16 85.3954 34.3928 83.8747 34.3214C82.354 34.25 80.8629 33.8758 79.4886 33.2209C78.1207 32.5263 76.9816 31.4526 76.2074 30.1281C75.4247 28.7629 75.0251 27.2118 75.0508 25.6384C75.027 24.0796 75.4147 22.5422 76.1749 21.1811C76.9076 19.8787 77.9902 18.8074 79.3002 18.0883C80.6823 17.3355 82.2357 16.9527 83.8094 16.9773C85.3547 16.9524 86.8798 17.3309 88.2341 18.0754C89.522 18.7914 90.579 19.8598 91.2814 21.1551C92.0318 22.5656 92.4076 24.1451 92.373 25.7423C92.373 26.0347 92.347 26.3986 92.347 26.3986ZM80.5867 21.2916C79.9332 22.0071 79.4432 22.8563 79.1507 23.7801C79.1275 23.8384 79.1194 23.9016 79.1272 23.9639C79.1351 24.0261 79.1586 24.0853 79.1956 24.136C79.2327 24.1867 79.2819 24.2271 79.3389 24.2535C79.3958 24.2799 79.4585 24.2914 79.5211 24.2869H88.0652C88.1291 24.2931 88.1936 24.2826 88.2522 24.2564C88.3108 24.2302 88.3617 24.1892 88.3997 24.1375C88.4377 24.0857 88.4616 24.0249 88.469 23.9611C88.4764 23.8974 88.4672 23.8327 88.4421 23.7736C88.1618 22.8587 87.685 22.016 87.0451 21.3046C86.1447 20.5281 84.9846 20.1198 83.7964 20.161C82.6241 20.1316 81.4818 20.5339 80.5867 21.2916ZM111.196 17.1917C111.258 17.1822 111.321 17.1905 111.378 17.2158C111.434 17.241 111.483 17.2822 111.517 17.3342C111.551 17.3862 111.57 17.447 111.571 17.5093C111.571 17.5716 111.554 17.6328 111.521 17.6855L104.679 33.6367C104.61 33.7781 104.504 33.8985 104.373 33.9853C104.241 34.0721 104.089 34.1222 103.932 34.1305H100.911C100.753 34.1222 100.601 34.0721 100.47 33.9853C100.338 33.8985 100.233 33.7781 100.163 33.6367L93.3151 17.6855C93.282 17.6328 93.2647 17.5716 93.2654 17.5093C93.2661 17.447 93.2846 17.3862 93.3189 17.3342C93.3531 17.2822 93.4016 17.241 93.4585 17.2158C93.5154 17.1905 93.5784 17.1822 93.64 17.1917H96.6938C96.8503 17.1998 97.0017 17.2499 97.132 17.3368C97.2624 17.4237 97.3669 17.5442 97.4345 17.6855L102.288 29.2639C102.405 29.5368 102.593 29.5368 102.71 29.2639L107.687 17.6855C107.757 17.5441 107.862 17.4237 107.994 17.3369C108.125 17.2501 108.277 17.2 108.435 17.1917H111.196ZM120.033 15.7883C119.939 16.1206 119.886 16.4632 119.877 16.8084C119.882 16.9457 119.94 17.0755 120.04 17.1702C120.139 17.2649 120.272 17.3169 120.409 17.3152H124.002C124.143 17.3168 124.278 17.3735 124.377 17.4731C124.477 17.5726 124.534 17.7072 124.535 17.8479V19.9531C124.534 20.0939 124.477 20.2284 124.377 20.328C124.278 20.4275 124.143 20.4842 124.002 20.4859H120.533C120.392 20.4876 120.258 20.5443 120.158 20.6438C120.058 20.7434 120.002 20.8779 120 21.0187V33.6042C119.998 33.745 119.942 33.8795 119.842 33.9791C119.743 34.0786 119.608 34.1353 119.467 34.137H116.569C116.429 34.1353 116.294 34.0786 116.195 33.9791C116.095 33.8795 116.038 33.745 116.037 33.6042V21.0252C116.035 20.8844 115.978 20.7499 115.879 20.6503C115.779 20.5508 115.645 20.4941 115.504 20.4924H113.782C113.641 20.4907 113.507 20.434 113.407 20.3345C113.308 20.2349 113.251 20.1004 113.249 19.9596V17.8544C113.251 17.7137 113.308 17.5791 113.407 17.4796C113.507 17.38 113.641 17.3233 113.782 17.3217H115.484C115.625 17.32 115.76 17.2633 115.859 17.1637C115.959 17.0642 116.015 16.9296 116.017 16.7889C116.022 16.4322 116.05 16.0762 116.102 15.7233C116.102 15.7233 116.543 13.0009 117.603 11.9548C118.205 11.4064 118.912 10.9846 119.681 10.7145C120.45 10.4444 121.266 10.3315 122.079 10.3824C123.146 10.4272 124.196 10.665 125.179 11.0841C125.311 11.1441 125.415 11.2516 125.472 11.3852C125.528 11.5188 125.533 11.6687 125.484 11.8053L124.75 13.7546C124.727 13.8167 124.692 13.8735 124.646 13.9212C124.6 13.9689 124.545 14.0065 124.484 14.0316C124.423 14.0567 124.357 14.0687 124.291 14.0668C124.225 14.065 124.16 14.0494 124.1 14.021C123.565 13.7594 122.985 13.6028 122.391 13.5596C120.682 13.5726 120.033 15.7883 120.033 15.7883ZM129.922 33.2469C128.569 32.5428 127.443 31.4706 126.673 30.1541C125.89 28.7889 125.491 27.2378 125.516 25.6644C125.488 24.0948 125.888 22.5472 126.673 21.1876C127.446 19.8772 128.572 18.8101 129.922 18.1078C131.362 17.3772 132.955 16.9965 134.571 16.9965C136.186 16.9965 137.779 17.3772 139.219 18.1078C140.569 18.8107 141.694 19.8776 142.468 21.1876C143.253 22.5472 143.653 24.0948 143.625 25.6644C143.65 27.2378 143.251 28.7889 142.468 30.1541C141.698 31.4702 140.572 32.5422 139.219 33.2469C137.779 33.9775 136.186 34.3582 134.571 34.3582C132.955 34.3582 131.362 33.9775 129.922 33.2469ZM138.173 29.5043C138.657 28.9928 139.033 28.3892 139.278 27.7296C139.524 27.0699 139.634 26.3676 139.603 25.6644C139.634 24.9612 139.523 24.259 139.278 23.5993C139.032 22.9397 138.657 22.3361 138.173 21.8244C137.704 21.3432 137.141 20.9647 136.518 20.713C135.894 20.4614 135.226 20.342 134.554 20.3625C133.886 20.3415 133.22 20.4607 132.6 20.7125C131.98 20.9643 131.42 21.343 130.955 21.8244C130.477 22.3388 130.106 22.9432 129.864 23.6025C129.621 24.2618 129.513 24.9627 129.545 25.6644C129.513 26.366 129.621 27.067 129.863 27.7264C130.105 28.3857 130.476 28.9902 130.955 29.5043C131.419 29.986 131.98 30.3649 132.6 30.6167C133.22 30.8686 133.885 30.9876 134.554 30.9663C135.225 30.9858 135.892 30.866 136.514 30.6144C137.136 30.3627 137.699 29.9847 138.167 29.5043H138.173ZM156.769 13.7156C156.538 13.497 156.354 13.2336 156.228 12.9414C156.102 12.6493 156.038 12.3346 156.038 12.0165C156.038 11.6984 156.102 11.3837 156.228 11.0916C156.354 10.7994 156.538 10.536 156.769 10.3174C157.263 9.87355 157.912 9.6404 158.575 9.66768C159.241 9.64415 159.889 9.87671 160.388 10.3174C160.623 10.5197 160.81 10.7714 160.935 11.0545C161.061 11.3376 161.123 11.6451 161.116 11.9548C161.123 12.2815 161.064 12.6064 160.941 12.9092C160.818 13.2121 160.634 13.4865 160.401 13.7156C160.162 13.9531 159.876 14.139 159.562 14.2619C159.248 14.3849 158.912 14.4422 158.575 14.4303C157.902 14.44 157.253 14.1831 156.769 13.7156ZM156.581 17.7245C156.582 17.5837 156.639 17.4492 156.739 17.3496C156.838 17.2501 156.973 17.1934 157.113 17.1917H160.011C160.152 17.1934 160.287 17.2501 160.386 17.3496C160.486 17.4492 160.542 17.5837 160.544 17.7245V33.6042C160.542 33.745 160.486 33.8795 160.386 33.9791C160.287 34.0786 160.152 34.1353 160.011 34.137H157.113C156.973 34.1353 156.838 34.0786 156.739 33.9791C156.639 33.8795 156.582 33.745 156.581 33.6042V17.7245ZM168.731 33.2469C167.378 32.5428 166.252 31.4706 165.482 30.1541C164.699 28.7889 164.3 27.2378 164.326 25.6644C164.307 24.0918 164.719 22.544 165.515 21.1876C166.288 19.8772 167.413 18.8101 168.763 18.1078C170.204 17.3772 171.797 16.9965 173.412 16.9965C175.028 16.9965 176.62 17.3772 178.061 18.1078C179.411 18.8107 180.536 19.8776 181.31 21.1876C182.074 22.553 182.454 24.1002 182.408 25.6644C182.434 27.2378 182.034 28.7889 181.251 30.1541C180.481 31.4702 179.355 32.5422 178.003 33.2469C176.562 33.9775 174.969 34.3582 173.354 34.3582C171.738 34.3582 170.146 33.9775 168.705 33.2469H168.731ZM176.983 29.5043C177.466 28.9928 177.842 28.3892 178.087 27.7296C178.333 27.0699 178.443 26.3676 178.412 25.6644C178.443 24.9612 178.332 24.259 178.087 23.5993C177.841 22.9397 177.466 22.3361 176.983 21.8244C176.514 21.3432 175.95 20.9647 175.327 20.713C174.704 20.4614 174.035 20.342 173.363 20.3625C172.695 20.3415 172.029 20.4607 171.409 20.7125C170.789 20.9643 170.229 21.343 169.764 21.8244C169.286 22.3388 168.915 22.9432 168.673 23.6025C168.431 24.2618 168.322 24.9627 168.354 25.6644C168.322 26.366 168.43 27.067 168.672 27.7264C168.914 28.3857 169.285 28.9902 169.764 29.5043C170.228 29.986 170.789 30.3649 171.409 30.6167C172.029 30.8686 172.695 30.9876 173.363 30.9663C174.035 30.9867 174.704 30.8674 175.327 30.6157C175.95 30.364 176.514 29.9856 176.983 29.5043ZM147.406 11.1231C147.408 10.9823 147.465 10.8478 147.564 10.7482C147.664 10.6487 147.798 10.592 147.939 10.5903H150.837C150.978 10.592 151.112 10.6487 151.212 10.7482C151.311 10.8478 151.368 10.9823 151.37 11.1231V33.6042C151.368 33.745 151.311 33.8795 151.212 33.9791C151.112 34.0786 150.978 34.1353 150.837 34.137H147.972C147.831 34.1353 147.696 34.0786 147.597 33.9791C147.497 33.8795 147.44 33.745 147.439 33.6042L147.406 11.1231Z" fill="white"/>
</g>
<defs>
<clipPath id="clip0_412_507">
<rect width="181.928" height="43" fill="white" transform="translate(0.47998 0.5)"/>
</clipPath>
</defs>
</svg>
