<svg width="526" height="44" viewBox="0 0 526 44" fill="none" xmlns="http://www.w3.org/2000/svg">
<path d="M26.1309 25.084L13.5347 43.5V33.1627L26.1309 25.084Z" fill="url(#paint0_linear_412_628)"/>
<path d="M13.5348 33.1627V43.5L0.852051 25.084L13.5348 33.1627Z" fill="url(#paint1_linear_412_628)"/>
<path d="M26.1309 23.4363L13.5347 16.2263V31.515L26.1309 23.4363Z" fill="url(#paint2_linear_412_628)"/>
<path d="M26.1309 22.4778L13.5347 0.5V15.2678L26.1309 22.4778Z" fill="url(#paint3_linear_412_628)"/>
<path d="M13.5348 0.5V15.2678L0.852051 22.4778L13.5348 0.5Z" fill="url(#paint4_linear_412_628)"/>
<path d="M13.5348 16.2263V31.515L0.852051 23.4363L13.5348 16.2263Z" fill="url(#paint5_linear_412_628)"/>
<path d="M35.6903 24.8285C35.656 23.0877 36.0544 21.3655 36.8498 19.8167C37.5827 18.4038 38.7071 17.232 40.0886 16.4416C41.5571 15.6253 43.2161 15.2136 44.8959 15.2486C46.5409 15.2212 48.162 15.6456 49.5825 16.4757C50.9604 17.2972 52.0775 18.492 52.8049 19.9218C53.5976 21.4838 53.9958 23.2163 53.9645 24.9677V26.3992H40.5658C40.5815 26.9238 40.7047 27.4395 40.9276 27.9146C41.1504 28.3897 41.4684 28.8141 41.8617 29.1615C42.7377 29.8946 43.8572 30.2717 44.9982 30.2181C45.8748 30.2259 46.7403 30.021 47.5204 29.6209C48.4715 29.0817 49.3246 28.3855 50.0434 27.5617L53.0783 30.664C52.0656 31.7988 50.8369 32.7202 49.4639 33.3745C48.0671 34.0294 46.5408 34.3614 44.9982 34.3459C43.2967 34.3806 41.6158 33.9694 40.1227 33.1529C38.7294 32.3743 37.5924 31.2077 36.8498 29.7949C36.0548 28.2622 35.6561 26.5548 35.6903 24.8285ZM49.0549 22.8509C49.0161 22.3692 48.8796 21.9005 48.6539 21.4733C48.4282 21.046 48.1179 20.6691 47.742 20.3656C46.9273 19.7308 45.9256 19.3833 44.8928 19.3771C43.8601 19.3709 42.8543 19.7065 42.0321 20.3315C41.2772 20.9764 40.7806 21.8724 40.6339 22.8544L49.0549 22.8509Z" fill="white"/>
<path d="M57.0661 24.7944C57.033 23.07 57.4316 21.3648 58.2257 19.8337C58.9679 18.422 60.0973 17.2511 61.4814 16.4587C62.9422 15.6367 64.5959 15.22 66.2717 15.2515C68.2333 15.2026 70.1544 15.8149 71.7259 16.9898C73.2532 18.1563 74.3457 19.8008 74.8291 21.6608L70.124 22.956C69.9488 22.0506 69.4958 21.2224 68.8281 20.5864C68.1183 19.9807 67.2036 19.6696 66.2717 19.7173C65.6728 19.6857 65.0745 19.7907 64.5221 20.0245C63.9697 20.2582 63.4778 20.6145 63.0834 21.0664C62.2671 22.1334 61.8618 23.4584 61.9416 24.7994C61.8617 26.1405 62.267 27.4655 63.0834 28.5324C63.4777 28.9844 63.9696 29.3408 64.522 29.5745C65.0744 29.8083 65.6727 29.9133 66.2717 29.8815C67.2036 29.9292 68.1183 29.6182 68.8281 29.0124C69.4958 28.3764 69.9488 27.5482 70.124 26.6428L74.8291 27.938C74.3459 29.7981 73.2534 31.4426 71.7259 32.609C70.1544 33.784 68.2333 34.3962 66.2717 34.3473C64.5959 34.3788 62.9422 33.9621 61.4814 33.1402C60.0971 32.3479 58.9676 31.1771 58.2257 29.7651C57.4298 28.2311 57.0311 26.5222 57.0661 24.7944Z" fill="white"/>
<path d="M77.7605 24.7944C77.7274 23.07 78.126 21.3647 78.9201 19.8337C79.6623 18.422 80.7917 17.2511 82.1758 16.4586C83.6536 15.6645 85.3051 15.2488 86.9828 15.2488C88.6605 15.2488 90.312 15.6645 91.7898 16.4586C93.1739 17.2511 94.3034 18.422 95.0456 19.8337C95.8393 21.3649 96.2379 23.0701 96.2051 24.7944C96.2381 26.5188 95.8395 28.224 95.0456 29.7551C94.3037 31.1671 93.1742 32.338 91.7898 33.1302C90.312 33.9244 88.6605 34.3401 86.9828 34.3401C85.3051 34.3401 83.6536 33.9244 82.1758 33.1302C80.7915 32.338 79.662 31.1671 78.9201 29.7551C78.1258 28.2242 77.7272 26.5188 77.7605 24.7944ZM91.3296 24.7944C91.4095 23.4533 91.004 22.1282 90.1871 21.0615C89.7875 20.6073 89.2899 20.2499 88.7319 20.0162C88.1739 19.7824 87.5701 19.6785 86.9661 19.7123C86.3673 19.6807 85.7691 19.7857 85.2168 20.0194C84.6645 20.2532 84.1727 20.6095 83.7785 21.0615C82.9616 22.1282 82.5561 23.4533 82.636 24.7944C82.5559 26.1356 82.9615 27.4608 83.7785 28.5274C84.1942 28.9548 84.6917 29.2943 85.2412 29.5256C85.7908 29.7568 86.3813 29.8752 86.9775 29.8736C87.5738 29.872 88.1636 29.7505 88.712 29.5163C89.2603 29.2821 89.7559 28.94 90.1693 28.5103C90.9918 27.4523 91.4039 26.1325 91.3296 24.7944Z" fill="white"/>
<path d="M98.9319 27.8627L103.364 26.8402C103.619 27.8824 104.228 28.8041 105.086 29.4484C106.013 30.0797 107.118 30.3964 108.239 30.3516C109.127 30.394 110.015 30.2548 110.847 29.9426C111.099 29.8659 111.321 29.7133 111.483 29.5058C111.644 29.2983 111.738 29.0458 111.751 28.783C111.746 28.4971 111.655 28.2192 111.491 27.9853C111.326 27.7514 111.095 27.5722 110.828 27.4708C109.743 27.0271 108.61 26.7125 107.452 26.5334C104.77 26.0335 102.855 25.3403 101.708 24.4536C101.148 24.0293 100.699 23.4761 100.399 22.8409C100.099 22.2058 99.9575 21.5076 99.9857 20.8058C99.9705 19.7602 100.307 18.7397 100.941 17.9079C101.637 17.021 102.564 16.3422 103.619 15.9453C104.874 15.4599 106.212 15.2226 107.557 15.2465C109.46 15.2129 111.332 15.734 112.944 16.7462C114.441 17.6572 115.565 19.0714 116.115 20.7355L111.922 22.0989C111.614 21.2335 111.034 20.4916 110.268 19.985C109.447 19.4691 108.492 19.2081 107.523 19.2351C106.795 19.2016 106.069 19.3479 105.41 19.6612C105.18 19.7609 104.983 19.925 104.844 20.1337C104.705 20.3424 104.629 20.5869 104.625 20.8378C104.625 21.2923 104.915 21.6615 105.495 21.9455C106.508 22.3507 107.567 22.6312 108.648 22.7806C111.422 23.3037 113.405 24.0254 114.597 24.9457C115.183 25.3932 115.651 25.9756 115.963 26.6432C116.275 27.3109 116.42 28.0441 116.387 28.7802C116.404 29.845 116.048 30.8822 115.382 31.7129C114.625 32.613 113.634 33.2856 112.518 33.6557C111.143 34.1325 109.694 34.3633 108.239 34.3374C106.072 34.42 103.932 33.8243 102.119 32.6331C100.496 31.4994 99.3581 29.7965 98.9319 27.8627Z" fill="white"/>
<path d="M125.93 33.113L118.739 15.7598H123.852L128.351 27.3172H128.422L132.889 15.7598H138.002L127.501 41.4999H122.422L125.93 33.113Z" fill="white"/>
<path d="M138.956 27.8626L143.388 26.84C143.643 27.8822 144.251 28.8038 145.109 29.4482C146.037 30.0796 147.142 30.3962 148.263 30.3514C149.151 30.3938 150.039 30.2546 150.871 29.9424C151.123 29.8657 151.345 29.7132 151.506 29.5056C151.668 29.2981 151.762 29.0457 151.775 28.7829C151.77 28.4969 151.679 28.2191 151.515 27.9852C151.35 27.7513 151.119 27.572 150.852 27.4706C149.767 27.0267 148.634 26.7121 147.476 26.5333C144.795 26.0334 142.88 25.3401 141.731 24.4534C141.172 24.0292 140.723 23.4759 140.423 22.8408C140.123 22.2056 139.981 21.5075 140.009 20.8057C139.994 19.7601 140.331 18.7397 140.964 17.9078C141.661 17.022 142.586 16.344 143.641 15.9472C144.896 15.4618 146.233 15.2245 147.579 15.2485C149.482 15.215 151.354 15.7361 152.966 16.7482C154.463 17.6592 155.586 19.0734 156.136 20.7375L151.946 22.1009C151.639 21.2354 151.058 20.4933 150.292 19.9869C149.472 19.4707 148.517 19.2097 147.548 19.2371C146.819 19.2037 146.094 19.35 145.434 19.6631C145.205 19.7633 145.009 19.9276 144.87 20.1363C144.732 20.345 144.657 20.5893 144.653 20.8398C144.653 21.2942 144.943 21.6635 145.522 21.9475C146.535 22.3527 147.595 22.6331 148.676 22.7826C151.449 23.3057 153.432 24.0274 154.625 24.9476C155.21 25.3953 155.679 25.9777 155.99 26.6454C156.302 27.313 156.447 28.0461 156.415 28.7821C156.432 29.847 156.076 30.8844 155.409 31.7148C154.653 32.615 153.661 33.2875 152.545 33.6576C151.17 34.1344 149.722 34.3652 148.267 34.3393C146.099 34.422 143.96 33.8263 142.147 32.6351C140.521 31.5015 139.382 29.7977 138.956 27.8626Z" fill="white"/>
<path d="M168.14 20.1233V27.3854C168.117 27.6243 168.143 27.8653 168.216 28.0937C168.29 28.3222 168.408 28.5335 168.566 28.7147C168.969 29.0259 169.475 29.1723 169.982 29.1245H174.106V33.8288H169.538C167.872 33.9361 166.223 33.433 164.901 32.4136C164.344 31.9049 163.909 31.278 163.626 30.579C163.343 29.8799 163.221 29.1265 163.268 28.3739V20.1233H158.835V15.7598H163.268V11.157H168.143V15.7598H175.234V20.1233H168.14Z" fill="white"/>
<path d="M178.503 24.8285C178.469 23.0877 178.867 21.3656 179.662 19.8167C180.395 18.4041 181.52 17.2325 182.901 16.4423C184.369 15.6261 186.028 15.2145 187.708 15.2494C189.353 15.222 190.974 15.6464 192.394 16.4764C193.772 17.2977 194.89 18.4922 195.617 19.9218C196.41 21.4838 196.808 23.2163 196.777 24.9677V26.3992H183.377C183.392 26.9238 183.515 27.4396 183.738 27.9147C183.961 28.3899 184.279 28.8142 184.672 29.1615C185.548 29.8944 186.668 30.2715 187.809 30.2181C188.685 30.2258 189.551 30.0208 190.332 29.6209C191.282 29.0817 192.135 28.3854 192.854 27.5617L195.889 30.6641C194.876 31.7988 193.647 32.7202 192.274 33.3745C190.878 34.0294 189.351 34.3614 187.809 34.3459C186.107 34.3807 184.426 33.9694 182.933 33.1529C181.54 32.3745 180.403 31.2079 179.66 29.7949C178.866 28.262 178.468 26.5546 178.503 24.8285ZM191.867 22.8509C191.829 22.3693 191.692 21.9007 191.467 21.4734C191.241 21.0462 190.931 20.6693 190.555 20.3656C189.74 19.7309 188.739 19.3834 187.706 19.3772C186.673 19.371 185.667 19.7065 184.845 20.3315C184.09 20.9767 183.594 21.8725 183.447 22.8545L191.867 22.8509Z" fill="white"/>
<path d="M200.049 15.7598H204.344V17.3277H204.415C204.779 16.7357 205.29 16.2483 205.898 15.9132C206.51 15.5802 207.196 15.4091 207.892 15.4161C208.593 15.4144 209.282 15.5999 209.887 15.9534C210.493 16.307 210.993 16.8157 211.336 17.4271H211.407C211.804 16.7951 212.358 16.2773 213.016 15.9247C213.673 15.5721 214.411 15.3968 215.157 15.4161C215.762 15.3958 216.363 15.5107 216.917 15.7525C217.472 15.9942 217.965 16.3568 218.362 16.8136C219.211 17.8339 219.649 19.1349 219.589 20.4613V33.8288H215.089V21.317C215.104 21.1008 215.076 20.8837 215.005 20.6787C214.935 20.4736 214.824 20.2848 214.68 20.1233C214.524 19.9806 214.341 19.8708 214.142 19.8005C213.943 19.7302 213.731 19.7009 213.52 19.7143C213.308 19.7047 213.096 19.7407 212.899 19.8201C212.702 19.8995 212.525 20.0204 212.378 20.1744C212.081 20.5186 211.928 20.9648 211.952 21.4192V33.8288H207.692V21.317C207.717 20.8891 207.576 20.4679 207.3 20.1404C207.156 19.9942 206.983 19.8805 206.792 19.807C206.601 19.7335 206.396 19.7019 206.192 19.7143C205.972 19.7036 205.752 19.739 205.547 19.8182C205.341 19.8975 205.154 20.0188 204.998 20.1744C204.846 20.3425 204.729 20.539 204.653 20.7526C204.577 20.9662 204.543 21.1928 204.555 21.4192V33.8288H200.055L200.049 15.7598Z" fill="white"/>
<path d="M229.595 28.2056L234.026 27.1823C234.281 28.2249 234.89 29.1468 235.748 29.7905C236.675 30.4225 237.781 30.7395 238.902 30.6945C239.79 30.7368 240.677 30.5977 241.509 30.2855C241.761 30.2088 241.983 30.0563 242.145 29.8489C242.306 29.6415 242.4 29.3893 242.413 29.1266C242.408 28.8405 242.318 28.5626 242.153 28.3286C241.989 28.0945 241.758 27.9152 241.49 27.8136C240.406 27.3696 239.273 27.055 238.115 26.8763C235.432 26.3764 233.517 25.6831 232.37 24.7964C231.81 24.3722 231.361 23.8189 231.062 23.1838C230.762 22.5486 230.62 21.8504 230.649 21.1487C230.633 20.1031 230.969 19.0828 231.603 18.2508C232.299 17.3652 233.225 16.6872 234.279 16.2902C235.534 15.8048 236.872 15.5675 238.217 15.5915C240.12 15.558 241.992 16.0791 243.604 17.0912C245.101 18.0023 246.225 19.4164 246.774 21.0805L242.581 22.4446C242.274 21.579 241.694 20.8367 240.928 20.33C240.107 19.8139 239.152 19.5529 238.183 19.5801C237.454 19.5467 236.728 19.6931 236.069 20.0061C235.84 20.1063 235.644 20.2706 235.505 20.4793C235.367 20.688 235.291 20.9323 235.288 21.1828C235.288 21.6372 235.578 22.0065 236.157 22.2905C237.171 22.6955 238.23 22.9759 239.311 23.1256C242.084 23.6492 244.067 24.3709 245.26 25.2907C246.241 26.0982 246.871 27.2547 247.016 28.517C247.162 29.7792 246.812 31.0488 246.041 32.0586C245.285 32.9587 244.294 33.6313 243.178 34.0014C241.803 34.4781 240.354 34.7089 238.899 34.6831C236.731 34.7659 234.592 34.1702 232.779 32.9788C231.155 31.8443 230.019 30.1402 229.595 28.2056Z" fill="white"/>
<path d="M250.152 28.0352V16.1056H255.027V26.9132C255.027 29.1183 256.118 30.2206 258.3 30.2201C258.731 30.2409 259.161 30.1712 259.564 30.0155C259.966 29.8598 260.331 29.6216 260.636 29.3162C260.932 28.993 261.162 28.6142 261.311 28.2018C261.46 27.7893 261.526 27.3513 261.505 26.9132V16.1028H266.384V34.1718H261.713V32.5691H261.645C261.095 33.2432 260.386 33.7704 259.583 34.1036C258.719 34.4875 257.784 34.6849 256.838 34.6831C254.701 34.6831 253.053 34.098 251.894 32.9277C251.291 32.2708 250.825 31.4991 250.526 30.6586C250.227 29.818 250.099 28.9259 250.152 28.0352Z" fill="white"/>
<path d="M271.869 16.1027H276.538V17.6706H276.606C277.261 16.9885 278.051 16.4511 278.926 16.093C279.801 15.7349 280.741 15.564 281.687 15.5915C283.198 15.5692 284.683 15.9834 285.965 16.7844C287.245 17.6023 288.268 18.7667 288.913 20.1425C289.644 21.7043 290.006 23.4133 289.971 25.1373C289.998 26.8331 289.636 28.5124 288.913 30.0468C288.263 31.4383 287.235 32.6193 285.947 33.4553C284.654 34.2793 283.148 34.706 281.616 34.6823C280.673 34.6965 279.737 34.5346 278.854 34.2051C278.089 33.9211 277.392 33.4799 276.808 32.9099H276.741V41.8422H271.865L271.869 16.1027ZM285.097 25.1373C285.166 23.8052 284.755 22.4926 283.938 21.4384C283.545 20.9784 283.052 20.6147 282.496 20.3753C281.941 20.1359 281.338 20.0271 280.734 20.0573C280.212 20.0498 279.695 20.1471 279.211 20.3434C278.728 20.5396 278.289 20.8308 277.921 21.1998C277.542 21.5553 277.242 21.9862 277.039 22.4647C276.837 22.9432 276.736 23.4588 276.745 23.9784V26.3302C276.743 27.0054 276.932 27.6675 277.29 28.2397C277.663 28.8403 278.186 29.3337 278.807 29.6712C279.469 30.039 280.215 30.2273 280.972 30.2173C281.548 30.2408 282.122 30.128 282.646 29.888C283.17 29.648 283.631 29.2876 283.989 28.8361C284.775 27.7681 285.166 26.4611 285.097 25.1373Z" fill="white"/>
<path d="M293.245 16.1027H297.916V17.6706H297.987C298.641 16.9885 299.431 16.4511 300.306 16.093C301.181 15.7349 302.122 15.564 303.067 15.5915C304.578 15.5692 306.063 15.9834 307.345 16.7844C308.626 17.6021 309.649 18.7666 310.294 20.1425C311.024 21.7044 311.386 23.4133 311.351 25.1373C311.378 26.833 311.016 28.5124 310.294 30.0468C309.644 31.4383 308.616 32.6193 307.328 33.4553C306.035 34.2792 304.529 34.7058 302.996 34.6823C302.054 34.6965 301.118 34.5347 300.235 34.2051C299.47 33.9215 298.773 33.4802 298.19 32.9099H298.119V41.8422H293.243L293.245 16.1027ZM306.473 25.1373C306.542 23.8052 306.13 22.4926 305.313 21.4384C304.92 20.9785 304.427 20.6149 303.871 20.3754C303.316 20.136 302.713 20.0272 302.109 20.0572C301.587 20.0499 301.07 20.1472 300.587 20.3435C300.103 20.5397 299.665 20.8309 299.296 21.1998C298.917 21.5554 298.617 21.9863 298.414 22.4648C298.212 22.9433 298.112 23.4589 298.12 23.9784V26.3302C298.118 27.0054 298.307 27.6674 298.665 28.2396C299.038 28.8403 299.561 29.3337 300.182 29.6712C300.844 30.0389 301.59 30.2272 302.347 30.2173C302.923 30.2408 303.497 30.128 304.021 29.888C304.546 29.648 305.006 29.2876 305.364 28.8361C306.15 27.7682 306.542 26.4612 306.473 25.1373Z" fill="white"/>
<path d="M314.621 25.1374C314.587 23.413 314.986 21.7077 315.78 20.1767C316.522 18.7648 317.652 17.5939 319.036 16.8017C320.514 16.0075 322.165 15.5918 323.843 15.5918C325.521 15.5918 327.172 16.0075 328.65 16.8017C330.034 17.5942 331.163 18.765 331.906 20.1767C332.668 21.7192 333.065 23.4167 333.065 25.1374C333.065 26.8582 332.668 28.5557 331.906 30.0982C331.164 31.5101 330.034 32.681 328.65 33.4732C327.172 34.2674 325.521 34.6831 323.843 34.6831C322.165 34.6831 320.514 34.2674 319.036 33.4732C317.652 32.681 316.522 31.5101 315.78 30.0982C314.986 28.5672 314.587 26.8619 314.621 25.1374ZM328.19 25.1374C328.27 23.7963 327.864 22.4712 327.047 21.4045C326.647 20.9502 326.15 20.5927 325.592 20.359C325.034 20.1253 324.43 20.0214 323.826 20.0553C323.227 20.0237 322.629 20.1287 322.077 20.3625C321.524 20.5962 321.033 20.9526 320.639 21.4045C319.822 22.4712 319.417 23.7964 319.497 25.1374C319.416 26.4785 319.822 27.8037 320.639 28.8704C321.054 29.2978 321.552 29.6373 322.101 29.8686C322.651 30.0999 323.241 30.2182 323.838 30.2166C324.434 30.215 325.024 30.0935 325.572 29.8593C326.12 29.6251 326.616 29.283 327.029 28.8534C327.852 27.7953 328.264 26.4755 328.19 25.1374Z" fill="white"/>
<path d="M336.815 16.1028H341.485V17.773H341.556C342.224 17.0533 343.038 16.4859 343.944 16.1094C344.85 15.733 345.827 15.5564 346.808 15.5915C348.28 15.5592 349.717 16.0481 350.864 16.972C352.035 17.9465 352.87 19.2646 353.251 20.7397L348.682 22.2394C348.477 21.5556 348.044 20.9626 347.454 20.5594C346.865 20.1562 346.155 19.967 345.444 20.0232C344.927 19.9873 344.41 20.0648 343.927 20.2504C343.444 20.436 343.007 20.7252 342.648 21.0976C341.973 21.9268 341.632 22.9785 341.694 24.0459V34.1718H336.818L336.815 16.1028Z" fill="white"/>
<path d="M364.975 20.4663V27.7285C364.953 27.9673 364.979 28.2083 365.052 28.4367C365.126 28.6652 365.244 28.8765 365.401 29.0578C365.804 29.3688 366.31 29.5151 366.817 29.4668H370.942V34.1718H366.374C364.707 34.2789 363.059 33.7761 361.737 32.7573C361.18 32.2489 360.743 31.6221 360.46 30.9231C360.177 30.2241 360.054 29.4705 360.1 28.7176V20.4663H355.668V16.1028H360.1V11.5H364.976V16.1028H372.067V20.4663H364.975Z" fill="white"/>
<path d="M382.067 15.0216H386.738V16.5902H386.809C387.463 15.9079 388.253 15.3703 389.128 15.012C390.003 14.6536 390.944 14.4825 391.889 14.5096C393.4 14.4875 394.885 14.902 396.167 15.7033C397.448 16.5211 398.471 17.6855 399.117 19.0613C399.847 20.6234 400.208 22.3323 400.173 24.0561C400.2 25.7518 399.838 27.4311 399.117 28.9657C398.466 30.3572 397.439 31.5382 396.15 32.3741C394.857 33.1981 393.351 33.6247 391.818 33.6012C390.876 33.6154 389.94 33.4535 389.057 33.124C388.292 32.84 387.595 32.3988 387.011 31.8288H386.944V40.761H382.068L382.067 15.0216ZM395.295 24.0561C395.364 22.7241 394.953 21.4116 394.136 20.3572C393.743 19.8976 393.25 19.5341 392.694 19.2947C392.139 19.0553 391.536 18.9463 390.931 18.9761C390.41 18.9685 389.892 19.0657 389.409 19.262C388.926 19.4583 388.487 19.7496 388.119 20.1186C387.74 20.4742 387.44 20.9051 387.237 21.3836C387.035 21.8621 386.934 22.3777 386.943 22.8972V25.2491C386.941 25.9243 387.13 26.5864 387.488 27.1585C387.861 27.7592 388.384 28.2525 389.005 28.59C389.667 28.9579 390.413 29.1461 391.17 29.1361C391.746 29.1596 392.32 29.0467 392.844 28.8068C393.368 28.5668 393.829 28.2064 394.187 27.755C394.973 26.6869 395.364 25.38 395.295 24.0561Z" fill="white"/>
<path d="M403.58 15.0217H408.25V16.6918H408.321C408.988 15.9722 409.802 15.4048 410.708 15.0283C411.614 14.6517 412.59 14.4748 413.571 14.5097C415.043 14.4775 416.48 14.9666 417.627 15.8908C418.799 16.8648 419.634 18.1828 420.014 19.6579L415.446 21.1583C415.241 20.4744 414.807 19.8815 414.218 19.4782C413.629 19.075 412.919 18.8858 412.207 18.9421C411.691 18.9061 411.173 18.9836 410.69 19.1692C410.207 19.3549 409.771 19.644 409.412 20.0164C408.736 20.8454 408.395 21.8972 408.457 22.9648V33.0907H403.582L403.58 15.0217Z" fill="white"/>
<path d="M422.092 24.0563C422.059 22.332 422.457 20.6267 423.251 19.0956C423.993 17.6839 425.123 16.5131 426.507 15.7205C427.985 14.9258 429.636 14.5098 431.314 14.5098C432.992 14.5098 434.643 14.9258 436.121 15.7205C437.505 16.5132 438.634 17.684 439.376 19.0956C440.139 20.638 440.536 22.3356 440.536 24.0563C440.536 25.777 440.139 27.4746 439.376 29.017C438.634 30.4287 437.505 31.5993 436.12 32.3913C434.643 33.1855 432.991 33.6012 431.313 33.6012C429.636 33.6012 427.984 33.1855 426.506 32.3913C425.122 31.5992 423.992 30.4283 423.25 29.0163C422.457 27.4853 422.058 25.7803 422.092 24.0563ZM435.661 24.0563C435.741 22.7152 435.335 21.3902 434.518 20.3233C434.119 19.8691 433.621 19.5117 433.063 19.278C432.505 19.0443 431.901 18.9404 431.297 18.9741C430.698 18.9426 430.1 19.0476 429.547 19.2814C428.995 19.5151 428.503 19.8714 428.109 20.3233C427.365 21.4261 426.968 22.726 426.968 24.0563C426.968 25.3865 427.365 26.6865 428.109 27.7892C428.525 28.2167 429.022 28.5561 429.572 28.7874C430.121 29.0187 430.712 29.137 431.308 29.1355C431.904 29.1339 432.494 29.0124 433.043 28.7782C433.591 28.544 434.087 28.2018 434.5 27.7722C435.323 26.7142 435.735 25.3944 435.661 24.0563Z" fill="white"/>
<path d="M444.797 37.1134L448.514 34.2844C449.043 35.1119 449.745 35.8146 450.573 36.3437C451.364 36.7653 452.252 36.9712 453.147 36.9409C454.258 36.9988 455.347 36.6192 456.181 35.8835C456.566 35.5022 456.865 35.0437 457.058 34.5383C457.252 34.0329 457.337 33.492 457.306 32.9516V31.6564H457.239C456.649 32.289 455.935 32.7937 455.142 33.139C454.288 33.4663 453.379 33.6226 452.465 33.5992C450.93 33.6284 449.419 33.2088 448.119 32.392C446.841 31.5678 445.824 30.3972 445.187 29.0169C444.469 27.4634 444.113 25.7672 444.147 24.0562C444.116 22.3527 444.484 20.6657 445.221 19.1296C445.881 17.7495 446.907 16.5765 448.186 15.7375C449.472 14.912 450.972 14.4848 452.499 14.5097C453.396 14.4874 454.288 14.6381 455.127 14.9535C455.882 15.2679 456.567 15.7316 457.139 16.3169H457.21V15.0217H461.915V33.1589C461.942 34.6435 461.559 36.1067 460.806 37.3868C460.068 38.6131 458.998 39.6057 457.72 40.2499C455.533 41.2913 453.055 41.548 450.701 40.9768C448.348 40.4056 446.262 39.0413 444.796 37.1134H444.797ZM457.036 25.2151V22.8633C457.061 22.3416 456.976 21.8206 456.789 21.3333C456.601 20.846 456.314 20.4031 455.946 20.0328C455.573 19.6795 455.134 19.404 454.654 19.2226C454.174 19.0412 453.663 18.9574 453.15 18.9762C452.575 18.9521 452.003 19.0629 451.479 19.2998C450.955 19.5367 450.494 19.893 450.133 20.3403C449.407 21.4382 449.022 22.7258 449.025 24.0418C449.028 25.3577 449.419 26.6435 450.15 27.7381C450.499 28.188 450.95 28.5491 451.465 28.7921C451.981 29.035 452.546 29.1529 453.116 29.1362C453.794 29.1373 454.46 28.9547 455.042 28.6079C455.639 28.2613 456.138 27.7684 456.491 27.1757C456.851 26.5855 457.04 25.9066 457.036 25.2151Z" fill="white"/>
<path d="M467.026 15.0217H471.696V16.6918H471.767C472.434 15.9722 473.248 15.4048 474.154 15.0282C475.06 14.6516 476.037 14.4748 477.018 14.5097C478.49 14.4775 479.927 14.9667 481.074 15.8908C482.246 16.8648 483.081 18.1828 483.461 19.6579L478.893 21.1583C478.688 20.4743 478.254 19.8813 477.665 19.478C477.075 19.0748 476.365 18.8856 475.654 18.9421C475.137 18.9061 474.62 18.9837 474.137 19.1693C473.654 19.3549 473.218 19.6441 472.859 20.0165C472.183 20.8454 471.842 21.8972 471.904 22.9648V33.0907H467.029L467.026 15.0217Z" fill="white"/>
<path d="M485.98 28.25C485.942 27.5074 486.077 26.7661 486.376 26.0853C486.675 25.4044 487.129 24.8029 487.702 24.3289C488.85 23.3972 490.765 22.7153 493.447 22.2831C494.44 22.1743 495.412 21.9158 496.328 21.5162C496.551 21.4189 496.742 21.2597 496.878 21.0574C497.014 20.8551 497.09 20.6181 497.095 20.3744C497.098 20.1109 497.03 19.8517 496.898 19.6237C496.766 19.3957 496.575 19.2074 496.345 19.0785C495.722 18.7296 495.013 18.5642 494.3 18.6013C493.374 18.5833 492.473 18.8977 491.76 19.4875C491.039 20.0864 490.551 20.9187 490.379 21.84L485.845 20.8175C486.062 19.6114 486.59 18.483 487.379 17.5447C488.191 16.5768 489.219 15.8121 490.379 15.3114C491.615 14.7707 492.951 14.4975 494.3 14.5097C496.335 14.4082 498.328 15.1056 499.856 16.4532C500.552 17.1191 501.098 17.9261 501.457 18.8201C501.816 19.7141 501.979 20.6746 501.936 21.6369V33.0921H497.572V31.0804H497.504C496.96 31.8944 496.197 32.5385 495.303 32.9388C494.303 33.3939 493.214 33.621 492.116 33.6034C491.02 33.6225 489.936 33.3893 488.945 32.9217C488.053 32.5028 487.297 31.8411 486.763 31.0123C486.238 30.1875 485.966 29.2274 485.98 28.25ZM497.3 26.3747V24.3289H497.229C496.983 24.7035 496.625 24.9903 496.206 25.1476C495.477 25.4229 494.724 25.6284 493.956 25.7611C493.04 25.9092 492.153 26.2026 491.329 26.6303C491.106 26.76 490.922 26.947 490.797 27.1717C490.671 27.3965 490.607 27.6509 490.613 27.9085C490.602 28.1455 490.655 28.3812 490.766 28.591C490.877 28.8008 491.042 28.9773 491.244 29.1021C491.801 29.4082 492.433 29.55 493.068 29.5111C493.783 29.5136 494.491 29.3685 495.148 29.0851C495.759 28.8362 496.298 28.4377 496.716 27.9262C497.084 27.492 497.29 26.9438 497.3 26.3747Z" fill="white"/>
<path d="M506.402 15.0217H510.697V16.5903H510.768C511.132 15.9984 511.643 15.5109 512.251 15.1751C512.863 14.8423 513.549 14.6712 514.246 14.678C514.947 14.6765 515.636 14.8621 516.241 15.2158C516.846 15.5694 517.346 16.0782 517.689 16.6897H517.761C518.157 16.0576 518.712 15.5397 519.369 15.187C520.027 14.8342 520.765 14.6588 521.511 14.678C522.116 14.6579 522.717 14.7729 523.272 15.0148C523.826 15.2567 524.319 15.6193 524.716 16.0762C525.566 17.0968 526.004 18.398 525.944 19.7247V33.0886H521.443V20.5768C521.458 20.3606 521.43 20.1436 521.359 19.9385C521.289 19.7335 521.179 19.5446 521.034 19.3831C520.878 19.2405 520.695 19.1308 520.496 19.0605C520.297 18.9903 520.085 18.9609 519.874 18.9741C519.662 18.9645 519.45 19.0007 519.253 19.0802C519.056 19.1597 518.878 19.2807 518.732 19.435C518.434 19.7789 518.282 20.2248 518.306 20.679V33.0886H514.045V20.5768C514.07 20.1491 513.93 19.7283 513.653 19.4009C513.51 19.2546 513.337 19.1409 513.146 19.0674C512.955 18.9939 512.75 18.9623 512.546 18.9748C512.325 18.964 512.106 18.9994 511.9 19.0787C511.694 19.1581 511.508 19.2797 511.352 19.4357C511.2 19.6035 511.082 19.7999 511.006 20.0134C510.93 20.2269 510.897 20.4534 510.909 20.6797V33.0893H506.409L506.402 15.0217Z" fill="white"/>
<defs>
<linearGradient id="paint0_linear_412_628" x1="16.0821" y1="30.5413" x2="21.2929" y2="35.7521" gradientUnits="userSpaceOnUse">
<stop stop-color="#F15D4C"/>
<stop offset="1" stop-color="#C36CA1"/>
</linearGradient>
<linearGradient id="paint1_linear_412_628" x1="0.569791" y1="25.3662" x2="16.1193" y2="40.9157" gradientUnits="userSpaceOnUse">
<stop stop-color="#F47D51"/>
<stop offset="0.96" stop-color="#DF72AC"/>
</linearGradient>
<linearGradient id="paint2_linear_412_628" x1="11.0453" y1="18.6883" x2="19.9125" y2="27.5555" gradientUnits="userSpaceOnUse">
<stop stop-color="#B46947"/>
<stop offset="0.896" stop-color="#AE5262"/>
</linearGradient>
<linearGradient id="paint3_linear_412_628" x1="19.8328" y1="0.5" x2="19.8328" y2="22.4778" gradientUnits="userSpaceOnUse">
<stop stop-color="#FFD663"/>
<stop offset="1" stop-color="#F26C7D"/>
</linearGradient>
<linearGradient id="paint4_linear_412_628" x1="4.86985" y1="9.16518" x2="12.2536" y2="16.5489" gradientUnits="userSpaceOnUse">
<stop stop-color="#FFF171"/>
<stop offset="1" stop-color="#FAB382"/>
</linearGradient>
<linearGradient id="paint5_linear_412_628" x1="5.82535" y1="18.4632" x2="16.1787" y2="28.8166" gradientUnits="userSpaceOnUse">
<stop stop-color="#D48A3D"/>
<stop offset="0.795" stop-color="#DB474E"/>
</linearGradient>
</defs>
</svg>
