<svg width="137" height="44" viewBox="0 0 137 44" fill="none" xmlns="http://www.w3.org/2000/svg">
<path d="M43.5912 25.1517C41.884 36.8391 30.9845 44.9809 19.2971 43.2738C7.60961 41.5666 -0.532211 30.5358 1.17494 18.8483C2.8821 7.16088 13.7816 -0.980941 25.4691 0.726214C37.1565 2.56469 45.2984 13.4642 43.5912 25.1517Z" fill="#42C1CA"/>
<path d="M32.0351 9.13068C27.7016 6.37297 24.5499 12.4137 24.5499 12.545C23.762 13.9895 23.1054 16.3533 22.7114 18.0604L17.0647 17.2725L16.802 18.8483L22.3175 19.6363C22.1861 20.4242 22.0548 20.9495 22.0548 20.9495L21.7922 22.6566V22.7879L16.2768 22L16.0141 23.5758L21.5295 24.3638C20.085 31.5863 19.0345 33.8188 17.9839 35.0007C17.7213 35.2633 16.2768 36.3139 15.4888 34.4754C14.9636 33.1622 13.913 33.4248 13.913 33.4248C13.6504 33.4248 12.3372 34.2127 14.4383 35.6573C18.7718 38.415 21.9235 32.3743 21.9235 32.2429C22.7114 30.7984 23.762 26.7275 24.1559 24.889L29.8027 25.677L30.0653 24.1011L24.4186 23.3132C24.5499 22.5253 24.6812 22 24.6812 22L24.9439 20.2929V20.1615L30.4593 20.9495L30.7219 19.3736L25.2065 18.5857C26.651 11.3631 27.3076 10.9692 28.3582 9.65596C28.6208 9.39332 30.0653 8.34276 30.8532 10.1812C31.3785 11.4944 32.4291 11.2318 32.4291 11.2318C32.823 11.3631 34.1362 10.4439 32.0351 9.13068Z" fill="#FEFEFE"/>
<path fill-rule="evenodd" clip-rule="evenodd" d="M62.6325 20.8182H54.7533V14.3836H62.8951L63.0264 12.4138H52.5209V31.4551H54.7533V22.6567H62.6325V20.8182ZM67.754 12.4138H65.6528V14.9089H67.754V12.4138ZM67.754 17.4039H65.6528V31.4551H67.754V17.4039ZM73.532 12.2825L71.4309 12.5451V25.5458C71.4309 30.1419 71.5622 31.8491 74.9765 31.8491C75.5018 31.8491 75.8958 31.7178 76.4211 31.7178L76.2897 29.8793C75.6331 29.8793 75.5018 30.0106 75.1079 30.0106C73.6633 30.0106 73.532 29.0914 73.532 26.071V12.2825ZM84.0376 31.7178C80.098 31.7178 77.6029 28.8287 77.6029 24.3639C77.6029 20.1616 80.098 17.1413 83.775 17.01C87.1893 17.01 89.4217 19.6364 89.4217 23.7073C89.4217 23.9699 89.4217 24.4952 89.4217 24.6265H79.8354C79.8354 27.7782 81.6738 29.748 84.1689 29.748C85.7447 29.748 87.3206 29.2227 88.6338 28.3035L89.2904 29.8793C87.9772 31.0612 86.27 31.7178 84.0376 31.7178ZM79.8354 23.3133H87.3206C87.3206 20.293 85.8761 18.8485 83.775 18.8485C81.6738 18.8485 80.098 20.6869 79.8354 23.3133ZM101.897 30.5359C100.978 31.4551 99.5333 31.8491 98.0888 31.8491C93.7553 31.8491 91.3915 28.4348 91.3915 24.4952C91.3915 20.5556 93.8866 17.1413 98.0888 17.1413C99.6646 17.1413 101.109 17.6666 101.897 18.3232L101.372 19.899C100.453 19.2424 99.2707 18.9798 98.0888 18.9798C95.5937 18.9798 93.6239 21.3435 93.6239 24.6265C93.6239 27.9095 95.4624 30.1419 98.3514 30.1419C99.5333 30.1419 100.584 29.748 101.503 29.0914L101.897 30.5359ZM114.372 24.4952C114.372 21.4748 113.322 18.8485 110.17 18.8485C107.15 18.8485 105.837 21.6062 105.837 24.4952C105.837 27.3842 107.281 30.0106 110.302 30.0106C113.322 30.0106 114.372 27.3842 114.372 24.4952ZM116.605 24.4952C116.605 28.3035 114.372 31.8491 110.17 31.8491C105.968 31.8491 103.604 28.5661 103.604 24.6265C103.604 20.6869 105.968 17.2726 110.302 17.2726C114.372 17.1413 116.605 20.4243 116.605 24.4952ZM121.726 12.4138H119.625V14.9089H121.726V12.4138ZM121.726 17.4039H119.625V31.4551H121.726V17.4039ZM131.838 17.1413C129.868 17.1413 127.898 18.0605 126.848 19.5051L126.716 17.4039H124.878V20.8182V31.4551H126.979V21.8688C127.373 20.5556 128.949 18.9798 131.313 18.9798C133.939 18.9798 134.07 20.8182 134.07 24.4952V31.4551H136.172V23.0507C136.303 19.1111 134.99 17.1413 131.838 17.1413Z" fill="white"/>
</svg>
