<svg width="158" height="44" viewBox="0 0 158 44" fill="none" xmlns="http://www.w3.org/2000/svg">
<path fill-rule="evenodd" clip-rule="evenodd" d="M16.8951 23.202H27.8868V20.4634H16.8951V23.202Z" fill="white"/>
<path fill-rule="evenodd" clip-rule="evenodd" d="M30.2784 30.5257H27.7753V25.2219H16.7836V30.5257H14.3052V13.3133H16.8084V18.4931H27.8001V13.3133H30.3032V30.5133H30.2784V30.5257ZM22.2856 0.5C10.4142 0.5 0.785645 10.1285 0.785645 22C0.785645 33.8715 10.4142 43.5 22.2856 43.5C34.1571 43.5 43.7856 33.8839 43.7856 22C43.7856 10.1161 34.1571 0.5 22.2856 0.5Z" fill="white"/>
<path fill-rule="evenodd" clip-rule="evenodd" d="M76.6615 20.6122H65.3229V12.4211H62.4355V31.6534H65.3229V23.3137H76.6615V31.6534H79.5488V12.4211H76.6615V20.6122Z" fill="white"/>
<path fill-rule="evenodd" clip-rule="evenodd" d="M89.487 17.8733C85.596 17.8733 82.6343 20.9093 82.6343 24.9119C82.6343 28.9517 85.6703 31.9505 89.7101 31.9505C94.3447 31.9505 95.968 28.8401 96.1911 27.7621L96.2282 27.5762H93.564L93.5268 27.6505C93.4896 27.7249 92.5974 29.435 89.7472 29.435C87.3804 29.435 85.6331 27.7621 85.4101 25.358H96.3769V25.2093C96.3769 20.9093 93.5268 17.8733 89.487 17.8733ZM89.487 20.2402C91.383 20.2402 92.6717 21.2067 93.3037 23.0531H85.596C86.1412 21.2439 87.5539 20.2402 89.487 20.2402Z" fill="white"/>
<path fill-rule="evenodd" clip-rule="evenodd" d="M109.785 20.0172C109.116 19.0878 107.604 17.8734 105.113 17.8734C101.185 17.8734 98.4465 20.7607 98.4465 24.912C98.4465 29.0633 101.185 31.9506 105.113 31.9506C107.778 31.9506 109.228 30.4636 109.785 29.6953V31.6284H112.487V11.7146H109.785V20.0172ZM105.597 29.4351C103.044 29.4351 101.297 27.5763 101.297 24.912C101.297 22.2477 103.081 20.3889 105.597 20.3889C108.112 20.3889 109.86 22.2477 109.86 24.912C109.86 27.5763 108.087 29.4351 105.597 29.4351Z" fill="white"/>
<path fill-rule="evenodd" clip-rule="evenodd" d="M122.573 17.8733C118.682 17.8733 115.721 20.9093 115.721 24.9119C115.721 28.9517 118.757 31.9505 122.796 31.9505C127.431 31.9505 129.054 28.8401 129.277 27.7621L129.315 27.5762H126.65L126.613 27.6505C126.576 27.7249 125.684 29.435 122.834 29.435C120.467 29.435 118.72 27.7621 118.496 25.358H129.463V25.2093C129.426 20.9093 126.613 17.8733 122.573 17.8733ZM122.573 20.2402C124.469 20.2402 125.758 21.2067 126.39 23.0531H118.682C119.203 21.2439 120.616 20.2402 122.573 20.2402Z" fill="white"/>
<path fill-rule="evenodd" clip-rule="evenodd" d="M135.213 20.129V18.171H132.5V31.6535H135.201V24.0572C135.201 21.6903 136.428 20.7981 139.612 20.7981H143.132V18.0967H139.687C136.985 18.0967 135.771 19.2739 135.213 20.129Z" fill="white"/>
<path fill-rule="evenodd" clip-rule="evenodd" d="M155.151 20.0173C154.63 19.2738 153.255 17.8735 150.627 17.8735C147.368 17.8735 144.072 20.2776 144.072 24.9122C144.072 29.0635 146.774 31.9508 150.627 31.9508C153.143 31.9508 154.519 30.6124 155.151 29.7326V31.6658H157.852V18.1709H155.151V20.0173ZM155.225 24.9122C155.225 27.5392 153.478 29.4352 151.111 29.4352C148.632 29.4352 146.885 27.5764 146.885 24.9122C146.885 22.2479 148.632 20.3891 151.111 20.3891C153.478 20.3891 155.225 22.3098 155.225 24.9122Z" fill="white"/>
</svg>
