<svg width="22" height="45" viewBox="0 0 20 20" fill="#f5f2f840" xmlns="http://www.w3.org/2000/svg">
<path d="M13.5333 5.00829L13.5436 4.99658L13.5532 4.98425C13.9602 4.46079 13.9236 3.70469 13.4427 3.22378C12.922 2.70308 12.0778 2.70308 11.5571 3.22378L5.72378 9.05711L5.71281 9.06808L5.70254 9.07971L5.63321 9.15821L5.62287 9.16992L5.61329 9.18226C5.20627 9.70572 5.24286 10.4618 5.72378 10.9427L11.5571 16.7761L11.5681 16.787L11.5797 16.7973L11.6582 16.8666L11.6699 16.877L11.6823 16.8866C12.2057 17.2936 12.9618 17.257 13.4427 16.7761L13.4537 16.7651L13.464 16.7535L13.5333 16.675L13.5436 16.6632L13.5532 16.6509C13.9602 16.1275 13.9236 15.3714 13.4427 14.8904L8.55281 9.99992L13.4427 5.10937L13.4537 5.09841L13.464 5.0868L13.5333 5.00829Z" fill="white" stroke="white"/>
</svg>
