<svg width="165" height="40" viewBox="0 0 165 40" fill="none" xmlns="http://www.w3.org/2000/svg">
<path d="M68.2718 5.66602C65.2393 5.66602 63.0342 6.38283 61.1607 8.03639L57.8524 10.9025C57.5766 11.1236 57.0251 11.2888 56.6399 10.9572C56.2535 10.6267 56.1988 10.1857 56.5293 9.74465L58.2934 7.09849C58.5692 6.71217 58.3493 6.21644 57.8524 6.21644H53.6074C53.1117 6.21644 52.7253 6.60277 52.7253 7.09849V32.8991C52.7253 33.3948 53.1117 33.7811 53.6074 33.7811H58.0176C58.5134 33.7811 58.8997 33.3948 58.8997 32.8991V18.3452C58.8997 11.6751 64.4678 10.6278 66.5624 10.6278C71.0273 10.6278 72.6262 13.8256 72.6262 16.2506V32.8991C72.6262 33.3948 73.0125 33.7811 73.5082 33.7811H77.9185C78.4142 33.7811 78.8006 33.3948 78.8006 32.8991V15.6991C78.8006 9.5247 74.7755 5.66602 68.2706 5.66602H68.2718Z" fill="white"/>
<path d="M96.7708 5.55566C88.2261 5.55566 82.7686 10.7933 82.7686 17.9044V21.8189C82.7686 29.3163 88.2261 34.4434 96.7708 34.4434C104.323 34.4434 109.615 30.5289 110.167 25.2366C110.223 24.685 109.836 24.2998 109.285 24.2998H104.985C104.599 24.2998 104.268 24.5209 104.158 24.9061C103.606 26.6702 101.016 29.3163 96.7708 29.3163C92.5258 29.3163 88.5566 26.2292 88.6113 21.8189L88.6671 16.9129C88.7218 13.2195 92.5817 10.6839 96.7708 10.6839C100.575 10.6839 104.268 12.8343 104.653 16.3625C104.685 16.7705 104.405 17.1386 104.003 17.2161L91.6426 19.6149C91.1469 19.7255 90.7606 20.1665 90.7606 20.7169V20.7716C90.7606 21.2673 91.2563 21.7084 91.9731 21.7084H109.725C110.212 21.7084 110.607 21.3129 110.607 20.8263V17.354C110.607 10.7944 104.928 5.5568 96.7697 5.5568L96.7708 5.55566Z" fill="white"/>
<path d="M127.531 5.55558C120.64 5.55558 114.687 9.57951 114.687 14.8718C114.687 15.3128 115.073 15.6433 115.569 15.6433H120.034C120.475 15.6433 120.805 15.3128 120.861 14.8718C121.302 12.4468 124.224 10.6826 127.366 10.6826C131.114 10.6826 133.651 12.9983 133.651 16.9675V21.7641C133.651 26.6701 130.012 29.151 125.491 29.151C121.963 29.151 119.923 27.8279 119.923 25.6775C119.923 23.8029 120.916 22.204 124.994 21.2673L130.893 19.6684C131.499 19.5032 131.72 19.0063 131.61 18.4559C131.555 18.0148 131.059 17.7938 130.617 17.7938H124.498C119.317 17.7938 114.079 21.1009 114.079 25.9522V26.7237C114.079 31.6855 118.765 34.2758 124.112 34.2758C127.53 34.2758 130.452 32.9527 132.271 31.4097L134.973 29.094C135.414 28.7077 135.855 28.7077 136.24 29.094C136.57 29.4245 136.46 29.9214 136.184 30.3066L134.53 32.898C134.255 33.2844 134.475 33.7801 134.971 33.7801H138.941C139.436 33.7801 139.823 33.3938 139.823 32.898V16.1938C139.823 9.79946 135.247 5.55444 127.529 5.55444L127.531 5.55558Z" fill="white"/>
<path d="M163.638 6.21777H157.464C155.314 6.21777 153.219 7.54085 151.73 8.80923L149.305 10.9038C149.03 11.1249 148.533 11.2901 148.202 11.0144C147.816 10.7386 147.651 10.187 147.982 9.74598L149.746 7.09983C150.022 6.7135 149.802 6.21777 149.305 6.21777H145.171C144.675 6.21777 144.289 6.6041 144.289 7.09983V32.9004C144.289 33.3961 144.675 33.7824 145.171 33.7824H149.692C150.187 33.7824 150.574 33.3961 150.574 32.9004V19.6696C150.574 13.991 152.889 11.4554 157.906 11.4554H163.639C164.135 11.4554 164.521 11.0691 164.521 10.5733V7.09983C164.521 6.6041 164.135 6.21777 163.639 6.21777H163.638Z" fill="white"/>
<path d="M36.1568 0C34.6753 0 33.2998 0.768091 32.5237 2.03077L24.1625 14.4444C23.8901 14.8536 24.0006 15.4051 24.4097 15.6775C24.7414 15.8986 25.1801 15.8712 25.4821 15.6114L33.7123 8.47294C33.8491 8.34986 34.0599 8.36239 34.183 8.49915C34.2388 8.56182 34.2684 8.64274 34.2684 8.72593V31.0758C34.2684 31.2604 34.1191 31.4085 33.9345 31.4085C33.8354 31.4085 33.7419 31.3652 33.6793 31.2889L8.80063 1.50883C7.99037 0.552706 6.80063 0.0011396 5.54821 0H4.67869C2.32542 0 0.417725 1.90769 0.417725 4.26097V35.739C0.417725 38.0923 2.32542 40 4.67869 40C6.16017 40 7.53567 39.2319 8.31174 37.9692L16.673 25.5556C16.9454 25.1464 16.8348 24.5949 16.4257 24.3225C16.0941 24.1014 15.6553 24.1288 15.3533 24.3886L7.12314 31.5271C6.98639 31.6501 6.77556 31.6376 6.65248 31.5009C6.59664 31.4382 6.56701 31.3573 6.56815 31.2741V8.91852C6.56815 8.7339 6.71744 8.58575 6.90205 8.58575C7.00006 8.58575 7.09465 8.62906 7.15733 8.70541L32.0325 38.4912C32.8428 39.4473 34.0325 39.9989 35.285 40H36.1545C38.5078 40.0011 40.4166 38.0946 40.4189 35.7413V4.26097C40.4189 1.90769 38.5112 0 36.1579 0H36.1568Z" fill="white"/>
</svg>
