<svg width="255" height="40" viewBox="0 0 255 40" fill="none" xmlns="http://www.w3.org/2000/svg">
<path d="M84.1348 17.4456C84.1348 18.1783 84.379 18.9383 84.8676 19.7253C85.3832 20.4853 86.0075 21.2588 86.7403 22.0459C87.5002 22.8329 88.3144 23.62 89.1829 24.4071C90.0785 25.167 90.8927 25.8998 91.6255 26.6055C92.3855 27.3111 93.0097 27.9896 93.4982 28.641C94.0139 29.2652 94.2717 29.8216 94.2717 30.3101V35.2768H91.1777C90.0921 35.2768 89.21 34.9512 88.5315 34.2998C87.8801 33.6484 87.5545 32.8071 87.5545 31.7757H84.1348C84.1348 32.7256 84.3112 33.6213 84.664 34.4626C85.044 35.2768 85.5461 35.9961 86.1703 36.6203C86.8217 37.2445 87.568 37.7466 88.4094 38.1266C89.2779 38.4794 90.2007 38.6558 91.1777 38.6558H94.0275C95.0588 38.6558 95.9951 38.4794 96.8365 38.1266C97.705 37.7466 98.4378 37.2445 99.0349 36.6203C99.6591 35.9689 100.134 35.2361 100.46 34.4219C100.813 33.5806 100.989 32.6985 100.989 31.7757V29.2924C100.989 28.4782 100.731 27.6504 100.215 26.809C99.727 25.9405 99.1027 25.0992 98.3428 24.2849C97.61 23.4436 96.8094 22.6294 95.9409 21.8423C95.0724 21.0552 94.2582 20.3224 93.4982 19.6439C92.7654 18.9383 92.1412 18.3005 91.6255 17.7305C91.137 17.1606 90.8927 16.672 90.8927 16.2649V11.4611H93.5796C94.8824 11.4611 95.8866 11.7732 96.5922 12.3974C97.325 12.9945 97.6914 13.8359 97.6914 14.9215H101.03C101.03 13.9987 100.84 13.1302 100.46 12.316C100.107 11.4747 99.6048 10.7554 98.9535 10.1583C98.3292 9.53411 97.5964 9.04558 96.7551 8.69276C95.9137 8.31279 95.0181 8.1228 94.0682 8.1228H91.1777C90.2007 8.1228 89.2779 8.29921 88.4094 8.65204C87.568 9.00487 86.8217 9.4934 86.1703 10.1176C85.5461 10.7419 85.044 11.4747 84.664 12.316C84.3112 13.1302 84.1348 14.0259 84.1348 15.0029V17.4456ZM124.726 8.1228H104.37V11.5018H111.169V38.6558H117.927V11.5018H124.726V8.1228ZM135.066 38.6558H141.539C142.462 38.6558 143.33 38.4794 144.145 38.1266C144.986 37.7466 145.719 37.2445 146.343 36.6203C146.994 35.9689 147.51 35.2361 147.89 34.4219C148.268 33.591 148.462 32.6885 148.46 31.7757V15.0029C148.46 14.1344 148.27 13.2931 147.89 12.4789C147.537 11.6375 147.049 10.9047 146.424 10.2805C145.8 9.6291 145.067 9.11343 144.226 8.73346C143.385 8.32636 142.489 8.1228 141.539 8.1228H135.066C134.116 8.1228 133.22 8.32636 132.379 8.73346C131.538 9.11343 130.805 9.6291 130.181 10.2805C129.557 10.9047 129.054 11.6375 128.674 12.4789C128.322 13.2931 128.145 14.1344 128.145 15.0029V31.7757C128.145 32.6985 128.335 33.5806 128.715 34.4219C129.095 35.2361 129.597 35.9689 130.221 36.6203C130.873 37.2445 131.606 37.7466 132.42 38.1266C133.261 38.4794 134.143 38.6558 135.066 38.6558ZM141.702 35.2361H134.903V11.5018H141.702V35.2361ZM162.057 21.6388V11.4611H168.856V21.6388H162.057ZM155.299 38.6558H162.057V25.0992H168.856V38.6558H175.614V29.2109C175.614 28.0439 175.424 27.094 175.044 26.3612C174.664 25.6013 174.243 25.0042 173.782 24.5699C173.347 24.1085 172.94 23.7964 172.56 23.6336L171.99 23.3486L172.56 23.145C172.94 23.0093 173.347 22.7515 173.782 22.3715C174.243 21.9644 174.664 21.4081 175.044 20.7024C175.424 19.9696 175.614 19.0197 175.614 17.8527V14.9215C175.614 13.9173 175.451 12.9945 175.125 12.1532C174.826 11.3118 174.379 10.5926 173.782 9.9955C173.184 9.39841 172.465 8.93702 171.624 8.61133C170.81 8.28565 169.887 8.1228 168.856 8.1228H155.299V38.6558ZM189.496 8.1228C188.708 8.1228 187.894 8.31279 187.053 8.69276C186.239 9.07272 185.492 9.57482 184.814 10.1991C184.162 10.8233 183.62 11.5561 183.185 12.3974C182.778 13.2388 182.575 14.1073 182.575 15.0029V38.6558H189.333V25.0992H196.009V38.6558C196.226 38.683 196.647 38.6965 197.271 38.6965H199.266C199.999 38.6965 200.691 38.683 201.342 38.6558H202.808V15.0029C202.808 14.1073 202.591 13.2524 202.157 12.4381C201.722 11.5968 201.166 10.864 200.487 10.2398C199.836 9.58839 199.09 9.07272 198.248 8.69276C197.407 8.31279 196.579 8.1228 195.765 8.1228H189.496ZM189.333 21.6388V11.4611H196.009V21.6388H189.333ZM219.743 25.0585H223.163V35.2361H216.364V11.5018H223.855C224.697 11.5018 225.362 11.8139 225.85 12.4381C226.339 13.0352 226.583 13.8902 226.583 15.0029H229.921C229.921 14.1344 229.731 13.2931 229.351 12.4789C228.971 11.6375 228.456 10.9047 227.804 10.2805C227.158 9.63282 226.399 9.10855 225.565 8.73346C224.724 8.32636 223.855 8.1228 222.96 8.1228H216.487C215.537 8.1228 214.641 8.32636 213.8 8.73346C212.958 9.11343 212.226 9.6291 211.601 10.2805C210.977 10.9318 210.489 11.6782 210.136 12.5196C209.783 13.3338 209.606 14.1751 209.606 15.0436V31.735C209.606 32.6849 209.783 33.5806 210.136 34.4219C210.489 35.2633 210.977 35.9961 211.601 36.6203C212.226 37.2445 212.945 37.7466 213.759 38.1266C214.6 38.4794 215.51 38.6558 216.487 38.6558H223C224.032 38.6558 224.968 38.4658 225.809 38.0859C226.651 37.7059 227.37 37.2038 227.967 36.5796C228.591 35.9553 229.066 35.2226 229.392 34.3812C229.745 33.5398 229.921 32.6578 229.921 31.735V21.598H219.743V25.0585ZM250.317 25.0992V21.6388H243.518V11.5018H253.697V8.1228H236.76V38.6558H253.697V35.2361H243.518V25.0992H250.317Z" fill="#F5C32C"/>
<mask id="mask0_412_566" style="mask-type:luminance" maskUnits="userSpaceOnUse" x="83" y="7" width="172" height="33">
<path d="M83.9651 7.95312H253.932V38.995H83.9651V7.95312Z" fill="white" stroke="black" stroke-width="1.85316"/>
<path d="M84.1348 17.4456C84.1348 18.1783 84.379 18.9383 84.8676 19.7253C85.3832 20.4853 86.0075 21.2588 86.7403 22.0459C87.5002 22.8329 88.3144 23.62 89.1829 24.4071C90.0785 25.167 90.8927 25.8998 91.6255 26.6055C92.3855 27.3111 93.0097 27.9896 93.4982 28.641C94.0139 29.2652 94.2717 29.8216 94.2717 30.3101V35.2768H91.1777C90.0921 35.2768 89.21 34.9512 88.5315 34.2998C87.8801 33.6484 87.5545 32.8071 87.5545 31.7757H84.1348C84.1348 32.7256 84.3112 33.6213 84.664 34.4626C85.044 35.2768 85.5461 35.9961 86.1703 36.6203C86.8217 37.2445 87.568 37.7466 88.4094 38.1266C89.2779 38.4794 90.2007 38.6558 91.1777 38.6558H94.0275C95.0588 38.6558 95.9951 38.4794 96.8365 38.1266C97.705 37.7466 98.4378 37.2445 99.0349 36.6203C99.6591 35.9689 100.134 35.2361 100.46 34.4219C100.813 33.5806 100.989 32.6985 100.989 31.7757V29.2924C100.989 28.4782 100.731 27.6504 100.215 26.809C99.727 25.9405 99.1027 25.0992 98.3428 24.2849C97.61 23.4436 96.8094 22.6294 95.9409 21.8423C95.0724 21.0552 94.2582 20.3224 93.4982 19.6439C92.7654 18.9383 92.1412 18.3005 91.6255 17.7305C91.137 17.1606 90.8927 16.672 90.8927 16.2649V11.4611H93.5796C94.8824 11.4611 95.8866 11.7732 96.5922 12.3974C97.325 12.9945 97.6914 13.8359 97.6914 14.9215H101.03C101.03 13.9987 100.84 13.1302 100.46 12.316C100.107 11.4747 99.6048 10.7554 98.9535 10.1583C98.3292 9.53411 97.5964 9.04558 96.7551 8.69276C95.9137 8.31279 95.0181 8.1228 94.0682 8.1228H91.1777C90.2007 8.1228 89.2779 8.29921 88.4094 8.65204C87.568 9.00487 86.8217 9.4934 86.1703 10.1176C85.5461 10.7419 85.044 11.4747 84.664 12.316C84.3112 13.1302 84.1348 14.0259 84.1348 15.0029V17.4456ZM124.726 8.1228H104.37V11.5018H111.169V38.6558H117.927V11.5018H124.726V8.1228ZM135.066 38.6558H141.539C142.462 38.6558 143.33 38.4794 144.145 38.1266C144.986 37.7466 145.719 37.2445 146.343 36.6203C146.994 35.9689 147.51 35.2361 147.89 34.4219C148.268 33.591 148.462 32.6885 148.46 31.7757V15.0029C148.46 14.1344 148.27 13.2931 147.89 12.4789C147.537 11.6375 147.049 10.9047 146.424 10.2805C145.8 9.6291 145.067 9.11343 144.226 8.73346C143.385 8.32636 142.489 8.1228 141.539 8.1228H135.066C134.116 8.1228 133.22 8.32636 132.379 8.73346C131.538 9.11343 130.805 9.6291 130.181 10.2805C129.557 10.9047 129.054 11.6375 128.674 12.4789C128.322 13.2931 128.145 14.1344 128.145 15.0029V31.7757C128.145 32.6985 128.335 33.5806 128.715 34.4219C129.095 35.2361 129.597 35.9689 130.221 36.6203C130.873 37.2445 131.606 37.7466 132.42 38.1266C133.261 38.4794 134.143 38.6558 135.066 38.6558ZM141.702 35.2361H134.903V11.5018H141.702V35.2361ZM162.057 21.6388V11.4611H168.856V21.6388H162.057ZM155.299 38.6558H162.057V25.0992H168.856V38.6558H175.614V29.2109C175.614 28.0439 175.424 27.094 175.044 26.3612C174.664 25.6013 174.243 25.0042 173.782 24.5699C173.347 24.1085 172.94 23.7964 172.56 23.6336L171.99 23.3486L172.56 23.145C172.94 23.0093 173.347 22.7515 173.782 22.3715C174.243 21.9644 174.664 21.4081 175.044 20.7024C175.424 19.9696 175.614 19.0197 175.614 17.8527V14.9215C175.614 13.9173 175.451 12.9945 175.125 12.1532C174.826 11.3118 174.379 10.5926 173.782 9.9955C173.184 9.39841 172.465 8.93702 171.624 8.61133C170.81 8.28565 169.887 8.1228 168.856 8.1228H155.299V38.6558ZM189.496 8.1228C188.708 8.1228 187.894 8.31279 187.053 8.69276C186.239 9.07272 185.492 9.57482 184.814 10.1991C184.162 10.8233 183.62 11.5561 183.185 12.3974C182.778 13.2388 182.575 14.1073 182.575 15.0029V38.6558H189.333V25.0992H196.009V38.6558C196.226 38.683 196.647 38.6965 197.271 38.6965H199.266C199.999 38.6965 200.691 38.683 201.342 38.6558H202.808V15.0029C202.808 14.1073 202.591 13.2524 202.157 12.4381C201.722 11.5968 201.166 10.864 200.487 10.2398C199.836 9.58839 199.09 9.07272 198.248 8.69276C197.407 8.31279 196.579 8.1228 195.765 8.1228H189.496ZM189.333 21.6388V11.4611H196.009V21.6388H189.333ZM219.743 25.0585H223.163V35.2361H216.364V11.5018H223.855C224.697 11.5018 225.362 11.8139 225.85 12.4381C226.339 13.0352 226.583 13.8902 226.583 15.0029H229.921C229.921 14.1344 229.731 13.2931 229.351 12.4789C228.971 11.6375 228.456 10.9047 227.804 10.2805C227.158 9.63282 226.399 9.10855 225.565 8.73346C224.724 8.32636 223.855 8.1228 222.96 8.1228H216.487C215.537 8.1228 214.641 8.32636 213.8 8.73346C212.958 9.11343 212.226 9.6291 211.601 10.2805C210.977 10.9318 210.489 11.6782 210.136 12.5196C209.783 13.3338 209.606 14.1751 209.606 15.0436V31.735C209.606 32.6849 209.783 33.5806 210.136 34.4219C210.489 35.2633 210.977 35.9961 211.601 36.6203C212.226 37.2445 212.945 37.7466 213.759 38.1266C214.6 38.4794 215.51 38.6558 216.487 38.6558H223C224.032 38.6558 224.968 38.4658 225.809 38.0859C226.651 37.7059 227.37 37.2038 227.967 36.5796C228.591 35.9553 229.066 35.2226 229.392 34.3812C229.745 33.5398 229.921 32.6578 229.921 31.735V21.598H219.743V25.0585ZM250.317 25.0992V21.6388H243.518V11.5018H253.696V8.1228H236.76V38.6558H253.696V35.2361H243.518V25.0992H250.317Z" stroke="black" stroke-width="1.85316"/>
</mask>
<g mask="url(#mask0_412_566)">
<path d="M84.1348 17.4456C84.1348 18.1783 84.379 18.9383 84.8676 19.7253C85.3832 20.4853 86.0075 21.2588 86.7403 22.0459C87.5002 22.8329 88.3144 23.62 89.1829 24.4071C90.0785 25.167 90.8927 25.8998 91.6255 26.6055C92.3855 27.3111 93.0097 27.9896 93.4982 28.641C94.0139 29.2652 94.2717 29.8216 94.2717 30.3101V35.2768H91.1777C90.0921 35.2768 89.21 34.9512 88.5315 34.2998C87.8801 33.6484 87.5545 32.8071 87.5545 31.7757H84.1348C84.1348 32.7256 84.3112 33.6213 84.664 34.4626C85.044 35.2768 85.5461 35.9961 86.1703 36.6203C86.8217 37.2445 87.568 37.7466 88.4094 38.1266C89.2779 38.4794 90.2007 38.6558 91.1777 38.6558H94.0275C95.0588 38.6558 95.9951 38.4794 96.8365 38.1266C97.705 37.7466 98.4378 37.2445 99.0349 36.6203C99.6591 35.9689 100.134 35.2361 100.46 34.4219C100.813 33.5806 100.989 32.6985 100.989 31.7757V29.2924C100.989 28.4782 100.731 27.6504 100.215 26.809C99.727 25.9405 99.1027 25.0992 98.3428 24.2849C97.61 23.4436 96.8094 22.6294 95.9409 21.8423C95.0724 21.0552 94.2582 20.3224 93.4982 19.6439C92.7654 18.9383 92.1412 18.3005 91.6255 17.7305C91.137 17.1606 90.8927 16.672 90.8927 16.2649V11.4611H93.5796C94.8824 11.4611 95.8866 11.7732 96.5922 12.3974C97.325 12.9945 97.6914 13.8359 97.6914 14.9215H101.03C101.03 13.9987 100.84 13.1302 100.46 12.316C100.107 11.4747 99.6048 10.7554 98.9535 10.1583C98.3292 9.53411 97.5964 9.04558 96.7551 8.69276C95.9137 8.31279 95.0181 8.1228 94.0682 8.1228H91.1777C90.2007 8.1228 89.2779 8.29921 88.4094 8.65204C87.568 9.00487 86.8217 9.4934 86.1703 10.1176C85.5461 10.7419 85.044 11.4747 84.664 12.316C84.3112 13.1302 84.1348 14.0259 84.1348 15.0029V17.4456ZM124.726 8.1228H104.37V11.5018H111.169V38.6558H117.927V11.5018H124.726V8.1228ZM135.066 38.6558H141.539C142.462 38.6558 143.33 38.4794 144.145 38.1266C144.986 37.7466 145.719 37.2445 146.343 36.6203C146.994 35.9689 147.51 35.2361 147.89 34.4219C148.268 33.591 148.462 32.6885 148.46 31.7757V15.0029C148.46 14.1344 148.27 13.2931 147.89 12.4789C147.537 11.6375 147.049 10.9047 146.424 10.2805C145.8 9.6291 145.067 9.11343 144.226 8.73346C143.385 8.32636 142.489 8.1228 141.539 8.1228H135.066C134.116 8.1228 133.22 8.32636 132.379 8.73346C131.538 9.11343 130.805 9.6291 130.181 10.2805C129.557 10.9047 129.054 11.6375 128.674 12.4789C128.322 13.2931 128.145 14.1344 128.145 15.0029V31.7757C128.145 32.6985 128.335 33.5806 128.715 34.4219C129.095 35.2361 129.597 35.9689 130.221 36.6203C130.873 37.2445 131.606 37.7466 132.42 38.1266C133.261 38.4794 134.143 38.6558 135.066 38.6558ZM141.702 35.2361H134.903V11.5018H141.702V35.2361ZM162.057 21.6388V11.4611H168.856V21.6388H162.057ZM155.299 38.6558H162.057V25.0992H168.856V38.6558H175.614V29.2109C175.614 28.0439 175.424 27.094 175.044 26.3612C174.664 25.6013 174.243 25.0042 173.782 24.5699C173.347 24.1085 172.94 23.7964 172.56 23.6336L171.99 23.3486L172.56 23.145C172.94 23.0093 173.347 22.7515 173.782 22.3715C174.243 21.9644 174.664 21.4081 175.044 20.7024C175.424 19.9696 175.614 19.0197 175.614 17.8527V14.9215C175.614 13.9173 175.451 12.9945 175.125 12.1532C174.826 11.3118 174.379 10.5926 173.782 9.9955C173.184 9.39841 172.465 8.93702 171.624 8.61133C170.81 8.28565 169.887 8.1228 168.856 8.1228H155.299V38.6558ZM189.496 8.1228C188.708 8.1228 187.894 8.31279 187.053 8.69276C186.239 9.07272 185.492 9.57482 184.814 10.1991C184.162 10.8233 183.62 11.5561 183.185 12.3974C182.778 13.2388 182.575 14.1073 182.575 15.0029V38.6558H189.333V25.0992H196.009V38.6558C196.226 38.683 196.647 38.6965 197.271 38.6965H199.266C199.999 38.6965 200.691 38.683 201.342 38.6558H202.808V15.0029C202.808 14.1073 202.591 13.2524 202.157 12.4381C201.722 11.5968 201.166 10.864 200.487 10.2398C199.836 9.58839 199.09 9.07272 198.248 8.69276C197.407 8.31279 196.579 8.1228 195.765 8.1228H189.496ZM189.333 21.6388V11.4611H196.009V21.6388H189.333ZM219.743 25.0585H223.163V35.2361H216.364V11.5018H223.855C224.697 11.5018 225.362 11.8139 225.85 12.4381C226.339 13.0352 226.583 13.8902 226.583 15.0029H229.921C229.921 14.1344 229.731 13.2931 229.351 12.4789C228.971 11.6375 228.456 10.9047 227.804 10.2805C227.158 9.63282 226.399 9.10855 225.565 8.73346C224.724 8.32636 223.855 8.1228 222.96 8.1228H216.487C215.537 8.1228 214.641 8.32636 213.8 8.73346C212.958 9.11343 212.226 9.6291 211.601 10.2805C210.977 10.9318 210.489 11.6782 210.136 12.5196C209.783 13.3338 209.606 14.1751 209.606 15.0436V31.735C209.606 32.6849 209.783 33.5806 210.136 34.4219C210.489 35.2633 210.977 35.9961 211.601 36.6203C212.226 37.2445 212.945 37.7466 213.759 38.1266C214.6 38.4794 215.51 38.6558 216.487 38.6558H223C224.032 38.6558 224.968 38.4658 225.809 38.0859C226.651 37.7059 227.37 37.2038 227.967 36.5796C228.591 35.9553 229.066 35.2226 229.392 34.3812C229.745 33.5398 229.921 32.6578 229.921 31.735V21.598H219.743V25.0585ZM250.317 25.0992V21.6388H243.518V11.5018H253.696V8.1228H236.76V38.6558H253.696V35.2361H243.518V25.0992H250.317Z" stroke="black" stroke-width="1.85316"/>
</g>
<path d="M84.1348 15.7085C84.1348 16.4413 84.379 17.2012 84.8676 17.9883C85.3832 18.7482 86.0075 19.5217 86.7403 20.3088C87.5002 21.0959 88.3144 21.8829 89.1829 22.67C90.0785 23.43 90.8927 24.1627 91.6255 24.8684C92.3855 25.574 93.0097 26.2526 93.4982 26.9039C94.0139 27.5282 94.2717 28.0845 94.2717 28.5731V33.5398H91.1777C90.0921 33.5398 89.21 33.2141 88.5315 32.5627C87.8801 31.9113 87.5545 31.07 87.5545 30.0387H84.1348C84.1348 30.9886 84.3112 31.8842 84.664 32.7256C85.044 33.5398 85.5461 34.259 86.1703 34.8832C86.8217 35.5075 87.568 36.0096 88.4094 36.3895C89.2779 36.7423 90.2007 36.9188 91.1777 36.9188H94.0275C95.0588 36.9188 95.9951 36.7423 96.8365 36.3895C97.705 36.0096 98.4378 35.5075 99.0349 34.8832C99.6591 34.2319 100.134 33.4991 100.46 32.6849C100.813 31.8435 100.989 30.9614 100.989 30.0387V27.5553C100.989 26.7411 100.731 25.9133 100.215 25.072C99.727 24.2035 99.1027 23.3621 98.3428 22.5479C97.61 21.7065 96.8094 20.8923 95.9409 20.1052C95.0724 19.3182 94.2582 18.5854 93.4982 17.9069C92.7654 17.2012 92.1412 16.5634 91.6255 15.9935C91.137 15.4235 90.8927 14.935 90.8927 14.5279V9.72402H93.5796C94.8824 9.72402 95.8866 10.0361 96.5922 10.6604C97.325 11.2575 97.6914 12.0988 97.6914 13.1844H101.03C101.03 12.2617 100.84 11.3932 100.46 10.5789C100.107 9.73759 99.6048 9.01837 98.9535 8.42128C98.3292 7.79705 97.5964 7.30852 96.7551 6.95569C95.9137 6.57572 95.0181 6.38574 94.0682 6.38574H91.1777C90.2007 6.38574 89.2779 6.56215 88.4094 6.91498C87.568 7.26781 86.8217 7.75634 86.1703 8.38057C85.5461 9.0048 85.044 9.73759 84.664 10.5789C84.3112 11.3932 84.1348 12.2888 84.1348 13.2658V15.7085ZM124.726 6.38574H104.37V9.76473H111.169V36.9188H117.927V9.76473H124.726V6.38574ZM135.066 36.9188H141.539C142.462 36.9188 143.33 36.7423 144.145 36.3895C144.986 36.0096 145.719 35.5075 146.343 34.8832C146.994 34.2319 147.51 33.4991 147.89 32.6849C148.268 31.8539 148.462 30.9514 148.46 30.0387V13.2658C148.46 12.3974 148.27 11.556 147.89 10.7418C147.537 9.90043 147.049 9.16764 146.424 8.54341C145.8 7.89204 145.067 7.37637 144.226 6.9964C143.385 6.5893 142.489 6.38574 141.539 6.38574H135.066C134.116 6.38574 133.22 6.5893 132.379 6.9964C131.538 7.37637 130.805 7.89204 130.181 8.54341C129.557 9.16764 129.054 9.90043 128.674 10.7418C128.322 11.556 128.145 12.3974 128.145 13.2658V30.0387C128.145 30.9614 128.335 31.8435 128.715 32.6849C129.095 33.4991 129.597 34.2319 130.221 34.8832C130.873 35.5075 131.606 36.0096 132.42 36.3895C133.261 36.7423 134.143 36.9188 135.066 36.9188ZM141.702 33.4991H134.903V9.76473H141.702V33.4991ZM162.057 19.9017V9.72402H168.856V19.9017H162.057ZM155.299 36.9188H162.057V23.3621H168.856V36.9188H175.614V27.4739C175.614 26.3068 175.424 25.3569 175.044 24.6241C174.664 23.8642 174.243 23.2671 173.782 22.8329C173.347 22.3715 172.94 22.0594 172.56 21.8965L171.99 21.6115L172.56 21.408C172.94 21.2723 173.347 21.0145 173.782 20.6345C174.243 20.2274 174.664 19.671 175.044 18.9653C175.424 18.2326 175.614 17.2826 175.614 16.1156V13.1844C175.614 12.1802 175.451 11.2575 175.125 10.4161C174.826 9.57475 174.379 8.85553 173.782 8.25844C173.184 7.66135 172.465 7.19996 171.624 6.87427C170.81 6.54859 169.887 6.38574 168.856 6.38574H155.299V36.9188ZM189.496 6.38574C188.708 6.38574 187.894 6.57572 187.053 6.95569C186.239 7.33566 185.492 7.83776 184.814 8.46199C184.162 9.08622 183.62 9.81901 183.185 10.6604C182.778 11.5017 182.575 12.3702 182.575 13.2658V36.9188H189.333V23.3621H196.009V36.9188C196.226 36.9459 196.647 36.9595 197.271 36.9595H199.266C199.999 36.9595 200.691 36.9459 201.342 36.9188H202.808V13.2658C202.808 12.3702 202.591 11.5153 202.157 10.7011C201.722 9.85972 201.166 9.12693 200.487 8.5027C199.836 7.85133 199.09 7.33566 198.248 6.95569C197.407 6.57572 196.579 6.38574 195.765 6.38574H189.496ZM189.333 19.9017V9.72402H196.009V19.9017H189.333ZM219.743 23.3214H223.163V33.4991H216.364V9.76473H223.855C224.697 9.76473 225.362 10.0768 225.85 10.7011C226.339 11.2982 226.583 12.1531 226.583 13.2658H229.921C229.921 12.3974 229.731 11.556 229.351 10.7418C228.971 9.90043 228.456 9.16764 227.804 8.54341C227.158 7.89576 226.399 7.37149 225.565 6.9964C224.724 6.5893 223.855 6.38574 222.96 6.38574H216.487C215.537 6.38574 214.641 6.5893 213.8 6.9964C212.958 7.37637 212.226 7.89204 211.601 8.54341C210.977 9.19478 210.489 9.94114 210.136 10.7825C209.783 11.5967 209.606 12.4381 209.606 13.3066V29.9979C209.606 30.9479 209.783 31.8435 210.136 32.6849C210.489 33.5262 210.977 34.259 211.601 34.8832C212.226 35.5075 212.945 36.0096 213.759 36.3895C214.6 36.7423 215.51 36.9188 216.487 36.9188H223C224.032 36.9188 224.968 36.7288 225.809 36.3488C226.651 35.9688 227.37 35.4667 227.967 34.8425C228.591 34.2183 229.066 33.4855 229.392 32.6441C229.745 31.8028 229.921 30.9207 229.921 29.9979V19.861H219.743V23.3214ZM250.317 23.3621V19.9017H243.518V9.76473H253.697V6.38574H236.76V36.9188H253.697V33.4991H243.518V23.3621H250.317Z" fill="#F5C32C"/>
<mask id="mask1_412_566" style="mask-type:luminance" maskUnits="userSpaceOnUse" x="83" y="5" width="172" height="34">
<path d="M83.9651 6.21606H253.932V37.258H83.9651V6.21606Z" fill="white" stroke="black" stroke-width="1.85316"/>
<path d="M84.1348 15.7082C84.1348 16.441 84.379 17.201 84.8676 17.988C85.3832 18.748 86.0075 19.5215 86.7403 20.3086C87.5002 21.0956 88.3144 21.8827 89.1829 22.6698C90.0785 23.4297 90.8927 24.1625 91.6255 24.8682C92.3855 25.5738 93.0097 26.2523 93.4982 26.9037C94.0139 27.5279 94.2717 28.0843 94.2717 28.5728V33.5395H91.1777C90.0921 33.5395 89.21 33.2138 88.5315 32.5625C87.8801 31.9111 87.5545 31.0697 87.5545 30.0384H84.1348C84.1348 30.9883 84.3112 31.884 84.664 32.7253C85.044 33.5395 85.5461 34.2588 86.1703 34.883C86.8217 35.5072 87.568 36.0093 88.4094 36.3893C89.2779 36.7421 90.2007 36.9185 91.1777 36.9185H94.0275C95.0588 36.9185 95.9951 36.7421 96.8365 36.3893C97.705 36.0093 98.4378 35.5072 99.0349 34.883C99.6591 34.2316 100.134 33.4988 100.46 32.6846C100.813 31.8433 100.989 30.9612 100.989 30.0384V27.5551C100.989 26.7408 100.731 25.9131 100.215 25.0717C99.727 24.2032 99.1027 23.3619 98.3428 22.5476C97.61 21.7063 96.8094 20.8921 95.9409 20.105C95.0724 19.3179 94.2582 18.5851 93.4982 17.9066C92.7654 17.201 92.1412 16.5632 91.6255 15.9932C91.137 15.4233 90.8927 14.9347 90.8927 14.5276V9.72377H93.5796C94.8824 9.72377 95.8866 10.0359 96.5922 10.6601C97.325 11.2572 97.6914 12.0986 97.6914 13.1842H101.03C101.03 12.2614 100.84 11.3929 100.46 10.5787C100.107 9.73735 99.6048 9.01812 98.9535 8.42103C98.3292 7.7968 97.5964 7.30827 96.7551 6.95545C95.9137 6.57548 95.0181 6.3855 94.0682 6.3855H91.1777C90.2007 6.3855 89.2779 6.56191 88.4094 6.91474C87.568 7.26756 86.8217 7.75609 86.1703 8.38032C85.5461 9.00455 85.044 9.73735 84.664 10.5787C84.3112 11.3929 84.1348 12.2885 84.1348 13.2656V15.7082ZM124.726 6.3855H104.37V9.76449H111.169V36.9185H117.927V9.76449H124.726V6.3855ZM135.066 36.9185H141.539C142.462 36.9185 143.33 36.7421 144.145 36.3893C144.986 36.0093 145.719 35.5072 146.343 34.883C146.994 34.2316 147.51 33.4988 147.89 32.6846C148.268 31.8537 148.462 30.9512 148.46 30.0384V13.2656C148.46 12.3971 148.27 11.5558 147.89 10.7415C147.537 9.90019 147.049 9.1674 146.424 8.54317C145.8 7.89179 145.067 7.37613 144.226 6.99616C143.385 6.58905 142.489 6.3855 141.539 6.3855H135.066C134.116 6.3855 133.22 6.58905 132.379 6.99616C131.538 7.37613 130.805 7.89179 130.181 8.54317C129.557 9.1674 129.054 9.90019 128.674 10.7415C128.322 11.5558 128.145 12.3971 128.145 13.2656V30.0384C128.145 30.9612 128.335 31.8433 128.715 32.6846C129.095 33.4988 129.597 34.2316 130.221 34.883C130.873 35.5072 131.606 36.0093 132.42 36.3893C133.261 36.7421 134.143 36.9185 135.066 36.9185ZM141.702 33.4988H134.903V9.76449H141.702V33.4988ZM162.057 19.9014V9.72377H168.856V19.9014H162.057ZM155.299 36.9185H162.057V23.3619H168.856V36.9185H175.614V27.4736C175.614 26.3066 175.424 25.3567 175.044 24.6239C174.664 23.864 174.243 23.2669 173.782 22.8326C173.347 22.3712 172.94 22.0591 172.56 21.8963L171.99 21.6113L172.56 21.4077C172.94 21.272 173.347 21.0142 173.782 20.6342C174.243 20.2271 174.664 19.6708 175.044 18.9651C175.424 18.2323 175.614 17.2824 175.614 16.1154V13.1842C175.614 12.18 175.451 11.2572 175.125 10.4159C174.826 9.5745 174.379 8.85528 173.782 8.25819C173.184 7.6611 172.465 7.19971 171.624 6.87403C170.81 6.54834 169.887 6.3855 168.856 6.3855H155.299V36.9185ZM189.496 6.3855C188.708 6.3855 187.894 6.57548 187.053 6.95545C186.239 7.33541 185.492 7.83751 184.814 8.46174C184.162 9.08597 183.62 9.81877 183.185 10.6601C182.778 11.5015 182.575 12.37 182.575 13.2656V36.9185H189.333V23.3619H196.009V36.9185C196.226 36.9457 196.647 36.9592 197.271 36.9592H199.266C199.999 36.9592 200.691 36.9457 201.342 36.9185H202.808V13.2656C202.808 12.37 202.591 11.515 202.157 10.7008C201.722 9.85948 201.166 9.12669 200.487 8.50246C199.836 7.85108 199.09 7.33541 198.248 6.95545C197.407 6.57548 196.579 6.3855 195.765 6.3855H189.496ZM189.333 19.9014V9.72377H196.009V19.9014H189.333ZM219.743 23.3211H223.163V33.4988H216.364V9.76449H223.855C224.697 9.76449 225.362 10.0766 225.85 10.7008C226.339 11.2979 226.583 12.1528 226.583 13.2656H229.921C229.921 12.3971 229.731 11.5558 229.351 10.7415C228.971 9.90019 228.456 9.1674 227.804 8.54317C227.158 7.89551 226.399 7.37125 225.565 6.99616C224.724 6.58905 223.855 6.3855 222.96 6.3855H216.487C215.537 6.3855 214.641 6.58905 213.8 6.99616C212.958 7.37613 212.226 7.89179 211.601 8.54317C210.977 9.19454 210.489 9.9409 210.136 10.7823C209.783 11.5965 209.606 12.4378 209.606 13.3063V29.9977C209.606 30.9476 209.783 31.8433 210.136 32.6846C210.489 33.526 210.977 34.2588 211.601 34.883C212.226 35.5072 212.945 36.0093 213.759 36.3893C214.6 36.7421 215.51 36.9185 216.487 36.9185H223C224.032 36.9185 224.968 36.7285 225.809 36.3486C226.651 35.9686 227.37 35.4665 227.967 34.8423C228.591 34.218 229.066 33.4852 229.392 32.6439C229.745 31.8025 229.921 30.9205 229.921 29.9977V19.8607H219.743V23.3211ZM250.317 23.3619V19.9014H243.518V9.76449H253.696V6.3855H236.76V36.9185H253.696V33.4988H243.518V23.3619H250.317Z" stroke="black" stroke-width="1.85316"/>
</mask>
<g mask="url(#mask1_412_566)">
<path d="M84.1348 15.7082C84.1348 16.441 84.379 17.201 84.8676 17.988C85.3832 18.748 86.0075 19.5215 86.7403 20.3086C87.5002 21.0956 88.3144 21.8827 89.1829 22.6698C90.0785 23.4297 90.8927 24.1625 91.6255 24.8682C92.3855 25.5738 93.0097 26.2523 93.4982 26.9037C94.0139 27.5279 94.2717 28.0843 94.2717 28.5728V33.5395H91.1777C90.0921 33.5395 89.21 33.2138 88.5315 32.5625C87.8801 31.9111 87.5545 31.0697 87.5545 30.0384H84.1348C84.1348 30.9883 84.3112 31.884 84.664 32.7253C85.044 33.5395 85.5461 34.2588 86.1703 34.883C86.8217 35.5072 87.568 36.0093 88.4094 36.3893C89.2779 36.7421 90.2007 36.9185 91.1777 36.9185H94.0275C95.0588 36.9185 95.9951 36.7421 96.8365 36.3893C97.705 36.0093 98.4378 35.5072 99.0349 34.883C99.6591 34.2316 100.134 33.4988 100.46 32.6846C100.813 31.8433 100.989 30.9612 100.989 30.0384V27.5551C100.989 26.7408 100.731 25.9131 100.215 25.0717C99.727 24.2032 99.1027 23.3619 98.3428 22.5476C97.61 21.7063 96.8094 20.8921 95.9409 20.105C95.0724 19.3179 94.2582 18.5851 93.4982 17.9066C92.7654 17.201 92.1412 16.5632 91.6255 15.9932C91.137 15.4233 90.8927 14.9347 90.8927 14.5276V9.72377H93.5796C94.8824 9.72377 95.8866 10.0359 96.5922 10.6601C97.325 11.2572 97.6914 12.0986 97.6914 13.1842H101.03C101.03 12.2614 100.84 11.3929 100.46 10.5787C100.107 9.73735 99.6048 9.01812 98.9535 8.42103C98.3292 7.7968 97.5964 7.30827 96.7551 6.95545C95.9137 6.57548 95.0181 6.3855 94.0682 6.3855H91.1777C90.2007 6.3855 89.2779 6.56191 88.4094 6.91474C87.568 7.26756 86.8217 7.75609 86.1703 8.38032C85.5461 9.00455 85.044 9.73735 84.664 10.5787C84.3112 11.3929 84.1348 12.2885 84.1348 13.2656V15.7082ZM124.726 6.3855H104.37V9.76449H111.169V36.9185H117.927V9.76449H124.726V6.3855ZM135.066 36.9185H141.539C142.462 36.9185 143.33 36.7421 144.145 36.3893C144.986 36.0093 145.719 35.5072 146.343 34.883C146.994 34.2316 147.51 33.4988 147.89 32.6846C148.268 31.8537 148.462 30.9512 148.46 30.0384V13.2656C148.46 12.3971 148.27 11.5558 147.89 10.7415C147.537 9.90019 147.049 9.1674 146.424 8.54317C145.8 7.89179 145.067 7.37613 144.226 6.99616C143.385 6.58905 142.489 6.3855 141.539 6.3855H135.066C134.116 6.3855 133.22 6.58905 132.379 6.99616C131.538 7.37613 130.805 7.89179 130.181 8.54317C129.557 9.1674 129.054 9.90019 128.674 10.7415C128.322 11.5558 128.145 12.3971 128.145 13.2656V30.0384C128.145 30.9612 128.335 31.8433 128.715 32.6846C129.095 33.4988 129.597 34.2316 130.221 34.883C130.873 35.5072 131.606 36.0093 132.42 36.3893C133.261 36.7421 134.143 36.9185 135.066 36.9185ZM141.702 33.4988H134.903V9.76449H141.702V33.4988ZM162.057 19.9014V9.72377H168.856V19.9014H162.057ZM155.299 36.9185H162.057V23.3619H168.856V36.9185H175.614V27.4736C175.614 26.3066 175.424 25.3567 175.044 24.6239C174.664 23.864 174.243 23.2669 173.782 22.8326C173.347 22.3712 172.94 22.0591 172.56 21.8963L171.99 21.6113L172.56 21.4077C172.94 21.272 173.347 21.0142 173.782 20.6342C174.243 20.2271 174.664 19.6708 175.044 18.9651C175.424 18.2323 175.614 17.2824 175.614 16.1154V13.1842C175.614 12.18 175.451 11.2572 175.125 10.4159C174.826 9.5745 174.379 8.85528 173.782 8.25819C173.184 7.6611 172.465 7.19971 171.624 6.87403C170.81 6.54834 169.887 6.3855 168.856 6.3855H155.299V36.9185ZM189.496 6.3855C188.708 6.3855 187.894 6.57548 187.053 6.95545C186.239 7.33541 185.492 7.83751 184.814 8.46174C184.162 9.08597 183.62 9.81877 183.185 10.6601C182.778 11.5015 182.575 12.37 182.575 13.2656V36.9185H189.333V23.3619H196.009V36.9185C196.226 36.9457 196.647 36.9592 197.271 36.9592H199.266C199.999 36.9592 200.691 36.9457 201.342 36.9185H202.808V13.2656C202.808 12.37 202.591 11.515 202.157 10.7008C201.722 9.85948 201.166 9.12669 200.487 8.50246C199.836 7.85108 199.09 7.33541 198.248 6.95545C197.407 6.57548 196.579 6.3855 195.765 6.3855H189.496ZM189.333 19.9014V9.72377H196.009V19.9014H189.333ZM219.743 23.3211H223.163V33.4988H216.364V9.76449H223.855C224.697 9.76449 225.362 10.0766 225.85 10.7008C226.339 11.2979 226.583 12.1528 226.583 13.2656H229.921C229.921 12.3971 229.731 11.5558 229.351 10.7415C228.971 9.90019 228.456 9.1674 227.804 8.54317C227.158 7.89551 226.399 7.37125 225.565 6.99616C224.724 6.58905 223.855 6.3855 222.96 6.3855H216.487C215.537 6.3855 214.641 6.58905 213.8 6.99616C212.958 7.37613 212.226 7.89179 211.601 8.54317C210.977 9.19454 210.489 9.9409 210.136 10.7823C209.783 11.5965 209.606 12.4378 209.606 13.3063V29.9977C209.606 30.9476 209.783 31.8433 210.136 32.6846C210.489 33.526 210.977 34.2588 211.601 34.883C212.226 35.5072 212.945 36.0093 213.759 36.3893C214.6 36.7421 215.51 36.9185 216.487 36.9185H223C224.032 36.9185 224.968 36.7285 225.809 36.3486C226.651 35.9686 227.37 35.4665 227.967 34.8423C228.591 34.218 229.066 33.4852 229.392 32.6439C229.745 31.8025 229.921 30.9205 229.921 29.9977V19.8607H219.743V23.3211ZM250.317 23.3619V19.9014H243.518V9.76449H253.696V6.3855H236.76V36.9185H253.696V33.4988H243.518V23.3619H250.317Z" stroke="black" stroke-width="1.85316"/>
</g>
<path d="M84.1348 13.9714C84.1348 14.7042 84.379 15.4642 84.8676 16.2512C85.3832 17.0112 86.0075 17.7847 86.7403 18.5717C87.5002 19.3588 88.3144 20.1459 89.1829 20.933C90.0785 21.6929 90.8927 22.4257 91.6255 23.1313C92.3855 23.837 93.0097 24.5155 93.4982 25.1669C94.0139 25.7911 94.2717 26.3475 94.2717 26.836V31.8027H91.1777C90.0921 31.8027 89.21 31.477 88.5315 30.8257C87.8801 30.1743 87.5545 29.3329 87.5545 28.3016H84.1348C84.1348 29.2515 84.3112 30.1471 84.664 30.9885C85.044 31.8027 85.5461 32.5219 86.1703 33.1462C86.8217 33.7704 87.568 34.2725 88.4094 34.6525C89.2779 35.0053 90.2007 35.1817 91.1777 35.1817H94.0275C95.0588 35.1817 95.9951 35.0053 96.8365 34.6525C97.705 34.2725 98.4378 33.7704 99.0349 33.1462C99.6591 32.4948 100.134 31.762 100.46 30.9478C100.813 30.1064 100.989 29.2244 100.989 28.3016V25.8182C100.989 25.004 100.731 24.1762 100.215 23.3349C99.727 22.4664 99.1027 21.625 98.3428 20.8108C97.61 19.9695 96.8094 19.1553 95.9409 18.3682C95.0724 17.5811 94.2582 16.8483 93.4982 16.1698C92.7654 15.4642 92.1412 14.8264 91.6255 14.2564C91.137 13.6865 90.8927 13.1979 90.8927 12.7908V7.98696H93.5796C94.8824 7.98696 95.8866 8.29907 96.5922 8.9233C97.325 9.52039 97.6914 10.3617 97.6914 11.4474H101.03C101.03 10.5246 100.84 9.6561 100.46 8.84188C100.107 8.00053 99.6048 7.28131 98.9535 6.68422C98.3292 6.05999 97.5964 5.57145 96.7551 5.21863C95.9137 4.83866 95.0181 4.64868 94.0682 4.64868H91.1777C90.2007 4.64868 89.2779 4.82509 88.4094 5.17792C87.568 5.53075 86.8217 6.01927 86.1703 6.6435C85.5461 7.26773 85.044 8.00053 84.664 8.84188C84.3112 9.6561 84.1348 10.5517 84.1348 11.5288V13.9714ZM124.726 4.64868H104.37V8.02767H111.169V35.1817H117.927V8.02767H124.726V4.64868ZM135.066 35.1817H141.539C142.462 35.1817 143.33 35.0053 144.145 34.6525C144.986 34.2725 145.719 33.7704 146.343 33.1462C146.994 32.4948 147.51 31.762 147.89 30.9478C148.268 30.1169 148.462 29.2143 148.46 28.3016V11.5288C148.46 10.6603 148.27 9.81894 147.89 9.00472C147.537 8.16337 147.049 7.43058 146.424 6.80635C145.8 6.15498 145.067 5.6393 144.226 5.25934C143.385 4.85223 142.489 4.64868 141.539 4.64868H135.066C134.116 4.64868 133.22 4.85223 132.379 5.25934C131.538 5.6393 130.805 6.15498 130.181 6.80635C129.557 7.43058 129.054 8.16337 128.674 9.00472C128.322 9.81894 128.145 10.6603 128.145 11.5288V28.3016C128.145 29.2244 128.335 30.1064 128.715 30.9478C129.095 31.762 129.597 32.4948 130.221 33.1462C130.873 33.7704 131.606 34.2725 132.42 34.6525C133.261 35.0053 134.143 35.1817 135.066 35.1817ZM141.702 31.762H134.903V8.02767H141.702V31.762ZM162.057 18.1646V7.98696H168.856V18.1646H162.057ZM155.299 35.1817H162.057V21.625H168.856V35.1817H175.614V25.7368C175.614 24.5698 175.424 23.6199 175.044 22.8871C174.664 22.1271 174.243 21.53 173.782 21.0958C173.347 20.6344 172.94 20.3223 172.56 20.1595L171.99 19.8745L172.56 19.6709C172.94 19.5352 173.347 19.2774 173.782 18.8974C174.243 18.4903 174.664 17.9339 175.044 17.2283C175.424 16.4955 175.614 15.5456 175.614 14.3785V11.4474C175.614 10.4432 175.451 9.52039 175.125 8.67904C174.826 7.83768 174.379 7.11846 173.782 6.52137C173.184 5.92428 172.465 5.46289 171.624 5.13721C170.81 4.81152 169.887 4.64868 168.856 4.64868H155.299V35.1817ZM189.496 4.64868C188.708 4.64868 187.894 4.83866 187.053 5.21863C186.239 5.5986 185.492 6.10069 184.814 6.72493C184.162 7.34916 183.62 8.08195 183.185 8.9233C182.778 9.76466 182.575 10.6332 182.575 11.5288V35.1817H189.333V21.625H196.009V35.1817C196.226 35.2088 196.647 35.2224 197.271 35.2224H199.266C199.999 35.2224 200.691 35.2088 201.342 35.1817H202.808V11.5288C202.808 10.6332 202.591 9.77823 202.157 8.96402C201.722 8.12266 201.166 7.38987 200.487 6.76563C199.836 6.11426 199.09 5.5986 198.248 5.21863C197.407 4.83866 196.579 4.64868 195.765 4.64868H189.496ZM189.333 18.1646V7.98696H196.009V18.1646H189.333ZM219.743 21.5843H223.163V31.762H216.364V8.02767H223.855C224.697 8.02767 225.362 8.33978 225.85 8.96402C226.339 9.56111 226.583 10.416 226.583 11.5288H229.921C229.921 10.6603 229.731 9.81894 229.351 9.00472C228.971 8.16337 228.456 7.43058 227.804 6.80635C227.158 6.1587 226.399 5.63443 225.565 5.25934C224.724 4.85223 223.855 4.64868 222.96 4.64868H216.487C215.537 4.64868 214.641 4.85223 213.8 5.25934C212.958 5.6393 212.226 6.15498 211.601 6.80635C210.977 7.45772 210.489 8.20408 210.136 9.04543C209.783 9.85965 209.606 10.701 209.606 11.5695V28.2609C209.606 29.2108 209.783 30.1064 210.136 30.9478C210.489 31.7891 210.977 32.5219 211.601 33.1462C212.226 33.7704 212.945 34.2725 213.759 34.6525C214.6 35.0053 215.51 35.1817 216.487 35.1817H223C224.032 35.1817 224.968 34.9917 225.809 34.6117C226.651 34.2318 227.37 33.7297 227.967 33.1055C228.591 32.4812 229.066 31.7484 229.392 30.9071C229.745 30.0657 229.921 29.1837 229.921 28.2609V18.1239H219.743V21.5843ZM250.317 21.625V18.1646H243.518V8.02767H253.697V4.64868H236.76V35.1817H253.697V31.762H243.518V21.625H250.317Z" fill="#F5C32C"/>
<mask id="mask2_412_566" style="mask-type:luminance" maskUnits="userSpaceOnUse" x="83" y="3" width="172" height="34">
<path d="M83.9651 4.47925H253.932V35.5212H83.9651V4.47925Z" fill="white" stroke="black" stroke-width="1.85316"/>
<path d="M84.1348 13.9717C84.1348 14.7045 84.379 15.4644 84.8676 16.2515C85.3832 17.0114 86.0075 17.7849 86.7403 18.572C87.5002 19.3591 88.3144 20.1461 89.1829 20.9332C90.0785 21.6931 90.8927 22.4259 91.6255 23.1316C92.3855 23.8372 93.0097 24.5157 93.4982 25.1671C94.0139 25.7913 94.2717 26.3477 94.2717 26.8363V31.803H91.1777C90.0921 31.803 89.21 31.4773 88.5315 30.8259C87.8801 30.1745 87.5545 29.3332 87.5545 28.3018H84.1348C84.1348 29.2518 84.3112 30.1474 84.664 30.9887C85.044 31.803 85.5461 32.5222 86.1703 33.1464C86.8217 33.7706 87.568 34.2727 88.4094 34.6527C89.2779 35.0055 90.2007 35.1819 91.1777 35.1819H94.0275C95.0588 35.1819 95.9951 35.0055 96.8365 34.6527C97.705 34.2727 98.4378 33.7706 99.0349 33.1464C99.6591 32.495 100.134 31.7622 100.46 30.948C100.813 30.1067 100.989 29.2246 100.989 28.3018V25.8185C100.989 25.0043 100.731 24.1765 100.215 23.3351C99.727 22.4666 99.1027 21.6253 98.3428 20.8111C97.61 19.9697 96.8094 19.1555 95.9409 18.3684C95.0724 17.5814 94.2582 16.8486 93.4982 16.17C92.7654 15.4644 92.1412 14.8266 91.6255 14.2566C91.137 13.6867 90.8927 13.1982 90.8927 12.7911V7.9872H93.5796C94.8824 7.9872 95.8866 8.29931 96.5922 8.92355C97.325 9.52064 97.6914 10.362 97.6914 11.4476H101.03C101.03 10.5248 100.84 9.65634 100.46 8.84213C100.107 8.00077 99.6048 7.28155 98.9535 6.68446C98.3292 6.06023 97.5964 5.5717 96.7551 5.21887C95.9137 4.83891 95.0181 4.64893 94.0682 4.64893H91.1777C90.2007 4.64893 89.2779 4.82534 88.4094 5.17816C87.568 5.53099 86.8217 6.01952 86.1703 6.64375C85.5461 7.26798 85.044 8.00077 84.664 8.84213C84.3112 9.65634 84.1348 10.552 84.1348 11.529V13.9717ZM124.726 4.64893H104.37V8.02791H111.169V35.1819H117.927V8.02791H124.726V4.64893ZM135.066 35.1819H141.539C142.462 35.1819 143.33 35.0055 144.145 34.6527C144.986 34.2727 145.719 33.7706 146.343 33.1464C146.994 32.495 147.51 31.7622 147.89 30.948C148.268 30.1171 148.462 29.2146 148.46 28.3018V11.529C148.46 10.6605 148.27 9.81918 147.89 9.00497C147.537 8.16361 147.049 7.43082 146.424 6.80659C145.8 6.15522 145.067 5.63955 144.226 5.25958C143.385 4.85248 142.489 4.64893 141.539 4.64893H135.066C134.116 4.64893 133.22 4.85248 132.379 5.25958C131.538 5.63955 130.805 6.15522 130.181 6.80659C129.557 7.43082 129.054 8.16361 128.674 9.00497C128.322 9.81918 128.145 10.6605 128.145 11.529V28.3018C128.145 29.2246 128.335 30.1067 128.715 30.948C129.095 31.7622 129.597 32.495 130.221 33.1464C130.873 33.7706 131.606 34.2727 132.42 34.6527C133.261 35.0055 134.143 35.1819 135.066 35.1819ZM141.702 31.7622H134.903V8.02791H141.702V31.7622ZM162.057 18.1649V7.9872H168.856V18.1649H162.057ZM155.299 35.1819H162.057V21.6253H168.856V35.1819H175.614V25.7371C175.614 24.57 175.424 23.6201 175.044 22.8873C174.664 22.1274 174.243 21.5303 173.782 21.096C173.347 20.6347 172.94 20.3225 172.56 20.1597L171.99 19.8747L172.56 19.6712C172.94 19.5355 173.347 19.2776 173.782 18.8977C174.243 18.4906 174.664 17.9342 175.044 17.2285C175.424 16.4957 175.614 15.5458 175.614 14.3788V11.4476C175.614 10.4434 175.451 9.52064 175.125 8.67928C174.826 7.83793 174.379 7.1187 173.782 6.52161C173.184 5.92452 172.465 5.46314 171.624 5.13745C170.81 4.81176 169.887 4.64893 168.856 4.64893H155.299V35.1819ZM189.496 4.64893C188.708 4.64893 187.894 4.83891 187.053 5.21887C186.239 5.59884 185.492 6.10094 184.814 6.72517C184.162 7.3494 183.62 8.08219 183.185 8.92355C182.778 9.7649 182.575 10.6334 182.575 11.529V35.1819H189.333V21.6253H196.009V35.1819C196.226 35.2091 196.647 35.2227 197.271 35.2227H199.266C199.999 35.2227 200.691 35.2091 201.342 35.1819H202.808V11.529C202.808 10.6334 202.591 9.77847 202.157 8.96426C201.722 8.12291 201.166 7.39011 200.487 6.76588C199.836 6.11451 199.09 5.59884 198.248 5.21887C197.407 4.83891 196.579 4.64893 195.765 4.64893H189.496ZM189.333 18.1649V7.9872H196.009V18.1649H189.333ZM219.743 21.5846H223.163V31.7622H216.364V8.02791H223.855C224.697 8.02791 225.362 8.34003 225.85 8.96426C226.339 9.56135 226.583 10.4163 226.583 11.529H229.921C229.921 10.6605 229.731 9.81918 229.351 9.00497C228.971 8.16361 228.456 7.43082 227.804 6.80659C227.158 6.15894 226.399 5.63467 225.565 5.25958C224.724 4.85248 223.855 4.64893 222.96 4.64893H216.487C215.537 4.64893 214.641 4.85248 213.8 5.25958C212.958 5.63955 212.226 6.15522 211.601 6.80659C210.977 7.45796 210.489 8.20432 210.136 9.04568C209.783 9.85989 209.606 10.7012 209.606 11.5697V28.2611C209.606 29.211 209.783 30.1067 210.136 30.948C210.489 31.7894 210.977 32.5222 211.601 33.1464C212.226 33.7706 212.945 34.2727 213.759 34.6527C214.6 35.0055 215.51 35.1819 216.487 35.1819H223C224.032 35.1819 224.968 34.992 225.809 34.612C226.651 34.232 227.37 33.7299 227.967 33.1057C228.591 32.4815 229.066 31.7487 229.392 30.9073C229.745 30.066 229.921 29.1839 229.921 28.2611V18.1242H219.743V21.5846ZM250.317 21.6253V18.1649H243.518V8.02791H253.696V4.64893H236.76V35.1819H253.696V31.7622H243.518V21.6253H250.317Z" stroke="black" stroke-width="1.85316"/>
</mask>
<g mask="url(#mask2_412_566)">
<path d="M84.1348 13.9717C84.1348 14.7045 84.379 15.4644 84.8676 16.2515C85.3832 17.0114 86.0075 17.7849 86.7403 18.572C87.5002 19.3591 88.3144 20.1461 89.1829 20.9332C90.0785 21.6931 90.8927 22.4259 91.6255 23.1316C92.3855 23.8372 93.0097 24.5157 93.4982 25.1671C94.0139 25.7913 94.2717 26.3477 94.2717 26.8363V31.803H91.1777C90.0921 31.803 89.21 31.4773 88.5315 30.8259C87.8801 30.1745 87.5545 29.3332 87.5545 28.3018H84.1348C84.1348 29.2518 84.3112 30.1474 84.664 30.9887C85.044 31.803 85.5461 32.5222 86.1703 33.1464C86.8217 33.7706 87.568 34.2727 88.4094 34.6527C89.2779 35.0055 90.2007 35.1819 91.1777 35.1819H94.0275C95.0588 35.1819 95.9951 35.0055 96.8365 34.6527C97.705 34.2727 98.4378 33.7706 99.0349 33.1464C99.6591 32.495 100.134 31.7622 100.46 30.948C100.813 30.1067 100.989 29.2246 100.989 28.3018V25.8185C100.989 25.0043 100.731 24.1765 100.215 23.3351C99.727 22.4666 99.1027 21.6253 98.3428 20.8111C97.61 19.9697 96.8094 19.1555 95.9409 18.3684C95.0724 17.5814 94.2582 16.8486 93.4982 16.17C92.7654 15.4644 92.1412 14.8266 91.6255 14.2566C91.137 13.6867 90.8927 13.1982 90.8927 12.7911V7.9872H93.5796C94.8824 7.9872 95.8866 8.29931 96.5922 8.92355C97.325 9.52064 97.6914 10.362 97.6914 11.4476H101.03C101.03 10.5248 100.84 9.65634 100.46 8.84213C100.107 8.00077 99.6048 7.28155 98.9535 6.68446C98.3292 6.06023 97.5964 5.5717 96.7551 5.21887C95.9137 4.83891 95.0181 4.64893 94.0682 4.64893H91.1777C90.2007 4.64893 89.2779 4.82534 88.4094 5.17816C87.568 5.53099 86.8217 6.01952 86.1703 6.64375C85.5461 7.26798 85.044 8.00077 84.664 8.84213C84.3112 9.65634 84.1348 10.552 84.1348 11.529V13.9717ZM124.726 4.64893H104.37V8.02791H111.169V35.1819H117.927V8.02791H124.726V4.64893ZM135.066 35.1819H141.539C142.462 35.1819 143.33 35.0055 144.145 34.6527C144.986 34.2727 145.719 33.7706 146.343 33.1464C146.994 32.495 147.51 31.7622 147.89 30.948C148.268 30.1171 148.462 29.2146 148.46 28.3018V11.529C148.46 10.6605 148.27 9.81918 147.89 9.00497C147.537 8.16361 147.049 7.43082 146.424 6.80659C145.8 6.15522 145.067 5.63955 144.226 5.25958C143.385 4.85248 142.489 4.64893 141.539 4.64893H135.066C134.116 4.64893 133.22 4.85248 132.379 5.25958C131.538 5.63955 130.805 6.15522 130.181 6.80659C129.557 7.43082 129.054 8.16361 128.674 9.00497C128.322 9.81918 128.145 10.6605 128.145 11.529V28.3018C128.145 29.2246 128.335 30.1067 128.715 30.948C129.095 31.7622 129.597 32.495 130.221 33.1464C130.873 33.7706 131.606 34.2727 132.42 34.6527C133.261 35.0055 134.143 35.1819 135.066 35.1819ZM141.702 31.7622H134.903V8.02791H141.702V31.7622ZM162.057 18.1649V7.9872H168.856V18.1649H162.057ZM155.299 35.1819H162.057V21.6253H168.856V35.1819H175.614V25.7371C175.614 24.57 175.424 23.6201 175.044 22.8873C174.664 22.1274 174.243 21.5303 173.782 21.096C173.347 20.6347 172.94 20.3225 172.56 20.1597L171.99 19.8747L172.56 19.6712C172.94 19.5355 173.347 19.2776 173.782 18.8977C174.243 18.4906 174.664 17.9342 175.044 17.2285C175.424 16.4957 175.614 15.5458 175.614 14.3788V11.4476C175.614 10.4434 175.451 9.52064 175.125 8.67928C174.826 7.83793 174.379 7.1187 173.782 6.52161C173.184 5.92452 172.465 5.46314 171.624 5.13745C170.81 4.81176 169.887 4.64893 168.856 4.64893H155.299V35.1819ZM189.496 4.64893C188.708 4.64893 187.894 4.83891 187.053 5.21887C186.239 5.59884 185.492 6.10094 184.814 6.72517C184.162 7.3494 183.62 8.08219 183.185 8.92355C182.778 9.7649 182.575 10.6334 182.575 11.529V35.1819H189.333V21.6253H196.009V35.1819C196.226 35.2091 196.647 35.2227 197.271 35.2227H199.266C199.999 35.2227 200.691 35.2091 201.342 35.1819H202.808V11.529C202.808 10.6334 202.591 9.77847 202.157 8.96426C201.722 8.12291 201.166 7.39011 200.487 6.76588C199.836 6.11451 199.09 5.59884 198.248 5.21887C197.407 4.83891 196.579 4.64893 195.765 4.64893H189.496ZM189.333 18.1649V7.9872H196.009V18.1649H189.333ZM219.743 21.5846H223.163V31.7622H216.364V8.02791H223.855C224.697 8.02791 225.362 8.34003 225.85 8.96426C226.339 9.56135 226.583 10.4163 226.583 11.529H229.921C229.921 10.6605 229.731 9.81918 229.351 9.00497C228.971 8.16361 228.456 7.43082 227.804 6.80659C227.158 6.15894 226.399 5.63467 225.565 5.25958C224.724 4.85248 223.855 4.64893 222.96 4.64893H216.487C215.537 4.64893 214.641 4.85248 213.8 5.25958C212.958 5.63955 212.226 6.15522 211.601 6.80659C210.977 7.45796 210.489 8.20432 210.136 9.04568C209.783 9.85989 209.606 10.7012 209.606 11.5697V28.2611C209.606 29.211 209.783 30.1067 210.136 30.948C210.489 31.7894 210.977 32.5222 211.601 33.1464C212.226 33.7706 212.945 34.2727 213.759 34.6527C214.6 35.0055 215.51 35.1819 216.487 35.1819H223C224.032 35.1819 224.968 34.992 225.809 34.612C226.651 34.232 227.37 33.7299 227.967 33.1057C228.591 32.4815 229.066 31.7487 229.392 30.9073C229.745 30.066 229.921 29.1839 229.921 28.2611V18.1242H219.743V21.5846ZM250.317 21.6253V18.1649H243.518V8.02791H253.696V4.64893H236.76V35.1819H253.696V31.7622H243.518V21.6253H250.317Z" stroke="black" stroke-width="1.85316"/>
</g>
<path d="M84.1348 12.2346C84.1348 12.9674 84.379 13.7273 84.8676 14.5144C85.3832 15.2744 86.0075 16.0479 86.7403 16.8349C87.5002 17.622 88.3144 18.4091 89.1829 19.1961C90.0785 19.9561 90.8927 20.6889 91.6255 21.3945C92.3855 22.1002 93.0097 22.7787 93.4982 23.4301C94.0139 24.0543 94.2717 24.6107 94.2717 25.0992V30.0659H91.1777C90.0921 30.0659 89.21 29.7402 88.5315 29.0888C87.8801 28.4375 87.5545 27.5961 87.5545 26.5648H84.1348C84.1348 27.5147 84.3112 28.4103 84.664 29.2517C85.044 30.0659 85.5461 30.7851 86.1703 31.4094C86.8217 32.0336 87.568 32.5357 88.4094 32.9156C89.2779 33.2685 90.2007 33.4449 91.1777 33.4449H94.0275C95.0588 33.4449 95.9951 33.2685 96.8365 32.9156C97.705 32.5357 98.4378 32.0336 99.0349 31.4094C99.6591 30.758 100.134 30.0252 100.46 29.211C100.813 28.3696 100.989 27.4876 100.989 26.5648V24.0814C100.989 23.2672 100.731 22.4394 100.215 21.5981C99.727 20.7296 99.1027 19.8882 98.3428 19.074C97.61 18.2327 96.8094 17.4184 95.9409 16.6314C95.0724 15.8443 94.2582 15.1115 93.4982 14.433C92.7654 13.7273 92.1412 13.0895 91.6255 12.5196C91.137 11.9496 90.8927 11.4611 90.8927 11.054V6.25015H93.5796C94.8824 6.25015 95.8866 6.56226 96.5922 7.18649C97.325 7.78358 97.6914 8.62494 97.6914 9.71055H101.03C101.03 8.78778 100.84 7.91928 100.46 7.10507C100.107 6.26371 99.6048 5.54449 98.9535 4.9474C98.3292 4.32317 97.5964 3.83464 96.7551 3.48182C95.9137 3.10185 95.0181 2.91187 94.0682 2.91187H91.1777C90.2007 2.91187 89.2779 3.08828 88.4094 3.4411C87.568 3.79393 86.8217 4.28246 86.1703 4.90669C85.5461 5.53092 85.044 6.26371 84.664 7.10507C84.3112 7.91928 84.1348 8.81492 84.1348 9.79197V12.2346ZM124.726 2.91187H104.37V6.29086H111.169V33.4449H117.927V6.29086H124.726V2.91187ZM135.066 33.4449H141.539C142.462 33.4449 143.33 33.2685 144.145 32.9156C144.986 32.5357 145.719 32.0336 146.343 31.4094C146.994 30.758 147.51 30.0252 147.89 29.211C148.268 28.38 148.462 27.4775 148.46 26.5648V9.79197C148.46 8.92348 148.27 8.08213 147.89 7.26791C147.537 6.42656 147.049 5.69376 146.424 5.06953C145.8 4.41816 145.067 3.90249 144.226 3.52253C143.385 3.11542 142.489 2.91187 141.539 2.91187H135.066C134.116 2.91187 133.22 3.11542 132.379 3.52253C131.538 3.90249 130.805 4.41816 130.181 5.06953C129.557 5.69376 129.054 6.42656 128.674 7.26791C128.322 8.08213 128.145 8.92348 128.145 9.79197V26.5648C128.145 27.4876 128.335 28.3696 128.715 29.211C129.095 30.0252 129.597 30.758 130.221 31.4094C130.873 32.0336 131.606 32.5357 132.42 32.9156C133.261 33.2685 134.143 33.4449 135.066 33.4449ZM141.702 30.0252H134.903V6.29086H141.702V30.0252ZM162.057 16.4278V6.25015H168.856V16.4278H162.057ZM155.299 33.4449H162.057V19.8882H168.856V33.4449H175.614V24C175.614 22.833 175.424 21.8831 175.044 21.1503C174.664 20.3903 174.243 19.7932 173.782 19.359C173.347 18.8976 172.94 18.5855 172.56 18.4226L171.99 18.1377L172.56 17.9341C172.94 17.7984 173.347 17.5406 173.782 17.1606C174.243 16.7535 174.664 16.1971 175.044 15.4915C175.424 14.7587 175.614 13.8088 175.614 12.6417V9.71055C175.614 8.70636 175.451 7.78358 175.125 6.94223C174.826 6.10087 174.379 5.38165 173.782 4.78456C173.184 4.18747 172.465 3.72608 171.624 3.40039C170.81 3.07471 169.887 2.91187 168.856 2.91187H155.299V33.4449ZM189.496 2.91187C188.708 2.91187 187.894 3.10185 187.053 3.48182C186.239 3.86178 185.492 4.36388 184.814 4.98811C184.162 5.61234 183.62 6.34514 183.185 7.18649C182.778 8.02784 182.575 8.89634 182.575 9.79197V33.4449H189.333V19.8882H196.009V33.4449C196.226 33.472 196.647 33.4856 197.271 33.4856H199.266C199.999 33.4856 200.691 33.472 201.342 33.4449H202.808V9.79197C202.808 8.89634 202.591 8.04141 202.157 7.2272C201.722 6.38584 201.166 5.65305 200.487 5.02882C199.836 4.37745 199.09 3.86178 198.248 3.48182C197.407 3.10185 196.579 2.91187 195.765 2.91187H189.496ZM189.333 16.4278V6.25015H196.009V16.4278H189.333ZM219.743 19.8475H223.163V30.0252H216.364V6.29086H223.855C224.697 6.29086 225.362 6.60297 225.85 7.2272C226.339 7.82429 226.583 8.67921 226.583 9.79197H229.921C229.921 8.92348 229.731 8.08213 229.351 7.26791C228.971 6.42656 228.456 5.69376 227.804 5.06953C227.158 4.42188 226.399 3.89762 225.565 3.52253C224.724 3.11542 223.855 2.91187 222.96 2.91187H216.487C215.537 2.91187 214.641 3.11542 213.8 3.52253C212.958 3.90249 212.226 4.41816 211.601 5.06953C210.977 5.7209 210.489 6.46727 210.136 7.30862C209.783 8.12284 209.606 8.96419 209.606 9.83269V26.5241C209.606 27.474 209.783 28.3696 210.136 29.211C210.489 30.0523 210.977 30.7851 211.601 31.4094C212.226 32.0336 212.945 32.5357 213.759 32.9156C214.6 33.2685 215.51 33.4449 216.487 33.4449H223C224.032 33.4449 224.968 33.2549 225.809 32.8749C226.651 32.495 227.37 31.9929 227.967 31.3686C228.591 30.7444 229.066 30.0116 229.392 29.1703C229.745 28.3289 229.921 27.4468 229.921 26.5241V16.3871H219.743V19.8475ZM250.317 19.8882V16.4278H243.518V6.29086H253.697V2.91187H236.76V33.4449H253.697V30.0252H243.518V19.8882H250.317Z" fill="#F5C32C"/>
<mask id="mask3_412_566" style="mask-type:luminance" maskUnits="userSpaceOnUse" x="83" y="1" width="172" height="34">
<path d="M83.9651 2.74219H253.932V33.7841H83.9651V2.74219Z" fill="white" stroke="black" stroke-width="1.85316"/>
<path d="M84.1348 12.2346C84.1348 12.9674 84.379 13.7273 84.8676 14.5144C85.3832 15.2744 86.0075 16.0479 86.7403 16.8349C87.5002 17.622 88.3144 18.4091 89.1829 19.1961C90.0785 19.9561 90.8927 20.6889 91.6255 21.3945C92.3855 22.1002 93.0097 22.7787 93.4982 23.4301C94.0139 24.0543 94.2717 24.6107 94.2717 25.0992V30.0659H91.1777C90.0921 30.0659 89.21 29.7402 88.5315 29.0888C87.8801 28.4375 87.5545 27.5961 87.5545 26.5648H84.1348C84.1348 27.5147 84.3112 28.4103 84.664 29.2517C85.044 30.0659 85.5461 30.7851 86.1703 31.4094C86.8217 32.0336 87.568 32.5357 88.4094 32.9156C89.2779 33.2685 90.2007 33.4449 91.1777 33.4449H94.0275C95.0588 33.4449 95.9951 33.2685 96.8365 32.9156C97.705 32.5357 98.4378 32.0336 99.0349 31.4094C99.6591 30.758 100.134 30.0252 100.46 29.211C100.813 28.3696 100.989 27.4876 100.989 26.5648V24.0814C100.989 23.2672 100.731 22.4394 100.215 21.5981C99.727 20.7296 99.1027 19.8882 98.3428 19.074C97.61 18.2327 96.8094 17.4184 95.9409 16.6314C95.0724 15.8443 94.2582 15.1115 93.4982 14.433C92.7654 13.7273 92.1412 13.0895 91.6255 12.5196C91.137 11.9496 90.8927 11.4611 90.8927 11.054V6.25015H93.5796C94.8824 6.25015 95.8866 6.56226 96.5922 7.18649C97.325 7.78358 97.6914 8.62494 97.6914 9.71055H101.03C101.03 8.78778 100.84 7.91928 100.46 7.10507C100.107 6.26371 99.6048 5.54449 98.9535 4.9474C98.3292 4.32317 97.5964 3.83464 96.7551 3.48182C95.9137 3.10185 95.0181 2.91187 94.0682 2.91187H91.1777C90.2007 2.91187 89.2779 3.08828 88.4094 3.4411C87.568 3.79393 86.8217 4.28246 86.1703 4.90669C85.5461 5.53092 85.044 6.26371 84.664 7.10507C84.3112 7.91928 84.1348 8.81492 84.1348 9.79197V12.2346ZM124.726 2.91187H104.37V6.29086H111.169V33.4449H117.927V6.29086H124.726V2.91187ZM135.066 33.4449H141.539C142.462 33.4449 143.33 33.2685 144.145 32.9156C144.986 32.5357 145.719 32.0336 146.343 31.4094C146.994 30.758 147.51 30.0252 147.89 29.211C148.268 28.38 148.462 27.4775 148.46 26.5648V9.79197C148.46 8.92348 148.27 8.08213 147.89 7.26791C147.537 6.42656 147.049 5.69376 146.424 5.06953C145.8 4.41816 145.067 3.90249 144.226 3.52253C143.385 3.11542 142.489 2.91187 141.539 2.91187H135.066C134.116 2.91187 133.22 3.11542 132.379 3.52253C131.538 3.90249 130.805 4.41816 130.181 5.06953C129.557 5.69376 129.054 6.42656 128.674 7.26791C128.322 8.08213 128.145 8.92348 128.145 9.79197V26.5648C128.145 27.4876 128.335 28.3696 128.715 29.211C129.095 30.0252 129.597 30.758 130.221 31.4094C130.873 32.0336 131.606 32.5357 132.42 32.9156C133.261 33.2685 134.143 33.4449 135.066 33.4449ZM141.702 30.0252H134.903V6.29086H141.702V30.0252ZM162.057 16.4278V6.25015H168.856V16.4278H162.057ZM155.299 33.4449H162.057V19.8882H168.856V33.4449H175.614V24C175.614 22.833 175.424 21.8831 175.044 21.1503C174.664 20.3903 174.243 19.7932 173.782 19.359C173.347 18.8976 172.94 18.5855 172.56 18.4226L171.99 18.1377L172.56 17.9341C172.94 17.7984 173.347 17.5406 173.782 17.1606C174.243 16.7535 174.664 16.1971 175.044 15.4915C175.424 14.7587 175.614 13.8088 175.614 12.6417V9.71055C175.614 8.70636 175.451 7.78358 175.125 6.94223C174.826 6.10087 174.379 5.38165 173.782 4.78456C173.184 4.18747 172.465 3.72608 171.624 3.40039C170.81 3.07471 169.887 2.91187 168.856 2.91187H155.299V33.4449ZM189.496 2.91187C188.708 2.91187 187.894 3.10185 187.053 3.48182C186.239 3.86178 185.492 4.36388 184.814 4.98811C184.162 5.61234 183.62 6.34514 183.185 7.18649C182.778 8.02784 182.575 8.89634 182.575 9.79197V33.4449H189.333V19.8882H196.009V33.4449C196.226 33.472 196.647 33.4856 197.271 33.4856H199.266C199.999 33.4856 200.691 33.472 201.342 33.4449H202.808V9.79197C202.808 8.89634 202.591 8.04141 202.157 7.2272C201.722 6.38584 201.166 5.65305 200.487 5.02882C199.836 4.37745 199.09 3.86178 198.248 3.48182C197.407 3.10185 196.579 2.91187 195.765 2.91187H189.496ZM189.333 16.4278V6.25015H196.009V16.4278H189.333ZM219.743 19.8475H223.163V30.0252H216.364V6.29086H223.855C224.697 6.29086 225.362 6.60297 225.85 7.2272C226.339 7.82429 226.583 8.67921 226.583 9.79197H229.921C229.921 8.92348 229.731 8.08213 229.351 7.26791C228.971 6.42656 228.456 5.69376 227.804 5.06953C227.158 4.42188 226.399 3.89762 225.565 3.52253C224.724 3.11542 223.855 2.91187 222.96 2.91187H216.487C215.537 2.91187 214.641 3.11542 213.8 3.52253C212.958 3.90249 212.226 4.41816 211.601 5.06953C210.977 5.7209 210.489 6.46727 210.136 7.30862C209.783 8.12284 209.606 8.96419 209.606 9.83269V26.5241C209.606 27.474 209.783 28.3696 210.136 29.211C210.489 30.0523 210.977 30.7851 211.601 31.4094C212.226 32.0336 212.945 32.5357 213.759 32.9156C214.6 33.2685 215.51 33.4449 216.487 33.4449H223C224.032 33.4449 224.968 33.2549 225.809 32.8749C226.651 32.495 227.37 31.9929 227.967 31.3686C228.591 30.7444 229.066 30.0116 229.392 29.1703C229.745 28.3289 229.921 27.4468 229.921 26.5241V16.3871H219.743V19.8475ZM250.317 19.8882V16.4278H243.518V6.29086H253.696V2.91187H236.76V33.4449H253.696V30.0252H243.518V19.8882H250.317Z" stroke="black" stroke-width="1.85316"/>
</mask>
<g mask="url(#mask3_412_566)">
<path d="M84.1348 12.2346C84.1348 12.9674 84.379 13.7273 84.8676 14.5144C85.3832 15.2744 86.0075 16.0479 86.7403 16.8349C87.5002 17.622 88.3144 18.4091 89.1829 19.1961C90.0785 19.9561 90.8927 20.6889 91.6255 21.3945C92.3855 22.1002 93.0097 22.7787 93.4982 23.4301C94.0139 24.0543 94.2717 24.6107 94.2717 25.0992V30.0659H91.1777C90.0921 30.0659 89.21 29.7402 88.5315 29.0888C87.8801 28.4375 87.5545 27.5961 87.5545 26.5648H84.1348C84.1348 27.5147 84.3112 28.4103 84.664 29.2517C85.044 30.0659 85.5461 30.7851 86.1703 31.4094C86.8217 32.0336 87.568 32.5357 88.4094 32.9156C89.2779 33.2685 90.2007 33.4449 91.1777 33.4449H94.0275C95.0588 33.4449 95.9951 33.2685 96.8365 32.9156C97.705 32.5357 98.4378 32.0336 99.0349 31.4094C99.6591 30.758 100.134 30.0252 100.46 29.211C100.813 28.3696 100.989 27.4876 100.989 26.5648V24.0814C100.989 23.2672 100.731 22.4394 100.215 21.5981C99.727 20.7296 99.1027 19.8882 98.3428 19.074C97.61 18.2327 96.8094 17.4184 95.9409 16.6314C95.0724 15.8443 94.2582 15.1115 93.4982 14.433C92.7654 13.7273 92.1412 13.0895 91.6255 12.5196C91.137 11.9496 90.8927 11.4611 90.8927 11.054V6.25015H93.5796C94.8824 6.25015 95.8866 6.56226 96.5922 7.18649C97.325 7.78358 97.6914 8.62494 97.6914 9.71055H101.03C101.03 8.78778 100.84 7.91928 100.46 7.10507C100.107 6.26371 99.6048 5.54449 98.9535 4.9474C98.3292 4.32317 97.5964 3.83464 96.7551 3.48182C95.9137 3.10185 95.0181 2.91187 94.0682 2.91187H91.1777C90.2007 2.91187 89.2779 3.08828 88.4094 3.4411C87.568 3.79393 86.8217 4.28246 86.1703 4.90669C85.5461 5.53092 85.044 6.26371 84.664 7.10507C84.3112 7.91928 84.1348 8.81492 84.1348 9.79197V12.2346ZM124.726 2.91187H104.37V6.29086H111.169V33.4449H117.927V6.29086H124.726V2.91187ZM135.066 33.4449H141.539C142.462 33.4449 143.33 33.2685 144.145 32.9156C144.986 32.5357 145.719 32.0336 146.343 31.4094C146.994 30.758 147.51 30.0252 147.89 29.211C148.268 28.38 148.462 27.4775 148.46 26.5648V9.79197C148.46 8.92348 148.27 8.08213 147.89 7.26791C147.537 6.42656 147.049 5.69376 146.424 5.06953C145.8 4.41816 145.067 3.90249 144.226 3.52253C143.385 3.11542 142.489 2.91187 141.539 2.91187H135.066C134.116 2.91187 133.22 3.11542 132.379 3.52253C131.538 3.90249 130.805 4.41816 130.181 5.06953C129.557 5.69376 129.054 6.42656 128.674 7.26791C128.322 8.08213 128.145 8.92348 128.145 9.79197V26.5648C128.145 27.4876 128.335 28.3696 128.715 29.211C129.095 30.0252 129.597 30.758 130.221 31.4094C130.873 32.0336 131.606 32.5357 132.42 32.9156C133.261 33.2685 134.143 33.4449 135.066 33.4449ZM141.702 30.0252H134.903V6.29086H141.702V30.0252ZM162.057 16.4278V6.25015H168.856V16.4278H162.057ZM155.299 33.4449H162.057V19.8882H168.856V33.4449H175.614V24C175.614 22.833 175.424 21.8831 175.044 21.1503C174.664 20.3903 174.243 19.7932 173.782 19.359C173.347 18.8976 172.94 18.5855 172.56 18.4226L171.99 18.1377L172.56 17.9341C172.94 17.7984 173.347 17.5406 173.782 17.1606C174.243 16.7535 174.664 16.1971 175.044 15.4915C175.424 14.7587 175.614 13.8088 175.614 12.6417V9.71055C175.614 8.70636 175.451 7.78358 175.125 6.94223C174.826 6.10087 174.379 5.38165 173.782 4.78456C173.184 4.18747 172.465 3.72608 171.624 3.40039C170.81 3.07471 169.887 2.91187 168.856 2.91187H155.299V33.4449ZM189.496 2.91187C188.708 2.91187 187.894 3.10185 187.053 3.48182C186.239 3.86178 185.492 4.36388 184.814 4.98811C184.162 5.61234 183.62 6.34514 183.185 7.18649C182.778 8.02784 182.575 8.89634 182.575 9.79197V33.4449H189.333V19.8882H196.009V33.4449C196.226 33.472 196.647 33.4856 197.271 33.4856H199.266C199.999 33.4856 200.691 33.472 201.342 33.4449H202.808V9.79197C202.808 8.89634 202.591 8.04141 202.157 7.2272C201.722 6.38584 201.166 5.65305 200.487 5.02882C199.836 4.37745 199.09 3.86178 198.248 3.48182C197.407 3.10185 196.579 2.91187 195.765 2.91187H189.496ZM189.333 16.4278V6.25015H196.009V16.4278H189.333ZM219.743 19.8475H223.163V30.0252H216.364V6.29086H223.855C224.697 6.29086 225.362 6.60297 225.85 7.2272C226.339 7.82429 226.583 8.67921 226.583 9.79197H229.921C229.921 8.92348 229.731 8.08213 229.351 7.26791C228.971 6.42656 228.456 5.69376 227.804 5.06953C227.158 4.42188 226.399 3.89762 225.565 3.52253C224.724 3.11542 223.855 2.91187 222.96 2.91187H216.487C215.537 2.91187 214.641 3.11542 213.8 3.52253C212.958 3.90249 212.226 4.41816 211.601 5.06953C210.977 5.7209 210.489 6.46727 210.136 7.30862C209.783 8.12284 209.606 8.96419 209.606 9.83269V26.5241C209.606 27.474 209.783 28.3696 210.136 29.211C210.489 30.0523 210.977 30.7851 211.601 31.4094C212.226 32.0336 212.945 32.5357 213.759 32.9156C214.6 33.2685 215.51 33.4449 216.487 33.4449H223C224.032 33.4449 224.968 33.2549 225.809 32.8749C226.651 32.495 227.37 31.9929 227.967 31.3686C228.591 30.7444 229.066 30.0116 229.392 29.1703C229.745 28.3289 229.921 27.4468 229.921 26.5241V16.3871H219.743V19.8475ZM250.317 19.8882V16.4278H243.518V6.29086H253.696V2.91187H236.76V33.4449H253.696V30.0252H243.518V19.8882H250.317Z" stroke="black" stroke-width="1.85316"/>
</g>
<path d="M84.1348 10.4976C84.1348 11.2303 84.379 11.9903 84.8676 12.7774C85.3832 13.5373 86.0075 14.3108 86.7403 15.0979C87.5002 15.8849 88.3144 16.672 89.1829 17.4591C90.0785 18.219 90.8927 18.9518 91.6255 19.6575C92.3855 20.3631 93.0097 21.0416 93.4982 21.693C94.0139 22.3172 94.2717 22.8736 94.2717 23.3621V28.3288H91.1777C90.0921 28.3288 89.21 28.0032 88.5315 27.3518C87.8801 26.7004 87.5545 25.8591 87.5545 24.8277H84.1348C84.1348 25.7776 84.3112 26.6733 84.664 27.5146C85.044 28.3288 85.5461 29.0481 86.1703 29.6723C86.8217 30.2965 87.568 30.7986 88.4094 31.1786C89.2779 31.5314 90.2007 31.7078 91.1777 31.7078H94.0275C95.0588 31.7078 95.9951 31.5314 96.8365 31.1786C97.705 30.7986 98.4378 30.2965 99.0349 29.6723C99.6591 29.0209 100.134 28.2881 100.46 27.4739C100.813 26.6326 100.989 25.7505 100.989 24.8277V22.3444C100.989 21.5301 100.731 20.7024 100.215 19.861C99.727 18.9925 99.1027 18.1512 98.3428 17.337C97.61 16.4956 96.8094 15.6814 95.9409 14.8943C95.0724 14.1072 94.2582 13.3744 93.4982 12.6959C92.7654 11.9903 92.1412 11.3525 91.6255 10.7825C91.137 10.2126 90.8927 9.72405 90.8927 9.31694V4.51308H93.5796C94.8824 4.51308 95.8866 4.8252 96.5922 5.44943C97.325 6.04652 97.6914 6.88787 97.6914 7.97349H101.03C101.03 7.05071 100.84 6.18222 100.46 5.36801C100.107 4.52665 99.6048 3.80743 98.9535 3.21034C98.3292 2.58611 97.5964 2.09758 96.7551 1.74475C95.9137 1.36479 95.0181 1.1748 94.0682 1.1748H91.1777C90.2007 1.1748 89.2779 1.35122 88.4094 1.70404C87.568 2.05687 86.8217 2.5454 86.1703 3.16963C85.5461 3.79386 85.044 4.52665 84.664 5.36801C84.3112 6.18222 84.1348 7.07785 84.1348 8.05491V10.4976ZM124.726 1.1748H104.37V4.55379H111.169V31.7078H117.927V4.55379H124.726V1.1748ZM135.066 31.7078H141.539C142.462 31.7078 143.33 31.5314 144.145 31.1786C144.986 30.7986 145.719 30.2965 146.343 29.6723C146.994 29.0209 147.51 28.2881 147.89 27.4739C148.268 26.643 148.462 25.7405 148.46 24.8277V8.05491C148.46 7.18642 148.27 6.34506 147.89 5.53085C147.537 4.68949 147.049 3.9567 146.424 3.33247C145.8 2.6811 145.067 2.16543 144.226 1.78547C143.385 1.37836 142.489 1.1748 141.539 1.1748H135.066C134.116 1.1748 133.22 1.37836 132.379 1.78547C131.538 2.16543 130.805 2.6811 130.181 3.33247C129.557 3.9567 129.054 4.68949 128.674 5.53085C128.322 6.34506 128.145 7.18642 128.145 8.05491V24.8277C128.145 25.7505 128.335 26.6326 128.715 27.4739C129.095 28.2881 129.597 29.0209 130.221 29.6723C130.873 30.2965 131.606 30.7986 132.42 31.1786C133.261 31.5314 134.143 31.7078 135.066 31.7078ZM141.702 28.2881H134.903V4.55379H141.702V28.2881ZM162.057 14.6908V4.51308H168.856V14.6908H162.057ZM155.299 31.7078H162.057V18.1512H168.856V31.7078H175.614V22.2629C175.614 21.0959 175.424 20.146 175.044 19.4132C174.664 18.6533 174.243 18.0562 173.782 17.6219C173.347 17.1605 172.94 16.8484 172.56 16.6856L171.99 16.4006L172.56 16.1971C172.94 16.0613 173.347 15.8035 173.782 15.4235C174.243 15.0164 174.664 14.4601 175.044 13.7544C175.424 13.0216 175.614 12.0717 175.614 10.9047V7.97349C175.614 6.96929 175.451 6.04652 175.125 5.20516C174.826 4.36381 174.379 3.64459 173.782 3.0475C173.184 2.45041 172.465 1.98902 171.624 1.66333C170.81 1.33765 169.887 1.1748 168.856 1.1748H155.299V31.7078ZM189.496 1.1748C188.708 1.1748 187.894 1.36479 187.053 1.74475C186.239 2.12472 185.492 2.62682 184.814 3.25105C184.162 3.87528 183.62 4.60808 183.185 5.44943C182.778 6.29078 182.575 7.15928 182.575 8.05491V31.7078H189.333V18.1512H196.009V31.7078C196.226 31.735 196.647 31.7485 197.271 31.7485H199.266C199.999 31.7485 200.691 31.735 201.342 31.7078H202.808V8.05491C202.808 7.15928 202.591 6.30435 202.157 5.49014C201.722 4.64878 201.166 3.91599 200.487 3.29176C199.836 2.64039 199.09 2.12472 198.248 1.74475C197.407 1.36479 196.579 1.1748 195.765 1.1748H189.496ZM189.333 14.6908V4.51308H196.009V14.6908H189.333ZM219.743 18.1105H223.163V28.2881H216.364V4.55379H223.855C224.697 4.55379 225.362 4.86591 225.85 5.49014C226.339 6.08723 226.583 6.94215 226.583 8.05491H229.921C229.921 7.18642 229.731 6.34506 229.351 5.53085C228.971 4.68949 228.456 3.9567 227.804 3.33247C227.158 2.68482 226.399 2.16056 225.565 1.78547C224.724 1.37836 223.855 1.1748 222.96 1.1748H216.487C215.537 1.1748 214.641 1.37836 213.8 1.78547C212.958 2.16543 212.226 2.6811 211.601 3.33247C210.977 3.98384 210.489 4.73021 210.136 5.57156C209.783 6.38578 209.606 7.22713 209.606 8.09562V24.787C209.606 25.7369 209.783 26.6326 210.136 27.4739C210.489 28.3153 210.977 29.0481 211.601 29.6723C212.226 30.2965 212.945 30.7986 213.759 31.1786C214.6 31.5314 215.51 31.7078 216.487 31.7078H223C224.032 31.7078 224.968 31.5178 225.809 31.1379C226.651 30.7579 227.37 30.2558 227.967 29.6316C228.591 29.0074 229.066 28.2746 229.392 27.4332C229.745 26.5918 229.921 25.7098 229.921 24.787V14.65H219.743V18.1105ZM250.317 18.1512V14.6908H243.518V4.55379H253.697V1.1748H236.76V31.7078H253.697V28.2881H243.518V18.1512H250.317Z" fill="white"/>
<mask id="mask4_412_566" style="mask-type:luminance" maskUnits="userSpaceOnUse" x="83" y="0" width="172" height="33">
<path d="M83.9651 1.00513H253.932V32.047H83.9651V1.00513Z" fill="white" stroke="black" stroke-width="1.85316"/>
<path d="M84.1348 10.4976C84.1348 11.2303 84.379 11.9903 84.8676 12.7774C85.3832 13.5373 86.0075 14.3108 86.7403 15.0979C87.5002 15.8849 88.3144 16.672 89.1829 17.4591C90.0785 18.219 90.8927 18.9518 91.6255 19.6575C92.3855 20.3631 93.0097 21.0416 93.4982 21.693C94.0139 22.3172 94.2717 22.8736 94.2717 23.3621V28.3288H91.1777C90.0921 28.3288 89.21 28.0032 88.5315 27.3518C87.8801 26.7004 87.5545 25.8591 87.5545 24.8277H84.1348C84.1348 25.7776 84.3112 26.6733 84.664 27.5146C85.044 28.3288 85.5461 29.0481 86.1703 29.6723C86.8217 30.2965 87.568 30.7986 88.4094 31.1786C89.2779 31.5314 90.2007 31.7078 91.1777 31.7078H94.0275C95.0588 31.7078 95.9951 31.5314 96.8365 31.1786C97.705 30.7986 98.4378 30.2965 99.0349 29.6723C99.6591 29.0209 100.134 28.2881 100.46 27.4739C100.813 26.6326 100.989 25.7505 100.989 24.8277V22.3444C100.989 21.5301 100.731 20.7024 100.215 19.861C99.727 18.9925 99.1027 18.1512 98.3428 17.3369C97.61 16.4956 96.8094 15.6814 95.9409 14.8943C95.0724 14.1072 94.2582 13.3744 93.4982 12.6959C92.7654 11.9903 92.1412 11.3525 91.6255 10.7825C91.137 10.2126 90.8927 9.72405 90.8927 9.31694V4.51308H93.5796C94.8824 4.51308 95.8866 4.8252 96.5922 5.44943C97.325 6.04652 97.6914 6.88787 97.6914 7.97349H101.03C101.03 7.05071 100.84 6.18222 100.46 5.36801C100.107 4.52665 99.6048 3.80743 98.9535 3.21034C98.3292 2.58611 97.5964 2.09758 96.7551 1.74475C95.9137 1.36479 95.0181 1.1748 94.0682 1.1748H91.1777C90.2007 1.1748 89.2779 1.35122 88.4094 1.70404C87.568 2.05687 86.8217 2.5454 86.1703 3.16963C85.5461 3.79386 85.044 4.52665 84.664 5.36801C84.3112 6.18222 84.1348 7.07785 84.1348 8.05491V10.4976ZM124.726 1.1748H104.37V4.55379H111.169V31.7078H117.927V4.55379H124.726V1.1748ZM135.066 31.7078H141.539C142.462 31.7078 143.33 31.5314 144.145 31.1786C144.986 30.7986 145.719 30.2965 146.343 29.6723C146.994 29.0209 147.51 28.2881 147.89 27.4739C148.268 26.643 148.462 25.7405 148.46 24.8277V8.05491C148.46 7.18642 148.27 6.34506 147.89 5.53085C147.537 4.68949 147.049 3.9567 146.424 3.33247C145.8 2.6811 145.067 2.16543 144.226 1.78547C143.385 1.37836 142.489 1.1748 141.539 1.1748H135.066C134.116 1.1748 133.22 1.37836 132.379 1.78547C131.538 2.16543 130.805 2.6811 130.181 3.33247C129.557 3.9567 129.054 4.68949 128.674 5.53085C128.322 6.34506 128.145 7.18642 128.145 8.05491V24.8277C128.145 25.7505 128.335 26.6326 128.715 27.4739C129.095 28.2881 129.597 29.0209 130.221 29.6723C130.873 30.2965 131.606 30.7986 132.42 31.1786C133.261 31.5314 134.143 31.7078 135.066 31.7078ZM141.702 28.2881H134.903V4.55379H141.702V28.2881ZM162.057 14.6908V4.51308H168.856V14.6908H162.057ZM155.299 31.7078H162.057V18.1512H168.856V31.7078H175.614V22.2629C175.614 21.0959 175.424 20.146 175.044 19.4132C174.664 18.6533 174.243 18.0562 173.782 17.6219C173.347 17.1605 172.94 16.8484 172.56 16.6856L171.99 16.4006L172.56 16.1971C172.94 16.0613 173.347 15.8035 173.782 15.4235C174.243 15.0164 174.664 14.4601 175.044 13.7544C175.424 13.0216 175.614 12.0717 175.614 10.9047V7.97349C175.614 6.96929 175.451 6.04652 175.125 5.20517C174.826 4.36381 174.379 3.64459 173.782 3.0475C173.184 2.45041 172.465 1.98902 171.624 1.66333C170.81 1.33765 169.887 1.1748 168.856 1.1748H155.299V31.7078ZM189.496 1.1748C188.708 1.1748 187.894 1.36479 187.053 1.74475C186.239 2.12472 185.492 2.62682 184.814 3.25105C184.162 3.87528 183.62 4.60808 183.185 5.44943C182.778 6.29078 182.575 7.15928 182.575 8.05491V31.7078H189.333V18.1512H196.009V31.7078C196.226 31.735 196.647 31.7485 197.271 31.7485H199.266C199.999 31.7485 200.691 31.735 201.342 31.7078H202.808V8.05491C202.808 7.15928 202.591 6.30435 202.157 5.49014C201.722 4.64878 201.166 3.91599 200.487 3.29176C199.836 2.64039 199.09 2.12472 198.248 1.74475C197.407 1.36479 196.579 1.1748 195.765 1.1748H189.496ZM189.333 14.6908V4.51308H196.009V14.6908H189.333ZM219.743 18.1105H223.163V28.2881H216.364V4.55379H223.855C224.697 4.55379 225.362 4.86591 225.85 5.49014C226.339 6.08723 226.583 6.94215 226.583 8.05491H229.921C229.921 7.18642 229.731 6.34506 229.351 5.53085C228.971 4.68949 228.456 3.9567 227.804 3.33247C227.158 2.68482 226.399 2.16056 225.565 1.78547C224.724 1.37836 223.855 1.1748 222.96 1.1748H216.487C215.537 1.1748 214.641 1.37836 213.8 1.78547C212.958 2.16543 212.226 2.6811 211.601 3.33247C210.977 3.98384 210.489 4.73021 210.136 5.57156C209.783 6.38578 209.606 7.22713 209.606 8.09562V24.787C209.606 25.7369 209.783 26.6326 210.136 27.4739C210.489 28.3153 210.977 29.0481 211.601 29.6723C212.226 30.2965 212.945 30.7986 213.759 31.1786C214.6 31.5314 215.51 31.7078 216.487 31.7078H223C224.032 31.7078 224.968 31.5178 225.809 31.1379C226.651 30.7579 227.37 30.2558 227.967 29.6316C228.591 29.0074 229.066 28.2746 229.392 27.4332C229.745 26.5918 229.921 25.7098 229.921 24.787V14.65H219.743V18.1105ZM250.317 18.1512V14.6908H243.518V4.55379H253.696V1.1748H236.76V31.7078H253.696V28.2881H243.518V18.1512H250.317Z" stroke="black" stroke-width="1.85316"/>
</mask>
<g mask="url(#mask4_412_566)">
<path d="M84.1348 10.4976C84.1348 11.2303 84.379 11.9903 84.8676 12.7774C85.3832 13.5373 86.0075 14.3108 86.7403 15.0979C87.5002 15.8849 88.3144 16.672 89.1829 17.4591C90.0785 18.219 90.8927 18.9518 91.6255 19.6575C92.3855 20.3631 93.0097 21.0416 93.4982 21.693C94.0139 22.3172 94.2717 22.8736 94.2717 23.3621V28.3288H91.1777C90.0921 28.3288 89.21 28.0032 88.5315 27.3518C87.8801 26.7004 87.5545 25.8591 87.5545 24.8277H84.1348C84.1348 25.7776 84.3112 26.6733 84.664 27.5146C85.044 28.3288 85.5461 29.0481 86.1703 29.6723C86.8217 30.2965 87.568 30.7986 88.4094 31.1786C89.2779 31.5314 90.2007 31.7078 91.1777 31.7078H94.0275C95.0588 31.7078 95.9951 31.5314 96.8365 31.1786C97.705 30.7986 98.4378 30.2965 99.0349 29.6723C99.6591 29.0209 100.134 28.2881 100.46 27.4739C100.813 26.6326 100.989 25.7505 100.989 24.8277V22.3444C100.989 21.5301 100.731 20.7024 100.215 19.861C99.727 18.9925 99.1027 18.1512 98.3428 17.3369C97.61 16.4956 96.8094 15.6814 95.9409 14.8943C95.0724 14.1072 94.2582 13.3744 93.4982 12.6959C92.7654 11.9903 92.1412 11.3525 91.6255 10.7825C91.137 10.2126 90.8927 9.72405 90.8927 9.31694V4.51308H93.5796C94.8824 4.51308 95.8866 4.8252 96.5922 5.44943C97.325 6.04652 97.6914 6.88787 97.6914 7.97349H101.03C101.03 7.05071 100.84 6.18222 100.46 5.36801C100.107 4.52665 99.6048 3.80743 98.9535 3.21034C98.3292 2.58611 97.5964 2.09758 96.7551 1.74475C95.9137 1.36479 95.0181 1.1748 94.0682 1.1748H91.1777C90.2007 1.1748 89.2779 1.35122 88.4094 1.70404C87.568 2.05687 86.8217 2.5454 86.1703 3.16963C85.5461 3.79386 85.044 4.52665 84.664 5.36801C84.3112 6.18222 84.1348 7.07785 84.1348 8.05491V10.4976ZM124.726 1.1748H104.37V4.55379H111.169V31.7078H117.927V4.55379H124.726V1.1748ZM135.066 31.7078H141.539C142.462 31.7078 143.33 31.5314 144.145 31.1786C144.986 30.7986 145.719 30.2965 146.343 29.6723C146.994 29.0209 147.51 28.2881 147.89 27.4739C148.268 26.643 148.462 25.7405 148.46 24.8277V8.05491C148.46 7.18642 148.27 6.34506 147.89 5.53085C147.537 4.68949 147.049 3.9567 146.424 3.33247C145.8 2.6811 145.067 2.16543 144.226 1.78547C143.385 1.37836 142.489 1.1748 141.539 1.1748H135.066C134.116 1.1748 133.22 1.37836 132.379 1.78547C131.538 2.16543 130.805 2.6811 130.181 3.33247C129.557 3.9567 129.054 4.68949 128.674 5.53085C128.322 6.34506 128.145 7.18642 128.145 8.05491V24.8277C128.145 25.7505 128.335 26.6326 128.715 27.4739C129.095 28.2881 129.597 29.0209 130.221 29.6723C130.873 30.2965 131.606 30.7986 132.42 31.1786C133.261 31.5314 134.143 31.7078 135.066 31.7078ZM141.702 28.2881H134.903V4.55379H141.702V28.2881ZM162.057 14.6908V4.51308H168.856V14.6908H162.057ZM155.299 31.7078H162.057V18.1512H168.856V31.7078H175.614V22.2629C175.614 21.0959 175.424 20.146 175.044 19.4132C174.664 18.6533 174.243 18.0562 173.782 17.6219C173.347 17.1605 172.94 16.8484 172.56 16.6856L171.99 16.4006L172.56 16.1971C172.94 16.0613 173.347 15.8035 173.782 15.4235C174.243 15.0164 174.664 14.4601 175.044 13.7544C175.424 13.0216 175.614 12.0717 175.614 10.9047V7.97349C175.614 6.96929 175.451 6.04652 175.125 5.20517C174.826 4.36381 174.379 3.64459 173.782 3.0475C173.184 2.45041 172.465 1.98902 171.624 1.66333C170.81 1.33765 169.887 1.1748 168.856 1.1748H155.299V31.7078ZM189.496 1.1748C188.708 1.1748 187.894 1.36479 187.053 1.74475C186.239 2.12472 185.492 2.62682 184.814 3.25105C184.162 3.87528 183.62 4.60808 183.185 5.44943C182.778 6.29078 182.575 7.15928 182.575 8.05491V31.7078H189.333V18.1512H196.009V31.7078C196.226 31.735 196.647 31.7485 197.271 31.7485H199.266C199.999 31.7485 200.691 31.735 201.342 31.7078H202.808V8.05491C202.808 7.15928 202.591 6.30435 202.157 5.49014C201.722 4.64878 201.166 3.91599 200.487 3.29176C199.836 2.64039 199.09 2.12472 198.248 1.74475C197.407 1.36479 196.579 1.1748 195.765 1.1748H189.496ZM189.333 14.6908V4.51308H196.009V14.6908H189.333ZM219.743 18.1105H223.163V28.2881H216.364V4.55379H223.855C224.697 4.55379 225.362 4.86591 225.85 5.49014C226.339 6.08723 226.583 6.94215 226.583 8.05491H229.921C229.921 7.18642 229.731 6.34506 229.351 5.53085C228.971 4.68949 228.456 3.9567 227.804 3.33247C227.158 2.68482 226.399 2.16056 225.565 1.78547C224.724 1.37836 223.855 1.1748 222.96 1.1748H216.487C215.537 1.1748 214.641 1.37836 213.8 1.78547C212.958 2.16543 212.226 2.6811 211.601 3.33247C210.977 3.98384 210.489 4.73021 210.136 5.57156C209.783 6.38578 209.606 7.22713 209.606 8.09562V24.787C209.606 25.7369 209.783 26.6326 210.136 27.4739C210.489 28.3153 210.977 29.0481 211.601 29.6723C212.226 30.2965 212.945 30.7986 213.759 31.1786C214.6 31.5314 215.51 31.7078 216.487 31.7078H223C224.032 31.7078 224.968 31.5178 225.809 31.1379C226.651 30.7579 227.37 30.2558 227.967 29.6316C228.591 29.0074 229.066 28.2746 229.392 27.4332C229.745 26.5918 229.921 25.7098 229.921 24.787V14.65H219.743V18.1105ZM250.317 18.1512V14.6908H243.518V4.55379H253.696V1.1748H236.76V31.7078H253.696V28.2881H243.518V18.1512H250.317Z" stroke="black" stroke-width="1.85316"/>
</g>
<path d="M138.246 29.8419C143.211 29.8419 147.236 23.8043 147.236 16.3565C147.236 8.90872 143.211 2.87109 138.246 2.87109C133.281 2.87109 129.256 8.90872 129.256 16.3565C129.256 23.8043 133.281 29.8419 138.246 29.8419Z" fill="white"/>
<path d="M135.787 11.522C136.208 11.522 136.55 10.7625 136.55 9.82567C136.55 8.88884 136.208 8.12939 135.787 8.12939C135.365 8.12939 135.023 8.88884 135.023 9.82567C135.023 10.7625 135.365 11.522 135.787 11.522Z" fill="black"/>
<path d="M140.706 11.522C141.127 11.522 141.469 10.7625 141.469 9.82567C141.469 8.88884 141.127 8.12939 140.706 8.12939C140.284 8.12939 139.942 8.88884 139.942 9.82567C139.942 10.7625 140.284 11.522 140.706 11.522Z" fill="black"/>
<path d="M144.861 13.5576C144.861 17.2112 141.938 20.1731 138.331 20.1731C134.724 20.1731 131.8 17.2112 131.8 13.5576" stroke="black" stroke-width="0.926582"/>
<path d="M4.48075 38.5778V20.9443L23.0643 38.6392L23.0889 38.6626H24.8361V7.95996H21.2468V25.5166L2.66284 7.98303L2.63841 7.95996H0.932129V38.6626H4.48075V38.5778ZM45.1066 25.1059H45.1914V21.5166H38.3927V11.5086H48.5704V7.95996H31.4651V38.6626H38.3927V25.1059H45.1066ZM72.3051 8.04477V7.95996H51.7801V11.5086H58.5788V38.6626H65.5064V11.5086H72.3051V11.4238V8.04477Z" fill="#F5C32C" stroke="black" stroke-width="0.926582"/>
<path d="M4.48075 36.8815V19.248L23.0643 36.9429L23.0889 36.9663H24.8361V6.26367H21.2468V23.8203L2.66284 6.28674L2.63841 6.26367H0.932129V36.9663H4.48075V36.8815ZM45.1066 23.4097H45.1914V19.8203H38.3927V9.81229H48.5704V6.26367H31.4651V36.9663H38.3927V23.4097H45.1066ZM72.3051 6.34849V6.26367H51.7801V9.81229H58.5788V36.9663H65.5064V9.81229H72.3051V9.72747V6.34849Z" fill="#F5C32C" stroke="black" stroke-width="0.926582"/>
<path d="M4.48075 35.1852V17.5517L23.0643 35.2466L23.0889 35.27H24.8361V4.56738H21.2468V22.124L2.66284 4.59045L2.63841 4.56738H0.932129V35.27H4.48075V35.1852ZM45.1066 21.7134H45.1914V18.124H38.3927V8.116H48.5704V4.56738H31.4651V35.27H38.3927V21.7134H45.1066ZM72.3051 4.6522V4.56738H51.7801V8.116H58.5788V35.27H65.5064V8.116H72.3051V8.03118V4.6522Z" fill="#F5C32C" stroke="black" stroke-width="0.926582"/>
<path d="M4.48075 33.4889V15.8554L23.0643 33.5503L23.0889 33.5737H24.8361V2.87109H21.2468V20.4277L2.66284 2.89416L2.63841 2.87109H0.932129V33.5737H4.48075V33.4889ZM45.1066 20.0171H45.1914V16.4278H38.3927V6.41971H48.5704V2.87109H31.4651V33.5737H38.3927V20.0171H45.1066ZM72.3051 2.95591V2.87109H51.7801V6.41971H58.5788V33.5737H65.5064V6.41971H72.3051V6.3349V2.95591Z" fill="#F5C32C" stroke="black" stroke-width="0.926582"/>
<path d="M4.48075 31.7926V14.1591L23.0643 31.854L23.0889 31.8775H24.8361V1.1748H21.2468V18.7315L2.66284 1.19787L2.63841 1.1748H0.932129V31.8775H4.48075V31.7926ZM45.1066 18.3208H45.1914V14.7315H38.3927V4.72342H48.5704V1.1748H31.4651V31.8775H38.3927V18.3208H45.1066ZM72.3051 1.25962V1.1748H51.7801V4.72342H58.5788V31.8775H65.5064V4.72342H72.3051V4.63861V1.25962Z" fill="white" stroke="black" stroke-width="0.926582"/>
</svg>
