<svg width="192" height="44" viewBox="0 0 192 44" fill="none" xmlns="http://www.w3.org/2000/svg">
<g clip-path="url(#clip0_412_480)">
<path fill-rule="evenodd" clip-rule="evenodd" d="M7.19088 55.5401V55.5096C7.19088 53.6612 5.7866 52.1886 3.98536 52.1886C2.13795 52.1886 0.809122 53.6767 0.809122 55.4808V55.5096C0.809122 57.3591 2.21396 58.8317 4.01464 58.8317C5.86261 58.8317 7.19088 57.3442 7.19088 55.5401ZM0 55.5401V55.5096C0 53.3612 1.69482 51.4978 4.01464 51.4978C6.32151 51.4978 8 53.3313 8 55.4808V55.5096C8 57.6591 6.30518 59.5241 3.98536 59.5241C1.67962 59.5241 0 57.6896 0 55.5401ZM9.75 55.5401V55.5096C9.75 53.3612 11.4858 51.4978 13.7084 51.4978C15.1696 51.4978 16.0832 52.1581 16.8144 52.9105L16.2814 53.4499C15.6115 52.7752 14.8495 52.1886 13.6927 52.1886C11.9271 52.1886 10.557 53.6462 10.557 55.4808V55.5096C10.557 57.3591 11.9726 58.8317 13.7539 58.8317C14.8495 58.8317 15.7019 58.2767 16.3572 57.5543L16.875 58.0056C16.0832 58.8915 15.1387 59.5241 13.7084 59.5241C11.47 59.5241 9.75 57.6896 9.75 55.5401ZM24.6928 55.1492C24.5861 53.6018 23.6879 52.1731 21.9062 52.1731C20.3671 52.1731 19.1802 53.4505 19.0426 55.1492H24.6928ZM18.25 55.5262V55.4946C18.25 53.2703 19.8351 51.4978 21.9359 51.4978C24.1143 51.4978 25.5 53.2409 25.5 55.5096C25.5 55.6454 25.5 55.6909 25.4848 55.8106H19.0426C19.1802 57.7201 20.5648 58.8322 22.0893 58.8322C23.2908 58.8322 24.1143 58.3066 24.7529 57.6302L25.2708 58.0815C24.4788 58.9231 23.5509 59.5241 22.0584 59.5241C20.0177 59.5241 18.25 57.9152 18.25 55.5262ZM33.028 56.4502V55.5705C32.3688 55.4046 31.4951 55.2236 30.3753 55.2236C28.7179 55.2236 27.7973 55.9497 27.7973 57.025V57.0552C27.7973 58.1757 28.8707 58.827 30.0686 58.827C31.6637 58.827 33.028 57.8584 33.028 56.4502ZM27 57.0999V57.0703C27 55.4643 28.3954 54.5561 30.4217 54.5561C31.5098 54.5561 32.2618 54.6929 33.0138 54.8907V54.5561C33.0138 52.9954 32.0462 52.1938 30.4364 52.1938C29.4841 52.1938 28.7026 52.4519 27.9817 52.8155L27.705 52.1631C28.5646 51.7704 29.4088 51.4978 30.4828 51.4978C31.5404 51.4978 32.384 51.7849 32.9522 52.3458C33.4739 52.8608 33.75 53.5724 33.75 54.5265V59.342H33.0138V58.0545C32.4768 58.7963 31.5098 59.5241 30.0222 59.5241C28.5646 59.5241 27 58.7064 27 57.0999ZM36.375 51.6788H37.1192V53.1169C37.633 52.2077 38.4974 51.4978 39.9075 51.4978C41.8622 51.4978 43 52.8299 43 54.6774V59.4006H42.2575V54.8137C42.2575 53.2236 41.3629 52.1781 39.8018 52.1781C38.2855 52.1781 37.1192 53.3297 37.1192 54.9337V59.4006H36.375V51.6788ZM5.5 21.1826C5.5 22.4442 4.46546 23.4675 3.1875 23.4675C1.91066 23.4675 0.875 22.4442 0.875 21.1826C0.875 19.921 1.91066 18.8987 3.1875 18.8987C4.46546 18.8987 5.5 19.921 5.5 21.1826ZM42.25 21.1826C42.25 22.4442 41.2143 23.4675 39.9381 23.4675C38.6607 23.4675 37.625 22.4442 37.625 21.1826C37.625 19.921 38.6607 18.8987 39.9381 18.8987C41.2143 18.8987 42.25 19.921 42.25 21.1826ZM23.875 30.197C23.875 31.4584 22.8395 32.4817 21.5628 32.4817C20.2855 32.4817 19.25 31.4584 19.25 30.197C19.25 28.9356 20.2855 27.9129 21.5628 27.9129C22.8395 27.9129 23.875 28.9356 23.875 30.197ZM14.625 25.752C14.625 27.013 13.59 28.0364 12.3122 28.0364C11.035 28.0364 10 27.013 10 25.752C10 24.4898 11.035 23.4675 12.3122 23.4675C13.59 23.4675 14.625 24.4898 14.625 25.752ZM33 25.752C33 27.013 31.9645 28.0364 30.6878 28.0364C29.41 28.0364 28.375 27.013 28.375 25.752C28.375 24.4898 29.41 23.4675 30.6878 23.4675C31.9645 23.4675 33 24.4898 33 25.752ZM4.75 28.0987C4.75 28.9496 4.05105 29.6416 3.18834 29.6416C2.32451 29.6416 1.625 28.9496 1.625 28.0987C1.625 27.2455 2.32451 26.5546 3.18834 26.5546C4.05105 26.5546 4.75 27.2455 4.75 28.0987ZM41.5 28.0987C41.5 28.9496 40.8001 29.6416 39.9375 29.6416C39.0744 29.6416 38.375 28.9496 38.375 28.0987C38.375 27.2455 39.0744 26.5546 39.9375 26.5546C40.8001 26.5546 41.5 27.2455 41.5 28.0987ZM23.125 37.2346C23.125 38.0872 22.4247 38.7792 21.5631 38.7792C20.7008 38.7792 20 38.0872 20 37.2346C20 36.3825 20.7008 35.6922 21.5631 35.6922C22.4247 35.6922 23.125 36.3825 23.125 37.2346ZM13.875 32.6675C13.875 33.5199 13.1756 34.2104 12.3131 34.2104C11.4499 34.2104 10.75 33.5199 10.75 32.6675C10.75 31.8145 11.4499 31.1234 12.3131 31.1234C13.1756 31.1234 13.875 31.8145 13.875 32.6675ZM32.25 32.6675C32.25 33.5199 31.5496 34.2104 30.6883 34.2104C29.8248 34.2104 29.125 33.5199 29.125 32.6675C29.125 31.8145 29.8248 31.1234 30.6883 31.1234C31.5496 31.1234 32.25 31.8145 32.25 32.6675ZM4 33.5304C4 33.9745 3.63646 34.3339 3.18779 34.3339C2.73854 34.3339 2.375 33.9745 2.375 33.5304C2.375 33.0875 2.73854 32.7287 3.18779 32.7287C3.63646 32.7287 4 33.0875 4 33.5304ZM40.75 33.5304C40.75 33.9745 40.3856 34.3339 39.9378 34.3339C39.4882 34.3339 39.125 33.9745 39.125 33.5304C39.125 33.0875 39.4882 32.7287 39.9378 32.7287C40.3856 32.7287 40.75 33.0875 40.75 33.5304ZM22.375 42.6683C22.375 43.1117 22.0106 43.4715 21.5628 43.4715C21.1138 43.4715 20.75 43.1117 20.75 42.6683C20.75 42.225 21.1138 41.8663 21.5628 41.8663C22.0106 41.8663 22.375 42.225 22.375 42.6683ZM13.125 38.1001C13.125 38.5429 12.7609 38.9027 12.3122 38.9027C11.8641 38.9027 11.5 38.5429 11.5 38.1001C11.5 37.6562 11.8641 37.2975 12.3122 37.2975C12.7609 37.2975 13.125 37.6562 13.125 38.1001ZM31.5 38.1001C31.5 38.5429 31.1356 38.9027 30.6878 38.9027C30.2376 38.9027 29.875 38.5429 29.875 38.1001C29.875 37.6562 30.2376 37.2975 30.6878 37.2975C31.1356 37.2975 31.5 37.6562 31.5 38.1001ZM24.625 3.58709C24.625 5.29238 23.2257 6.67407 21.5008 6.67407C19.7743 6.67407 18.375 5.29238 18.375 3.58709C18.375 1.88225 19.7743 0.5 21.5008 0.5C23.2257 0.5 24.625 1.88225 24.625 3.58709ZM24.625 12.7247C24.625 14.4297 23.2257 15.8117 21.5008 15.8117C19.7743 15.8117 18.375 14.4297 18.375 12.7247C18.375 11.0202 19.7743 9.63763 21.5008 9.63763C23.2257 9.63763 24.625 11.0202 24.625 12.7247ZM24.625 21.7394C24.625 23.4436 23.2257 24.8258 21.5008 24.8258C19.7743 24.8258 18.375 23.4436 18.375 21.7394C18.375 20.034 19.7743 18.6518 21.5008 18.6518C23.2257 18.6518 24.625 20.034 24.625 21.7394ZM43 12.7247C43 14.4297 41.6009 15.8117 39.8753 15.8117C38.1491 15.8117 36.75 14.4297 36.75 12.7247C36.75 11.0202 38.1491 9.63763 39.8753 9.63763C41.6009 9.63763 43 11.0202 43 12.7247ZM6.25 12.7247C6.25 14.4297 4.85121 15.8117 3.12528 15.8117C1.39935 15.8117 0 14.4297 0 12.7247C0 11.0202 1.39935 9.63763 3.12528 9.63763C4.85121 9.63763 6.25 11.0202 6.25 12.7247ZM15.5 8.15585C15.5 9.86066 14.1011 11.2429 12.375 11.2429C10.6489 11.2429 9.25 9.86066 9.25 8.15585C9.25 6.44993 10.6489 5.06881 12.375 5.06881C14.1011 5.06881 15.5 6.44993 15.5 8.15585ZM15.5 17.1697C15.5 18.8747 14.1011 20.257 12.375 20.257C10.6489 20.257 9.25 18.8747 9.25 17.1697C9.25 15.4653 10.6489 14.083 12.375 14.083C14.1011 14.083 15.5 15.4653 15.5 17.1697ZM33.875 8.15585C33.875 9.86066 32.4757 11.2429 30.7497 11.2429C29.0238 11.2429 27.625 9.86066 27.625 8.15585C27.625 6.44993 29.0238 5.06881 30.7497 5.06881C32.4757 5.06881 33.875 6.44993 33.875 8.15585ZM33.875 17.1697C33.875 18.8747 32.4757 20.257 30.7497 20.257C29.0238 20.257 27.625 18.8747 27.625 17.1697C27.625 15.4653 29.0238 14.083 30.7497 14.083C32.4757 14.083 33.875 15.4653 33.875 17.1697Z" fill="white"/>
</g>
<g clip-path="url(#clip1_412_480)">
<path fill-rule="evenodd" clip-rule="evenodd" d="M82.0743 22.1574V22.0629C82.0743 16.3365 77.7635 11.7746 72.2341 11.7746C66.563 11.7746 62.4838 16.3846 62.4838 21.9736V22.0629C62.4838 27.7928 66.7964 32.3547 72.324 32.3547C77.9969 32.3547 82.0743 27.7464 82.0743 22.1574ZM60 22.1574V22.0629C60 15.4073 65.2027 9.63446 72.324 9.63446C79.4056 9.63446 84.5581 15.3145 84.5581 21.9736V22.0629C84.5581 28.722 79.3554 34.5 72.2341 34.5C65.156 34.5 60 28.8165 60 22.1574ZM89.9302 22.1574V22.0629C89.9302 15.4073 95.2586 9.63446 102.082 9.63446C106.567 9.63446 109.372 11.6801 111.616 14.0109L109.98 15.6821C107.924 13.5918 105.584 11.7746 102.033 11.7746C96.6136 11.7746 92.4074 16.2901 92.4074 21.9736V22.0629C92.4074 27.7928 96.7532 32.3547 102.221 32.3547C105.584 32.3547 108.201 30.6354 110.213 28.3974L111.802 29.7955C109.372 32.5402 106.472 34.5 102.082 34.5C95.2104 34.5 89.9302 28.8165 89.9302 22.1574ZM135.801 20.9465C135.474 16.1527 132.716 11.7265 127.247 11.7265C122.522 11.7265 118.879 15.6838 118.456 20.9465H135.801ZM116.023 22.1144V22.0165C116.023 15.1256 120.889 9.63446 127.338 9.63446C134.025 9.63446 138.279 15.0346 138.279 22.0629C138.279 22.4837 138.279 22.6246 138.233 22.9956H118.456C118.879 28.9109 123.129 32.3564 127.809 32.3564C131.497 32.3564 134.025 30.7281 135.986 28.6327L137.576 30.0308C135.144 32.6381 132.296 34.5 127.714 34.5C121.45 34.5 116.023 29.5155 116.023 22.1144ZM161.388 24.9771V22.2515C159.365 21.7375 156.683 21.1769 153.245 21.1769C148.157 21.1769 145.331 23.4265 145.331 26.7577V26.8512C145.331 30.3226 148.626 32.3403 152.304 32.3403C157.2 32.3403 161.388 29.3396 161.388 24.9771ZM142.884 26.9896V26.8979C142.884 21.9227 147.167 19.1089 153.387 19.1089C156.728 19.1089 159.036 19.5329 161.345 20.1455V19.1089C161.345 14.2739 158.374 11.7907 153.433 11.7907C150.509 11.7907 148.11 12.5901 145.897 13.7167L145.048 11.6955C147.687 10.4789 150.278 9.63446 153.575 9.63446C156.822 9.63446 159.411 10.5239 161.155 12.2614C162.757 13.8569 163.605 16.0615 163.605 19.0172V33.9358H161.345V29.947C159.696 32.2451 156.728 34.5 152.161 34.5C147.687 34.5 142.884 31.9665 142.884 26.9896ZM171.663 10.1951H173.947V14.6504C175.525 11.8336 178.178 9.63446 182.507 9.63446C188.507 9.63446 192 13.7611 192 19.4847V34.1174H189.721V19.9069C189.721 14.9809 186.974 11.7419 182.182 11.7419C177.528 11.7419 173.947 15.3097 173.947 20.2789V34.1174H171.663V10.1951ZM76.8837 -84.2824C76.8837 -80.374 73.7079 -77.2036 69.7849 -77.2036C65.8653 -77.2036 62.686 -80.374 62.686 -84.2824C62.686 -88.1908 65.8653 -91.3578 69.7849 -91.3578C73.7079 -91.3578 76.8837 -88.1908 76.8837 -84.2824ZM189.698 -84.2824C189.698 -80.374 186.518 -77.2036 182.601 -77.2036C178.679 -77.2036 175.5 -80.374 175.5 -84.2824C175.5 -88.1908 178.679 -91.3578 182.601 -91.3578C186.518 -91.3578 189.698 -88.1908 189.698 -84.2824ZM133.291 -56.3556C133.291 -52.4477 130.112 -49.2777 126.193 -49.2777C122.272 -49.2777 119.093 -52.4477 119.093 -56.3556C119.093 -60.2635 122.272 -63.4319 126.193 -63.4319C130.112 -63.4319 133.291 -60.2635 133.291 -56.3556ZM104.895 -70.1265C104.895 -66.2198 101.718 -63.0493 97.7957 -63.0493C93.8748 -63.0493 90.6977 -66.2198 90.6977 -70.1265C90.6977 -74.0365 93.8748 -77.2036 97.7957 -77.2036C101.718 -77.2036 104.895 -74.0365 104.895 -70.1265ZM161.302 -70.1265C161.302 -66.2198 158.123 -63.0493 154.204 -63.0493C150.282 -63.0493 147.105 -66.2198 147.105 -70.1265C147.105 -74.0365 150.282 -77.2036 154.204 -77.2036C158.123 -77.2036 161.302 -74.0365 161.302 -70.1265ZM74.5814 -62.8563C74.5814 -60.2201 72.4358 -58.0762 69.7875 -58.0762C67.1357 -58.0762 64.9884 -60.2201 64.9884 -62.8563C64.9884 -65.4995 67.1357 -67.6399 69.7875 -67.6399C72.4358 -67.6399 74.5814 -65.4995 74.5814 -62.8563ZM187.395 -62.8563C187.395 -60.2201 185.247 -58.0762 182.599 -58.0762C179.949 -58.0762 177.802 -60.2201 177.802 -62.8563C177.802 -65.4995 179.949 -67.6399 182.599 -67.6399C185.247 -67.6399 187.395 -65.4995 187.395 -62.8563ZM130.988 -34.5531C130.988 -31.9116 128.839 -29.7678 126.194 -29.7678C123.547 -29.7678 121.395 -31.9116 121.395 -34.5531C121.395 -37.1928 123.547 -39.3315 126.194 -39.3315C128.839 -39.3315 130.988 -37.1928 130.988 -34.5531ZM102.593 -48.7021C102.593 -46.0614 100.446 -43.922 97.7982 -43.922C95.1487 -43.922 93 -46.0614 93 -48.7021C93 -51.3445 95.1487 -53.4857 97.7982 -53.4857C100.446 -53.4857 102.593 -51.3445 102.593 -48.7021ZM159 -48.7021C159 -46.0614 156.85 -43.922 154.206 -43.922C151.555 -43.922 149.407 -46.0614 149.407 -48.7021C149.407 -51.3445 151.555 -53.4857 154.206 -53.4857C156.85 -53.4857 159 -51.3445 159 -48.7021ZM72.2791 -46.0287C72.2791 -44.6528 71.1631 -43.5395 69.7858 -43.5395C68.4067 -43.5395 67.2907 -44.6528 67.2907 -46.0287C67.2907 -47.401 68.4067 -48.5126 69.7858 -48.5126C71.1631 -48.5126 72.2791 -47.401 72.2791 -46.0287ZM185.093 -46.0287C185.093 -44.6528 183.974 -43.5395 182.6 -43.5395C181.22 -43.5395 180.105 -44.6528 180.105 -46.0287C180.105 -47.401 181.22 -48.5126 182.6 -48.5126C183.974 -48.5126 185.093 -47.401 185.093 -46.0287ZM128.686 -17.7194C128.686 -16.3458 127.568 -15.231 126.193 -15.231C124.814 -15.231 123.698 -16.3458 123.698 -17.7194C123.698 -19.093 124.814 -20.2041 126.193 -20.2041C127.568 -20.2041 128.686 -19.093 128.686 -17.7194ZM100.291 -31.8718C100.291 -30.5 99.1729 -29.3853 97.7956 -29.3853C96.4201 -29.3853 95.3023 -30.5 95.3023 -31.8718C95.3023 -33.2472 96.4201 -34.3584 97.7956 -34.3584C99.1729 -34.3584 100.291 -33.2472 100.291 -31.8718ZM156.698 -31.8718C156.698 -30.5 155.579 -29.3853 154.204 -29.3853C152.823 -29.3853 151.709 -30.5 151.709 -31.8718C151.709 -33.2472 152.823 -34.3584 154.204 -34.3584C155.579 -34.3584 156.698 -33.2472 156.698 -31.8718ZM135.593 -138.793C135.593 -133.51 131.297 -129.23 126.003 -129.23C120.703 -129.23 116.407 -133.51 116.407 -138.793C116.407 -144.075 120.703 -148.357 126.003 -148.357C131.297 -148.357 135.593 -144.075 135.593 -138.793ZM135.593 -110.485C135.593 -105.203 131.297 -100.921 126.003 -100.921C120.703 -100.921 116.407 -105.203 116.407 -110.485C116.407 -115.766 120.703 -120.049 126.003 -120.049C131.297 -120.049 135.593 -115.766 135.593 -110.485ZM135.593 -82.5575C135.593 -77.2777 131.297 -72.9955 126.003 -72.9955C120.703 -72.9955 116.407 -77.2777 116.407 -82.5575C116.407 -87.8407 120.703 -92.1229 126.003 -92.1229C131.297 -92.1229 135.593 -87.8407 135.593 -82.5575ZM192 -110.485C192 -105.203 187.705 -100.921 182.408 -100.921C177.109 -100.921 172.814 -105.203 172.814 -110.485C172.814 -115.766 177.109 -120.049 182.408 -120.049C187.705 -120.049 192 -115.766 192 -110.485ZM79.186 -110.485C79.186 -105.203 74.8921 -100.921 69.5939 -100.921C64.2957 -100.921 60 -105.203 60 -110.485C60 -115.766 64.2957 -120.049 69.5939 -120.049C74.8921 -120.049 79.186 -115.766 79.186 -110.485ZM107.581 -124.639C107.581 -119.358 103.287 -115.076 97.9884 -115.076C92.6897 -115.076 88.3953 -119.358 88.3953 -124.639C88.3953 -129.924 92.6897 -134.203 97.9884 -134.203C103.287 -134.203 107.581 -129.924 107.581 -124.639ZM107.581 -96.7143C107.581 -91.4323 103.287 -87.1498 97.9884 -87.1498C92.6897 -87.1498 88.3953 -91.4323 88.3953 -96.7143C88.3953 -101.995 92.6897 -106.277 97.9884 -106.277C103.287 -106.277 107.581 -101.995 107.581 -96.7143ZM163.988 -124.639C163.988 -119.358 159.693 -115.076 154.394 -115.076C149.096 -115.076 144.802 -119.358 144.802 -124.639C144.802 -129.924 149.096 -134.203 154.394 -134.203C159.693 -134.203 163.988 -129.924 163.988 -124.639ZM163.988 -96.7143C163.988 -91.4323 159.693 -87.1498 154.394 -87.1498C149.096 -87.1498 144.802 -91.4323 144.802 -96.7143C144.802 -101.995 149.096 -106.277 154.394 -106.277C159.693 -106.277 163.988 -101.995 163.988 -96.7143Z" fill="white"/>
</g>
<defs>
<clipPath id="clip0_412_480">
<rect width="43" height="43" fill="white" transform="translate(0 0.5)"/>
</clipPath>
<clipPath id="clip1_412_480">
<rect width="132" height="25" fill="white" transform="translate(60 9.5)"/>
</clipPath>
</defs>
</svg>
