<svg width="84" height="106" viewBox="0 0 84 106" fill="none" xmlns="http://www.w3.org/2000/svg">
<path fill-rule="evenodd" clip-rule="evenodd" d="M31.7135 72.5881C25.4388 63.3499 10.8219 62.2878 3.20532 52.6994C2.4548 51.7533 0.953774 52.5266 1.25853 53.6933C4.861 70.3616 16.4394 71.5419 30.4922 74.2938C30.7128 74.3552 30.947 74.3472 31.1629 74.2711C31.3788 74.1949 31.5661 74.0542 31.6994 73.8681C31.8327 73.6819 31.9055 73.4593 31.9081 73.2303C31.9106 73.0014 31.8427 72.7772 31.7135 72.5881ZM80.9678 52.6994C73.3512 62.2878 58.7276 63.3499 52.4596 72.5881C52.331 72.7774 52.2635 73.0015 52.2663 73.2303C52.269 73.4591 52.3419 73.6816 52.4749 73.8678C52.608 74.0539 52.795 74.1948 53.0107 74.2713C53.2263 74.3479 53.4602 74.3566 53.6809 74.2961C61.6637 72.1446 71.3226 72.2219 77.313 65.5105C78.266 65.2649 86.4762 49.8384 80.9678 52.6994ZM60.1217 0.165612C59.9195 0.0411774 59.6828 -0.0155516 59.4461 0.003663C59.2095 0.0228777 58.9851 0.117036 58.8056 0.272463C58.6261 0.427891 58.5008 0.636495 58.4479 0.867984C58.395 1.09947 58.4173 1.34179 58.5115 1.55975C65.5936 17.7936 66.849 36.0994 57.438 51.1074C57.3019 51.3238 57.2441 51.5803 57.2743 51.8342C57.3045 52.088 57.4209 52.3238 57.6041 52.5022C57.7872 52.6806 58.026 52.7907 58.2806 52.8141C58.5351 52.8376 58.7901 52.773 59.0027 52.6312C80.0649 39.438 81.8889 13.1313 60.1217 0.165612ZM68.5593 73.4842C63.6514 75.0489 58.8868 75.4173 53.0646 76.8956C52.8751 76.9442 52.7016 77.0416 52.5614 77.178C52.4212 77.3144 52.3191 77.4852 52.2653 77.6733C52.2115 77.8613 52.2078 78.0602 52.2547 78.2502C52.3015 78.4401 52.3973 78.6145 52.5324 78.756C58.0817 84.6054 64.643 80.348 69.6896 75.3445C69.8708 75.1683 69.9869 74.9358 70.0188 74.6851C70.0508 74.4343 69.9967 74.1802 69.8655 73.9641C69.7342 73.7481 69.5335 73.583 69.2963 73.4958C69.059 73.4086 68.7992 73.4045 68.5593 73.4842ZM26.7351 51.1074C17.3241 36.0971 18.5795 17.7936 25.6617 1.55975C25.7559 1.34179 25.7782 1.09947 25.7253 0.867984C25.6724 0.636495 25.5471 0.427891 25.3676 0.272463C25.1881 0.117036 24.9637 0.0228777 24.727 0.003663C24.4903 -0.0155516 24.2537 0.0411774 24.0515 0.165612C2.27514 13.1404 4.11277 39.4426 25.1704 52.6312C25.3831 52.773 25.638 52.8376 25.8926 52.8141C26.1471 52.7907 26.3859 52.6806 26.5691 52.5022C26.7522 52.3238 26.8687 52.088 26.8989 51.8342C26.9291 51.5803 26.8713 51.3238 26.7351 51.1074ZM31.1086 76.891C24.1242 75.1194 18.6614 74.9443 12.6504 72.3834C12.573 72.3504 12.4867 72.3446 12.4055 72.3672C12.3244 72.3898 12.2534 72.4393 12.2042 72.5076C12.155 72.5759 12.1304 72.6589 12.1347 72.7429C12.1389 72.827 12.1716 72.9072 12.2274 72.9702C17.4446 78.7446 25.2204 85.5174 31.6408 78.7514C31.7759 78.6099 31.8716 78.4356 31.9185 78.2456C31.9653 78.0557 31.9617 77.8568 31.9079 77.6687C31.8541 77.4806 31.752 77.3099 31.6118 77.1735C31.4715 77.037 31.2981 76.9397 31.1086 76.891Z" fill="white"/>
<path fill-rule="evenodd" clip-rule="evenodd" d="M62.6303 62.1718C50.522 66.5044 41.252 80.4048 57.031 83.4683C57.2317 83.5062 57.4183 83.5983 57.5704 83.7346C57.7225 83.871 57.8344 84.0464 57.8939 84.2418C57.9534 84.4372 57.9583 84.6452 57.908 84.8432C57.8577 85.0412 57.7542 85.2217 57.6087 85.365C55.6937 87.1344 53.9539 89.6862 51.7774 91.2486C49.7851 90.1752 48.6138 89.0016 48.4501 87.2732C48.3318 85.2263 45.5117 84.6918 44.4155 86.2884C43.1192 87.8963 45.7641 92.9521 46.4169 94.7033C41.9479 98.49 42.0616 98.3808 37.6609 94.585C38.2977 92.8133 40.8903 87.9282 39.6031 86.2907C38.5069 84.6987 35.689 85.2354 35.5662 87.2754C35.407 88.9834 34.2608 90.1501 32.3117 91.2122C30.1966 89.6089 28.4454 87.1185 26.56 85.3673C26.4137 85.2245 26.3094 85.0442 26.2586 84.8461C26.2077 84.6481 26.2122 84.4398 26.2716 84.2441C26.3309 84.0485 26.4429 83.8728 26.5952 83.7364C26.7475 83.6 26.9344 83.508 27.1354 83.4706C42.9076 80.398 33.649 66.5157 21.5361 62.1741C3.34182 54.9191 -4.77285 40.6548 3.66704 24.032C3.78158 23.8084 3.96818 23.6299 4.19667 23.5255C4.42517 23.421 4.68222 23.3967 4.92626 23.4564C5.17031 23.5161 5.38709 23.6563 5.54157 23.8544C5.69605 24.0526 5.7792 24.297 5.77759 24.5483C4.56539 37.3639 21.7272 59.3949 34.0811 57.3799C38.0065 49.6678 39.6963 35.7332 33.79 32.7584C37.4061 33.3134 39.2074 35.9902 39.8555 37.4162C48.914 37.2433 46.9513 48.8104 52.5279 48.5602C49.8761 50.2705 47.6882 47.8938 46.4214 46.4065C45.4344 49.313 46.3691 52.5197 50.2672 57.2685C51.3839 58.301 52.9509 58.3192 56.6239 56.4156C67.8475 50.9573 78.4411 38.3555 78.3888 24.5505C78.3862 24.2985 78.4689 24.0529 78.6235 23.8539C78.7781 23.6548 78.9955 23.5139 79.2404 23.454C79.4853 23.3942 79.7432 23.419 79.9722 23.5243C80.2011 23.6297 80.3878 23.8094 80.5016 24.0343C88.9438 40.7025 80.8314 54.8918 62.6303 62.1718Z" fill="white"/>
<path fill-rule="evenodd" clip-rule="evenodd" d="M38.1994 87.7027C35.4839 100.493 28.4041 99.2266 18.2107 101.617C21.754 94.2641 36.6324 95.317 37.3784 87.4435C37.4535 86.8908 38.3609 87.2251 38.1994 87.7027Z" fill="white"/>
<path fill-rule="evenodd" clip-rule="evenodd" d="M65.8074 101.617C55.5981 99.2247 48.5364 100.48 45.8186 87.7031C45.7231 87.387 46.0461 87.1595 46.3144 87.1595C47.4539 95.115 61.8638 94.2349 65.8074 101.617Z" fill="white"/>
<path fill-rule="evenodd" clip-rule="evenodd" d="M41.4682 104.876C38.7937 103.025 35.0729 101.845 36.7559 98.2649C37.113 97.5099 38.0022 97.5053 38.6731 98.0011C42.2392 100.642 42.2392 100.532 45.6916 97.8624C46.342 97.3598 47.2017 97.2961 47.602 98.0125C48.6095 99.8115 48.7755 100.742 42.9352 104.869C42.7117 104.996 42.4595 105.063 42.2026 105.065C41.9457 105.066 41.6928 105.001 41.4682 104.876Z" fill="white"/>
</svg>
