<svg width="263" height="48" viewBox="0 0 263 48" fill="none" xmlns="http://www.w3.org/2000/svg">
<g clip-path="url(#clip0_412_467)">
<path fill-rule="evenodd" clip-rule="evenodd" d="M76.7083 30.5348C76.7083 34.2378 74.5818 36.3635 70.3986 36.3635H60.3936V31.9749H69.2131C70.503 31.9749 71.1307 31.5291 71.1307 30.3979C71.1307 29.4721 70.4334 28.8892 68.8995 27.8264L63.6705 23.8491C61.0211 21.8605 59.9055 20.0091 59.9055 17.8147C59.9055 14.0777 62.1366 12.3635 66.529 12.3635H76.29V16.752H67.5051C66.1455 16.752 65.4831 17.1977 65.4831 18.3635C65.4831 19.2549 66.1804 19.8378 67.7491 20.8662L72.9433 24.432C75.5927 26.2149 76.7083 28.375 76.7083 30.5348Z" fill="#4285F4"/>
<path fill-rule="evenodd" clip-rule="evenodd" d="M97.1638 16.7522H90.8417V36.3635H85.222V16.7522H78.8999V12.3635H97.1638V16.7522Z" fill="#4285F4"/>
<path fill-rule="evenodd" clip-rule="evenodd" d="M112.24 27.7235L108.887 18.2262L105.5 27.7235H112.24ZM113.677 31.7349H104.029L102.387 36.3635H96.4333L105.979 12.3635H111.727L121.272 36.3635H115.319L113.677 31.7349Z" fill="#4285F4"/>
<path fill-rule="evenodd" clip-rule="evenodd" d="M130.75 23.6777C133.817 23.6777 134.723 22.6148 134.723 20.0778C134.723 17.5406 133.817 16.4777 130.75 16.4777H128.31V23.6777H130.75ZM140.997 36.3635H135.386L134.305 31.7691C133.608 28.5807 132.981 27.7235 130.541 27.6891H128.31V36.3635H122.733V12.3635H132.737C137.93 12.3635 140.3 14.6263 140.3 19.5634C140.3 22.8893 138.976 24.912 136.292 25.7349C138.209 26.6263 139.15 28.4092 139.917 31.7691L140.997 36.3635Z" fill="#4285F4"/>
<path fill-rule="evenodd" clip-rule="evenodd" d="M150.082 23.9865L158.74 12.3635H165.225L156.126 23.9865L165.836 36.3635H159.351L150.082 23.9865ZM144.65 36.3635H150.082V12.3635H144.65V36.3635Z" fill="#4285F4"/>
<path fill-rule="evenodd" clip-rule="evenodd" d="M201.633 12.3635L194.343 36.3635H190.936L185.179 17.1635L179.421 36.3635H175.981L168.758 12.3635H172.097L177.786 32.6263L183.816 12.3635H186.541L192.572 32.6263L198.295 12.3635H201.633Z" fill="#4285F4"/>
<path fill-rule="evenodd" clip-rule="evenodd" d="M216.077 27.8264L211.513 15.792L206.914 27.8264H216.077ZM216.941 30.1236H206.05L203.664 36.3635H200.172L209.819 12.3635H213.173L222.819 36.3635H219.327L216.941 30.1236Z" fill="#4285F4"/>
<path fill-rule="evenodd" clip-rule="evenodd" d="M233.306 24.1234C237.141 24.1234 238.57 22.6493 238.57 19.4264C238.57 16.272 237.141 14.7636 233.306 14.7636H228.949V24.1234H233.306ZM242.544 36.3635H239.302L238.431 32.2492C237.559 27.9635 236.479 26.5235 233.202 26.4549H228.949V36.3635H225.742V12.3635H234.387C239.512 12.3635 241.778 14.592 241.778 19.1521C241.778 22.5806 240.348 24.672 237.35 25.3578C239.721 26.2492 240.801 28.2721 241.638 32.2492L242.544 36.3635Z" fill="#4285F4"/>
<path d="M250.845 14.9006V22.2034H261.58V24.5692H250.845V29.7121C250.845 32.5579 252.091 33.8263 254.931 33.8263H263V36.3635H254.446C249.39 36.3635 247.658 34.7178 247.658 29.9864V12.3635H263V14.9006H250.845Z" fill="#4285F4"/>
<path fill-rule="evenodd" clip-rule="evenodd" d="M23.3435 27.078L19.2121 31.3194C19.2094 31.3218 19.2069 31.3246 19.2038 31.3265C19.1937 31.3332 19.1815 31.337 19.1686 31.337C19.1327 31.337 19.1036 31.3071 19.1036 31.2702C19.1036 31.2628 19.1047 31.2554 19.107 31.2487C19.107 31.2486 19.107 31.2489 19.107 31.2487L20.6786 25.2298C20.8127 24.7983 20.7131 24.3071 20.3796 23.9649L16.2481 19.7233C16.2457 19.7206 16.2433 19.718 16.2412 19.7148C16.2348 19.7046 16.2309 19.6921 16.2309 19.6788C16.2309 19.6418 16.2601 19.6119 16.2961 19.6119C16.3034 19.6119 16.3104 19.6132 16.317 19.6154L22.18 21.229C22.6001 21.3666 23.0786 21.2644 23.412 20.922L27.5436 16.6807C27.5462 16.6782 27.5487 16.6754 27.5519 16.6735C27.562 16.6668 27.574 16.663 27.5871 16.663C27.6229 16.663 27.6521 16.6929 27.6521 16.7298C27.6521 16.7374 27.6508 16.7446 27.6486 16.7513L26.077 22.7702C25.943 23.2015 26.0426 23.6929 26.376 24.0351L30.5074 28.2767C30.5099 28.2794 30.5124 28.282 30.5143 28.285C30.5208 28.2954 30.5247 28.3079 30.5247 28.3212C30.5247 28.358 30.4954 28.3879 30.4596 28.3879C30.4523 28.3879 30.4452 28.3868 30.4387 28.3846C30.4385 28.3846 30.4389 28.3846 30.4387 28.3846L24.5757 26.771C24.1555 26.6334 23.6769 26.7358 23.3435 27.078ZM46.5773 23.558L36.7089 13.4271C36.3756 13.0849 35.8971 12.9825 35.4769 13.1201L28.9876 14.9066C28.9868 14.9065 28.9866 14.9055 28.9854 14.906C28.9793 14.9079 28.9728 14.909 28.9659 14.909C28.9301 14.909 28.9009 14.8791 28.9009 14.8422C28.9009 14.8185 28.9128 14.7978 28.9308 14.786C29.6392 14.3023 30.7127 13.4271 33.2803 10.7911C33.518 10.5471 33.518 10.1513 33.2803 9.90712L23.8083 0.18312C23.5706 -0.06104 23.185 -0.06104 22.9474 0.18312L13.079 10.314C12.7456 10.6562 12.646 11.1476 12.7801 11.579L14.5202 18.2409C14.52 18.2417 14.5192 18.2418 14.5195 18.2433C14.5216 18.2495 14.5225 18.2562 14.5225 18.2631C14.5225 18.3001 14.4934 18.33 14.4574 18.33C14.4344 18.33 14.4142 18.3177 14.4026 18.2991C13.9315 17.5719 13.079 16.47 10.5115 13.834C10.2737 13.5898 9.88809 13.5898 9.65042 13.834L0.178372 23.558C-0.0594574 23.8022 -0.0594574 24.198 0.178372 24.442L10.0466 34.5729C10.38 34.9151 10.8586 35.0175 11.2788 34.8799L17.7681 33.0934C17.7689 33.0935 17.7689 33.0945 17.7703 33.094C17.7764 33.0921 17.7829 33.091 17.7896 33.091C17.8256 33.091 17.8548 33.1209 17.8548 33.1578C17.8548 33.1814 17.8429 33.2022 17.8248 33.2142C17.8247 33.2142 17.8248 33.214 17.8248 33.2142C17.1163 33.6977 16.043 34.5729 13.4753 37.2089C13.2375 37.453 13.2375 37.8487 13.4753 38.0929L22.9474 47.8169C23.185 48.061 23.5706 48.061 23.8083 47.8169L33.6765 37.686C34.0099 37.3438 34.1096 36.8524 33.9756 36.421L32.2355 29.7591C32.2355 29.7582 32.2364 29.7582 32.236 29.7569C32.2341 29.7505 32.2332 29.7439 32.2332 29.7369C32.2332 29.6999 32.2623 29.67 32.2982 29.67C32.3212 29.67 32.3415 29.6823 32.353 29.7009C32.824 30.4281 33.6765 31.5302 36.2442 34.166C36.482 34.4102 36.8674 34.4102 37.1053 34.166L46.5773 24.442C46.815 24.198 46.815 23.8022 46.5773 23.558Z" fill="#4285F4"/>
</g>
<defs>
<clipPath id="clip0_412_467">
<rect width="263" height="48" fill="white"/>
</clipPath>
</defs>
</svg>
