<svg width="550" height="40" viewBox="0 0 550 40" fill="none" xmlns="http://www.w3.org/2000/svg">
<g clip-path="url(#clip0_412_608)">
<path fill-rule="evenodd" clip-rule="evenodd" d="M13.421 11.6269C13.6216 10.6474 14.4933 9.90173 15.5214 9.90173H24.0216C25.1581 9.90173 25.6642 9.39061 26.3397 8.39874L30.0856 1.54825C30.4385 0.903202 31.1289 0.5 31.8808 0.5H63.1617C63.9673 0.5 64.6374 1.10386 64.702 1.8832C65.9602 17.0712 67.5553 27.3661 77.6551 36.6847C78.7147 37.6624 78.0371 39.5 76.5748 39.5H2.53069C1.0664 39.5 0.387523 37.6575 1.4486 36.6784C8.67841 30.0067 11.575 22.7078 13.1051 13.2612C13.1817 12.7881 13.2755 12.3332 13.3697 11.8766C13.3868 11.7934 13.404 11.7103 13.421 11.6269ZM106.584 39.2855C105.742 39.2855 105.059 38.6223 105.059 37.8045V11.32C105.059 10.5021 104.377 9.83901 103.535 9.83901H89.4097C88.5678 9.83901 87.8853 9.17594 87.8853 8.35801V2.19579C87.8853 1.37785 88.5678 0.714774 89.4097 0.714774H134.494C135.62 0.714774 136.357 1.86044 135.864 2.84418L132.776 9.00639C132.52 9.51578 131.988 9.83901 131.405 9.83901H119.196C118.354 9.83901 117.671 10.5021 117.671 11.32V37.8045C117.671 38.6223 116.989 39.2855 116.147 39.2855H106.584ZM161.267 23.5254C162.41 23.5254 163.147 22.3479 162.62 21.362L157.43 11.6478C156.855 10.5725 155.267 10.5858 154.712 11.6705L149.738 21.3847C149.234 22.3693 149.971 23.5254 151.102 23.5254H161.267ZM173.076 39.2855C172.506 39.2855 171.984 38.9767 171.722 38.4853L168.818 33.035C168.556 32.5436 168.034 32.2348 167.464 32.2348H145.195C144.584 32.2348 144.032 32.5897 143.792 33.1362L141.494 38.3841C141.255 38.9306 140.702 39.2855 140.091 39.2855H130.836C129.706 39.2855 128.968 38.1313 129.471 37.1468L147.631 1.53827C147.888 1.03389 148.418 0.714774 148.997 0.714774H163.348C163.909 0.714774 164.425 1.01413 164.69 1.4941L184.41 37.1027C184.957 38.0894 184.221 39.2855 183.068 39.2855H173.076ZM188.325 37.8045C188.325 38.6223 189.007 39.2855 189.849 39.2855H222.833C233.853 39.2855 239.363 35.5873 239.363 28.1912V27.4653C239.363 25.8756 239.059 24.4585 238.451 23.2143C237.843 21.9701 237.038 21.0024 236.036 20.3111C235.034 19.5854 234.122 19.0324 233.299 18.6522C233.084 18.5529 232.868 18.4594 232.65 18.3719C232.147 18.1692 232.119 17.2917 232.601 17.0451C233.209 16.734 233.889 16.302 234.641 15.749C235.392 15.1615 235.982 14.4011 236.412 13.468C236.877 12.5003 237.109 11.4288 237.109 10.2538V9.52796C237.109 6.93585 236 4.82759 233.782 3.20321C231.563 1.54425 227.807 0.714774 222.511 0.714774H189.849C189.007 0.714774 188.325 1.37785 188.325 2.19579V37.8045ZM202.354 8.85402H220.365C223.263 8.85402 224.712 9.87358 224.712 11.9127V12.0164C224.712 14.0901 223.263 15.1269 220.365 15.1269H202.354C201.512 15.1269 200.829 14.4639 200.829 13.6459V10.335C200.829 9.51709 201.512 8.85402 202.354 8.85402ZM202.354 23.318H221.438C224.73 23.318 226.376 24.5104 226.376 26.8952V27.1024C226.376 28.1047 226.018 28.9861 225.302 29.7463C224.587 30.5068 223.299 30.8871 221.438 30.8871H202.354C201.512 30.8871 200.829 30.2238 200.829 29.4061V24.799C200.829 23.9811 201.512 23.318 202.354 23.318ZM244.372 2.19579C244.372 1.37785 245.055 0.714774 245.896 0.714774H255.353C256.194 0.714774 256.877 1.37785 256.877 2.19579V28.2136C256.877 29.0314 257.559 29.6947 258.4 29.6947H281.574C282.417 29.6947 283.1 30.3577 283.1 31.1757V37.8045C283.1 38.6223 282.417 39.2855 281.574 39.2855H245.896C245.055 39.2855 244.372 38.6223 244.372 37.8045V2.19579ZM290.761 0.714774C289.917 0.714774 289.235 1.37785 289.235 2.19579V37.8045C289.235 38.6223 289.917 39.2855 290.761 39.2855H330.324C331.165 39.2855 331.847 38.6223 331.847 37.8045V31.7977C331.847 30.9797 331.165 30.3167 330.324 30.3167H303.104C302.261 30.3167 301.578 29.6537 301.578 28.8357V25.4729C301.578 24.655 302.261 23.9919 303.104 23.9919H329.09C329.931 23.9919 330.614 23.3289 330.614 22.5109V16.6598C330.614 15.8418 329.931 15.1788 329.09 15.1788H303.104C302.261 15.1788 301.578 14.5157 301.578 13.6977V10.9571C301.578 10.1392 302.261 9.47612 303.104 9.47612H329.787C330.628 9.47612 331.311 8.81304 331.311 7.99509V2.19579C331.311 1.37785 330.628 0.714774 329.787 0.714774H290.761ZM337.541 2.19579C337.541 1.37785 338.224 0.714774 339.067 0.714774H348.522C349.365 0.714774 350.048 1.37785 350.048 2.19579V28.2136C350.048 29.0314 350.73 29.6947 351.571 29.6947H374.321C375.452 29.6947 376.188 30.8491 375.686 31.8336L372.302 38.4624C372.044 38.9664 371.515 39.2855 370.937 39.2855H339.067C338.224 39.2855 337.541 38.6223 337.541 37.8045V2.19579ZM412.497 21.362C413.026 22.3479 412.287 23.5254 411.144 23.5254H400.979C399.848 23.5254 399.112 22.3693 399.614 21.3847L404.589 11.6705C405.145 10.5858 406.732 10.5725 407.307 11.6478L412.497 21.362ZM421.601 38.4853C421.862 38.9767 422.383 39.2855 422.954 39.2855H432.945C434.098 39.2855 434.834 38.0894 434.288 37.1027L414.569 1.4941C414.303 1.01413 413.786 0.714774 413.225 0.714774H398.864C398.291 0.714774 397.764 1.0278 397.506 1.52474L378.876 37.1334C378.359 38.1187 379.096 39.2855 380.234 39.2855H389.523C390.103 39.2855 390.632 38.9664 390.888 38.4619L393.645 33.0584C393.901 32.5541 394.432 32.2348 395.01 32.2348H417.342C417.91 32.2348 418.434 32.5436 418.695 33.035L421.601 38.4853ZM437.693 2.19579C437.693 1.37785 438.376 0.714774 439.219 0.714774H451.026C451.424 0.714774 451.809 0.866662 452.091 1.13785L474.551 22.5107C475.513 23.429 477.142 22.7649 477.142 21.4528V2.19579C477.142 1.37785 477.824 0.714774 478.665 0.714774H487.959C488.803 0.714774 489.485 1.37785 489.485 2.19579V37.8045C489.485 38.6223 488.803 39.2855 487.959 39.2855H477.758C477.363 39.2855 476.981 39.1353 476.698 38.867L452.625 16.1661C451.658 15.2544 450.039 15.9199 450.039 17.2288V37.8045C450.039 38.6223 449.357 39.2855 448.513 39.2855H439.219C438.376 39.2855 437.693 38.6223 437.693 37.8045V2.19579ZM495.608 37.8045C495.608 38.6223 496.291 39.2855 497.132 39.2855H521.104C525.577 39.2855 529.531 38.8879 532.965 38.0931C536.4 37.2982 539.117 36.2959 541.121 35.0862C543.125 33.8764 544.753 32.4076 546.006 30.6797C547.295 28.9515 548.153 27.2925 548.582 25.7028C549.011 24.0784 549.226 22.3503 549.226 20.5185V18.9633C549.226 17.408 549.048 15.9564 548.69 14.6085C548.368 13.226 547.832 11.8263 547.078 10.4093C546.328 8.99225 545.238 7.73077 543.805 6.62478C542.374 5.48427 540.658 4.46469 538.654 3.56611C536.651 2.63294 534.145 1.92443 531.14 1.44057C528.134 0.956705 524.77 0.714774 521.051 0.714774H497.132C496.291 0.714774 495.608 1.37785 495.608 2.19579V37.8045ZM508.112 11.32C508.112 10.5021 508.795 9.83901 509.638 9.83901H521.099C531.798 9.83901 537.148 13.1396 537.148 19.7409V20.0519C537.148 26.6878 531.798 30.0057 521.099 30.0057H509.638C508.795 30.0057 508.112 29.3427 508.112 28.5247V11.32Z" fill="white"/>
</g>
<defs>
<clipPath id="clip0_412_608">
<rect width="548.854" height="39" fill="white" transform="translate(0.932129 0.5)"/>
</clipPath>
</defs>
</svg>
